  0
SECTION
  2
HEADER
  9
$ANGBASE
  50
0.0
  9
$ANGDIR
  70
1
  9
$MEASUREMENT
  70
1
  0
ENDSEC
  0
SECTION
  2
TABLES
  0
TABLE
  2
LTYPE
  70
4
  0
LTYPE
  5
40F
  2
CONTINUOUS
  70
0
  3
Solid line
  72
65
  73
0
  40
0.0
  0
LTYPE
  5
410
  2
DASHDOT
 70
0
  3
Dash Dot ____ _ ____ _
 72
65
 73
4
 40
2.0
 49
1.25
 49
-0.25
 49
0.25
 49
-0.25
  0
LTYPE
  5
411
  2
DASHED
 70
0
  3
Dashed __ __ __ __ __
 72
65
 73
2
 40
0.75
 49
0.5
 49
-0.25
  0
LTYPE
  5
43B
  2
DOTTED
 70
0
  3
Dotted .  .  .  .
 72
65
 73
2
 40
0.2
 49
0.0
 49
-0.2
  0
ENDTAB
  0
TABLE
  2
STYLE
  70
4
  0
STYLE
  2
KICAD
  70
0
  40
0
  41
1
  42
1
  50
0
  71
0
  3
isocp.shx
  0
STYLE
  2
KICADB
  70
0
  40
0
  41
1
  42
1
  50
0
  71
0
  3
isocp.shx
  0
STYLE
  2
KICADI
  70
0
  40
0
  41
1
  42
1
  50
15
  71
0
  3
isocp.shx
  0
STYLE
  2
KICADBI
  70
0
  40
0
  41
1
  42
1
  50
15
  71
0
  3
isocp.shx
  0
ENDTAB
  0
TABLE
  2
LAYER
  70
1
  0
LAYER
  2
BLACK
  70
0
  62
7
  6
CONTINUOUS
  0
ENDTAB
  0
ENDSEC
  0
SECTION
  2
ENTITIES
0
LINE
8
BLACK
6
CONTINUOUS
10
117.098797999999988
20
-151.7818189999999845
11
114.8787979999999891
21
-151.7793179999999893
0
LINE
8
BLACK
6
CONTINUOUS
10
126.3987979999999993
20
-151.7818189999999845
11
128.8287980000000061
21
-151.7793179999999893
0
LINE
8
BLACK
6
CONTINUOUS
10
198.9287980000000005
20
-137.901818999999989
11
197.0507709999999975
21
-138.9862279999999828
0
LINE
8
BLACK
6
CONTINUOUS
10
207.1687979999999811
20
-133.1418189999999981
11
209.1318249999999921
21
-132.0112279999999885
0
LINE
8
BLACK
6
CONTINUOUS
10
198.9387979999999914
20
-115.1018189999999919
11
197.0607709999999884
21
-114.0159089999999935
0
LINE
8
BLACK
6
CONTINUOUS
10
207.1887979999999914
20
-119.8718189999999879
11
209.141824999999983
21
-120.9909089999999878
0
LINE
8
BLACK
6
CONTINUOUS
10
114.8887979999999942
20
-101.2228190000000012
11
117.1107529999999883
21
-101.2218189999999964
0
LINE
8
BLACK
6
CONTINUOUS
10
126.4107529999999997
20
-101.2218189999999964
11
128.838797999999997
21
-101.2228190000000012
0
LINE
8
BLACK
6
CONTINUOUS
10
112.3787979999999891
20
-206.2293179999999779
11
112.3787979999999891
21
-154.2793179999999893
0
LINE
8
BLACK
6
CONTINUOUS
10
113.569950999999989
20
-152.1495180000000005
11
113.3697039999999987
21
-152.2915219999999863
0
LINE
8
BLACK
6
CONTINUOUS
10
113.3697039999999987
20
-152.2915219999999863
11
113.1810709999999887
21
-152.4536589999999876
0
LINE
8
BLACK
6
CONTINUOUS
10
113.1810709999999887
20
-152.4536589999999876
11
113.006851999999995
21
-152.63288399999999
0
LINE
8
BLACK
6
CONTINUOUS
10
113.006851999999995
20
-152.63288399999999
11
112.849851000000001
21
-152.826153000000005
0
LINE
8
BLACK
6
CONTINUOUS
10
112.849851000000001
20
-152.826153000000005
11
112.7128719999999902
21
-153.0304229999999848
0
LINE
8
BLACK
6
CONTINUOUS
10
112.7128719999999902
20
-153.0304229999999848
11
112.598715999999996
21
-153.2426499999999976
0
LINE
8
BLACK
6
CONTINUOUS
10
112.598715999999996
20
-153.2426499999999976
11
112.5600729999999885
21
-153.329086999999987
0
LINE
8
BLACK
6
CONTINUOUS
10
158.9449510000000032
20
-145.9370179999999948
11
158.7447039999999845
21
-146.0790219999999806
0
LINE
8
BLACK
6
CONTINUOUS
10
158.7447039999999845
20
-146.0790219999999806
11
158.5560710000000029
21
-146.2411589999999819
0
LINE
8
BLACK
6
CONTINUOUS
10
158.5560710000000029
20
-146.2411589999999819
11
158.3818519999999808
21
-146.4203839999999843
0
LINE
8
BLACK
6
CONTINUOUS
10
158.3818519999999808
20
-146.4203839999999843
11
158.224851000000001
21
-146.6136529999999993
0
LINE
8
BLACK
6
CONTINUOUS
10
158.224851000000001
20
-146.6136529999999993
11
158.0878720000000044
21
-146.8179230000000075
0
LINE
8
BLACK
6
CONTINUOUS
10
158.0878720000000044
20
-146.8179230000000075
11
157.973715999999996
21
-147.0301499999999919
0
LINE
8
BLACK
6
CONTINUOUS
10
157.973715999999996
20
-147.0301499999999919
11
157.9350729999999885
21
-147.1165869999999813
0
LINE
8
BLACK
6
CONTINUOUS
10
131.1475230000000067
20
-153.329086999999987
11
131.2248069999999984
21
-153.5392729999999801
0
LINE
8
BLACK
6
CONTINUOUS
10
131.2248069999999984
20
-153.5392729999999801
11
131.2757330000000024
21
-153.7332299999999918
0
LINE
8
BLACK
6
CONTINUOUS
10
131.2757330000000024
20
-153.7332299999999918
11
131.3101289999999892
21
-153.9425090000000012
0
LINE
8
BLACK
6
CONTINUOUS
10
131.3101289999999892
20
-153.9425090000000012
11
131.3270899999999983
21
-154.172789999999992
0
LINE
8
BLACK
6
CONTINUOUS
10
131.3270899999999983
20
-154.172789999999992
11
131.3287980000000061
21
-154.2793179999999893
0
LINE
8
BLACK
6
CONTINUOUS
10
130.137644999999992
20
-152.1495180000000005
11
130.3378909999999848
21
-152.2915219999999863
0
LINE
8
BLACK
6
CONTINUOUS
10
130.3378909999999848
20
-152.2915219999999863
11
130.5265239999999949
21
-152.4536589999999876
0
LINE
8
BLACK
6
CONTINUOUS
10
130.5265239999999949
20
-152.4536589999999876
11
130.7007429999999886
21
-152.63288399999999
0
LINE
8
BLACK
6
CONTINUOUS
10
130.7007429999999886
20
-152.63288399999999
11
130.8577439999999967
21
-152.826153000000005
0
LINE
8
BLACK
6
CONTINUOUS
10
130.8577439999999967
20
-152.826153000000005
11
130.9947229999999934
21
-153.0304229999999848
0
LINE
8
BLACK
6
CONTINUOUS
10
130.9947229999999934
20
-153.0304229999999848
11
131.1088790000000017
21
-153.2426499999999976
0
LINE
8
BLACK
6
CONTINUOUS
10
131.1088790000000017
20
-153.2426499999999976
11
131.1475230000000067
21
-153.329086999999987
0
LINE
8
BLACK
6
CONTINUOUS
10
153.2537989999999866
20
-163.7543179999999836
11
135.8287969999999802
21
-163.7543179999999836
0
LINE
8
BLACK
6
CONTINUOUS
10
114.8787979999999891
20
-151.7793179999999893
11
114.6769290000000012
21
-151.7853580000000022
0
LINE
8
BLACK
6
CONTINUOUS
10
114.6769290000000012
20
-151.7853580000000022
11
114.4461620000000011
21
-151.8096659999999929
0
LINE
8
BLACK
6
CONTINUOUS
10
114.4461620000000011
20
-151.8096659999999929
11
114.2351699999999965
21
-151.8521929999999998
0
LINE
8
BLACK
6
CONTINUOUS
10
114.2351699999999965
20
-151.8521929999999998
11
114.0394639999999953
21
-151.9125099999999975
0
LINE
8
BLACK
6
CONTINUOUS
10
114.0394639999999953
20
-151.9125099999999975
11
113.8545539999999932
21
-151.9901889999999867
0
LINE
8
BLACK
6
CONTINUOUS
10
113.8545539999999932
20
-151.9901889999999867
11
113.6759519999999952
21
-152.0848009999999988
0
LINE
8
BLACK
6
CONTINUOUS
10
113.6759519999999952
20
-152.0848009999999988
11
113.569950999999989
21
-152.1495180000000005
0
LINE
8
BLACK
6
CONTINUOUS
10
157.7537979999999891
20
-159.254320000000007
11
157.7537979999999891
21
-148.0668179999999836
0
LINE
8
BLACK
6
CONTINUOUS
10
112.7489980000000003
20
-207.5381649999999922
11
112.8910020000000003
21
-207.7384109999999851
0
LINE
8
BLACK
6
CONTINUOUS
10
112.8910020000000003
20
-207.7384109999999851
11
113.0531390000000016
21
-207.9270439999999951
0
LINE
8
BLACK
6
CONTINUOUS
10
113.0531390000000016
20
-207.9270439999999951
11
113.2323639999999898
21
-208.1012629999999888
0
LINE
8
BLACK
6
CONTINUOUS
10
113.2323639999999898
20
-208.1012629999999888
11
113.4256329999999906
21
-208.2582639999999969
0
LINE
8
BLACK
6
CONTINUOUS
10
113.4256329999999906
20
-208.2582639999999969
11
113.6299029999999988
21
-208.3952429999999936
0
LINE
8
BLACK
6
CONTINUOUS
10
113.6299029999999988
20
-208.3952429999999936
11
113.8421299999999974
21
-208.5093990000000019
0
LINE
8
BLACK
6
CONTINUOUS
10
113.8421299999999974
20
-208.5093990000000019
11
113.928567000000001
21
-208.5480429999999785
0
LINE
8
BLACK
6
CONTINUOUS
10
160.2537979999999891
20
-145.5668179999999836
11
160.0519290000000012
21
-145.5728579999999965
0
LINE
8
BLACK
6
CONTINUOUS
10
160.0519290000000012
20
-145.5728579999999965
11
159.8211619999999868
21
-145.5971659999999872
0
LINE
8
BLACK
6
CONTINUOUS
10
159.8211619999999868
20
-145.5971659999999872
11
159.6101699999999823
21
-145.6396929999999941
0
LINE
8
BLACK
6
CONTINUOUS
10
159.6101699999999823
20
-145.6396929999999941
11
159.4144639999999811
21
-145.7000099999999918
0
LINE
8
BLACK
6
CONTINUOUS
10
159.4144639999999811
20
-145.7000099999999918
11
159.2295539999999789
21
-145.777688999999981
0
LINE
8
BLACK
6
CONTINUOUS
10
159.2295539999999789
20
-145.777688999999981
11
159.0509519999999952
21
-145.8723009999999931
0
LINE
8
BLACK
6
CONTINUOUS
10
159.0509519999999952
20
-145.8723009999999931
11
158.9449510000000032
21
-145.9370179999999948
0
LINE
8
BLACK
6
CONTINUOUS
10
176.1085980000000006
20
-145.3728549999999871
11
175.8847799999999779
21
-145.4137829999999951
0
LINE
8
BLACK
6
CONTINUOUS
10
175.8847799999999779
20
-145.4137829999999951
11
175.6558509999999842
21
-145.4510549999999967
0
LINE
8
BLACK
6
CONTINUOUS
10
175.6558509999999842
20
-145.4510549999999967
11
175.4223259999999982
21
-145.4841150000000027
0
LINE
8
BLACK
6
CONTINUOUS
10
175.4223259999999982
20
-145.4841150000000027
11
175.1847209999999961
21
-145.5124079999999935
0
LINE
8
BLACK
6
CONTINUOUS
10
175.1847209999999961
20
-145.5124079999999935
11
174.9435499999999877
21
-145.5353800000000035
0
LINE
8
BLACK
6
CONTINUOUS
10
174.9435499999999877
20
-145.5353800000000035
11
174.6993290000000059
21
-145.5524749999999869
0
LINE
8
BLACK
6
CONTINUOUS
10
174.6993290000000059
20
-145.5524749999999869
11
174.452573000000001
21
-145.5631390000000067
0
LINE
8
BLACK
6
CONTINUOUS
10
174.452573000000001
20
-145.5631390000000067
11
174.2037980000000061
21
-145.5668179999999836
0
LINE
8
BLACK
6
CONTINUOUS
10
128.8287980000000061
20
-151.7793179999999893
11
129.0306659999999965
21
-151.7853580000000022
0
LINE
8
BLACK
6
CONTINUOUS
10
129.0306659999999965
20
-151.7853580000000022
11
129.2614329999999825
21
-151.8096659999999929
0
LINE
8
BLACK
6
CONTINUOUS
10
129.2614329999999825
20
-151.8096659999999929
11
129.472424999999987
21
-151.8521929999999998
0
LINE
8
BLACK
6
CONTINUOUS
10
129.472424999999987
20
-151.8521929999999998
11
129.6681309999999883
21
-151.9125099999999975
0
LINE
8
BLACK
6
CONTINUOUS
10
129.6681309999999883
20
-151.9125099999999975
11
129.8530409999999904
21
-151.9901889999999867
0
LINE
8
BLACK
6
CONTINUOUS
10
129.8530409999999904
20
-151.9901889999999867
11
130.0316430000000025
21
-152.0848009999999988
0
LINE
8
BLACK
6
CONTINUOUS
10
130.0316430000000025
20
-152.0848009999999988
11
130.137644999999992
21
-152.1495180000000005
0
LINE
8
BLACK
6
CONTINUOUS
10
192.413819999999987
20
-141.0469080000000019
11
178.9391549999999995
21
-144.6574329999999975
0
LINE
8
BLACK
6
CONTINUOUS
10
197.0507709999999975
20
-138.9862279999999828
11
196.8419529999999895
21
-139.1061029999999903
0
LINE
8
BLACK
6
CONTINUOUS
10
196.8419529999999895
20
-139.1061029999999903
11
196.632536999999985
21
-139.2247869999999921
0
LINE
8
BLACK
6
CONTINUOUS
10
196.632536999999985
20
-139.2247869999999921
11
196.4222699999999975
21
-139.3421789999999874
0
LINE
8
BLACK
6
CONTINUOUS
10
196.4222699999999975
20
-139.3421789999999874
11
196.2109009999999785
21
-139.4581749999999829
0
LINE
8
BLACK
6
CONTINUOUS
10
196.2109009999999785
20
-139.4581749999999829
11
195.9981769999999983
21
-139.572671999999983
0
LINE
8
BLACK
6
CONTINUOUS
10
195.9981769999999983
20
-139.572671999999983
11
195.7838479999999777
21
-139.6855669999999918
0
LINE
8
BLACK
6
CONTINUOUS
10
195.7838479999999777
20
-139.6855669999999918
11
195.5676619999999843
21
-139.7967589999999802
0
LINE
8
BLACK
6
CONTINUOUS
10
195.5676619999999843
20
-139.7967589999999802
11
195.3493670000000009
21
-139.9061429999999859
0
LINE
8
BLACK
6
CONTINUOUS
10
195.3493670000000009
20
-139.9061429999999859
11
195.1287109999999814
21
-140.0136179999999797
0
LINE
8
BLACK
6
CONTINUOUS
10
195.1287109999999814
20
-140.0136179999999797
11
194.9054429999999911
21
-140.1190799999999967
0
LINE
8
BLACK
6
CONTINUOUS
10
194.9054429999999911
20
-140.1190799999999967
11
194.6793109999999842
21
-140.2224269999999819
0
LINE
8
BLACK
6
CONTINUOUS
10
194.6793109999999842
20
-140.2224269999999819
11
194.4500639999999976
21
-140.3235559999999964
0
LINE
8
BLACK
6
CONTINUOUS
10
194.4500639999999976
20
-140.3235559999999964
11
194.2174499999999853
21
-140.4223639999999875
0
LINE
8
BLACK
6
CONTINUOUS
10
194.2174499999999853
20
-140.4223639999999875
11
193.9812169999999867
21
-140.5187489999999855
0
LINE
8
BLACK
6
CONTINUOUS
10
193.9812169999999867
20
-140.5187489999999855
11
193.7411139999999818
21
-140.612606999999997
0
LINE
8
BLACK
6
CONTINUOUS
10
193.7411139999999818
20
-140.612606999999997
11
193.4968889999999817
21
-140.7038359999999955
0
LINE
8
BLACK
6
CONTINUOUS
10
112.3787979999999891
20
-206.2293179999999779
11
112.384838000000002
21
-206.4311849999999993
0
LINE
8
BLACK
6
CONTINUOUS
10
112.384838000000002
20
-206.4311849999999993
11
112.4091459999999927
21
-206.6619519999999852
0
LINE
8
BLACK
6
CONTINUOUS
10
112.4091459999999927
20
-206.6619519999999852
11
112.4516729999999995
21
-206.8729439999999897
0
LINE
8
BLACK
6
CONTINUOUS
10
112.4516729999999995
20
-206.8729439999999897
11
112.5119899999999973
21
-207.0686509999999885
0
LINE
8
BLACK
6
CONTINUOUS
10
112.5119899999999973
20
-207.0686509999999885
11
112.5896690000000007
21
-207.2535599999999931
0
LINE
8
BLACK
6
CONTINUOUS
10
112.5896690000000007
20
-207.2535599999999931
11
112.6842809999999986
21
-207.4321630000000027
0
LINE
8
BLACK
6
CONTINUOUS
10
112.6842809999999986
20
-207.4321630000000027
11
112.7489980000000003
21
-207.5381649999999922
0
LINE
8
BLACK
6
CONTINUOUS
10
210.0453869999999768
20
-131.6931009999999844
11
209.8247169999999926
21
-131.7312639999999817
0
LINE
8
BLACK
6
CONTINUOUS
10
209.8247169999999926
20
-131.7312639999999817
11
209.6312819999999988
21
-131.7841379999999845
0
LINE
8
BLACK
6
CONTINUOUS
10
209.6312819999999988
20
-131.7841379999999845
11
209.4328429999999912
21
-131.8589910000000032
0
LINE
8
BLACK
6
CONTINUOUS
10
209.4328429999999912
20
-131.8589910000000032
11
209.2249339999999904
21
-131.9594429999999932
0
LINE
8
BLACK
6
CONTINUOUS
10
209.2249339999999904
20
-131.9594429999999932
11
209.1318249999999921
21
-132.0112279999999885
0
LINE
8
BLACK
6
CONTINUOUS
10
212.5468879999999956
20
-132.926290999999992
11
212.4407229999999913
21
-132.7544879999999807
0
LINE
8
BLACK
6
CONTINUOUS
10
212.4407229999999913
20
-132.7544879999999807
11
212.3042879999999855
21
-132.5667919999999924
0
LINE
8
BLACK
6
CONTINUOUS
10
212.3042879999999855
20
-132.5667919999999924
11
212.1619629999999859
21
-132.4053309999999897
0
LINE
8
BLACK
6
CONTINUOUS
10
212.1619629999999859
20
-132.4053309999999897
11
212.01187299999998
21
-132.2660029999999836
0
LINE
8
BLACK
6
CONTINUOUS
10
212.01187299999998
20
-132.2660029999999836
11
211.8521470000000022
21
-132.1447059999999851
0
LINE
8
BLACK
6
CONTINUOUS
10
211.8521470000000022
20
-132.1447059999999851
11
211.6809089999999856
21
-132.0373380000000054
0
LINE
8
BLACK
6
CONTINUOUS
10
211.6809089999999856
20
-132.0373380000000054
11
211.5718619999999817
21
-131.9778969999999845
0
LINE
8
BLACK
6
CONTINUOUS
10
212.5468879999999956
20
-132.926290999999992
11
219.5218879999999899
21
-145.0073449999999866
0
LINE
8
BLACK
6
CONTINUOUS
10
220.7978809999999896
20
-147.2141619999999875
11
220.6780379999999866
21
-147.0069829999999911
0
LINE
8
BLACK
6
CONTINUOUS
10
220.6780379999999866
20
-147.0069829999999911
11
220.5582089999999766
21
-146.7998440000000073
0
LINE
8
BLACK
6
CONTINUOUS
10
220.5582089999999766
20
-146.7998440000000073
11
220.4384039999999914
21
-146.5927519999999902
0
LINE
8
BLACK
6
CONTINUOUS
10
220.4384039999999914
20
-146.5927519999999902
11
220.3186350000000004
21
-146.3857140000000072
0
LINE
8
BLACK
6
CONTINUOUS
10
220.3186350000000004
20
-146.3857140000000072
11
220.1989119999999787
21
-146.1787369999999839
0
LINE
8
BLACK
6
CONTINUOUS
10
220.1989119999999787
20
-146.1787369999999839
11
220.0792459999999835
21
-145.9718279999999879
0
LINE
8
BLACK
6
CONTINUOUS
10
220.0792459999999835
20
-145.9718279999999879
11
219.9596489999999847
21
-145.764993000000004
0
LINE
8
BLACK
6
CONTINUOUS
10
219.9596489999999847
20
-145.764993000000004
11
219.8401309999999853
21
-145.5582389999999862
0
LINE
8
BLACK
6
CONTINUOUS
10
219.8401309999999853
20
-145.5582389999999862
11
219.7207029999999861
21
-145.3515730000000019
0
LINE
8
BLACK
6
CONTINUOUS
10
219.7207029999999861
20
-145.3515730000000019
11
219.6013769999999852
21
-145.1450020000000052
0
LINE
8
BLACK
6
CONTINUOUS
10
219.6013769999999852
20
-145.1450020000000052
11
219.5218879999999899
21
-145.0073449999999866
0
LINE
8
BLACK
6
CONTINUOUS
10
207.1475229999999783
20
-225.2795490000000029
11
207.2248069999999984
21
-225.0693619999999839
0
LINE
8
BLACK
6
CONTINUOUS
10
207.2248069999999984
20
-225.0693619999999839
11
207.2757330000000024
21
-224.8754050000000007
0
LINE
8
BLACK
6
CONTINUOUS
10
207.2757330000000024
20
-224.8754050000000007
11
207.3101289999999892
21
-224.6661259999999913
0
LINE
8
BLACK
6
CONTINUOUS
10
207.3101289999999892
20
-224.6661259999999913
11
207.3270899999999983
21
-224.4358450000000005
0
LINE
8
BLACK
6
CONTINUOUS
10
207.3270899999999983
20
-224.4358450000000005
11
207.3287979999999777
21
-224.3293180000000007
0
LINE
8
BLACK
6
CONTINUOUS
10
225.8654609999999821
20
-156.7173429999999996
11
225.7361499999999808
21
-156.4205159999999921
0
LINE
8
BLACK
6
CONTINUOUS
10
225.7361499999999808
20
-156.4205159999999921
11
225.6039649999999881
21
-156.1236739999999941
0
LINE
8
BLACK
6
CONTINUOUS
10
225.6039649999999881
20
-156.1236739999999941
11
225.4690049999999815
21
-155.8268180000000029
0
LINE
8
BLACK
6
CONTINUOUS
10
225.4690049999999815
20
-155.8268180000000029
11
225.3313699999999926
21
-155.5299469999999928
0
LINE
8
BLACK
6
CONTINUOUS
10
225.3313699999999926
20
-155.5299469999999928
11
225.1911609999999939
21
-155.2330629999999871
0
LINE
8
BLACK
6
CONTINUOUS
10
225.1911609999999939
20
-155.2330629999999871
11
225.0484769999999912
21
-154.9361659999999858
0
LINE
8
BLACK
6
CONTINUOUS
10
225.0484769999999912
20
-154.9361659999999858
11
224.9034179999999878
21
-154.6392569999999864
0
LINE
8
BLACK
6
CONTINUOUS
10
224.9034179999999878
20
-154.6392569999999864
11
224.7560849999999846
21
-154.3423359999999889
0
LINE
8
BLACK
6
CONTINUOUS
10
224.7560849999999846
20
-154.3423359999999889
11
224.6065779999999847
21
-154.0454029999999932
0
LINE
8
BLACK
6
CONTINUOUS
10
224.6065779999999847
20
-154.0454029999999932
11
224.4549959999999942
21
-153.7484599999999944
0
LINE
8
BLACK
6
CONTINUOUS
10
224.4549959999999942
20
-153.7484599999999944
11
224.3014399999999853
21
-153.4515069999999923
0
LINE
8
BLACK
6
CONTINUOUS
10
224.3014399999999853
20
-153.4515069999999923
11
224.1460089999999923
21
-153.1545439999999871
0
LINE
8
BLACK
6
CONTINUOUS
10
224.1460089999999923
20
-153.1545439999999871
11
223.9888049999999851
21
-152.8575720000000047
0
LINE
8
BLACK
6
CONTINUOUS
10
223.9888049999999851
20
-152.8575720000000047
11
223.8299260000000004
21
-152.5605919999999855
0
LINE
8
BLACK
6
CONTINUOUS
10
223.8299260000000004
20
-152.5605919999999855
11
223.6694729999999822
21
-152.2636039999999866
0
LINE
8
BLACK
6
CONTINUOUS
10
223.6694729999999822
20
-152.2636039999999866
11
223.5075459999999907
21
-151.9666090000000054
0
LINE
8
BLACK
6
CONTINUOUS
10
223.5075459999999907
20
-151.9666090000000054
11
223.3442440000000033
21
-151.669606999999985
0
LINE
8
BLACK
6
CONTINUOUS
10
223.3442440000000033
20
-151.669606999999985
11
223.1796689999999899
21
-151.3725989999999797
0
LINE
8
BLACK
6
CONTINUOUS
10
223.1796689999999899
20
-151.3725989999999797
11
223.0139199999999846
21
-151.0755849999999896
0
LINE
8
BLACK
6
CONTINUOUS
10
223.0139199999999846
20
-151.0755849999999896
11
222.8470969999999909
21
-150.7785669999999811
0
LINE
8
BLACK
6
CONTINUOUS
10
222.8470969999999909
20
-150.7785669999999811
11
222.6793009999999811
21
-150.4815439999999853
0
LINE
8
BLACK
6
CONTINUOUS
10
222.6793009999999811
20
-150.4815439999999853
11
222.5106299999999919
21
-150.1845169999999996
0
LINE
8
BLACK
6
CONTINUOUS
10
222.5106299999999919
20
-150.1845169999999996
11
222.3411859999999933
21
-149.8874859999999956
0
LINE
8
BLACK
6
CONTINUOUS
10
222.3411859999999933
20
-149.8874859999999956
11
222.1710679999999911
21
-149.590453999999994
0
LINE
8
BLACK
6
CONTINUOUS
10
222.1710679999999911
20
-149.590453999999994
11
222.0003769999999861
21
-149.2934190000000001
0
LINE
8
BLACK
6
CONTINUOUS
10
222.0003769999999861
20
-149.2934190000000001
11
221.8292119999999841
21
-148.9963819999999828
0
LINE
8
BLACK
6
CONTINUOUS
10
221.8292119999999841
20
-148.9963819999999828
11
221.6576729999999884
21
-148.6993439999999964
0
LINE
8
BLACK
6
CONTINUOUS
10
221.6576729999999884
20
-148.6993439999999964
11
221.4858609999999999
21
-148.4023059999999816
0
LINE
8
BLACK
6
CONTINUOUS
10
221.4858609999999999
20
-148.4023059999999816
11
221.3138759999999934
21
-148.1052689999999927
0
LINE
8
BLACK
6
CONTINUOUS
10
221.3138759999999934
20
-148.1052689999999927
11
221.1418180000000007
21
-147.8082310000000064
0
LINE
8
BLACK
6
CONTINUOUS
10
221.1418180000000007
20
-147.8082310000000064
11
220.9697859999999991
21
-147.511195999999984
0
LINE
8
BLACK
6
CONTINUOUS
10
220.9697859999999991
20
-147.511195999999984
11
220.7978809999999896
21
-147.2141619999999875
0
LINE
8
BLACK
6
CONTINUOUS
10
227.8287979999999777
20
-165.2793179999999893
11
227.8287979999999777
21
-196.2793179999999893
0
LINE
8
BLACK
6
CONTINUOUS
10
210.1212539999999933
20
-199.1122959999999864
11
210.3206729999999993
21
-199.0359709999999893
0
LINE
8
BLACK
6
CONTINUOUS
10
210.3206729999999993
20
-199.0359709999999893
11
210.5260409999999922
21
-198.9691409999999792
0
LINE
8
BLACK
6
CONTINUOUS
10
210.5260409999999922
20
-198.9691409999999792
11
210.7363859999999818
21
-198.9120159999999942
0
LINE
8
BLACK
6
CONTINUOUS
10
210.7363859999999818
20
-198.9120159999999942
11
210.9507380000000012
21
-198.8648049999999898
0
LINE
8
BLACK
6
CONTINUOUS
10
210.9507380000000012
20
-198.8648049999999898
11
211.1681260000000009
21
-198.8277199999999993
0
LINE
8
BLACK
6
CONTINUOUS
10
211.1681260000000009
20
-198.8277199999999993
11
211.3875789999999881
21
-198.8009699999999782
0
LINE
8
BLACK
6
CONTINUOUS
10
211.3875789999999881
20
-198.8009699999999782
11
211.6081259999999986
21
-198.7847659999999905
0
LINE
8
BLACK
6
CONTINUOUS
10
211.6081259999999986
20
-198.7847659999999905
11
211.8287979999999777
21
-198.7793179999999893
0
LINE
8
BLACK
6
CONTINUOUS
10
207.3287979999999777
20
-203.2793179999999893
11
207.3363839999999811
21
-203.0251599999999996
0
LINE
8
BLACK
6
CONTINUOUS
10
207.3363839999999811
20
-203.0251599999999996
11
207.3587489999999889
21
-202.7722770000000025
0
LINE
8
BLACK
6
CONTINUOUS
10
207.3587489999999889
20
-202.7722770000000025
11
207.3952979999999968
21
-202.5216939999999965
0
LINE
8
BLACK
6
CONTINUOUS
10
207.3952979999999968
20
-202.5216939999999965
11
207.4454389999999933
21
-202.2744349999999827
0
LINE
8
BLACK
6
CONTINUOUS
10
207.4454389999999933
20
-202.2744349999999827
11
207.5085789999999974
21
-202.0315219999999954
0
LINE
8
BLACK
6
CONTINUOUS
10
207.5085789999999974
20
-202.0315219999999954
11
207.5841240000000028
21
-201.7939810000000023
0
LINE
8
BLACK
6
CONTINUOUS
10
207.5841240000000028
20
-201.7939810000000023
11
207.6714829999999949
21
-201.5628349999999784
0
LINE
8
BLACK
6
CONTINUOUS
10
207.6714829999999949
20
-201.5628349999999784
11
207.7700609999999983
21
-201.3391079999999818
0
LINE
8
BLACK
6
CONTINUOUS
10
207.7700609999999983
20
-201.3391079999999818
11
207.8792650000000037
21
-201.1238249999999823
0
LINE
8
BLACK
6
CONTINUOUS
10
207.8792650000000037
20
-201.1238249999999823
11
207.9985029999999995
21
-200.9180099999999811
0
LINE
8
BLACK
6
CONTINUOUS
10
207.9985029999999995
20
-200.9180099999999811
11
208.0832769999999812
21
-200.786564999999996
0
LINE
8
BLACK
6
CONTINUOUS
10
207.3287979999999777
20
-203.2793179999999893
11
207.3287979999999777
21
-224.3293180000000007
0
LINE
8
BLACK
6
CONTINUOUS
10
204.8287979999999777
20
-226.8293180000000007
11
205.0306659999999965
21
-226.8232769999999903
0
LINE
8
BLACK
6
CONTINUOUS
10
205.0306659999999965
20
-226.8232769999999903
11
205.2614329999999825
21
-226.7989689999999996
0
LINE
8
BLACK
6
CONTINUOUS
10
205.2614329999999825
20
-226.7989689999999996
11
205.472424999999987
21
-226.7564419999999927
0
LINE
8
BLACK
6
CONTINUOUS
10
205.472424999999987
20
-226.7564419999999927
11
205.6681309999999883
21
-226.696124999999995
0
LINE
8
BLACK
6
CONTINUOUS
10
205.6681309999999883
20
-226.696124999999995
11
205.8530409999999904
21
-226.6184459999999774
0
LINE
8
BLACK
6
CONTINUOUS
10
205.8530409999999904
20
-226.6184459999999774
11
206.0316430000000025
21
-226.5238339999999937
0
LINE
8
BLACK
6
CONTINUOUS
10
206.0316430000000025
20
-226.5238339999999937
11
206.137644999999992
21
-226.4591179999999895
0
LINE
8
BLACK
6
CONTINUOUS
10
204.8287979999999777
20
-226.8293180000000007
11
133.8787979999999891
21
-226.8293180000000007
0
LINE
8
BLACK
6
CONTINUOUS
10
112.5600729999999885
20
-153.329086999999987
11
112.4827879999999993
21
-153.5392729999999801
0
LINE
8
BLACK
6
CONTINUOUS
10
112.4827879999999993
20
-153.5392729999999801
11
112.4318619999999953
21
-153.7332299999999918
0
LINE
8
BLACK
6
CONTINUOUS
10
112.4318619999999953
20
-153.7332299999999918
11
112.3974659999999943
21
-153.9425090000000012
0
LINE
8
BLACK
6
CONTINUOUS
10
112.3974659999999943
20
-153.9425090000000012
11
112.3805049999999994
21
-154.172789999999992
0
LINE
8
BLACK
6
CONTINUOUS
10
112.3805049999999994
20
-154.172789999999992
11
112.3787979999999891
21
-154.2793179999999893
0
LINE
8
BLACK
6
CONTINUOUS
10
132.9285669999999868
20
-226.6480430000000013
11
133.1387529999999799
21
-226.7253269999999929
0
LINE
8
BLACK
6
CONTINUOUS
10
133.1387529999999799
20
-226.7253269999999929
11
133.3327099999999916
21
-226.776252999999997
0
LINE
8
BLACK
6
CONTINUOUS
10
133.3327099999999916
20
-226.776252999999997
11
133.5419890000000009
21
-226.8106489999999837
0
LINE
8
BLACK
6
CONTINUOUS
10
133.5419890000000009
20
-226.8106489999999837
11
133.7722699999999918
21
-226.8276099999999929
0
LINE
8
BLACK
6
CONTINUOUS
10
133.7722699999999918
20
-226.8276099999999929
11
133.8787979999999891
21
-226.8293180000000007
0
LINE
8
BLACK
6
CONTINUOUS
10
131.7489980000000003
20
-225.6381649999999865
11
131.8910019999999861
21
-225.8384109999999794
0
LINE
8
BLACK
6
CONTINUOUS
10
131.8910019999999861
20
-225.8384109999999794
11
132.0531389999999874
21
-226.0270439999999894
0
LINE
8
BLACK
6
CONTINUOUS
10
132.0531389999999874
20
-226.0270439999999894
11
132.2323639999999898
21
-226.2012629999999831
0
LINE
8
BLACK
6
CONTINUOUS
10
132.2323639999999898
20
-226.2012629999999831
11
132.4256330000000048
21
-226.3582639999999913
0
LINE
8
BLACK
6
CONTINUOUS
10
132.4256330000000048
20
-226.3582639999999913
11
132.6299029999999846
21
-226.4952429999999879
0
LINE
8
BLACK
6
CONTINUOUS
10
132.6299029999999846
20
-226.4952429999999879
11
132.8421299999999974
21
-226.6093989999999962
0
LINE
8
BLACK
6
CONTINUOUS
10
132.8421299999999974
20
-226.6093989999999962
11
132.9285669999999868
21
-226.6480430000000013
0
LINE
8
BLACK
6
CONTINUOUS
10
131.3787979999999891
20
-224.3293180000000007
11
131.384838000000002
21
-224.5311859999999911
0
LINE
8
BLACK
6
CONTINUOUS
10
131.384838000000002
20
-224.5311859999999911
11
131.4091459999999927
21
-224.761952999999977
0
LINE
8
BLACK
6
CONTINUOUS
10
131.4091459999999927
20
-224.761952999999977
11
131.4516729999999995
21
-224.9729449999999815
0
LINE
8
BLACK
6
CONTINUOUS
10
131.4516729999999995
20
-224.9729449999999815
11
131.5119899999999973
21
-225.1686509999999828
0
LINE
8
BLACK
6
CONTINUOUS
10
131.5119899999999973
20
-225.1686509999999828
11
131.5896689999999865
21
-225.3535609999999849
0
LINE
8
BLACK
6
CONTINUOUS
10
131.5896689999999865
20
-225.3535609999999849
11
131.6842809999999986
21
-225.5321629999999971
0
LINE
8
BLACK
6
CONTINUOUS
10
131.6842809999999986
20
-225.5321629999999971
11
131.7489980000000003
21
-225.6381649999999865
0
LINE
8
BLACK
6
CONTINUOUS
10
126.8787999999999982
20
-208.7293179999999779
11
114.8787979999999891
21
-208.7293179999999779
0
LINE
8
BLACK
6
CONTINUOUS
10
131.3287980000000061
20
-159.254320000000007
11
131.3287980000000061
21
-154.2793179999999893
0
LINE
8
BLACK
6
CONTINUOUS
10
113.928567000000001
20
-208.5480429999999785
11
114.1387529999999941
21
-208.6253269999999986
0
LINE
8
BLACK
6
CONTINUOUS
10
114.1387529999999941
20
-208.6253269999999986
11
114.3327099999999916
21
-208.6762530000000027
0
LINE
8
BLACK
6
CONTINUOUS
10
114.3327099999999916
20
-208.6762530000000027
11
114.5419890000000009
21
-208.7106489999999894
0
LINE
8
BLACK
6
CONTINUOUS
10
114.5419890000000009
20
-208.7106489999999894
11
114.7722699999999918
21
-208.7276099999999985
0
LINE
8
BLACK
6
CONTINUOUS
10
114.7722699999999918
20
-208.7276099999999985
11
114.8787979999999891
21
-208.7293179999999779
0
ARC
8
BLACK
10
135.8287980000000061
20
-159.2543189999999811
40
4.4999990000001109
50
-179.99998727
51
-90.00001273
0
LINE
8
BLACK
6
CONTINUOUS
10
157.9350729999999885
20
-147.1165869999999813
11
157.8577879999999993
21
-147.3267730000000029
0
LINE
8
BLACK
6
CONTINUOUS
10
157.8577879999999993
20
-147.3267730000000029
11
157.8068619999999953
21
-147.5207299999999861
0
LINE
8
BLACK
6
CONTINUOUS
10
157.8068619999999953
20
-147.5207299999999861
11
157.7724659999999801
21
-147.7300089999999955
0
LINE
8
BLACK
6
CONTINUOUS
10
157.7724659999999801
20
-147.7300089999999955
11
157.7555049999999994
21
-147.9602899999999863
0
LINE
8
BLACK
6
CONTINUOUS
10
157.7555049999999994
20
-147.9602899999999863
11
157.7537979999999891
21
-148.0668179999999836
0
ARC
8
BLACK
10
153.2537979999999891
20
-159.2543189999999811
40
4.500000000000111
50
-89.99998727
51
-0.00001273
0
LINE
8
BLACK
6
CONTINUOUS
10
178.9391549999999995
20
-144.6574329999999975
11
178.6919619999999895
21
-144.7245209999999815
0
LINE
8
BLACK
6
CONTINUOUS
10
178.6919619999999895
20
-144.7245209999999815
11
178.4433229999999924
21
-144.7931930000000023
0
LINE
8
BLACK
6
CONTINUOUS
10
178.4433229999999924
20
-144.7931930000000023
11
178.1924359999999865
21
-144.8628989999999988
0
LINE
8
BLACK
6
CONTINUOUS
10
178.1924359999999865
20
-144.8628989999999988
11
177.9385010000000023
21
-144.9330899999999929
0
LINE
8
BLACK
6
CONTINUOUS
10
177.9385010000000023
20
-144.9330899999999929
11
177.6807169999999871
21
-145.0032170000000065
0
LINE
8
BLACK
6
CONTINUOUS
10
177.6807169999999871
20
-145.0032170000000065
11
177.4182839999999999
21
-145.0727300000000071
0
LINE
8
BLACK
6
CONTINUOUS
10
177.4182839999999999
20
-145.0727300000000071
11
177.1504019999999855
21
-145.1410789999999906
0
LINE
8
BLACK
6
CONTINUOUS
10
177.1504019999999855
20
-145.1410789999999906
11
176.8762679999999818
21
-145.2077139999999815
0
LINE
8
BLACK
6
CONTINUOUS
10
176.8762679999999818
20
-145.2077139999999815
11
176.5950829999999883
21
-145.2720869999999991
0
LINE
8
BLACK
6
CONTINUOUS
10
176.5950829999999883
20
-145.2720869999999991
11
176.3060459999999807
21
-145.3336479999999824
0
LINE
8
BLACK
6
CONTINUOUS
10
176.3060459999999807
20
-145.3336479999999824
11
176.1085980000000006
21
-145.3728549999999871
0
LINE
8
BLACK
6
CONTINUOUS
10
174.2037980000000061
20
-145.5668179999999836
11
160.2537979999999891
21
-145.5668179999999836
0
LINE
8
BLACK
6
CONTINUOUS
10
211.5718619999999817
20
-131.9778969999999845
11
211.3487590000000012
21
-131.8754799999999818
0
LINE
8
BLACK
6
CONTINUOUS
10
211.3487590000000012
20
-131.8754799999999818
11
211.114026999999993
21
-131.793186999999989
0
LINE
8
BLACK
6
CONTINUOUS
10
211.114026999999993
20
-131.793186999999989
11
210.8717049999999915
21
-131.7319219999999973
0
LINE
8
BLACK
6
CONTINUOUS
10
210.8717049999999915
20
-131.7319219999999973
11
210.6258279999999843
21
-131.6925899999999956
0
LINE
8
BLACK
6
CONTINUOUS
10
210.6258279999999843
20
-131.6925899999999956
11
210.3804360000000031
21
-131.6760969999999986
0
LINE
8
BLACK
6
CONTINUOUS
10
210.3804360000000031
20
-131.6760969999999986
11
210.1395650000000046
21
-131.6833489999999927
0
LINE
8
BLACK
6
CONTINUOUS
10
210.1395650000000046
20
-131.6833489999999927
11
210.0453869999999768
21
-131.6931009999999844
0
LINE
8
BLACK
6
CONTINUOUS
10
131.3787979999999891
20
-213.2293169999999805
11
131.3787979999999891
21
-224.3293180000000007
0
ARC
8
BLACK
10
126.8787999999999982
20
-213.229315999999983
40
4.4999979999999997
50
-0.00001273
51
90.00000000
0
LINE
8
BLACK
6
CONTINUOUS
10
226.637644999999992
20
-198.4091179999999781
11
226.8378909999999848
21
-198.2671129999999948
0
LINE
8
BLACK
6
CONTINUOUS
10
226.8378909999999848
20
-198.2671129999999948
11
227.0265239999999949
21
-198.1049759999999935
0
LINE
8
BLACK
6
CONTINUOUS
10
227.0265239999999949
20
-198.1049759999999935
11
227.2007429999999886
21
-197.9257509999999911
0
LINE
8
BLACK
6
CONTINUOUS
10
227.2007429999999886
20
-197.9257509999999911
11
227.3577439999999967
21
-197.7324820000000045
0
LINE
8
BLACK
6
CONTINUOUS
10
227.3577439999999967
20
-197.7324820000000045
11
227.4947229999999934
21
-197.5282119999999964
0
LINE
8
BLACK
6
CONTINUOUS
10
227.4947229999999934
20
-197.5282119999999964
11
227.6088790000000017
21
-197.3159849999999835
0
LINE
8
BLACK
6
CONTINUOUS
10
227.6088790000000017
20
-197.3159849999999835
11
227.6475229999999783
21
-197.2295489999999916
0
LINE
8
BLACK
6
CONTINUOUS
10
225.3287979999999777
20
-198.7793179999999893
11
211.8287979999999777
21
-198.7793179999999893
0
LINE
8
BLACK
6
CONTINUOUS
10
227.6475229999999783
20
-197.2295489999999916
11
227.7248069999999984
21
-197.019362000000001
0
LINE
8
BLACK
6
CONTINUOUS
10
227.7248069999999984
20
-197.019362000000001
11
227.7757330000000024
21
-196.8254049999999893
0
LINE
8
BLACK
6
CONTINUOUS
10
227.7757330000000024
20
-196.8254049999999893
11
227.8101289999999892
21
-196.61612599999998
0
LINE
8
BLACK
6
CONTINUOUS
10
227.8101289999999892
20
-196.61612599999998
11
227.8270899999999983
21
-196.3858449999999891
0
LINE
8
BLACK
6
CONTINUOUS
10
227.8270899999999983
20
-196.3858449999999891
11
227.8287979999999777
21
-196.2793179999999893
0
LINE
8
BLACK
6
CONTINUOUS
10
225.3287979999999777
20
-198.7793179999999893
11
225.5306659999999965
21
-198.7732769999999789
0
LINE
8
BLACK
6
CONTINUOUS
10
225.5306659999999965
20
-198.7732769999999789
11
225.7614329999999825
21
-198.7489689999999882
0
LINE
8
BLACK
6
CONTINUOUS
10
225.7614329999999825
20
-198.7489689999999882
11
225.972424999999987
21
-198.7064419999999814
0
LINE
8
BLACK
6
CONTINUOUS
10
225.972424999999987
20
-198.7064419999999814
11
226.1681309999999883
21
-198.6461249999999836
0
LINE
8
BLACK
6
CONTINUOUS
10
226.1681309999999883
20
-198.6461249999999836
11
226.3530409999999904
21
-198.5684459999999945
0
LINE
8
BLACK
6
CONTINUOUS
10
226.3530409999999904
20
-198.5684459999999945
11
226.5316430000000025
21
-198.4738339999999823
0
LINE
8
BLACK
6
CONTINUOUS
10
226.5316430000000025
20
-198.4738339999999823
11
226.637644999999992
21
-198.4091179999999781
0
LINE
8
BLACK
6
CONTINUOUS
10
206.137644999999992
20
-226.4591179999999895
11
206.3378909999999848
21
-226.3171129999999778
0
LINE
8
BLACK
6
CONTINUOUS
10
206.3378909999999848
20
-226.3171129999999778
11
206.5265239999999949
21
-226.1549759999999765
0
LINE
8
BLACK
6
CONTINUOUS
10
206.5265239999999949
20
-226.1549759999999765
11
206.7007429999999886
21
-225.9757510000000025
0
LINE
8
BLACK
6
CONTINUOUS
10
206.7007429999999886
20
-225.9757510000000025
11
206.8577439999999967
21
-225.7824819999999875
0
LINE
8
BLACK
6
CONTINUOUS
10
206.8577439999999967
20
-225.7824819999999875
11
206.9947229999999934
21
-225.5782119999999793
0
LINE
8
BLACK
6
CONTINUOUS
10
206.9947229999999934
20
-225.5782119999999793
11
207.1088790000000017
21
-225.3659849999999949
0
LINE
8
BLACK
6
CONTINUOUS
10
207.1088790000000017
20
-225.3659849999999949
11
207.1475229999999783
21
-225.2795490000000029
0
LINE
8
BLACK
6
CONTINUOUS
10
193.4968889999999817
20
-140.7038359999999955
11
193.2988059999999848
21
-140.7743679999999813
0
LINE
8
BLACK
6
CONTINUOUS
10
193.2988059999999848
20
-140.7743679999999813
11
193.0981199999999944
21
-140.8422970000000021
0
LINE
8
BLACK
6
CONTINUOUS
10
193.0981199999999944
20
-140.8422970000000021
11
192.8950989999999877
21
-140.9073869999999999
0
LINE
8
BLACK
6
CONTINUOUS
10
192.8950989999999877
20
-140.9073869999999999
11
192.6900139999999908
21
-140.9694049999999947
0
LINE
8
BLACK
6
CONTINUOUS
10
192.6900139999999908
20
-140.9694049999999947
11
192.4831329999999809
21
-141.028113999999988
0
LINE
8
BLACK
6
CONTINUOUS
10
192.4831329999999809
20
-141.028113999999988
11
192.413819999999987
21
-141.0469080000000019
0
LINE
8
BLACK
6
CONTINUOUS
10
208.0832769999999812
20
-200.786564999999996
11
208.2281639999999925
21
-200.5824829999999963
0
LINE
8
BLACK
6
CONTINUOUS
10
208.2281639999999925
20
-200.5824829999999963
11
208.3822759999999903
21
-200.3874429999999904
0
LINE
8
BLACK
6
CONTINUOUS
10
208.3822759999999903
20
-200.3874429999999904
11
208.5457250000000045
21
-200.2016889999999876
0
LINE
8
BLACK
6
CONTINUOUS
10
208.5457250000000045
20
-200.2016889999999876
11
208.7186260000000004
21
-200.0254659999999944
0
LINE
8
BLACK
6
CONTINUOUS
10
208.7186260000000004
20
-200.0254659999999944
11
208.901093000000003
21
-199.8590199999999868
0
LINE
8
BLACK
6
CONTINUOUS
10
208.901093000000003
20
-199.8590199999999868
11
209.0932389999999828
21
-199.7025940000000048
0
LINE
8
BLACK
6
CONTINUOUS
10
209.0932389999999828
20
-199.7025940000000048
11
209.2951779999999928
21
-199.5564329999999984
0
LINE
8
BLACK
6
CONTINUOUS
10
209.2951779999999928
20
-199.5564329999999984
11
209.5070249999999987
21
-199.4207830000000001
0
LINE
8
BLACK
6
CONTINUOUS
10
209.5070249999999987
20
-199.4207830000000001
11
209.7288939999999968
21
-199.2958889999999883
0
LINE
8
BLACK
6
CONTINUOUS
10
209.7288939999999968
20
-199.2958889999999883
11
209.9608969999999886
21
-199.1819940000000031
0
LINE
8
BLACK
6
CONTINUOUS
10
209.9608969999999886
20
-199.1819940000000031
11
210.1212539999999933
21
-199.1122959999999864
0
LINE
8
BLACK
6
CONTINUOUS
10
227.8287979999999777
20
-165.2793179999999893
11
227.8265859999999918
21
-164.9990439999999978
0
LINE
8
BLACK
6
CONTINUOUS
10
227.8265859999999918
20
-164.9990439999999978
11
227.8199909999999875
21
-164.7200709999999901
0
LINE
8
BLACK
6
CONTINUOUS
10
227.8199909999999875
20
-164.7200709999999901
11
227.8090689999999938
21
-164.4423500000000047
0
LINE
8
BLACK
6
CONTINUOUS
10
227.8090689999999938
20
-164.4423500000000047
11
227.7938749999999857
21
-164.1658329999999921
0
LINE
8
BLACK
6
CONTINUOUS
10
227.7938749999999857
20
-164.1658329999999921
11
227.7744689999999821
21
-163.8904729999999859
0
LINE
8
BLACK
6
CONTINUOUS
10
227.7744689999999821
20
-163.8904729999999859
11
227.7509049999999888
21
-163.6162199999999984
0
LINE
8
BLACK
6
CONTINUOUS
10
227.7509049999999888
20
-163.6162199999999984
11
227.7232410000000016
21
-163.3430280000000039
0
LINE
8
BLACK
6
CONTINUOUS
10
227.7232410000000016
20
-163.3430280000000039
11
227.6915349999999876
21
-163.0708479999999838
0
LINE
8
BLACK
6
CONTINUOUS
10
227.6915349999999876
20
-163.0708479999999838
11
227.6558419999999785
21
-162.7996320000000026
0
LINE
8
BLACK
6
CONTINUOUS
10
227.6558419999999785
20
-162.7996320000000026
11
227.6162199999999984
21
-162.5293319999999824
0
LINE
8
BLACK
6
CONTINUOUS
10
227.6162199999999984
20
-162.5293319999999824
11
227.5727249999999913
21
-162.2598999999999876
0
LINE
8
BLACK
6
CONTINUOUS
10
227.5727249999999913
20
-162.2598999999999876
11
227.5254139999999836
21
-161.9912879999999973
0
LINE
8
BLACK
6
CONTINUOUS
10
227.5254139999999836
20
-161.9912879999999973
11
227.4743449999999996
21
-161.7234479999999905
0
LINE
8
BLACK
6
CONTINUOUS
10
227.4743449999999996
20
-161.7234479999999905
11
227.4195729999999855
21
-161.4563330000000008
0
LINE
8
BLACK
6
CONTINUOUS
10
227.4195729999999855
20
-161.4563330000000008
11
227.3611569999999915
21
-161.1898929999999837
0
LINE
8
BLACK
6
CONTINUOUS
10
227.3611569999999915
20
-161.1898929999999837
11
227.2991519999999923
21
-160.9240819999999985
0
LINE
8
BLACK
6
CONTINUOUS
10
227.2991519999999923
20
-160.9240819999999985
11
227.2336159999999836
21
-160.6588509999999985
0
LINE
8
BLACK
6
CONTINUOUS
10
227.2336159999999836
20
-160.6588509999999985
11
227.1646049999999946
21
-160.3941509999999937
0
LINE
8
BLACK
6
CONTINUOUS
10
227.1646049999999946
20
-160.3941509999999937
11
227.0921769999999924
21
-160.1299359999999865
0
LINE
8
BLACK
6
CONTINUOUS
10
227.0921769999999924
20
-160.1299359999999865
11
227.0163869999999804
21
-159.866156999999987
0
LINE
8
BLACK
6
CONTINUOUS
10
227.0163869999999804
20
-159.866156999999987
11
226.9372939999999801
21
-159.6027660000000026
0
LINE
8
BLACK
6
CONTINUOUS
10
226.9372939999999801
20
-159.6027660000000026
11
226.8549529999999947
21
-159.3397139999999865
0
LINE
8
BLACK
6
CONTINUOUS
10
226.8549529999999947
20
-159.3397139999999865
11
226.7694219999999916
21
-159.0769549999999981
0
LINE
8
BLACK
6
CONTINUOUS
10
226.7694219999999916
20
-159.0769549999999981
11
226.6807579999999973
21
-158.8144399999999905
0
LINE
8
BLACK
6
CONTINUOUS
10
226.6807579999999973
20
-158.8144399999999905
11
226.5890169999999841
21
-158.5521209999999996
0
LINE
8
BLACK
6
CONTINUOUS
10
226.5890169999999841
20
-158.5521209999999996
11
226.4942559999999787
21
-158.2899500000000046
0
LINE
8
BLACK
6
CONTINUOUS
10
226.4942559999999787
20
-158.2899500000000046
11
226.3965329999999767
21
-158.0278789999999844
0
LINE
8
BLACK
6
CONTINUOUS
10
226.3965329999999767
20
-158.0278789999999844
11
226.2959029999999814
21
-157.7658600000000035
0
LINE
8
BLACK
6
CONTINUOUS
10
226.2959029999999814
20
-157.7658600000000035
11
226.1924239999999884
21
-157.5038439999999866
0
LINE
8
BLACK
6
CONTINUOUS
10
226.1924239999999884
20
-157.5038439999999866
11
226.0861529999999959
21
-157.241784999999993
0
LINE
8
BLACK
6
CONTINUOUS
10
226.0861529999999959
20
-157.241784999999993
11
225.9771459999999763
21
-156.9796340000000043
0
LINE
8
BLACK
6
CONTINUOUS
10
225.9771459999999763
20
-156.9796340000000043
11
225.8654609999999821
21
-156.7173429999999996
0
LINE
8
BLACK
6
CONTINUOUS
10
113.9385669999999919
20
-44.4540939999999978
11
114.1487529999999992
21
-44.3768090000000015
0
LINE
8
BLACK
6
CONTINUOUS
10
114.1487529999999992
20
-44.3768090000000015
11
114.3427099999999967
21
-44.3258829999999975
0
LINE
8
BLACK
6
CONTINUOUS
10
114.3427099999999967
20
-44.3258829999999975
11
114.5519889999999918
21
-44.2914869999999965
0
LINE
8
BLACK
6
CONTINUOUS
10
114.5519889999999918
20
-44.2914869999999965
11
114.7822699999999969
21
-44.2745259999999945
0
LINE
8
BLACK
6
CONTINUOUS
10
114.7822699999999969
20
-44.2745259999999945
11
114.8887979999999942
21
-44.2728189999999984
0
LINE
8
BLACK
6
CONTINUOUS
10
112.7589979999999912
20
-45.4639719999999983
11
112.9010019999999912
21
-45.2637250000000009
0
LINE
8
BLACK
6
CONTINUOUS
10
112.9010019999999912
20
-45.2637250000000009
11
113.0631389999999925
21
-45.0750919999999979
0
LINE
8
BLACK
6
CONTINUOUS
10
113.0631389999999925
20
-45.0750919999999979
11
113.2423639999999949
21
-44.9008729999999971
0
LINE
8
BLACK
6
CONTINUOUS
10
113.2423639999999949
20
-44.9008729999999971
11
113.4356329999999957
21
-44.7438719999999961
0
LINE
8
BLACK
6
CONTINUOUS
10
113.4356329999999957
20
-44.7438719999999961
11
113.6399029999999897
21
-44.6068929999999995
0
LINE
8
BLACK
6
CONTINUOUS
10
113.6399029999999897
20
-44.6068929999999995
11
113.8521299999999883
21
-44.4927369999999982
0
LINE
8
BLACK
6
CONTINUOUS
10
113.8521299999999883
20
-44.4927369999999982
11
113.9385669999999919
21
-44.4540939999999978
0
LINE
8
BLACK
6
CONTINUOUS
10
112.3887979999999942
20
-46.7728189999999984
11
112.3948379999999929
21
-46.5709510000000009
0
LINE
8
BLACK
6
CONTINUOUS
10
112.3948379999999929
20
-46.5709510000000009
11
112.4191459999999978
21
-46.3401840000000007
0
LINE
8
BLACK
6
CONTINUOUS
10
112.4191459999999978
20
-46.3401840000000007
11
112.4616729999999905
21
-46.1291919999999962
0
LINE
8
BLACK
6
CONTINUOUS
10
112.4616729999999905
20
-46.1291919999999962
11
112.5219899999999882
21
-45.9334849999999975
0
LINE
8
BLACK
6
CONTINUOUS
10
112.5219899999999882
20
-45.9334849999999975
11
112.5996689999999916
21
-45.7485759999999999
0
LINE
8
BLACK
6
CONTINUOUS
10
112.5996689999999916
20
-45.7485759999999999
11
112.6942809999999895
21
-45.5699729999999974
0
LINE
8
BLACK
6
CONTINUOUS
10
112.6942809999999895
20
-45.5699729999999974
11
112.7589979999999912
21
-45.4639719999999983
0
LINE
8
BLACK
6
CONTINUOUS
10
112.3887979999999942
20
-98.7228190000000012
11
112.3887979999999942
21
-46.7728189999999984
0
LINE
8
BLACK
6
CONTINUOUS
10
112.5700729999999936
20
-99.6730499999999893
11
112.4927879999999902
21
-99.4628629999999987
0
LINE
8
BLACK
6
CONTINUOUS
10
112.4927879999999902
20
-99.4628629999999987
11
112.4418620000000004
21
-99.2689060000000012
0
LINE
8
BLACK
6
CONTINUOUS
10
112.4418620000000004
20
-99.2689060000000012
11
112.4074659999999994
21
-99.0596269999999919
0
LINE
8
BLACK
6
CONTINUOUS
10
112.4074659999999994
20
-99.0596269999999919
11
112.3905049999999903
21
-98.829346000000001
0
LINE
8
BLACK
6
CONTINUOUS
10
112.3905049999999903
20
-98.829346000000001
11
112.3887979999999942
21
-98.7228190000000012
0
LINE
8
BLACK
6
CONTINUOUS
10
113.5799509999999941
20
-100.85261899999999
11
113.3797039999999896
21
-100.7106139999999925
0
LINE
8
BLACK
6
CONTINUOUS
10
113.3797039999999896
20
-100.7106139999999925
11
113.1910709999999938
21
-100.5484769999999912
0
LINE
8
BLACK
6
CONTINUOUS
10
113.1910709999999938
20
-100.5484769999999912
11
113.0168520000000001
21
-100.3692519999999888
0
LINE
8
BLACK
6
CONTINUOUS
10
113.0168520000000001
20
-100.3692519999999888
11
112.8598509999999919
21
-100.1759830000000022
0
LINE
8
BLACK
6
CONTINUOUS
10
112.8598509999999919
20
-100.1759830000000022
11
112.7228719999999953
21
-99.9717129999999941
0
LINE
8
BLACK
6
CONTINUOUS
10
112.7228719999999953
20
-99.9717129999999941
11
112.6087160000000011
21
-99.7594859999999954
0
LINE
8
BLACK
6
CONTINUOUS
10
112.6087160000000011
20
-99.7594859999999954
11
112.5700729999999936
21
-99.6730499999999893
0
LINE
8
BLACK
6
CONTINUOUS
10
114.8887979999999942
20
-101.2228190000000012
11
114.6869289999999921
21
-101.2167779999999908
0
LINE
8
BLACK
6
CONTINUOUS
10
114.6869289999999921
20
-101.2167779999999908
11
114.456161999999992
21
-101.1924700000000001
0
LINE
8
BLACK
6
CONTINUOUS
10
114.456161999999992
20
-101.1924700000000001
11
114.2451700000000017
21
-101.1499429999999933
0
LINE
8
BLACK
6
CONTINUOUS
10
114.2451700000000017
20
-101.1499429999999933
11
114.0494640000000004
21
-101.0896259999999955
0
LINE
8
BLACK
6
CONTINUOUS
10
114.0494640000000004
20
-101.0896259999999955
11
113.8645539999999983
21
-101.0119469999999922
0
LINE
8
BLACK
6
CONTINUOUS
10
113.8645539999999983
20
-101.0119469999999922
11
113.6859520000000003
21
-100.9173349999999942
0
LINE
8
BLACK
6
CONTINUOUS
10
113.6859520000000003
20
-100.9173349999999942
11
113.5799509999999941
21
-100.85261899999999
0
LINE
8
BLACK
6
CONTINUOUS
10
131.1575229999999976
20
-99.6730499999999893
11
131.2348069999999893
21
-99.4628629999999987
0
LINE
8
BLACK
6
CONTINUOUS
10
131.2348069999999893
20
-99.4628629999999987
11
131.2857329999999934
21
-99.2689060000000012
0
LINE
8
BLACK
6
CONTINUOUS
10
131.2857329999999934
20
-99.2689060000000012
11
131.3201289999999801
21
-99.0596269999999919
0
LINE
8
BLACK
6
CONTINUOUS
10
131.3201289999999801
20
-99.0596269999999919
11
131.3370899999999892
21
-98.829346000000001
0
LINE
8
BLACK
6
CONTINUOUS
10
131.3370899999999892
20
-98.829346000000001
11
131.338797999999997
21
-98.7228190000000012
0
LINE
8
BLACK
6
CONTINUOUS
10
130.1476449999999829
20
-100.85261899999999
11
130.3478910000000042
21
-100.7106139999999925
0
LINE
8
BLACK
6
CONTINUOUS
10
130.3478910000000042
20
-100.7106139999999925
11
130.5365239999999858
21
-100.5484769999999912
0
LINE
8
BLACK
6
CONTINUOUS
10
130.5365239999999858
20
-100.5484769999999912
11
130.7107430000000079
21
-100.3692519999999888
0
LINE
8
BLACK
6
CONTINUOUS
10
130.7107430000000079
20
-100.3692519999999888
11
130.8677439999999876
21
-100.1759830000000022
0
LINE
8
BLACK
6
CONTINUOUS
10
130.8677439999999876
20
-100.1759830000000022
11
131.0047229999999843
21
-99.9717129999999941
0
LINE
8
BLACK
6
CONTINUOUS
10
131.0047229999999843
20
-99.9717129999999941
11
131.1188789999999926
21
-99.7594859999999954
0
LINE
8
BLACK
6
CONTINUOUS
10
131.1188789999999926
20
-99.7594859999999954
11
131.1575229999999976
21
-99.6730499999999893
0
LINE
8
BLACK
6
CONTINUOUS
10
128.838797999999997
20
-101.2228190000000012
11
129.0406659999999874
21
-101.2167779999999908
0
LINE
8
BLACK
6
CONTINUOUS
10
129.0406659999999874
20
-101.2167779999999908
11
129.2714330000000018
21
-101.1924700000000001
0
LINE
8
BLACK
6
CONTINUOUS
10
129.2714330000000018
20
-101.1924700000000001
11
129.4824250000000063
21
-101.1499429999999933
0
LINE
8
BLACK
6
CONTINUOUS
10
129.4824250000000063
20
-101.1499429999999933
11
129.6781310000000076
21
-101.0896259999999955
0
LINE
8
BLACK
6
CONTINUOUS
10
129.6781310000000076
20
-101.0896259999999955
11
129.8630409999999813
21
-101.0119469999999922
0
LINE
8
BLACK
6
CONTINUOUS
10
129.8630409999999813
20
-101.0119469999999922
11
130.0416429999999934
21
-100.9173349999999942
0
LINE
8
BLACK
6
CONTINUOUS
10
130.0416429999999934
20
-100.9173349999999942
11
130.1476449999999829
21
-100.85261899999999
0
LINE
8
BLACK
6
CONTINUOUS
10
131.338797999999997
20
-98.7228190000000012
11
131.338797999999997
21
-93.7478169999999977
0
ARC
8
BLACK
10
135.8387960000000021
20
-93.7478169999999977
40
4.4999979999999997
50
89.99998727
51
180.00000000
0
LINE
8
BLACK
6
CONTINUOUS
10
135.8387969999999996
20
-89.2478189999999927
11
153.2637990000000059
21
-89.2478189999999927
0
ARC
8
BLACK
10
153.2638000000000034
20
-93.7478169999999977
40
4.4999980000001107
50
0.00000000
51
90.00001273
0
LINE
8
BLACK
6
CONTINUOUS
10
157.76379799999998
20
-104.9353189999999927
11
157.76379799999998
21
-93.7478169999999977
0
LINE
8
BLACK
6
CONTINUOUS
10
157.9450729999999794
20
-105.885549999999995
11
157.8677879999999902
21
-105.6753629999999902
0
LINE
8
BLACK
6
CONTINUOUS
10
157.8677879999999902
20
-105.6753629999999902
11
157.8168619999999862
21
-105.4814059999999927
0
LINE
8
BLACK
6
CONTINUOUS
10
157.8168619999999862
20
-105.4814059999999927
11
157.7824659999999994
21
-105.2721269999999976
0
LINE
8
BLACK
6
CONTINUOUS
10
157.7824659999999994
20
-105.2721269999999976
11
157.7655049999999903
21
-105.0418459999999925
0
LINE
8
BLACK
6
CONTINUOUS
10
157.7655049999999903
20
-105.0418459999999925
11
157.76379799999998
21
-104.9353189999999927
0
LINE
8
BLACK
6
CONTINUOUS
10
158.9549509999999941
20
-107.0651189999999957
11
158.7547040000000038
21
-106.9231139999999982
0
LINE
8
BLACK
6
CONTINUOUS
10
158.7547040000000038
20
-106.9231139999999982
11
158.5660709999999938
21
-106.7609769999999969
0
LINE
8
BLACK
6
CONTINUOUS
10
158.5660709999999938
20
-106.7609769999999969
11
158.3918520000000001
21
-106.5817519999999945
0
LINE
8
BLACK
6
CONTINUOUS
10
158.3918520000000001
20
-106.5817519999999945
11
158.2348509999999919
21
-106.3884829999999937
0
LINE
8
BLACK
6
CONTINUOUS
10
158.2348509999999919
20
-106.3884829999999937
11
158.0978719999999953
21
-106.1842129999999997
0
LINE
8
BLACK
6
CONTINUOUS
10
158.0978719999999953
20
-106.1842129999999997
11
157.9837159999999869
21
-105.9719860000000011
0
LINE
8
BLACK
6
CONTINUOUS
10
157.9837159999999869
20
-105.9719860000000011
11
157.9450729999999794
21
-105.885549999999995
0
LINE
8
BLACK
6
CONTINUOUS
10
160.26379799999998
20
-107.4353189999999927
11
160.0619289999999921
21
-107.4292779999999965
0
LINE
8
BLACK
6
CONTINUOUS
10
160.0619289999999921
20
-107.4292779999999965
11
159.8311620000000062
21
-107.4049699999999916
0
LINE
8
BLACK
6
CONTINUOUS
10
159.8311620000000062
20
-107.4049699999999916
11
159.6201700000000017
21
-107.362442999999999
0
LINE
8
BLACK
6
CONTINUOUS
10
159.6201700000000017
20
-107.362442999999999
11
159.4244640000000004
21
-107.3021260000000012
0
LINE
8
BLACK
6
CONTINUOUS
10
159.4244640000000004
20
-107.3021260000000012
11
159.2395539999999983
21
-107.2244469999999978
0
LINE
8
BLACK
6
CONTINUOUS
10
159.2395539999999983
20
-107.2244469999999978
11
159.0609519999999861
21
-107.1298349999999999
0
LINE
8
BLACK
6
CONTINUOUS
10
159.0609519999999861
20
-107.1298349999999999
11
158.9549509999999941
21
-107.0651189999999957
0
LINE
8
BLACK
6
CONTINUOUS
10
160.26379799999998
20
-107.4353189999999927
11
174.213797999999997
21
-107.4353189999999927
0
LINE
8
BLACK
6
CONTINUOUS
10
176.1185979999999915
20
-107.6292819999999892
11
175.8947799999999972
21
-107.5883529999999979
0
LINE
8
BLACK
6
CONTINUOUS
10
175.8947799999999972
20
-107.5883529999999979
11
175.6658510000000035
21
-107.5510809999999964
0
LINE
8
BLACK
6
CONTINUOUS
10
175.6658510000000035
20
-107.5510809999999964
11
175.4323259999999891
21
-107.5180209999999903
0
LINE
8
BLACK
6
CONTINUOUS
10
175.4323259999999891
20
-107.5180209999999903
11
175.194720999999987
21
-107.4897279999999995
0
LINE
8
BLACK
6
CONTINUOUS
10
175.194720999999987
20
-107.4897279999999995
11
174.9535499999999786
21
-107.4667559999999895
0
LINE
8
BLACK
6
CONTINUOUS
10
174.9535499999999786
20
-107.4667559999999895
11
174.7093289999999968
21
-107.4496609999999919
0
LINE
8
BLACK
6
CONTINUOUS
10
174.7093289999999968
20
-107.4496609999999919
11
174.4625729999999919
21
-107.4389970000000005
0
LINE
8
BLACK
6
CONTINUOUS
10
174.4625729999999919
20
-107.4389970000000005
11
174.213797999999997
21
-107.4353189999999927
0
LINE
8
BLACK
6
CONTINUOUS
10
178.9491549999999904
20
-108.344703999999993
11
178.7019619999999804
21
-108.2776149999999973
0
LINE
8
BLACK
6
CONTINUOUS
10
178.7019619999999804
20
-108.2776149999999973
11
178.4533229999999833
21
-108.2089429999999908
0
LINE
8
BLACK
6
CONTINUOUS
10
178.4533229999999833
20
-108.2089429999999908
11
178.2024360000000058
21
-108.1392369999999943
0
LINE
8
BLACK
6
CONTINUOUS
10
178.2024360000000058
20
-108.1392369999999943
11
177.9485009999999932
21
-108.0690460000000002
0
LINE
8
BLACK
6
CONTINUOUS
10
177.9485009999999932
20
-108.0690460000000002
11
177.690716999999978
21
-107.9989190000000008
0
LINE
8
BLACK
6
CONTINUOUS
10
177.690716999999978
20
-107.9989190000000008
11
177.4282839999999908
21
-107.9294060000000002
0
LINE
8
BLACK
6
CONTINUOUS
10
177.4282839999999908
20
-107.9294060000000002
11
177.1604020000000048
21
-107.8610569999999882
0
LINE
8
BLACK
6
CONTINUOUS
10
177.1604020000000048
20
-107.8610569999999882
11
176.8862680000000012
21
-107.7944219999999973
0
LINE
8
BLACK
6
CONTINUOUS
10
176.8862680000000012
20
-107.7944219999999973
11
176.6050829999999792
21
-107.730048999999994
0
LINE
8
BLACK
6
CONTINUOUS
10
176.6050829999999792
20
-107.730048999999994
11
176.316046
21
-107.6684879999999964
0
LINE
8
BLACK
6
CONTINUOUS
10
176.316046
20
-107.6684879999999964
11
176.1185979999999915
21
-107.6292819999999892
0
LINE
8
BLACK
6
CONTINUOUS
10
178.9491549999999904
20
-108.344703999999993
11
192.4238199999999779
21
-111.9552289999999886
0
LINE
8
BLACK
6
CONTINUOUS
10
193.506889000000001
20
-112.298300999999995
11
193.3088060000000041
21
-112.2277679999999975
0
LINE
8
BLACK
6
CONTINUOUS
10
193.3088060000000041
20
-112.2277679999999975
11
193.1081199999999853
21
-112.159838999999991
0
LINE
8
BLACK
6
CONTINUOUS
10
193.1081199999999853
20
-112.159838999999991
11
192.9050989999999786
21
-112.0947489999999931
0
LINE
8
BLACK
6
CONTINUOUS
10
192.9050989999999786
20
-112.0947489999999931
11
192.7000139999999817
21
-112.0327309999999983
0
LINE
8
BLACK
6
CONTINUOUS
10
192.7000139999999817
20
-112.0327309999999983
11
192.4931330000000003
21
-111.9740219999999908
0
LINE
8
BLACK
6
CONTINUOUS
10
192.4931330000000003
20
-111.9740219999999908
11
192.4238199999999779
21
-111.9552289999999886
0
LINE
8
BLACK
6
CONTINUOUS
10
197.0607709999999884
20
-114.0159089999999935
11
196.8519529999999804
21
-113.8960329999999885
0
LINE
8
BLACK
6
CONTINUOUS
10
196.8519529999999804
20
-113.8960329999999885
11
196.6425370000000044
21
-113.777349000000001
0
LINE
8
BLACK
6
CONTINUOUS
10
196.6425370000000044
20
-113.777349000000001
11
196.4322699999999884
21
-113.6599569999999915
0
LINE
8
BLACK
6
CONTINUOUS
10
196.4322699999999884
20
-113.6599569999999915
11
196.2209009999999978
21
-113.5439609999999959
0
LINE
8
BLACK
6
CONTINUOUS
10
196.2209009999999978
20
-113.5439609999999959
11
196.0081769999999892
21
-113.4294639999999958
0
LINE
8
BLACK
6
CONTINUOUS
10
196.0081769999999892
20
-113.4294639999999958
11
195.793847999999997
21
-113.3165690000000012
0
LINE
8
BLACK
6
CONTINUOUS
10
195.793847999999997
20
-113.3165690000000012
11
195.5776620000000037
21
-113.2053769999999986
0
LINE
8
BLACK
6
CONTINUOUS
10
195.5776620000000037
20
-113.2053769999999986
11
195.3593669999999918
21
-113.0959929999999929
0
LINE
8
BLACK
6
CONTINUOUS
10
195.3593669999999918
20
-113.0959929999999929
11
195.1387110000000007
21
-112.9885179999999991
0
LINE
8
BLACK
6
CONTINUOUS
10
195.1387110000000007
20
-112.9885179999999991
11
194.915442999999982
21
-112.8830559999999963
0
LINE
8
BLACK
6
CONTINUOUS
10
194.915442999999982
20
-112.8830559999999963
11
194.6893110000000036
21
-112.7797089999999969
0
LINE
8
BLACK
6
CONTINUOUS
10
194.6893110000000036
20
-112.7797089999999969
11
194.4600639999999885
21
-112.6785799999999966
0
LINE
8
BLACK
6
CONTINUOUS
10
194.4600639999999885
20
-112.6785799999999966
11
194.2274500000000046
21
-112.5797719999999913
0
LINE
8
BLACK
6
CONTINUOUS
10
194.2274500000000046
20
-112.5797719999999913
11
193.9912169999999776
21
-112.4833869999999933
0
LINE
8
BLACK
6
CONTINUOUS
10
193.9912169999999776
20
-112.4833869999999933
11
193.7511140000000012
21
-112.389528999999996
0
LINE
8
BLACK
6
CONTINUOUS
10
193.7511140000000012
20
-112.389528999999996
11
193.506889000000001
21
-112.298300999999995
0
LINE
8
BLACK
6
CONTINUOUS
10
210.0553869999999961
20
-121.3090359999999919
11
209.8347169999999835
21
-121.2708719999999971
0
LINE
8
BLACK
6
CONTINUOUS
10
209.8347169999999835
20
-121.2708719999999971
11
209.6412819999999897
21
-121.2179979999999944
0
LINE
8
BLACK
6
CONTINUOUS
10
209.6412819999999897
20
-121.2179979999999944
11
209.4428429999999821
21
-121.1431449999999899
0
LINE
8
BLACK
6
CONTINUOUS
10
209.4428429999999821
20
-121.1431449999999899
11
209.2349339999999813
21
-121.0426929999999999
0
LINE
8
BLACK
6
CONTINUOUS
10
209.2349339999999813
20
-121.0426929999999999
11
209.141824999999983
21
-120.9909089999999878
0
LINE
8
BLACK
6
CONTINUOUS
10
211.581862000000001
20
-121.0242399999999918
11
211.3587589999999921
21
-121.126655999999997
0
LINE
8
BLACK
6
CONTINUOUS
10
211.3587589999999921
20
-121.126655999999997
11
211.1240269999999839
21
-121.2089489999999898
0
LINE
8
BLACK
6
CONTINUOUS
10
211.1240269999999839
20
-121.2089489999999898
11
210.8817049999999824
21
-121.2702139999999957
0
LINE
8
BLACK
6
CONTINUOUS
10
210.8817049999999824
20
-121.2702139999999957
11
210.6358280000000036
21
-121.3095459999999974
0
LINE
8
BLACK
6
CONTINUOUS
10
210.6358280000000036
20
-121.3095459999999974
11
210.390435999999994
21
-121.3260389999999944
0
LINE
8
BLACK
6
CONTINUOUS
10
210.390435999999994
20
-121.3260389999999944
11
210.1495649999999955
21
-121.3187870000000004
0
LINE
8
BLACK
6
CONTINUOUS
10
210.1495649999999955
20
-121.3187870000000004
11
210.0553869999999961
21
-121.3090359999999919
0
LINE
8
BLACK
6
CONTINUOUS
10
212.5568879999999865
20
-120.0758459999999985
11
212.4507229999999822
21
-120.2476479999999981
0
LINE
8
BLACK
6
CONTINUOUS
10
212.4507229999999822
20
-120.2476479999999981
11
212.3142879999999764
21
-120.4353440000000006
0
LINE
8
BLACK
6
CONTINUOUS
10
212.3142879999999764
20
-120.4353440000000006
11
212.1719629999999768
21
-120.5968049999999891
0
LINE
8
BLACK
6
CONTINUOUS
10
212.1719629999999768
20
-120.5968049999999891
11
212.0218729999999994
21
-120.7361329999999953
0
LINE
8
BLACK
6
CONTINUOUS
10
212.0218729999999994
20
-120.7361329999999953
11
211.8621469999999931
21
-120.8574299999999937
0
LINE
8
BLACK
6
CONTINUOUS
10
211.8621469999999931
20
-120.8574299999999937
11
211.6909089999999765
21
-120.9647979999999876
0
LINE
8
BLACK
6
CONTINUOUS
10
211.6909089999999765
20
-120.9647979999999876
11
211.581862000000001
21
-121.0242399999999918
0
LINE
8
BLACK
6
CONTINUOUS
10
219.5318879999999808
20
-107.9947919999999897
11
212.5568879999999865
21
-120.0758459999999985
0
LINE
8
BLACK
6
CONTINUOUS
10
220.8078809999999805
20
-105.7879749999999888
11
220.6880379999999775
21
-105.995153000000002
0
LINE
8
BLACK
6
CONTINUOUS
10
220.6880379999999775
20
-105.995153000000002
11
220.568208999999996
21
-106.2022919999999999
0
LINE
8
BLACK
6
CONTINUOUS
10
220.568208999999996
20
-106.2022919999999999
11
220.4484039999999823
21
-106.4093839999999886
0
LINE
8
BLACK
6
CONTINUOUS
10
220.4484039999999823
20
-106.4093839999999886
11
220.3286349999999914
21
-106.616422
0
LINE
8
BLACK
6
CONTINUOUS
10
220.3286349999999914
20
-106.616422
11
220.208911999999998
21
-106.8233989999999949
0
LINE
8
BLACK
6
CONTINUOUS
10
220.208911999999998
20
-106.8233989999999949
11
220.0892460000000028
21
-107.0303079999999909
0
LINE
8
BLACK
6
CONTINUOUS
10
220.0892460000000028
20
-107.0303079999999909
11
219.969649000000004
21
-107.237142999999989
0
LINE
8
BLACK
6
CONTINUOUS
10
219.969649000000004
20
-107.237142999999989
11
219.8501309999999762
21
-107.4438969999999927
0
LINE
8
BLACK
6
CONTINUOUS
10
219.8501309999999762
20
-107.4438969999999927
11
219.730702999999977
21
-107.6505629999999911
0
LINE
8
BLACK
6
CONTINUOUS
10
219.730702999999977
20
-107.6505629999999911
11
219.6113769999999761
21
-107.8571340000000021
0
LINE
8
BLACK
6
CONTINUOUS
10
219.6113769999999761
20
-107.8571340000000021
11
219.5318879999999808
21
-107.9947919999999897
0
LINE
8
BLACK
6
CONTINUOUS
10
225.8754610000000014
20
-96.2847939999999909
11
225.7461500000000001
21
-96.5816200000000009
0
LINE
8
BLACK
6
CONTINUOUS
10
225.7461500000000001
20
-96.5816200000000009
11
225.613964999999979
21
-96.878461999999999
0
LINE
8
BLACK
6
CONTINUOUS
10
225.613964999999979
20
-96.878461999999999
11
225.4790050000000008
21
-97.1753179999999901
0
LINE
8
BLACK
6
CONTINUOUS
10
225.4790050000000008
20
-97.1753179999999901
11
225.3413699999999835
21
-97.4721890000000002
0
LINE
8
BLACK
6
CONTINUOUS
10
225.3413699999999835
20
-97.4721890000000002
11
225.2011609999999848
21
-97.7690729999999917
0
LINE
8
BLACK
6
CONTINUOUS
10
225.2011609999999848
20
-97.7690729999999917
11
225.0584769999999821
21
-98.065969999999993
0
LINE
8
BLACK
6
CONTINUOUS
10
225.0584769999999821
20
-98.065969999999993
11
224.9134179999999787
21
-98.3628789999999924
0
LINE
8
BLACK
6
CONTINUOUS
10
224.9134179999999787
20
-98.3628789999999924
11
224.7660850000000039
21
-98.65979999999999
0
LINE
8
BLACK
6
CONTINUOUS
10
224.7660850000000039
20
-98.65979999999999
11
224.6165779999999756
21
-98.9567329999999998
0
LINE
8
BLACK
6
CONTINUOUS
10
224.6165779999999756
20
-98.9567329999999998
11
224.4649959999999851
21
-99.2536759999999987
0
LINE
8
BLACK
6
CONTINUOUS
10
224.4649959999999851
20
-99.2536759999999987
11
224.3114399999999762
21
-99.5506290000000007
0
LINE
8
BLACK
6
CONTINUOUS
10
224.3114399999999762
20
-99.5506290000000007
11
224.1560089999999832
21
-99.8475919999999917
0
LINE
8
BLACK
6
CONTINUOUS
10
224.1560089999999832
20
-99.8475919999999917
11
223.998804999999976
21
-100.1445639999999884
0
LINE
8
BLACK
6
CONTINUOUS
10
223.998804999999976
20
-100.1445639999999884
11
223.8399259999999913
21
-100.4415439999999933
0
LINE
8
BLACK
6
CONTINUOUS
10
223.8399259999999913
20
-100.4415439999999933
11
223.6794730000000015
21
-100.7385319999999922
0
LINE
8
BLACK
6
CONTINUOUS
10
223.6794730000000015
20
-100.7385319999999922
11
223.5175459999999816
21
-101.0355270000000019
0
LINE
8
BLACK
6
CONTINUOUS
10
223.5175459999999816
20
-101.0355270000000019
11
223.3542439999999942
21
-101.3325289999999939
0
LINE
8
BLACK
6
CONTINUOUS
10
223.3542439999999942
20
-101.3325289999999939
11
223.1896689999999808
21
-101.6295369999999991
0
LINE
8
BLACK
6
CONTINUOUS
10
223.1896689999999808
20
-101.6295369999999991
11
223.0239200000000039
21
-101.9265509999999892
0
LINE
8
BLACK
6
CONTINUOUS
10
223.0239200000000039
20
-101.9265509999999892
11
222.8570969999999818
21
-102.2235689999999977
0
LINE
8
BLACK
6
CONTINUOUS
10
222.8570969999999818
20
-102.2235689999999977
11
222.6893010000000004
21
-102.5205919999999935
0
LINE
8
BLACK
6
CONTINUOUS
10
222.6893010000000004
20
-102.5205919999999935
11
222.5206299999999828
21
-102.8176189999999934
0
LINE
8
BLACK
6
CONTINUOUS
10
222.5206299999999828
20
-102.8176189999999934
11
222.3511859999999842
21
-103.1146499999999975
0
LINE
8
BLACK
6
CONTINUOUS
10
222.3511859999999842
20
-103.1146499999999975
11
222.181067999999982
21
-103.411681999999999
0
LINE
8
BLACK
6
CONTINUOUS
10
222.181067999999982
20
-103.411681999999999
11
222.010376999999977
21
-103.7087169999999929
0
LINE
8
BLACK
6
CONTINUOUS
10
222.010376999999977
20
-103.7087169999999929
11
221.8392120000000034
21
-104.005753999999996
0
LINE
8
BLACK
6
CONTINUOUS
10
221.8392120000000034
20
-104.005753999999996
11
221.6676729999999793
21
-104.3027919999999966
0
LINE
8
BLACK
6
CONTINUOUS
10
221.6676729999999793
20
-104.3027919999999966
11
221.4958609999999908
21
-104.5998299999999972
0
LINE
8
BLACK
6
CONTINUOUS
10
221.4958609999999908
20
-104.5998299999999972
11
221.3238759999999843
21
-104.8968670000000003
0
LINE
8
BLACK
6
CONTINUOUS
10
221.3238759999999843
20
-104.8968670000000003
11
221.1518179999999916
21
-105.1939050000000009
0
LINE
8
BLACK
6
CONTINUOUS
10
221.1518179999999916
20
-105.1939050000000009
11
220.9797859999999901
21
-105.4909399999999948
0
LINE
8
BLACK
6
CONTINUOUS
10
220.9797859999999901
20
-105.4909399999999948
11
220.8078809999999805
21
-105.7879749999999888
0
LINE
8
BLACK
6
CONTINUOUS
10
227.838797999999997
20
-87.7228190000000012
11
227.8365859999999827
21
-88.0030919999999952
0
LINE
8
BLACK
6
CONTINUOUS
10
227.8365859999999827
20
-88.0030919999999952
11
227.8299909999999784
21
-88.2820650000000029
0
LINE
8
BLACK
6
CONTINUOUS
10
227.8299909999999784
20
-88.2820650000000029
11
227.8190689999999847
21
-88.5597860000000026
0
LINE
8
BLACK
6
CONTINUOUS
10
227.8190689999999847
20
-88.5597860000000026
11
227.8038749999999766
21
-88.8363030000000009
0
LINE
8
BLACK
6
CONTINUOUS
10
227.8038749999999766
20
-88.8363030000000009
11
227.7844690000000014
21
-89.111662999999993
0
LINE
8
BLACK
6
CONTINUOUS
10
227.7844690000000014
20
-89.111662999999993
11
227.7609049999999797
21
-89.3859159999999946
0
LINE
8
BLACK
6
CONTINUOUS
10
227.7609049999999797
20
-89.3859159999999946
11
227.7332409999999925
21
-89.6591079999999891
0
LINE
8
BLACK
6
CONTINUOUS
10
227.7332409999999925
20
-89.6591079999999891
11
227.7015349999999785
21
-89.931287999999995
0
LINE
8
BLACK
6
CONTINUOUS
10
227.7015349999999785
20
-89.931287999999995
11
227.6658419999999978
21
-90.2025039999999905
0
LINE
8
BLACK
6
CONTINUOUS
10
227.6658419999999978
20
-90.2025039999999905
11
227.6262199999999893
21
-90.4728039999999964
0
LINE
8
BLACK
6
CONTINUOUS
10
227.6262199999999893
20
-90.4728039999999964
11
227.5827249999999822
21
-90.7422359999999912
0
LINE
8
BLACK
6
CONTINUOUS
10
227.5827249999999822
20
-90.7422359999999912
11
227.5354140000000029
21
-91.0108479999999957
0
LINE
8
BLACK
6
CONTINUOUS
10
227.5354140000000029
20
-91.0108479999999957
11
227.4843449999999905
21
-91.2786880000000025
0
LINE
8
BLACK
6
CONTINUOUS
10
227.4843449999999905
20
-91.2786880000000025
11
227.4295729999999764
21
-91.5458029999999923
0
LINE
8
BLACK
6
CONTINUOUS
10
227.4295729999999764
20
-91.5458029999999923
11
227.3711569999999824
21
-91.8122429999999952
0
LINE
8
BLACK
6
CONTINUOUS
10
227.3711569999999824
20
-91.8122429999999952
11
227.3091519999999832
21
-92.0780539999999945
0
LINE
8
BLACK
6
CONTINUOUS
10
227.3091519999999832
20
-92.0780539999999945
11
227.2436160000000029
21
-92.3432849999999945
0
LINE
8
BLACK
6
CONTINUOUS
10
227.2436160000000029
20
-92.3432849999999945
11
227.1746049999999855
21
-92.6079849999999993
0
LINE
8
BLACK
6
CONTINUOUS
10
227.1746049999999855
20
-92.6079849999999993
11
227.1021769999999833
21
-92.8721999999999923
0
LINE
8
BLACK
6
CONTINUOUS
10
227.1021769999999833
20
-92.8721999999999923
11
227.0263869999999997
21
-93.1359789999999919
0
LINE
8
BLACK
6
CONTINUOUS
10
227.0263869999999997
20
-93.1359789999999919
11
226.9472939999999994
21
-93.3993699999999905
0
LINE
8
BLACK
6
CONTINUOUS
10
226.9472939999999994
20
-93.3993699999999905
11
226.8649529999999856
21
-93.6624219999999923
0
LINE
8
BLACK
6
CONTINUOUS
10
226.8649529999999856
20
-93.6624219999999923
11
226.7794219999999825
21
-93.9251809999999949
0
LINE
8
BLACK
6
CONTINUOUS
10
226.7794219999999825
20
-93.9251809999999949
11
226.6907579999999882
21
-94.1876960000000025
0
LINE
8
BLACK
6
CONTINUOUS
10
226.6907579999999882
20
-94.1876960000000025
11
226.5990170000000035
21
-94.4500149999999934
0
LINE
8
BLACK
6
CONTINUOUS
10
226.5990170000000035
20
-94.4500149999999934
11
226.504255999999998
21
-94.7121860000000027
0
LINE
8
BLACK
6
CONTINUOUS
10
226.504255999999998
20
-94.7121860000000027
11
226.406532999999996
21
-94.9742569999999944
0
LINE
8
BLACK
6
CONTINUOUS
10
226.406532999999996
20
-94.9742569999999944
11
226.3059030000000007
21
-95.2362759999999895
0
LINE
8
BLACK
6
CONTINUOUS
10
226.3059030000000007
20
-95.2362759999999895
11
226.2024239999999793
21
-95.4982919999999922
0
LINE
8
BLACK
6
CONTINUOUS
10
226.2024239999999793
20
-95.4982919999999922
11
226.0961529999999868
21
-95.760351
0
LINE
8
BLACK
6
CONTINUOUS
10
226.0961529999999868
20
-95.760351
11
225.9871459999999956
21
-96.0225019999999887
0
LINE
8
BLACK
6
CONTINUOUS
10
225.9871459999999956
20
-96.0225019999999887
11
225.8754610000000014
21
-96.2847939999999909
0
LINE
8
BLACK
6
CONTINUOUS
10
227.838797999999997
20
-56.7228189999999941
11
227.838797999999997
21
-87.7228190000000012
0
LINE
8
BLACK
6
CONTINUOUS
10
227.6575229999999976
20
-55.7725879999999989
11
227.7348069999999893
21
-55.9827739999999991
0
LINE
8
BLACK
6
CONTINUOUS
10
227.7348069999999893
20
-55.9827739999999991
11
227.7857329999999934
21
-56.1767309999999966
0
LINE
8
BLACK
6
CONTINUOUS
10
227.7857329999999934
20
-56.1767309999999966
11
227.8201289999999801
21
-56.3860099999999989
0
LINE
8
BLACK
6
CONTINUOUS
10
227.8201289999999801
20
-56.3860099999999989
11
227.8370899999999892
21
-56.6162909999999968
0
LINE
8
BLACK
6
CONTINUOUS
10
227.8370899999999892
20
-56.6162909999999968
11
227.838797999999997
21
-56.7228189999999941
0
LINE
8
BLACK
6
CONTINUOUS
10
226.6476449999999829
20
-54.5930189999999982
11
226.8478909999999757
21
-54.7350229999999982
0
LINE
8
BLACK
6
CONTINUOUS
10
226.8478909999999757
20
-54.7350229999999982
11
227.0365239999999858
21
-54.8971599999999995
0
LINE
8
BLACK
6
CONTINUOUS
10
227.0365239999999858
20
-54.8971599999999995
11
227.2107429999999795
21
-55.0763849999999948
0
LINE
8
BLACK
6
CONTINUOUS
10
227.2107429999999795
20
-55.0763849999999948
11
227.3677439999999876
21
-55.2696539999999956
0
LINE
8
BLACK
6
CONTINUOUS
10
227.3677439999999876
20
-55.2696539999999956
11
227.5047229999999843
21
-55.4739239999999967
0
LINE
8
BLACK
6
CONTINUOUS
10
227.5047229999999843
20
-55.4739239999999967
11
227.6188789999999926
21
-55.6861509999999953
0
LINE
8
BLACK
6
CONTINUOUS
10
227.6188789999999926
20
-55.6861509999999953
11
227.6575229999999976
21
-55.7725879999999989
0
LINE
8
BLACK
6
CONTINUOUS
10
225.338797999999997
20
-54.2228189999999941
11
225.5406659999999874
21
-54.2288589999999999
0
LINE
8
BLACK
6
CONTINUOUS
10
225.5406659999999874
20
-54.2288589999999999
11
225.7714330000000018
21
-54.2531669999999977
0
LINE
8
BLACK
6
CONTINUOUS
10
225.7714330000000018
20
-54.2531669999999977
11
225.9824249999999779
21
-54.2956939999999975
0
LINE
8
BLACK
6
CONTINUOUS
10
225.9824249999999779
20
-54.2956939999999975
11
226.1781309999999792
21
-54.3560109999999952
0
LINE
8
BLACK
6
CONTINUOUS
10
226.1781309999999792
20
-54.3560109999999952
11
226.3630409999999813
21
-54.4336899999999986
0
LINE
8
BLACK
6
CONTINUOUS
10
226.3630409999999813
20
-54.4336899999999986
11
226.5416429999999934
21
-54.5283019999999965
0
LINE
8
BLACK
6
CONTINUOUS
10
226.5416429999999934
20
-54.5283019999999965
11
226.6476449999999829
21
-54.5930189999999982
0
LINE
8
BLACK
6
CONTINUOUS
10
211.838797999999997
20
-54.2228189999999941
11
225.338797999999997
21
-54.2228189999999941
0
LINE
8
BLACK
6
CONTINUOUS
10
210.1312539999999842
20
-53.889840999999997
11
210.3306729999999902
21
-53.9661649999999966
0
LINE
8
BLACK
6
CONTINUOUS
10
210.3306729999999902
20
-53.9661649999999966
11
210.5360409999999831
21
-54.0329949999999997
0
LINE
8
BLACK
6
CONTINUOUS
10
210.5360409999999831
20
-54.0329949999999997
11
210.7463860000000011
21
-54.0901199999999989
0
LINE
8
BLACK
6
CONTINUOUS
10
210.7463860000000011
20
-54.0901199999999989
11
210.9607379999999921
21
-54.1373309999999961
0
LINE
8
BLACK
6
CONTINUOUS
10
210.9607379999999921
20
-54.1373309999999961
11
211.1781259999999918
21
-54.1744160000000008
0
LINE
8
BLACK
6
CONTINUOUS
10
211.1781259999999918
20
-54.1744160000000008
11
211.397578999999979
21
-54.2011660000000006
0
LINE
8
BLACK
6
CONTINUOUS
10
211.397578999999979
20
-54.2011660000000006
11
211.6181259999999895
21
-54.2173699999999954
0
LINE
8
BLACK
6
CONTINUOUS
10
211.6181259999999895
20
-54.2173699999999954
11
211.838797999999997
21
-54.2228189999999941
0
LINE
8
BLACK
6
CONTINUOUS
10
208.0932770000000005
20
-52.2155719999999945
11
208.2381639999999834
21
-52.4196529999999967
0
LINE
8
BLACK
6
CONTINUOUS
10
208.2381639999999834
20
-52.4196529999999967
11
208.3922759999999812
21
-52.6146929999999955
0
LINE
8
BLACK
6
CONTINUOUS
10
208.3922759999999812
20
-52.6146929999999955
11
208.5557249999999954
21
-52.8004469999999984
0
LINE
8
BLACK
6
CONTINUOUS
10
208.5557249999999954
20
-52.8004469999999984
11
208.7286259999999913
21
-52.9766699999999986
0
LINE
8
BLACK
6
CONTINUOUS
10
208.7286259999999913
20
-52.9766699999999986
11
208.9110929999999939
21
-53.1431159999999991
0
LINE
8
BLACK
6
CONTINUOUS
10
208.9110929999999939
20
-53.1431159999999991
11
209.1032390000000021
21
-53.2995419999999953
0
LINE
8
BLACK
6
CONTINUOUS
10
209.1032390000000021
20
-53.2995419999999953
11
209.3051779999999837
21
-53.4457029999999946
0
LINE
8
BLACK
6
CONTINUOUS
10
209.3051779999999837
20
-53.4457029999999946
11
209.5170249999999896
21
-53.581353
0
LINE
8
BLACK
6
CONTINUOUS
10
209.5170249999999896
20
-53.581353
11
209.7388939999999877
21
-53.7062469999999976
0
LINE
8
BLACK
6
CONTINUOUS
10
209.7388939999999877
20
-53.7062469999999976
11
209.9708969999999795
21
-53.820141999999997
0
LINE
8
BLACK
6
CONTINUOUS
10
209.9708969999999795
20
-53.820141999999997
11
210.1312539999999842
21
-53.889840999999997
0
LINE
8
BLACK
6
CONTINUOUS
10
207.338797999999997
20
-49.7228190000000012
11
207.3463840000000005
21
-49.9769760000000005
0
LINE
8
BLACK
6
CONTINUOUS
10
207.3463840000000005
20
-49.9769760000000005
11
207.3687489999999798
21
-50.2298589999999976
0
LINE
8
BLACK
6
CONTINUOUS
10
207.3687489999999798
20
-50.2298589999999976
11
207.4052979999999877
21
-50.4804419999999965
0
LINE
8
BLACK
6
CONTINUOUS
10
207.4052979999999877
20
-50.4804419999999965
11
207.4554389999999842
21
-50.7277009999999962
0
LINE
8
BLACK
6
CONTINUOUS
10
207.4554389999999842
20
-50.7277009999999962
11
207.5185789999999884
21
-50.9706139999999976
0
LINE
8
BLACK
6
CONTINUOUS
10
207.5185789999999884
20
-50.9706139999999976
11
207.5941239999999937
21
-51.2081549999999979
0
LINE
8
BLACK
6
CONTINUOUS
10
207.5941239999999937
20
-51.2081549999999979
11
207.6814829999999859
21
-51.4393010000000004
0
LINE
8
BLACK
6
CONTINUOUS
10
207.6814829999999859
20
-51.4393010000000004
11
207.7800609999999892
21
-51.6630279999999971
0
LINE
8
BLACK
6
CONTINUOUS
10
207.7800609999999892
20
-51.6630279999999971
11
207.8892649999999946
21
-51.8783109999999965
0
LINE
8
BLACK
6
CONTINUOUS
10
207.8892649999999946
20
-51.8783109999999965
11
208.0085029999999904
21
-52.0841259999999977
0
LINE
8
BLACK
6
CONTINUOUS
10
208.0085029999999904
20
-52.0841259999999977
11
208.0932770000000005
21
-52.2155719999999945
0
LINE
8
BLACK
6
CONTINUOUS
10
207.338797999999997
20
-28.6728189999999969
11
207.338797999999997
21
-49.7228190000000012
0
LINE
8
BLACK
6
CONTINUOUS
10
207.1575229999999976
20
-27.7225879999999982
11
207.2348069999999893
21
-27.9327739999999984
0
LINE
8
BLACK
6
CONTINUOUS
10
207.2348069999999893
20
-27.9327739999999984
11
207.2857329999999934
21
-28.1267309999999995
0
LINE
8
BLACK
6
CONTINUOUS
10
207.2857329999999934
20
-28.1267309999999995
11
207.3201289999999801
21
-28.3360099999999981
0
LINE
8
BLACK
6
CONTINUOUS
10
207.3201289999999801
20
-28.3360099999999981
11
207.3370899999999892
21
-28.5662909999999997
0
LINE
8
BLACK
6
CONTINUOUS
10
207.3370899999999892
20
-28.5662909999999997
11
207.338797999999997
21
-28.6728189999999969
0
LINE
8
BLACK
6
CONTINUOUS
10
206.1476449999999829
20
-26.5430189999999975
11
206.3478910000000042
21
-26.6850229999999975
0
LINE
8
BLACK
6
CONTINUOUS
10
206.3478910000000042
20
-26.6850229999999975
11
206.5365239999999858
21
-26.8471599999999988
0
LINE
8
BLACK
6
CONTINUOUS
10
206.5365239999999858
20
-26.8471599999999988
11
206.7107429999999795
21
-27.0263849999999977
0
LINE
8
BLACK
6
CONTINUOUS
10
206.7107429999999795
20
-27.0263849999999977
11
206.8677439999999876
21
-27.2196539999999985
0
LINE
8
BLACK
6
CONTINUOUS
10
206.8677439999999876
20
-27.2196539999999985
11
207.0047229999999843
21
-27.4239239999999995
0
LINE
8
BLACK
6
CONTINUOUS
10
207.0047229999999843
20
-27.4239239999999995
11
207.1188789999999926
21
-27.6361509999999981
0
LINE
8
BLACK
6
CONTINUOUS
10
207.1188789999999926
20
-27.6361509999999981
11
207.1575229999999976
21
-27.7225879999999982
0
LINE
8
BLACK
6
CONTINUOUS
10
204.838797999999997
20
-26.1728190000000005
11
205.0406659999999874
21
-26.1788589999999992
0
LINE
8
BLACK
6
CONTINUOUS
10
205.0406659999999874
20
-26.1788589999999992
11
205.2714330000000018
21
-26.2031670000000005
0
LINE
8
BLACK
6
CONTINUOUS
10
205.2714330000000018
20
-26.2031670000000005
11
205.4824249999999779
21
-26.2456940000000003
0
LINE
8
BLACK
6
CONTINUOUS
10
205.4824249999999779
20
-26.2456940000000003
11
205.6781309999999792
21
-26.306010999999998
0
LINE
8
BLACK
6
CONTINUOUS
10
205.6781309999999792
20
-26.306010999999998
11
205.8630409999999813
21
-26.3836899999999979
0
LINE
8
BLACK
6
CONTINUOUS
10
205.8630409999999813
20
-26.3836899999999979
11
206.0416429999999934
21
-26.4783019999999993
0
LINE
8
BLACK
6
CONTINUOUS
10
206.0416429999999934
20
-26.4783019999999993
11
206.1476449999999829
21
-26.5430189999999975
0
LINE
8
BLACK
6
CONTINUOUS
10
133.88879799999998
20
-26.1728190000000005
11
204.838797999999997
21
-26.1728190000000005
0
LINE
8
BLACK
6
CONTINUOUS
10
132.9385670000000061
20
-26.3540939999999999
11
133.1487529999999992
21
-26.2768090000000001
0
LINE
8
BLACK
6
CONTINUOUS
10
133.1487529999999992
20
-26.2768090000000001
11
133.3427099999999825
21
-26.2258829999999996
0
LINE
8
BLACK
6
CONTINUOUS
10
133.3427099999999825
20
-26.2258829999999996
11
133.5519889999999918
21
-26.1914869999999986
0
LINE
8
BLACK
6
CONTINUOUS
10
133.5519889999999918
20
-26.1914869999999986
11
133.7822699999999827
21
-26.1745260000000002
0
LINE
8
BLACK
6
CONTINUOUS
10
133.7822699999999827
20
-26.1745260000000002
11
133.88879799999998
21
-26.1728190000000005
0
LINE
8
BLACK
6
CONTINUOUS
10
131.7589979999999912
20
-27.3639720000000004
11
131.9010020000000054
21
-27.1637249999999995
0
LINE
8
BLACK
6
CONTINUOUS
10
131.9010020000000054
20
-27.1637249999999995
11
132.0631390000000067
21
-26.9750920000000001
0
LINE
8
BLACK
6
CONTINUOUS
10
132.0631390000000067
20
-26.9750920000000001
11
132.2423639999999807
21
-26.8008729999999993
0
LINE
8
BLACK
6
CONTINUOUS
10
132.2423639999999807
20
-26.8008729999999993
11
132.4356329999999957
21
-26.6438719999999982
0
LINE
8
BLACK
6
CONTINUOUS
10
132.4356329999999957
20
-26.6438719999999982
11
132.6399030000000039
21
-26.506892999999998
0
LINE
8
BLACK
6
CONTINUOUS
10
132.6399030000000039
20
-26.506892999999998
11
132.8521299999999883
21
-26.3927370000000003
0
LINE
8
BLACK
6
CONTINUOUS
10
132.8521299999999883
20
-26.3927370000000003
11
132.9385670000000061
21
-26.3540939999999999
0
LINE
8
BLACK
6
CONTINUOUS
10
131.38879799999998
20
-28.6728189999999969
11
131.3948379999999929
21
-28.4709499999999984
0
LINE
8
BLACK
6
CONTINUOUS
10
131.3948379999999929
20
-28.4709499999999984
11
131.4191459999999836
21
-28.2401829999999983
0
LINE
8
BLACK
6
CONTINUOUS
10
131.4191459999999836
20
-28.2401829999999983
11
131.4616729999999905
21
-28.0291909999999973
0
LINE
8
BLACK
6
CONTINUOUS
10
131.4616729999999905
20
-28.0291909999999973
11
131.5219899999999882
21
-27.8334849999999996
0
LINE
8
BLACK
6
CONTINUOUS
10
131.5219899999999882
20
-27.8334849999999996
11
131.5996690000000058
21
-27.6485749999999975
0
LINE
8
BLACK
6
CONTINUOUS
10
131.5996690000000058
20
-27.6485749999999975
11
131.6942809999999895
21
-27.4699729999999995
0
LINE
8
BLACK
6
CONTINUOUS
10
131.6942809999999895
20
-27.4699729999999995
11
131.7589979999999912
21
-27.3639720000000004
0
LINE
8
BLACK
6
CONTINUOUS
10
131.38879799999998
20
-28.6728189999999969
11
131.38879799999998
21
-39.7728199999999958
0
ARC
8
BLACK
10
126.8887999999999892
20
-39.7728210000000004
40
4.4999980000001107
50
-90.00000000
51
0.00001273
0
LINE
8
BLACK
6
CONTINUOUS
10
114.8887979999999942
20
-44.2728189999999984
11
126.8887999999999892
21
-44.2728189999999984
0
CIRCLE
8
BLACK
10
125.3607529999999883
20
-100.9314909999999941
40
0.25
0
CIRCLE
8
BLACK
10
204.8892139999999813
20
-118.1114899999999892
40
0.25
0
CIRCLE
8
BLACK
10
122.1607529999999997
20
-100.9314909999999941
40
0.25
0
CIRCLE
8
BLACK
10
124.5607529999999912
20
-100.9314909999999941
40
0.25
0
CIRCLE
8
BLACK
10
120.5607529999999912
20
-100.9314909999999941
40
0.25
0
CIRCLE
8
BLACK
10
201.4251119999999844
20
-116.1114899999999892
40
0.250001
0
CIRCLE
8
BLACK
10
200.7322920000000011
20
-115.7114899999999977
40
0.25
0
CIRCLE
8
BLACK
10
203.5035729999999887
20
-117.3114899999999921
40
0.250001
0
CIRCLE
8
BLACK
10
121.3607529999999883
20
-100.9314909999999941
40
0.25
0
CIRCLE
8
BLACK
10
123.760752999999994
20
-100.9314909999999941
40
0.25
0
CIRCLE
8
BLACK
10
205.5820339999999931
20
-118.5114899999999949
40
0.25
0
CIRCLE
8
BLACK
10
119.760752999999994
20
-100.9314909999999941
40
0.25
0
CIRCLE
8
BLACK
10
202.1179329999999936
20
-116.5114899999999949
40
0.25
0
CIRCLE
8
BLACK
10
206.2748540000000048
20
-118.9114900000000006
40
0.250001
0
LINE
8
BLACK
6
CONTINUOUS
10
199.5531569999999988
20
-129.0001790000000028
11
125.9007519999999971
21
-129.0001790000000028
0
CIRCLE
8
BLACK
10
204.1963930000000005
20
-117.7114899999999977
40
0.250001
0
CIRCLE
8
BLACK
10
118.1607529999999997
20
-100.9314909999999941
40
0.25
0
CIRCLE
8
BLACK
10
200.0394719999999893
20
-115.3114899999999921
40
0.25
0
CIRCLE
8
BLACK
10
122.9607529999999969
20
-100.9314909999999941
40
0.25
0
CIRCLE
8
BLACK
10
118.1507519999999971
20
-152.070178999999996
40
0.25
0
CIRCLE
8
BLACK
10
202.810752999999977
20
-116.9114900000000006
40
0.25
0
CIRCLE
8
BLACK
10
118.9607529999999969
20
-100.9314909999999941
40
0.25
0
ARC
8
BLACK
10
117.3607529999999883
20
-100.9314909999999941
40
0.25
50
0.00000000
51
180.00000000
0
LINE
8
BLACK
6
CONTINUOUS
10
206.7511679999999785
20
-119.1864899999999921
11
206.7511679999999785
21
-124.0014910000000015
0
LINE
8
BLACK
6
CONTINUOUS
10
125.9107529999999997
20
-100.9314909999999941
11
125.9107529999999997
21
-124.0014910000000015
0
LINE
8
BLACK
6
CONTINUOUS
10
199.5631579999999872
20
-115.0364900000000006
11
199.5631579999999872
21
-124.0014910000000015
0
LINE
8
BLACK
6
CONTINUOUS
10
112.3807529999999986
20
-124.0014910000000015
11
117.6107529999999883
21
-124.0014910000000015
0
LINE
8
BLACK
6
CONTINUOUS
10
117.1107529999999883
20
-100.9314909999999941
11
117.1107529999999883
21
-101.2218189999999964
0
LINE
8
BLACK
6
CONTINUOUS
10
207.1887979999999914
20
-119.8718189999999879
11
207.1841809999999953
21
-119.4364899999999921
0
LINE
8
BLACK
6
CONTINUOUS
10
126.4107529999999997
20
-101.2218189999999964
11
126.4107529999999997
21
-100.9314909999999941
0
ARC
8
BLACK
10
206.9676999999999794
20
-119.3114999999999952
40
0.2500272127669306
50
-30.00092032
51
150.00095428
0
LINE
8
BLACK
6
CONTINUOUS
10
125.9107529999999997
20
-124.0014910000000015
11
199.5631579999999872
21
-124.0014910000000015
0
ARC
8
BLACK
10
199.3466999999999985
20
-114.9114999999999895
40
0.2500471318071855
50
-30.00355649
51
150.00358931
0
LINE
8
BLACK
6
CONTINUOUS
10
206.7511679999999785
20
-124.0014910000000015
11
231.473797999999988
21
-124.0014910000000015
0
LINE
8
BLACK
6
CONTINUOUS
10
117.6107529999999883
20
-100.9314909999999941
11
117.6107529999999883
21
-124.0014910000000015
0
LINE
8
BLACK
6
CONTINUOUS
10
199.1301449999999988
20
-114.7864900000000006
11
198.9387979999999914
21
-115.1018189999999919
0
ARC
8
BLACK
10
126.1607529999999997
20
-100.9314909999999941
40
0.25
50
0.00000000
51
180.00000000
0
LINE
8
BLACK
6
CONTINUOUS
10
125.9007519999999971
20
-129.0001790000000028
11
125.9007519999999971
21
-152.070178999999996
0
CIRCLE
8
BLACK
10
121.350752
20
-152.070178999999996
40
0.25
0
CIRCLE
8
BLACK
10
206.264852999999988
20
-134.0901800000000037
40
0.250001
0
CIRCLE
8
BLACK
10
204.8792129999999929
20
-134.8901799999999866
40
0.25
0
CIRCLE
8
BLACK
10
119.7507519999999914
20
-152.070178999999996
40
0.25
0
CIRCLE
8
BLACK
10
122.9507519999999943
20
-152.070178999999996
40
0.25
0
LINE
8
BLACK
6
CONTINUOUS
10
231.4637969999999996
20
-129.0001790000000028
11
206.7411669999999901
21
-129.0001790000000028
0
LINE
8
BLACK
6
CONTINUOUS
10
198.9287980000000005
20
-137.901818999999989
11
199.120143999999982
21
-138.2151800000000037
0
CIRCLE
8
BLACK
10
203.4935720000000003
20
-135.690179999999998
40
0.250001
0
ARC
8
BLACK
10
126.1507519999999971
20
-152.070178999999996
40
0.25
50
-180.00000000
51
-0.00000000
0
CIRCLE
8
BLACK
10
118.9507519999999943
20
-152.070178999999996
40
0.25
0
CIRCLE
8
BLACK
10
201.415110999999996
20
-136.8901799999999866
40
0.250001
0
ARC
8
BLACK
10
206.9576999999999884
20
-133.6902000000000044
40
0.2499871812713604
50
-150.00702296
51
30.00698952
0
CIRCLE
8
BLACK
10
120.5507519999999886
20
-152.070178999999996
40
0.25
0
ARC
8
BLACK
10
117.350752
20
-152.070178999999996
40
0.25
50
-180.00000000
51
-0.00000000
0
CIRCLE
8
BLACK
10
200.0294710000000009
20
-137.690179999999998
40
0.25
0
CIRCLE
8
BLACK
10
205.5720330000000047
20
-134.490179999999981
40
0.25
0
CIRCLE
8
BLACK
10
202.1079319999999768
20
-136.490179999999981
40
0.25
0
ARC
8
BLACK
10
199.3366000000000042
20
-138.0901999999999816
40
0.2500538634954477
50
-149.99819939
51
29.99816601
0
LINE
8
BLACK
6
CONTINUOUS
10
117.600752
20
-129.0001790000000028
11
117.600752
21
-152.070178999999996
0
CIRCLE
8
BLACK
10
125.350752
20
-152.070178999999996
40
0.25
0
CIRCLE
8
BLACK
10
124.5507519999999886
20
-152.070178999999996
40
0.25
0
LINE
8
BLACK
6
CONTINUOUS
10
206.7411669999999901
20
-129.0001790000000028
11
206.7411669999999901
21
-133.815179999999998
0
CIRCLE
8
BLACK
10
204.1863919999999837
20
-135.2901799999999923
40
0.250001
0
LINE
8
BLACK
6
CONTINUOUS
10
199.5531569999999988
20
-129.0001790000000028
11
199.5531569999999988
21
-137.9651800000000037
0
CIRCLE
8
BLACK
10
123.7507519999999914
20
-152.070178999999996
40
0.25
0
LINE
8
BLACK
6
CONTINUOUS
10
126.4007519999999971
20
-152.070178999999996
11
126.3987979999999993
21
-151.7818189999999845
0
CIRCLE
8
BLACK
10
122.1507519999999971
20
-152.070178999999996
40
0.25
0
CIRCLE
8
BLACK
10
202.8007519999999886
20
-136.0901800000000037
40
0.25
0
CIRCLE
8
BLACK
10
200.7222909999999843
20
-137.2901799999999923
40
0.25
0
LINE
8
BLACK
6
CONTINUOUS
10
207.1741799999999785
20
-133.565179999999998
11
207.1687979999999811
21
-133.1418189999999981
0
LINE
8
BLACK
6
CONTINUOUS
10
117.098797999999988
20
-151.7818189999999845
11
117.100752
21
-152.070178999999996
0
LINE
8
BLACK
6
CONTINUOUS
10
117.600752
20
-129.0001790000000028
11
112.370751999999996
21
-129.0001790000000028
0
LINE
8
BLACK
6
CONTINUOUS
10
112.3807529999999986
20
-124.0014910000000015
11
112.370751999999996
21
-129.0001790000000028
0
LINE
8
BLACK
6
CONTINUOUS
10
231.473797999999988
20
-124.0014910000000015
11
231.4637969999999996
21
-129.0001790000000028
0
CIRCLE
8
BLACK
10
161.7288069999999891
20
-155.0416699999999821
40
0.9499989999999999
0
CIRCLE
8
BLACK
10
162.2288069999999891
20
-149.8916700000000048
40
0.7999999999999999
0
CIRCLE
8
BLACK
10
167.2288069999999891
20
-155.0416699999999821
40
2.5249989999999998
0
CIRCLE
8
BLACK
10
172.7288069999999891
20
-155.0416699999999821
40
0.9499989999999999
0
CIRCLE
8
BLACK
10
167.2288069999999891
20
-160.9416699999999878
40
0.6
0
CIRCLE
8
BLACK
10
172.2288069999999891
20
-158.8416699999999935
40
0.6
0
CIRCLE
8
BLACK
10
203.3638079999999775
20
-42.7474999999999952
40
0.9499989999999999
0
CIRCLE
8
BLACK
10
202.8638079999999775
20
-47.8975000000000009
40
0.7999999999999999
0
CIRCLE
8
BLACK
10
197.8638079999999775
20
-42.7474999999999952
40
2.5249989999999998
0
CIRCLE
8
BLACK
10
192.3638079999999775
20
-42.7474999999999952
40
0.9499989999999999
0
CIRCLE
8
BLACK
10
197.8638079999999775
20
-36.8474999999999966
40
0.6
0
CIRCLE
8
BLACK
10
192.8638079999999775
20
-38.947499999999998
40
0.6
0
CIRCLE
8
BLACK
10
116.3538069999999891
20
-180.2541699999999878
40
0.9499989999999999
0
CIRCLE
8
BLACK
10
116.8538069999999891
20
-175.1041699999999821
40
0.7999999999999999
0
CIRCLE
8
BLACK
10
121.8538069999999891
20
-180.2541699999999878
40
2.5249989999999998
0
CIRCLE
8
BLACK
10
127.3538069999999891
20
-180.2541699999999878
40
0.9499989999999999
0
CIRCLE
8
BLACK
10
121.8538069999999891
20
-186.1541699999999935
40
0.6
0
CIRCLE
8
BLACK
10
126.8538069999999891
20
-184.0541699999999992
40
0.6
0
CIRCLE
8
BLACK
10
173.3538069999999891
20
-174.7791699999999935
40
0.9499989999999999
0
CIRCLE
8
BLACK
10
173.8538069999999891
20
-169.6291699999999878
40
0.7999999999999999
0
CIRCLE
8
BLACK
10
178.8538069999999891
20
-174.7791699999999935
40
2.5249989999999998
0
CIRCLE
8
BLACK
10
184.3538069999999891
20
-174.7791699999999935
40
0.9499989999999999
0
CIRCLE
8
BLACK
10
178.8538069999999891
20
-180.6791699999999992
40
0.6
0
CIRCLE
8
BLACK
10
183.8538069999999891
20
-178.5791700000000048
40
0.6
0
CIRCLE
8
BLACK
10
173.3538069999999891
20
-193.7791699999999935
40
0.9499989999999999
0
CIRCLE
8
BLACK
10
173.8538069999999891
20
-188.6291699999999878
40
0.7999999999999999
0
CIRCLE
8
BLACK
10
178.8538069999999891
20
-193.7791699999999935
40
2.5249989999999998
0
CIRCLE
8
BLACK
10
184.3538069999999891
20
-193.7791699999999935
40
0.9499989999999999
0
CIRCLE
8
BLACK
10
178.8538069999999891
20
-199.6791699999999992
40
0.6
0
CIRCLE
8
BLACK
10
183.8538069999999891
20
-197.5791700000000048
40
0.6
0
CIRCLE
8
BLACK
10
165.3888079999999832
20
-35.6475000000000009
40
0.9499989999999999
0
CIRCLE
8
BLACK
10
164.8888079999999832
20
-40.7974999999999994
40
0.7999999999999999
0
CIRCLE
8
BLACK
10
159.8888079999999832
20
-35.6475000000000009
40
2.5249989999999998
0
CIRCLE
8
BLACK
10
154.3888079999999832
20
-35.6475000000000009
40
0.9499989999999999
0
CIRCLE
8
BLACK
10
159.8888079999999832
20
-29.7474999999999987
40
0.6
0
CIRCLE
8
BLACK
10
154.8888079999999832
20
-31.8475000000000001
40
0.6
0
CIRCLE
8
BLACK
10
173.3538069999999891
20
-212.7791699999999935
40
0.9499989999999999
0
CIRCLE
8
BLACK
10
173.8538069999999891
20
-207.6291699999999878
40
0.7999999999999999
0
CIRCLE
8
BLACK
10
178.8538069999999891
20
-212.7791699999999935
40
2.5249989999999998
0
CIRCLE
8
BLACK
10
184.3538069999999891
20
-212.7791699999999935
40
0.9499989999999999
0
CIRCLE
8
BLACK
10
178.8538069999999891
20
-218.6791699999999992
40
0.6
0
CIRCLE
8
BLACK
10
183.8538069999999891
20
-216.5791699999999764
40
0.6
0
CIRCLE
8
BLACK
10
203.0656669999999906
20
-146.4541700000000048
40
0.9499989999999999
0
CIRCLE
8
BLACK
10
200.9236799999999903
20
-141.7441389999999899
40
0.7999999999999999
0
CIRCLE
8
BLACK
10
207.8288069999999834
20
-143.7041700000000048
40
2.5249989999999998
0
CIRCLE
8
BLACK
10
212.5919469999999762
20
-140.9541700000000048
40
0.9499989999999999
0
CIRCLE
8
BLACK
10
210.7788070000000005
20
-148.8137199999999893
40
0.6
0
CIRCLE
8
BLACK
10
214.0589339999999936
20
-144.4950670000000059
40
0.6
0
CIRCLE
8
BLACK
10
146.3638080000000059
20
-60.7724999999999937
40
0.9499989999999999
0
CIRCLE
8
BLACK
10
145.8638080000000059
20
-65.9224999999999994
40
0.7999999999999999
0
CIRCLE
8
BLACK
10
140.8638080000000059
20
-60.7724999999999937
40
2.5249989999999998
0
CIRCLE
8
BLACK
10
135.3638080000000059
20
-60.7724999999999937
40
0.9499989999999999
0
CIRCLE
8
BLACK
10
140.8638080000000059
20
-54.8724999999999952
40
0.6
0
CIRCLE
8
BLACK
10
135.8638080000000059
20
-56.9724999999999966
40
0.6
0
CIRCLE
8
BLACK
10
193.4513999999999783
20
-102.4210049999999939
40
0.9499989999999999
0
CIRCLE
8
BLACK
10
191.635518999999988
20
-107.2661129999999901
40
0.7999999999999999
0
CIRCLE
8
BLACK
10
188.1388079999999832
20
-100.9975000000000023
40
2.5249989999999998
0
CIRCLE
8
BLACK
10
182.8262159999999881
20
-99.5739949999999965
40
0.9499989999999999
0
CIRCLE
8
BLACK
10
189.6658400000000029
20
-95.2985379999999935
40
0.6
0
CIRCLE
8
BLACK
10
184.2926909999999907
20
-96.0328870000000023
40
0.6
0
CIRCLE
8
BLACK
10
192.3538069999999891
20
-191.2541699999999878
40
0.9499989999999999
0
CIRCLE
8
BLACK
10
192.8538069999999891
20
-186.1041699999999821
40
0.7999999999999999
0
CIRCLE
8
BLACK
10
197.8538069999999891
20
-191.2541699999999878
40
2.5249989999999998
0
CIRCLE
8
BLACK
10
203.3538069999999891
20
-191.2541699999999878
40
0.9499989999999999
0
CIRCLE
8
BLACK
10
197.8538069999999891
20
-197.1541699999999935
40
0.6
0
CIRCLE
8
BLACK
10
202.8538069999999891
20
-195.0541699999999992
40
0.6
0
CIRCLE
8
BLACK
10
172.7388080000000059
20
-97.9599999999999937
40
0.9499989999999999
0
CIRCLE
8
BLACK
10
172.2388080000000059
20
-103.1099999999999994
40
0.7999999999999999
0
CIRCLE
8
BLACK
10
167.2388080000000059
20
-97.9599999999999937
40
2.5249989999999998
0
CIRCLE
8
BLACK
10
161.7388080000000059
20
-97.9599999999999937
40
0.9499989999999999
0
CIRCLE
8
BLACK
10
167.2388080000000059
20
-92.0600000000000023
40
0.6
0
CIRCLE
8
BLACK
10
162.2388080000000059
20
-94.1599999999999966
40
0.6
0
CIRCLE
8
BLACK
10
127.3638079999999917
20
-91.7475000000000023
40
0.9499989999999999
0
CIRCLE
8
BLACK
10
126.8638079999999917
20
-96.8974999999999937
40
0.7999999999999999
0
CIRCLE
8
BLACK
10
121.8638079999999917
20
-91.7475000000000023
40
2.5249989999999998
0
CIRCLE
8
BLACK
10
116.3638079999999917
20
-91.7475000000000023
40
0.9499989999999999
0
CIRCLE
8
BLACK
10
121.8638079999999917
20
-85.8474999999999966
40
0.6
0
CIRCLE
8
BLACK
10
116.8638079999999917
20
-87.9474999999999909
40
0.6
0
CIRCLE
8
BLACK
10
165.3888079999999832
20
-54.6475000000000009
40
0.9499989999999999
0
CIRCLE
8
BLACK
10
164.8888079999999832
20
-59.7974999999999994
40
0.7999999999999999
0
CIRCLE
8
BLACK
10
159.8888079999999832
20
-54.6475000000000009
40
2.5249989999999998
0
CIRCLE
8
BLACK
10
154.3888079999999832
20
-54.6475000000000009
40
0.9499989999999999
0
CIRCLE
8
BLACK
10
159.8888079999999832
20
-48.7474999999999952
40
0.6
0
CIRCLE
8
BLACK
10
154.8888079999999832
20
-50.8474999999999966
40
0.6
0
CIRCLE
8
BLACK
10
135.3538069999999891
20
-173.2291699999999821
40
0.9499989999999999
0
CIRCLE
8
BLACK
10
135.8538069999999891
20
-168.0791700000000048
40
0.7999999999999999
0
CIRCLE
8
BLACK
10
140.8538069999999891
20
-173.2291699999999821
40
2.5249989999999998
0
CIRCLE
8
BLACK
10
146.3538069999999891
20
-173.2291699999999821
40
0.9499989999999999
0
CIRCLE
8
BLACK
10
140.8538069999999891
20
-179.1291699999999878
40
0.6
0
CIRCLE
8
BLACK
10
145.8538069999999891
20
-177.0291699999999935
40
0.6
0
CIRCLE
8
BLACK
10
154.3788069999999948
20
-179.3541699999999821
40
0.9499989999999999
0
CIRCLE
8
BLACK
10
154.8788069999999948
20
-174.2041700000000048
40
0.7999999999999999
0
CIRCLE
8
BLACK
10
159.8788069999999948
20
-179.3541699999999821
40
2.5249989999999998
0
CIRCLE
8
BLACK
10
165.3788069999999948
20
-179.3541699999999821
40
0.9499989999999999
0
CIRCLE
8
BLACK
10
159.8788069999999948
20
-185.2541699999999878
40
0.6
0
CIRCLE
8
BLACK
10
164.8788069999999948
20
-183.1541699999999935
40
0.6
0
CIRCLE
8
BLACK
10
187.4537979999999777
20
-223.4218189999999993
40
0.5
0
CIRCLE
8
BLACK
10
189.9937979999999982
20
-223.4218189999999993
40
0.5
0
CIRCLE
8
BLACK
10
184.3638079999999775
20
-78.2224999999999966
40
0.9499989999999999
0
CIRCLE
8
BLACK
10
183.8638079999999775
20
-83.3725000000000023
40
0.7999999999999999
0
CIRCLE
8
BLACK
10
178.8638080000000059
20
-78.2224999999999966
40
2.5249989999999998
0
CIRCLE
8
BLACK
10
173.3638080000000059
20
-78.2224999999999966
40
0.9499989999999999
0
CIRCLE
8
BLACK
10
178.8638080000000059
20
-72.3224999999999909
40
0.6
0
CIRCLE
8
BLACK
10
173.8638080000000059
20
-74.4224999999999994
40
0.6
0
CIRCLE
8
BLACK
10
127.3638079999999917
20
-53.7474999999999952
40
0.9499989999999999
0
CIRCLE
8
BLACK
10
126.8638079999999917
20
-58.8975000000000009
40
0.7999999999999999
0
CIRCLE
8
BLACK
10
121.8638079999999917
20
-53.7474999999999952
40
2.5249989999999998
0
CIRCLE
8
BLACK
10
116.3638079999999917
20
-53.7474999999999952
40
0.9499989999999999
0
CIRCLE
8
BLACK
10
121.8638079999999917
20
-47.8474999999999966
40
0.6
0
CIRCLE
8
BLACK
10
116.8638079999999917
20
-49.947499999999998
40
0.6
0
CIRCLE
8
BLACK
10
203.3638079999999775
20
-80.7475000000000023
40
0.9499989999999999
0
CIRCLE
8
BLACK
10
202.8638079999999775
20
-85.8974999999999937
40
0.7999999999999999
0
CIRCLE
8
BLACK
10
197.8638079999999775
20
-80.7475000000000023
40
2.5249989999999998
0
CIRCLE
8
BLACK
10
192.3638079999999775
20
-80.7475000000000023
40
0.9499989999999999
0
CIRCLE
8
BLACK
10
197.8638079999999775
20
-74.8474999999999966
40
0.6
0
CIRCLE
8
BLACK
10
192.8638079999999775
20
-76.9474999999999909
40
0.6
0
CIRCLE
8
BLACK
10
182.8162149999999997
20
-153.4276749999999936
40
0.9499989999999999
0
CIRCLE
8
BLACK
10
181.9662600000000054
20
-148.3237469999999973
40
0.7999999999999999
0
CIRCLE
8
BLACK
10
188.1288069999999948
20
-152.0041699999999878
40
2.5249989999999998
0
CIRCLE
8
BLACK
10
193.4413989999999899
20
-150.580664999999982
40
0.9499989999999999
0
CIRCLE
8
BLACK
10
189.6558389999999861
20
-157.7031319999999823
40
0.6
0
CIRCLE
8
BLACK
10
193.9419489999999939
20
-154.3805930000000046
40
0.6
0
CIRCLE
8
BLACK
10
192.3538069999999891
20
-210.2541699999999878
40
0.9499989999999999
0
CIRCLE
8
BLACK
10
192.8538069999999891
20
-205.1041699999999821
40
0.7999999999999999
0
CIRCLE
8
BLACK
10
197.8538069999999891
20
-210.2541699999999878
40
2.5249989999999998
0
CIRCLE
8
BLACK
10
203.3538069999999891
20
-210.2541699999999878
40
0.9499989999999999
0
CIRCLE
8
BLACK
10
197.8538069999999891
20
-216.1541699999999935
40
0.6
0
CIRCLE
8
BLACK
10
202.8538069999999891
20
-214.0541699999999992
40
0.6
0
CIRCLE
8
BLACK
10
116.3538069999999891
20
-199.2541699999999878
40
0.9499989999999999
0
CIRCLE
8
BLACK
10
116.8538069999999891
20
-194.1041699999999821
40
0.7999999999999999
0
CIRCLE
8
BLACK
10
121.8538069999999891
20
-199.2541699999999878
40
2.5249989999999998
0
CIRCLE
8
BLACK
10
127.3538069999999891
20
-199.2541699999999878
40
0.9499989999999999
0
CIRCLE
8
BLACK
10
121.8538069999999891
20
-205.1541699999999935
40
0.6
0
CIRCLE
8
BLACK
10
126.8538069999999891
20
-203.0541699999999992
40
0.6
0
CIRCLE
8
BLACK
10
192.3538069999999891
20
-172.2541699999999878
40
0.9499989999999999
0
CIRCLE
8
BLACK
10
192.8538069999999891
20
-167.1041699999999821
40
0.7999999999999999
0
CIRCLE
8
BLACK
10
197.8538069999999891
20
-172.2541699999999878
40
2.5249989999999998
0
CIRCLE
8
BLACK
10
203.3538069999999891
20
-172.2541699999999878
40
0.9499989999999999
0
CIRCLE
8
BLACK
10
197.8538069999999891
20
-178.1541699999999935
40
0.6
0
CIRCLE
8
BLACK
10
202.8538069999999891
20
-176.0541699999999992
40
0.6
0
CIRCLE
8
BLACK
10
146.3638080000000059
20
-41.7725000000000009
40
0.9499989999999999
0
CIRCLE
8
BLACK
10
145.8638080000000059
20
-46.9224999999999994
40
0.7999999999999999
0
CIRCLE
8
BLACK
10
140.8638080000000059
20
-41.7725000000000009
40
2.5249989999999998
0
CIRCLE
8
BLACK
10
135.3638080000000059
20
-41.7725000000000009
40
0.9499989999999999
0
CIRCLE
8
BLACK
10
140.8638080000000059
20
-35.8724999999999952
40
0.6
0
CIRCLE
8
BLACK
10
135.8638080000000059
20
-37.9724999999999966
40
0.6
0
CIRCLE
8
BLACK
10
212.601947999999993
20
-112.0474999999999994
40
0.9499989999999999
0
CIRCLE
8
BLACK
10
209.5939349999999877
20
-116.2575310000000002
40
0.7999999999999999
0
CIRCLE
8
BLACK
10
207.8388080000000002
20
-109.2974999999999994
40
2.5249989999999998
0
CIRCLE
8
BLACK
10
203.075667999999979
20
-106.5474999999999994
40
0.9499989999999999
0
CIRCLE
8
BLACK
10
210.7888079999999889
20
-104.1879500000000007
40
0.6
0
CIRCLE
8
BLACK
10
205.4086810000000014
20
-103.5066029999999984
40
0.6
0
CIRCLE
8
BLACK
10
154.3788069999999948
20
-198.3541699999999821
40
0.9499989999999999
0
CIRCLE
8
BLACK
10
154.8788069999999948
20
-193.2041700000000048
40
0.7999999999999999
0
CIRCLE
8
BLACK
10
159.8788069999999948
20
-198.3541699999999821
40
2.5249989999999998
0
CIRCLE
8
BLACK
10
165.3788069999999948
20
-198.3541699999999821
40
0.9499989999999999
0
CIRCLE
8
BLACK
10
159.8788069999999948
20
-204.2541699999999878
40
0.6
0
CIRCLE
8
BLACK
10
164.8788069999999948
20
-202.1541699999999935
40
0.6
0
CIRCLE
8
BLACK
10
203.3638079999999775
20
-61.7474999999999952
40
0.9499989999999999
0
CIRCLE
8
BLACK
10
202.8638079999999775
20
-66.8974999999999937
40
0.7999999999999999
0
CIRCLE
8
BLACK
10
197.8638079999999775
20
-61.7474999999999952
40
2.5249989999999998
0
CIRCLE
8
BLACK
10
192.3638079999999775
20
-61.7474999999999952
40
0.9499989999999999
0
CIRCLE
8
BLACK
10
197.8638079999999775
20
-55.8474999999999966
40
0.6
0
CIRCLE
8
BLACK
10
192.8638079999999775
20
-57.947499999999998
40
0.6
0
CIRCLE
8
BLACK
10
135.3538069999999891
20
-192.2291699999999821
40
0.9499989999999999
0
CIRCLE
8
BLACK
10
135.8538069999999891
20
-187.0791700000000048
40
0.7999999999999999
0
CIRCLE
8
BLACK
10
140.8538069999999891
20
-192.2291699999999821
40
2.5249989999999998
0
CIRCLE
8
BLACK
10
146.3538069999999891
20
-192.2291699999999821
40
0.9499989999999999
0
CIRCLE
8
BLACK
10
140.8538069999999891
20
-198.1291699999999878
40
0.6
0
CIRCLE
8
BLACK
10
145.8538069999999891
20
-196.0291699999999935
40
0.6
0
CIRCLE
8
BLACK
10
116.3538069999999891
20
-161.2541699999999878
40
0.9499989999999999
0
CIRCLE
8
BLACK
10
116.8538069999999891
20
-156.1041699999999821
40
0.7999999999999999
0
CIRCLE
8
BLACK
10
121.8538069999999891
20
-161.2541699999999878
40
2.5249989999999998
0
CIRCLE
8
BLACK
10
127.3538069999999891
20
-161.2541699999999878
40
0.9499989999999999
0
CIRCLE
8
BLACK
10
121.8538069999999891
20
-167.1541699999999935
40
0.6
0
CIRCLE
8
BLACK
10
126.8538069999999891
20
-165.0541699999999992
40
0.6
0
CIRCLE
8
BLACK
10
146.3638080000000059
20
-79.7724999999999937
40
0.9499989999999999
0
CIRCLE
8
BLACK
10
145.8638080000000059
20
-84.9224999999999994
40
0.7999999999999999
0
CIRCLE
8
BLACK
10
140.8638080000000059
20
-79.7724999999999937
40
2.5249989999999998
0
CIRCLE
8
BLACK
10
135.3638080000000059
20
-79.7724999999999937
40
0.9499989999999999
0
CIRCLE
8
BLACK
10
140.8638080000000059
20
-73.8725000000000023
40
0.6
0
CIRCLE
8
BLACK
10
135.8638080000000059
20
-75.9724999999999966
40
0.6
0
CIRCLE
8
BLACK
10
135.3538069999999891
20
-211.2291699999999821
40
0.9499989999999999
0
CIRCLE
8
BLACK
10
135.8538069999999891
20
-206.0791700000000048
40
0.7999999999999999
0
CIRCLE
8
BLACK
10
140.8538069999999891
20
-211.2291699999999821
40
2.5249989999999998
0
CIRCLE
8
BLACK
10
146.3538069999999891
20
-211.2291699999999821
40
0.9499989999999999
0
CIRCLE
8
BLACK
10
140.8538069999999891
20
-217.1291699999999878
40
0.6
0
CIRCLE
8
BLACK
10
145.8538069999999891
20
-215.0291699999999935
40
0.6
0
CIRCLE
8
BLACK
10
154.3788069999999948
20
-217.3541699999999821
40
0.9499989999999999
0
CIRCLE
8
BLACK
10
154.8788069999999948
20
-212.2041699999999764
40
0.7999999999999999
0
CIRCLE
8
BLACK
10
159.8788069999999948
20
-217.3541699999999821
40
2.5249989999999998
0
CIRCLE
8
BLACK
10
165.3788069999999948
20
-217.3541699999999821
40
0.9499989999999999
0
CIRCLE
8
BLACK
10
159.8788069999999948
20
-223.2541699999999878
40
0.6
0
CIRCLE
8
BLACK
10
164.8788069999999948
20
-221.1541699999999935
40
0.6
0
CIRCLE
8
BLACK
10
210.2187979999999925
20
-58.0908189999999962
40
0.4
0
CIRCLE
8
BLACK
10
210.2187979999999925
20
-60.6308189999999954
40
0.4
0
CIRCLE
8
BLACK
10
210.2187979999999925
20
-63.1708189999999945
40
0.4
0
CIRCLE
8
BLACK
10
210.2187979999999925
20
-65.7108190000000008
40
0.4
0
CIRCLE
8
BLACK
10
210.2187979999999925
20
-68.2508189999999928
40
0.4
0
CIRCLE
8
BLACK
10
210.2187979999999925
20
-70.7908189999999991
40
0.4
0
CIRCLE
8
BLACK
10
210.2187979999999925
20
-73.3308189999999911
40
0.4
0
CIRCLE
8
BLACK
10
210.2187979999999925
20
-75.8708189999999973
40
0.4
0
CIRCLE
8
BLACK
10
210.2187979999999925
20
-78.4108189999999894
40
0.4
0
CIRCLE
8
BLACK
10
210.2187979999999925
20
-80.9508189999999956
40
0.4
0
CIRCLE
8
BLACK
10
210.2187979999999925
20
-83.4908190000000019
40
0.4
0
CIRCLE
8
BLACK
10
210.2187979999999925
20
-86.0308189999999939
40
0.4
0
CIRCLE
8
BLACK
10
225.4587980000000016
20
-86.0308189999999939
40
0.4
0
CIRCLE
8
BLACK
10
225.4587980000000016
20
-83.4908190000000019
40
0.4
0
CIRCLE
8
BLACK
10
225.4587980000000016
20
-80.9508189999999956
40
0.4
0
CIRCLE
8
BLACK
10
225.4587980000000016
20
-78.4108189999999894
40
0.4
0
CIRCLE
8
BLACK
10
225.4587980000000016
20
-75.8708189999999973
40
0.4
0
CIRCLE
8
BLACK
10
225.4587980000000016
20
-73.3308189999999911
40
0.4
0
CIRCLE
8
BLACK
10
225.4587980000000016
20
-70.7908189999999991
40
0.4
0
CIRCLE
8
BLACK
10
225.4587980000000016
20
-68.2508189999999928
40
0.4
0
CIRCLE
8
BLACK
10
225.4587980000000016
20
-65.7108190000000008
40
0.4
0
CIRCLE
8
BLACK
10
225.4587980000000016
20
-63.1708189999999945
40
0.4
0
CIRCLE
8
BLACK
10
225.4587980000000016
20
-60.6308189999999954
40
0.4
0
CIRCLE
8
BLACK
10
225.4587980000000016
20
-58.0908189999999962
40
0.4
0
CIRCLE
8
BLACK
10
184.3638079999999775
20
-59.2224999999999966
40
0.9499989999999999
0
CIRCLE
8
BLACK
10
183.8638079999999775
20
-64.3725000000000023
40
0.7999999999999999
0
CIRCLE
8
BLACK
10
178.8638080000000059
20
-59.2224999999999966
40
2.5249989999999998
0
CIRCLE
8
BLACK
10
173.3638080000000059
20
-59.2224999999999966
40
0.9499989999999999
0
CIRCLE
8
BLACK
10
178.8638080000000059
20
-53.322499999999998
40
0.6
0
CIRCLE
8
BLACK
10
173.8638080000000059
20
-55.4224999999999994
40
0.6
0
CIRCLE
8
BLACK
10
165.3888079999999832
20
-73.6474999999999937
40
0.9499989999999999
0
CIRCLE
8
BLACK
10
164.8888079999999832
20
-78.7974999999999994
40
0.7999999999999999
0
CIRCLE
8
BLACK
10
159.8888079999999832
20
-73.6474999999999937
40
2.5249989999999998
0
CIRCLE
8
BLACK
10
154.3888079999999832
20
-73.6474999999999937
40
0.9499989999999999
0
CIRCLE
8
BLACK
10
159.8888079999999832
20
-67.7475000000000023
40
0.6
0
CIRCLE
8
BLACK
10
154.8888079999999832
20
-69.8474999999999966
40
0.6
0
CIRCLE
8
BLACK
10
184.3638079999999775
20
-40.2224999999999966
40
0.9499989999999999
0
CIRCLE
8
BLACK
10
183.8638079999999775
20
-45.3724999999999952
40
0.7999999999999999
0
CIRCLE
8
BLACK
10
178.8638080000000059
20
-40.2224999999999966
40
2.5249989999999998
0
CIRCLE
8
BLACK
10
173.3638080000000059
20
-40.2224999999999966
40
0.9499989999999999
0
CIRCLE
8
BLACK
10
178.8638080000000059
20
-34.322499999999998
40
0.6
0
CIRCLE
8
BLACK
10
173.8638080000000059
20
-36.4224999999999994
40
0.6
0
CIRCLE
8
BLACK
10
127.3638079999999917
20
-72.7475000000000023
40
0.9499989999999999
0
CIRCLE
8
BLACK
10
126.8638079999999917
20
-77.8974999999999937
40
0.7999999999999999
0
CIRCLE
8
BLACK
10
121.8638079999999917
20
-72.7475000000000023
40
2.5249989999999998
0
CIRCLE
8
BLACK
10
116.3638079999999917
20
-72.7475000000000023
40
0.9499989999999999
0
CIRCLE
8
BLACK
10
121.8638079999999917
20
-66.8474999999999966
40
0.6
0
CIRCLE
8
BLACK
10
116.8638079999999917
20
-68.9474999999999909
40
0.6
0
CIRCLE
8
BLACK
10
115.7187979999999925
20
-82.2718189999999936
40
1.0999999999999999
0
CIRCLE
8
BLACK
10
197.5787979999999777
20
-224.9898499999999899
40
0.359999
0
CIRCLE
8
BLACK
10
200.4787979999999834
20
-224.9898499999999899
40
0.359999
0
CIRCLE
8
BLACK
10
188.3687979999999982
20
-168.6718189999999993
40
1.0999999999999999
0
CIRCLE
8
BLACK
10
131.3687979999999982
20
-47.4218189999999993
40
1.0999999999999999
0
CIRCLE
8
BLACK
10
115.7187979999999925
20
-170.7718189999999936
40
1.0999999999999999
0
CIRCLE
8
BLACK
10
200.4887980000000027
20
-28.0118189999999991
40
0.359999
0
CIRCLE
8
BLACK
10
197.588797999999997
20
-28.0118189999999991
40
0.359999
0
CIRCLE
8
BLACK
10
189.7337979999999789
20
-29.4218189999999993
40
0.5
0
CIRCLE
8
BLACK
10
187.1937979999999868
20
-29.4218189999999993
40
0.5
0
CIRCLE
8
BLACK
10
131.3687979999999982
20
-205.4218189999999993
40
1.0999999999999999
0
CIRCLE
8
BLACK
10
203.9687979999999925
20
-52.2718190000000007
40
1.0999999999999999
0
CIRCLE
8
BLACK
10
204.2187979999999925
20
-200.7718189999999936
40
1.0999999999999999
0
CIRCLE
8
BLACK
10
188.3687979999999982
20
-84.4218189999999993
40
1.0999999999999999
0
CIRCLE
8
BLACK
10
225.4687979999999925
20
-195.1318189999999788
40
0.4
0
CIRCLE
8
BLACK
10
225.4687979999999925
20
-192.5918189999999868
40
0.4
0
CIRCLE
8
BLACK
10
225.4687979999999925
20
-190.0518189999999947
40
0.4
0
CIRCLE
8
BLACK
10
225.4687979999999925
20
-187.5118190000000027
40
0.4
0
CIRCLE
8
BLACK
10
225.4687979999999925
20
-184.9718189999999822
40
0.4
0
CIRCLE
8
BLACK
10
225.4687979999999925
20
-182.4318189999999902
40
0.4
0
CIRCLE
8
BLACK
10
225.4687979999999925
20
-179.8918189999999981
40
0.4
0
CIRCLE
8
BLACK
10
225.4687979999999925
20
-177.3518190000000061
40
0.4
0
CIRCLE
8
BLACK
10
225.4687979999999925
20
-174.8118189999999856
40
0.4
0
CIRCLE
8
BLACK
10
225.4687979999999925
20
-172.2718189999999936
40
0.4
0
CIRCLE
8
BLACK
10
225.4687979999999925
20
-169.7318190000000016
40
0.4
0
CIRCLE
8
BLACK
10
225.4687979999999925
20
-167.1918189999999811
40
0.4
0
CIRCLE
8
BLACK
10
210.2287979999999834
20
-167.1918189999999811
40
0.4
0
CIRCLE
8
BLACK
10
210.2287979999999834
20
-169.7318190000000016
40
0.4
0
CIRCLE
8
BLACK
10
210.2287979999999834
20
-172.2718189999999936
40
0.4
0
CIRCLE
8
BLACK
10
210.2287979999999834
20
-174.8118189999999856
40
0.4
0
CIRCLE
8
BLACK
10
210.2287979999999834
20
-177.3518190000000061
40
0.4
0
CIRCLE
8
BLACK
10
210.2287979999999834
20
-179.8918189999999981
40
0.4
0
CIRCLE
8
BLACK
10
210.2287979999999834
20
-182.4318189999999902
40
0.4
0
CIRCLE
8
BLACK
10
210.2287979999999834
20
-184.9718189999999822
40
0.4
0
CIRCLE
8
BLACK
10
210.2287979999999834
20
-187.5118190000000027
40
0.4
0
CIRCLE
8
BLACK
10
210.2287979999999834
20
-190.0518189999999947
40
0.4
0
CIRCLE
8
BLACK
10
210.2287979999999834
20
-192.5918189999999868
40
0.4
0
CIRCLE
8
BLACK
10
210.2287979999999834
20
-195.1318189999999788
40
0.4
0
CIRCLE
8
BLACK
10
161.7288069999999891
20
-155.0416699999999821
40
0.9499989999999999
0
CIRCLE
8
BLACK
10
162.2288069999999891
20
-149.8916700000000048
40
0.7999999999999999
0
CIRCLE
8
BLACK
10
167.2288069999999891
20
-155.0416699999999821
40
2.5249989999999998
0
CIRCLE
8
BLACK
10
172.7288069999999891
20
-155.0416699999999821
40
0.9499989999999999
0
CIRCLE
8
BLACK
10
167.2288069999999891
20
-160.9416699999999878
40
0.6
0
CIRCLE
8
BLACK
10
172.2288069999999891
20
-158.8416699999999935
40
0.6
0
CIRCLE
8
BLACK
10
203.3638079999999775
20
-42.7474999999999952
40
0.9499989999999999
0
CIRCLE
8
BLACK
10
202.8638079999999775
20
-47.8975000000000009
40
0.7999999999999999
0
CIRCLE
8
BLACK
10
197.8638079999999775
20
-42.7474999999999952
40
2.5249989999999998
0
CIRCLE
8
BLACK
10
192.3638079999999775
20
-42.7474999999999952
40
0.9499989999999999
0
CIRCLE
8
BLACK
10
197.8638079999999775
20
-36.8474999999999966
40
0.6
0
CIRCLE
8
BLACK
10
192.8638079999999775
20
-38.947499999999998
40
0.6
0
CIRCLE
8
BLACK
10
116.3538069999999891
20
-180.2541699999999878
40
0.9499989999999999
0
CIRCLE
8
BLACK
10
116.8538069999999891
20
-175.1041699999999821
40
0.7999999999999999
0
CIRCLE
8
BLACK
10
121.8538069999999891
20
-180.2541699999999878
40
2.5249989999999998
0
CIRCLE
8
BLACK
10
127.3538069999999891
20
-180.2541699999999878
40
0.9499989999999999
0
CIRCLE
8
BLACK
10
121.8538069999999891
20
-186.1541699999999935
40
0.6
0
CIRCLE
8
BLACK
10
126.8538069999999891
20
-184.0541699999999992
40
0.6
0
CIRCLE
8
BLACK
10
173.3538069999999891
20
-174.7791699999999935
40
0.9499989999999999
0
CIRCLE
8
BLACK
10
173.8538069999999891
20
-169.6291699999999878
40
0.7999999999999999
0
CIRCLE
8
BLACK
10
178.8538069999999891
20
-174.7791699999999935
40
2.5249989999999998
0
CIRCLE
8
BLACK
10
184.3538069999999891
20
-174.7791699999999935
40
0.9499989999999999
0
CIRCLE
8
BLACK
10
178.8538069999999891
20
-180.6791699999999992
40
0.6
0
CIRCLE
8
BLACK
10
183.8538069999999891
20
-178.5791700000000048
40
0.6
0
CIRCLE
8
BLACK
10
173.3538069999999891
20
-193.7791699999999935
40
0.9499989999999999
0
CIRCLE
8
BLACK
10
173.8538069999999891
20
-188.6291699999999878
40
0.7999999999999999
0
CIRCLE
8
BLACK
10
178.8538069999999891
20
-193.7791699999999935
40
2.5249989999999998
0
CIRCLE
8
BLACK
10
184.3538069999999891
20
-193.7791699999999935
40
0.9499989999999999
0
CIRCLE
8
BLACK
10
178.8538069999999891
20
-199.6791699999999992
40
0.6
0
CIRCLE
8
BLACK
10
183.8538069999999891
20
-197.5791700000000048
40
0.6
0
CIRCLE
8
BLACK
10
165.3888079999999832
20
-35.6475000000000009
40
0.9499989999999999
0
CIRCLE
8
BLACK
10
164.8888079999999832
20
-40.7974999999999994
40
0.7999999999999999
0
CIRCLE
8
BLACK
10
159.8888079999999832
20
-35.6475000000000009
40
2.5249989999999998
0
CIRCLE
8
BLACK
10
154.3888079999999832
20
-35.6475000000000009
40
0.9499989999999999
0
CIRCLE
8
BLACK
10
159.8888079999999832
20
-29.7474999999999987
40
0.6
0
CIRCLE
8
BLACK
10
154.8888079999999832
20
-31.8475000000000001
40
0.6
0
CIRCLE
8
BLACK
10
173.3538069999999891
20
-212.7791699999999935
40
0.9499989999999999
0
CIRCLE
8
BLACK
10
173.8538069999999891
20
-207.6291699999999878
40
0.7999999999999999
0
CIRCLE
8
BLACK
10
178.8538069999999891
20
-212.7791699999999935
40
2.5249989999999998
0
CIRCLE
8
BLACK
10
184.3538069999999891
20
-212.7791699999999935
40
0.9499989999999999
0
CIRCLE
8
BLACK
10
178.8538069999999891
20
-218.6791699999999992
40
0.6
0
CIRCLE
8
BLACK
10
183.8538069999999891
20
-216.5791699999999764
40
0.6
0
CIRCLE
8
BLACK
10
203.0656669999999906
20
-146.4541700000000048
40
0.9499989999999999
0
CIRCLE
8
BLACK
10
200.9236799999999903
20
-141.7441389999999899
40
0.7999999999999999
0
CIRCLE
8
BLACK
10
207.8288069999999834
20
-143.7041700000000048
40
2.5249989999999998
0
CIRCLE
8
BLACK
10
212.5919469999999762
20
-140.9541700000000048
40
0.9499989999999999
0
CIRCLE
8
BLACK
10
210.7788070000000005
20
-148.8137199999999893
40
0.6
0
CIRCLE
8
BLACK
10
214.0589339999999936
20
-144.4950670000000059
40
0.6
0
CIRCLE
8
BLACK
10
146.3638080000000059
20
-60.7724999999999937
40
0.9499989999999999
0
CIRCLE
8
BLACK
10
145.8638080000000059
20
-65.9224999999999994
40
0.7999999999999999
0
CIRCLE
8
BLACK
10
140.8638080000000059
20
-60.7724999999999937
40
2.5249989999999998
0
CIRCLE
8
BLACK
10
135.3638080000000059
20
-60.7724999999999937
40
0.9499989999999999
0
CIRCLE
8
BLACK
10
140.8638080000000059
20
-54.8724999999999952
40
0.6
0
CIRCLE
8
BLACK
10
135.8638080000000059
20
-56.9724999999999966
40
0.6
0
CIRCLE
8
BLACK
10
193.4513999999999783
20
-102.4210049999999939
40
0.9499989999999999
0
CIRCLE
8
BLACK
10
191.635518999999988
20
-107.2661129999999901
40
0.7999999999999999
0
CIRCLE
8
BLACK
10
188.1388079999999832
20
-100.9975000000000023
40
2.5249989999999998
0
CIRCLE
8
BLACK
10
182.8262159999999881
20
-99.5739949999999965
40
0.9499989999999999
0
CIRCLE
8
BLACK
10
189.6658400000000029
20
-95.2985379999999935
40
0.6
0
CIRCLE
8
BLACK
10
184.2926909999999907
20
-96.0328870000000023
40
0.6
0
CIRCLE
8
BLACK
10
192.3538069999999891
20
-191.2541699999999878
40
0.9499989999999999
0
CIRCLE
8
BLACK
10
192.8538069999999891
20
-186.1041699999999821
40
0.7999999999999999
0
CIRCLE
8
BLACK
10
197.8538069999999891
20
-191.2541699999999878
40
2.5249989999999998
0
CIRCLE
8
BLACK
10
203.3538069999999891
20
-191.2541699999999878
40
0.9499989999999999
0
CIRCLE
8
BLACK
10
197.8538069999999891
20
-197.1541699999999935
40
0.6
0
CIRCLE
8
BLACK
10
202.8538069999999891
20
-195.0541699999999992
40
0.6
0
CIRCLE
8
BLACK
10
172.7388080000000059
20
-97.9599999999999937
40
0.9499989999999999
0
CIRCLE
8
BLACK
10
172.2388080000000059
20
-103.1099999999999994
40
0.7999999999999999
0
CIRCLE
8
BLACK
10
167.2388080000000059
20
-97.9599999999999937
40
2.5249989999999998
0
CIRCLE
8
BLACK
10
161.7388080000000059
20
-97.9599999999999937
40
0.9499989999999999
0
CIRCLE
8
BLACK
10
167.2388080000000059
20
-92.0600000000000023
40
0.6
0
CIRCLE
8
BLACK
10
162.2388080000000059
20
-94.1599999999999966
40
0.6
0
CIRCLE
8
BLACK
10
127.3638079999999917
20
-91.7475000000000023
40
0.9499989999999999
0
CIRCLE
8
BLACK
10
126.8638079999999917
20
-96.8974999999999937
40
0.7999999999999999
0
CIRCLE
8
BLACK
10
121.8638079999999917
20
-91.7475000000000023
40
2.5249989999999998
0
CIRCLE
8
BLACK
10
116.3638079999999917
20
-91.7475000000000023
40
0.9499989999999999
0
CIRCLE
8
BLACK
10
121.8638079999999917
20
-85.8474999999999966
40
0.6
0
CIRCLE
8
BLACK
10
116.8638079999999917
20
-87.9474999999999909
40
0.6
0
CIRCLE
8
BLACK
10
165.3888079999999832
20
-54.6475000000000009
40
0.9499989999999999
0
CIRCLE
8
BLACK
10
164.8888079999999832
20
-59.7974999999999994
40
0.7999999999999999
0
CIRCLE
8
BLACK
10
159.8888079999999832
20
-54.6475000000000009
40
2.5249989999999998
0
CIRCLE
8
BLACK
10
154.3888079999999832
20
-54.6475000000000009
40
0.9499989999999999
0
CIRCLE
8
BLACK
10
159.8888079999999832
20
-48.7474999999999952
40
0.6
0
CIRCLE
8
BLACK
10
154.8888079999999832
20
-50.8474999999999966
40
0.6
0
CIRCLE
8
BLACK
10
135.3538069999999891
20
-173.2291699999999821
40
0.9499989999999999
0
CIRCLE
8
BLACK
10
135.8538069999999891
20
-168.0791700000000048
40
0.7999999999999999
0
CIRCLE
8
BLACK
10
140.8538069999999891
20
-173.2291699999999821
40
2.5249989999999998
0
CIRCLE
8
BLACK
10
146.3538069999999891
20
-173.2291699999999821
40
0.9499989999999999
0
CIRCLE
8
BLACK
10
140.8538069999999891
20
-179.1291699999999878
40
0.6
0
CIRCLE
8
BLACK
10
145.8538069999999891
20
-177.0291699999999935
40
0.6
0
CIRCLE
8
BLACK
10
154.3788069999999948
20
-179.3541699999999821
40
0.9499989999999999
0
CIRCLE
8
BLACK
10
154.8788069999999948
20
-174.2041700000000048
40
0.7999999999999999
0
CIRCLE
8
BLACK
10
159.8788069999999948
20
-179.3541699999999821
40
2.5249989999999998
0
CIRCLE
8
BLACK
10
165.3788069999999948
20
-179.3541699999999821
40
0.9499989999999999
0
CIRCLE
8
BLACK
10
159.8788069999999948
20
-185.2541699999999878
40
0.6
0
CIRCLE
8
BLACK
10
164.8788069999999948
20
-183.1541699999999935
40
0.6
0
CIRCLE
8
BLACK
10
187.4537979999999777
20
-223.4218189999999993
40
0.5
0
CIRCLE
8
BLACK
10
189.9937979999999982
20
-223.4218189999999993
40
0.5
0
CIRCLE
8
BLACK
10
184.3638079999999775
20
-78.2224999999999966
40
0.9499989999999999
0
CIRCLE
8
BLACK
10
183.8638079999999775
20
-83.3725000000000023
40
0.7999999999999999
0
CIRCLE
8
BLACK
10
178.8638080000000059
20
-78.2224999999999966
40
2.5249989999999998
0
CIRCLE
8
BLACK
10
173.3638080000000059
20
-78.2224999999999966
40
0.9499989999999999
0
CIRCLE
8
BLACK
10
178.8638080000000059
20
-72.3224999999999909
40
0.6
0
CIRCLE
8
BLACK
10
173.8638080000000059
20
-74.4224999999999994
40
0.6
0
CIRCLE
8
BLACK
10
127.3638079999999917
20
-53.7474999999999952
40
0.9499989999999999
0
CIRCLE
8
BLACK
10
126.8638079999999917
20
-58.8975000000000009
40
0.7999999999999999
0
CIRCLE
8
BLACK
10
121.8638079999999917
20
-53.7474999999999952
40
2.5249989999999998
0
CIRCLE
8
BLACK
10
116.3638079999999917
20
-53.7474999999999952
40
0.9499989999999999
0
CIRCLE
8
BLACK
10
121.8638079999999917
20
-47.8474999999999966
40
0.6
0
CIRCLE
8
BLACK
10
116.8638079999999917
20
-49.947499999999998
40
0.6
0
CIRCLE
8
BLACK
10
203.3638079999999775
20
-80.7475000000000023
40
0.9499989999999999
0
CIRCLE
8
BLACK
10
202.8638079999999775
20
-85.8974999999999937
40
0.7999999999999999
0
CIRCLE
8
BLACK
10
197.8638079999999775
20
-80.7475000000000023
40
2.5249989999999998
0
CIRCLE
8
BLACK
10
192.3638079999999775
20
-80.7475000000000023
40
0.9499989999999999
0
CIRCLE
8
BLACK
10
197.8638079999999775
20
-74.8474999999999966
40
0.6
0
CIRCLE
8
BLACK
10
192.8638079999999775
20
-76.9474999999999909
40
0.6
0
CIRCLE
8
BLACK
10
182.8162149999999997
20
-153.4276749999999936
40
0.9499989999999999
0
CIRCLE
8
BLACK
10
181.9662600000000054
20
-148.3237469999999973
40
0.7999999999999999
0
CIRCLE
8
BLACK
10
188.1288069999999948
20
-152.0041699999999878
40
2.5249989999999998
0
CIRCLE
8
BLACK
10
193.4413989999999899
20
-150.580664999999982
40
0.9499989999999999
0
CIRCLE
8
BLACK
10
189.6558389999999861
20
-157.7031319999999823
40
0.6
0
CIRCLE
8
BLACK
10
193.9419489999999939
20
-154.3805930000000046
40
0.6
0
CIRCLE
8
BLACK
10
192.3538069999999891
20
-210.2541699999999878
40
0.9499989999999999
0
CIRCLE
8
BLACK
10
192.8538069999999891
20
-205.1041699999999821
40
0.7999999999999999
0
CIRCLE
8
BLACK
10
197.8538069999999891
20
-210.2541699999999878
40
2.5249989999999998
0
CIRCLE
8
BLACK
10
203.3538069999999891
20
-210.2541699999999878
40
0.9499989999999999
0
CIRCLE
8
BLACK
10
197.8538069999999891
20
-216.1541699999999935
40
0.6
0
CIRCLE
8
BLACK
10
202.8538069999999891
20
-214.0541699999999992
40
0.6
0
CIRCLE
8
BLACK
10
116.3538069999999891
20
-199.2541699999999878
40
0.9499989999999999
0
CIRCLE
8
BLACK
10
116.8538069999999891
20
-194.1041699999999821
40
0.7999999999999999
0
CIRCLE
8
BLACK
10
121.8538069999999891
20
-199.2541699999999878
40
2.5249989999999998
0
CIRCLE
8
BLACK
10
127.3538069999999891
20
-199.2541699999999878
40
0.9499989999999999
0
CIRCLE
8
BLACK
10
121.8538069999999891
20
-205.1541699999999935
40
0.6
0
CIRCLE
8
BLACK
10
126.8538069999999891
20
-203.0541699999999992
40
0.6
0
CIRCLE
8
BLACK
10
192.3538069999999891
20
-172.2541699999999878
40
0.9499989999999999
0
CIRCLE
8
BLACK
10
192.8538069999999891
20
-167.1041699999999821
40
0.7999999999999999
0
CIRCLE
8
BLACK
10
197.8538069999999891
20
-172.2541699999999878
40
2.5249989999999998
0
CIRCLE
8
BLACK
10
203.3538069999999891
20
-172.2541699999999878
40
0.9499989999999999
0
CIRCLE
8
BLACK
10
197.8538069999999891
20
-178.1541699999999935
40
0.6
0
CIRCLE
8
BLACK
10
202.8538069999999891
20
-176.0541699999999992
40
0.6
0
CIRCLE
8
BLACK
10
146.3638080000000059
20
-41.7725000000000009
40
0.9499989999999999
0
CIRCLE
8
BLACK
10
145.8638080000000059
20
-46.9224999999999994
40
0.7999999999999999
0
CIRCLE
8
BLACK
10
140.8638080000000059
20
-41.7725000000000009
40
2.5249989999999998
0
CIRCLE
8
BLACK
10
135.3638080000000059
20
-41.7725000000000009
40
0.9499989999999999
0
CIRCLE
8
BLACK
10
140.8638080000000059
20
-35.8724999999999952
40
0.6
0
CIRCLE
8
BLACK
10
135.8638080000000059
20
-37.9724999999999966
40
0.6
0
CIRCLE
8
BLACK
10
212.601947999999993
20
-112.0474999999999994
40
0.9499989999999999
0
CIRCLE
8
BLACK
10
209.5939349999999877
20
-116.2575310000000002
40
0.7999999999999999
0
CIRCLE
8
BLACK
10
207.8388080000000002
20
-109.2974999999999994
40
2.5249989999999998
0
CIRCLE
8
BLACK
10
203.075667999999979
20
-106.5474999999999994
40
0.9499989999999999
0
CIRCLE
8
BLACK
10
210.7888079999999889
20
-104.1879500000000007
40
0.6
0
CIRCLE
8
BLACK
10
205.4086810000000014
20
-103.5066029999999984
40
0.6
0
CIRCLE
8
BLACK
10
154.3788069999999948
20
-198.3541699999999821
40
0.9499989999999999
0
CIRCLE
8
BLACK
10
154.8788069999999948
20
-193.2041700000000048
40
0.7999999999999999
0
CIRCLE
8
BLACK
10
159.8788069999999948
20
-198.3541699999999821
40
2.5249989999999998
0
CIRCLE
8
BLACK
10
165.3788069999999948
20
-198.3541699999999821
40
0.9499989999999999
0
CIRCLE
8
BLACK
10
159.8788069999999948
20
-204.2541699999999878
40
0.6
0
CIRCLE
8
BLACK
10
164.8788069999999948
20
-202.1541699999999935
40
0.6
0
CIRCLE
8
BLACK
10
203.3638079999999775
20
-61.7474999999999952
40
0.9499989999999999
0
CIRCLE
8
BLACK
10
202.8638079999999775
20
-66.8974999999999937
40
0.7999999999999999
0
CIRCLE
8
BLACK
10
197.8638079999999775
20
-61.7474999999999952
40
2.5249989999999998
0
CIRCLE
8
BLACK
10
192.3638079999999775
20
-61.7474999999999952
40
0.9499989999999999
0
CIRCLE
8
BLACK
10
197.8638079999999775
20
-55.8474999999999966
40
0.6
0
CIRCLE
8
BLACK
10
192.8638079999999775
20
-57.947499999999998
40
0.6
0
CIRCLE
8
BLACK
10
135.3538069999999891
20
-192.2291699999999821
40
0.9499989999999999
0
CIRCLE
8
BLACK
10
135.8538069999999891
20
-187.0791700000000048
40
0.7999999999999999
0
CIRCLE
8
BLACK
10
140.8538069999999891
20
-192.2291699999999821
40
2.5249989999999998
0
CIRCLE
8
BLACK
10
146.3538069999999891
20
-192.2291699999999821
40
0.9499989999999999
0
CIRCLE
8
BLACK
10
140.8538069999999891
20
-198.1291699999999878
40
0.6
0
CIRCLE
8
BLACK
10
145.8538069999999891
20
-196.0291699999999935
40
0.6
0
CIRCLE
8
BLACK
10
116.3538069999999891
20
-161.2541699999999878
40
0.9499989999999999
0
CIRCLE
8
BLACK
10
116.8538069999999891
20
-156.1041699999999821
40
0.7999999999999999
0
CIRCLE
8
BLACK
10
121.8538069999999891
20
-161.2541699999999878
40
2.5249989999999998
0
CIRCLE
8
BLACK
10
127.3538069999999891
20
-161.2541699999999878
40
0.9499989999999999
0
CIRCLE
8
BLACK
10
121.8538069999999891
20
-167.1541699999999935
40
0.6
0
CIRCLE
8
BLACK
10
126.8538069999999891
20
-165.0541699999999992
40
0.6
0
CIRCLE
8
BLACK
10
146.3638080000000059
20
-79.7724999999999937
40
0.9499989999999999
0
CIRCLE
8
BLACK
10
145.8638080000000059
20
-84.9224999999999994
40
0.7999999999999999
0
CIRCLE
8
BLACK
10
140.8638080000000059
20
-79.7724999999999937
40
2.5249989999999998
0
CIRCLE
8
BLACK
10
135.3638080000000059
20
-79.7724999999999937
40
0.9499989999999999
0
CIRCLE
8
BLACK
10
140.8638080000000059
20
-73.8725000000000023
40
0.6
0
CIRCLE
8
BLACK
10
135.8638080000000059
20
-75.9724999999999966
40
0.6
0
CIRCLE
8
BLACK
10
135.3538069999999891
20
-211.2291699999999821
40
0.9499989999999999
0
CIRCLE
8
BLACK
10
135.8538069999999891
20
-206.0791700000000048
40
0.7999999999999999
0
CIRCLE
8
BLACK
10
140.8538069999999891
20
-211.2291699999999821
40
2.5249989999999998
0
CIRCLE
8
BLACK
10
146.3538069999999891
20
-211.2291699999999821
40
0.9499989999999999
0
CIRCLE
8
BLACK
10
140.8538069999999891
20
-217.1291699999999878
40
0.6
0
CIRCLE
8
BLACK
10
145.8538069999999891
20
-215.0291699999999935
40
0.6
0
CIRCLE
8
BLACK
10
154.3788069999999948
20
-217.3541699999999821
40
0.9499989999999999
0
CIRCLE
8
BLACK
10
154.8788069999999948
20
-212.2041699999999764
40
0.7999999999999999
0
CIRCLE
8
BLACK
10
159.8788069999999948
20
-217.3541699999999821
40
2.5249989999999998
0
CIRCLE
8
BLACK
10
165.3788069999999948
20
-217.3541699999999821
40
0.9499989999999999
0
CIRCLE
8
BLACK
10
159.8788069999999948
20
-223.2541699999999878
40
0.6
0
CIRCLE
8
BLACK
10
164.8788069999999948
20
-221.1541699999999935
40
0.6
0
CIRCLE
8
BLACK
10
210.2187979999999925
20
-58.0908189999999962
40
0.4
0
CIRCLE
8
BLACK
10
210.2187979999999925
20
-60.6308189999999954
40
0.4
0
CIRCLE
8
BLACK
10
210.2187979999999925
20
-63.1708189999999945
40
0.4
0
CIRCLE
8
BLACK
10
210.2187979999999925
20
-65.7108190000000008
40
0.4
0
CIRCLE
8
BLACK
10
210.2187979999999925
20
-68.2508189999999928
40
0.4
0
CIRCLE
8
BLACK
10
210.2187979999999925
20
-70.7908189999999991
40
0.4
0
CIRCLE
8
BLACK
10
210.2187979999999925
20
-73.3308189999999911
40
0.4
0
CIRCLE
8
BLACK
10
210.2187979999999925
20
-75.8708189999999973
40
0.4
0
CIRCLE
8
BLACK
10
210.2187979999999925
20
-78.4108189999999894
40
0.4
0
CIRCLE
8
BLACK
10
210.2187979999999925
20
-80.9508189999999956
40
0.4
0
CIRCLE
8
BLACK
10
210.2187979999999925
20
-83.4908190000000019
40
0.4
0
CIRCLE
8
BLACK
10
210.2187979999999925
20
-86.0308189999999939
40
0.4
0
CIRCLE
8
BLACK
10
225.4587980000000016
20
-86.0308189999999939
40
0.4
0
CIRCLE
8
BLACK
10
225.4587980000000016
20
-83.4908190000000019
40
0.4
0
CIRCLE
8
BLACK
10
225.4587980000000016
20
-80.9508189999999956
40
0.4
0
CIRCLE
8
BLACK
10
225.4587980000000016
20
-78.4108189999999894
40
0.4
0
CIRCLE
8
BLACK
10
225.4587980000000016
20
-75.8708189999999973
40
0.4
0
CIRCLE
8
BLACK
10
225.4587980000000016
20
-73.3308189999999911
40
0.4
0
CIRCLE
8
BLACK
10
225.4587980000000016
20
-70.7908189999999991
40
0.4
0
CIRCLE
8
BLACK
10
225.4587980000000016
20
-68.2508189999999928
40
0.4
0
CIRCLE
8
BLACK
10
225.4587980000000016
20
-65.7108190000000008
40
0.4
0
CIRCLE
8
BLACK
10
225.4587980000000016
20
-63.1708189999999945
40
0.4
0
CIRCLE
8
BLACK
10
225.4587980000000016
20
-60.6308189999999954
40
0.4
0
CIRCLE
8
BLACK
10
225.4587980000000016
20
-58.0908189999999962
40
0.4
0
CIRCLE
8
BLACK
10
184.3638079999999775
20
-59.2224999999999966
40
0.9499989999999999
0
CIRCLE
8
BLACK
10
183.8638079999999775
20
-64.3725000000000023
40
0.7999999999999999
0
CIRCLE
8
BLACK
10
178.8638080000000059
20
-59.2224999999999966
40
2.5249989999999998
0
CIRCLE
8
BLACK
10
173.3638080000000059
20
-59.2224999999999966
40
0.9499989999999999
0
CIRCLE
8
BLACK
10
178.8638080000000059
20
-53.322499999999998
40
0.6
0
CIRCLE
8
BLACK
10
173.8638080000000059
20
-55.4224999999999994
40
0.6
0
CIRCLE
8
BLACK
10
165.3888079999999832
20
-73.6474999999999937
40
0.9499989999999999
0
CIRCLE
8
BLACK
10
164.8888079999999832
20
-78.7974999999999994
40
0.7999999999999999
0
CIRCLE
8
BLACK
10
159.8888079999999832
20
-73.6474999999999937
40
2.5249989999999998
0
CIRCLE
8
BLACK
10
154.3888079999999832
20
-73.6474999999999937
40
0.9499989999999999
0
CIRCLE
8
BLACK
10
159.8888079999999832
20
-67.7475000000000023
40
0.6
0
CIRCLE
8
BLACK
10
154.8888079999999832
20
-69.8474999999999966
40
0.6
0
CIRCLE
8
BLACK
10
184.3638079999999775
20
-40.2224999999999966
40
0.9499989999999999
0
CIRCLE
8
BLACK
10
183.8638079999999775
20
-45.3724999999999952
40
0.7999999999999999
0
CIRCLE
8
BLACK
10
178.8638080000000059
20
-40.2224999999999966
40
2.5249989999999998
0
CIRCLE
8
BLACK
10
173.3638080000000059
20
-40.2224999999999966
40
0.9499989999999999
0
CIRCLE
8
BLACK
10
178.8638080000000059
20
-34.322499999999998
40
0.6
0
CIRCLE
8
BLACK
10
173.8638080000000059
20
-36.4224999999999994
40
0.6
0
CIRCLE
8
BLACK
10
127.3638079999999917
20
-72.7475000000000023
40
0.9499989999999999
0
CIRCLE
8
BLACK
10
126.8638079999999917
20
-77.8974999999999937
40
0.7999999999999999
0
CIRCLE
8
BLACK
10
121.8638079999999917
20
-72.7475000000000023
40
2.5249989999999998
0
CIRCLE
8
BLACK
10
116.3638079999999917
20
-72.7475000000000023
40
0.9499989999999999
0
CIRCLE
8
BLACK
10
121.8638079999999917
20
-66.8474999999999966
40
0.6
0
CIRCLE
8
BLACK
10
116.8638079999999917
20
-68.9474999999999909
40
0.6
0
CIRCLE
8
BLACK
10
115.7187979999999925
20
-82.2718189999999936
40
1.0999999999999999
0
CIRCLE
8
BLACK
10
197.5787979999999777
20
-224.9898499999999899
40
0.359999
0
CIRCLE
8
BLACK
10
200.4787979999999834
20
-224.9898499999999899
40
0.359999
0
CIRCLE
8
BLACK
10
188.3687979999999982
20
-168.6718189999999993
40
1.0999999999999999
0
CIRCLE
8
BLACK
10
131.3687979999999982
20
-47.4218189999999993
40
1.0999999999999999
0
CIRCLE
8
BLACK
10
115.7187979999999925
20
-170.7718189999999936
40
1.0999999999999999
0
CIRCLE
8
BLACK
10
200.4887980000000027
20
-28.0118189999999991
40
0.359999
0
CIRCLE
8
BLACK
10
197.588797999999997
20
-28.0118189999999991
40
0.359999
0
CIRCLE
8
BLACK
10
189.7337979999999789
20
-29.4218189999999993
40
0.5
0
CIRCLE
8
BLACK
10
187.1937979999999868
20
-29.4218189999999993
40
0.5
0
CIRCLE
8
BLACK
10
131.3687979999999982
20
-205.4218189999999993
40
1.0999999999999999
0
CIRCLE
8
BLACK
10
203.9687979999999925
20
-52.2718190000000007
40
1.0999999999999999
0
CIRCLE
8
BLACK
10
204.2187979999999925
20
-200.7718189999999936
40
1.0999999999999999
0
CIRCLE
8
BLACK
10
188.3687979999999982
20
-84.4218189999999993
40
1.0999999999999999
0
CIRCLE
8
BLACK
10
225.4687979999999925
20
-195.1318189999999788
40
0.4
0
CIRCLE
8
BLACK
10
225.4687979999999925
20
-192.5918189999999868
40
0.4
0
CIRCLE
8
BLACK
10
225.4687979999999925
20
-190.0518189999999947
40
0.4
0
CIRCLE
8
BLACK
10
225.4687979999999925
20
-187.5118190000000027
40
0.4
0
CIRCLE
8
BLACK
10
225.4687979999999925
20
-184.9718189999999822
40
0.4
0
CIRCLE
8
BLACK
10
225.4687979999999925
20
-182.4318189999999902
40
0.4
0
CIRCLE
8
BLACK
10
225.4687979999999925
20
-179.8918189999999981
40
0.4
0
CIRCLE
8
BLACK
10
225.4687979999999925
20
-177.3518190000000061
40
0.4
0
CIRCLE
8
BLACK
10
225.4687979999999925
20
-174.8118189999999856
40
0.4
0
CIRCLE
8
BLACK
10
225.4687979999999925
20
-172.2718189999999936
40
0.4
0
CIRCLE
8
BLACK
10
225.4687979999999925
20
-169.7318190000000016
40
0.4
0
CIRCLE
8
BLACK
10
225.4687979999999925
20
-167.1918189999999811
40
0.4
0
CIRCLE
8
BLACK
10
210.2287979999999834
20
-167.1918189999999811
40
0.4
0
CIRCLE
8
BLACK
10
210.2287979999999834
20
-169.7318190000000016
40
0.4
0
CIRCLE
8
BLACK
10
210.2287979999999834
20
-172.2718189999999936
40
0.4
0
CIRCLE
8
BLACK
10
210.2287979999999834
20
-174.8118189999999856
40
0.4
0
CIRCLE
8
BLACK
10
210.2287979999999834
20
-177.3518190000000061
40
0.4
0
CIRCLE
8
BLACK
10
210.2287979999999834
20
-179.8918189999999981
40
0.4
0
CIRCLE
8
BLACK
10
210.2287979999999834
20
-182.4318189999999902
40
0.4
0
CIRCLE
8
BLACK
10
210.2287979999999834
20
-184.9718189999999822
40
0.4
0
CIRCLE
8
BLACK
10
210.2287979999999834
20
-187.5118190000000027
40
0.4
0
CIRCLE
8
BLACK
10
210.2287979999999834
20
-190.0518189999999947
40
0.4
0
CIRCLE
8
BLACK
10
210.2287979999999834
20
-192.5918189999999868
40
0.4
0
CIRCLE
8
BLACK
10
210.2287979999999834
20
-195.1318189999999788
40
0.4
  0
ENDSEC
  0
EOF
