  0
SECTION
  2
HEADER
  9
$ANGBASE
  50
0.0
  9
$ANGDIR
  70
1
  9
$MEASUREMENT
  70
1
  0
ENDSEC
  0
SECTION
  2
TABLES
  0
TABLE
  2
LTYPE
  70
4
  0
LTYPE
  5
40F
  2
CONTINUOUS
  70
0
  3
Solid line
  72
65
  73
0
  40
0.0
  0
LTYPE
  5
410
  2
DASHDOT
 70
0
  3
Dash Dot ____ _ ____ _
 72
65
 73
4
 40
2.0
 49
1.25
 49
-0.25
 49
0.25
 49
-0.25
  0
LTYPE
  5
411
  2
DASHED
 70
0
  3
Dashed __ __ __ __ __
 72
65
 73
2
 40
0.75
 49
0.5
 49
-0.25
  0
LTYPE
  5
43B
  2
DOTTED
 70
0
  3
Dotted .  .  .  .
 72
65
 73
2
 40
0.2
 49
0.0
 49
-0.2
  0
ENDTAB
  0
TABLE
  2
STYLE
  70
4
  0
STYLE
  2
KICAD
  70
0
  40
0
  41
1
  42
1
  50
0
  71
0
  3
isocp.shx
  0
STYLE
  2
KICADB
  70
0
  40
0
  41
1
  42
1
  50
0
  71
0
  3
isocp.shx
  0
STYLE
  2
KICADI
  70
0
  40
0
  41
1
  42
1
  50
15
  71
0
  3
isocp.shx
  0
STYLE
  2
KICADBI
  70
0
  40
0
  41
1
  42
1
  50
15
  71
0
  3
isocp.shx
  0
ENDTAB
  0
TABLE
  2
LAYER
  70
1
  0
LAYER
  2
BLACK
  70
0
  62
7
  6
CONTINUOUS
  0
ENDTAB
  0
ENDSEC
  0
SECTION
  2
ENTITIES
0
CIRCLE
8
BLACK
10
161.7288069999999891
20
-155.0416699999999821
40
0.95
0
CIRCLE
8
BLACK
10
162.2288069999999891
20
-149.8916700000000048
40
0.7999999999999999
0
CIRCLE
8
BLACK
10
167.2288069999999891
20
-155.0416699999999821
40
2.5249999999999999
0
CIRCLE
8
BLACK
10
172.7288069999999891
20
-155.0416699999999821
40
0.95
0
CIRCLE
8
BLACK
10
167.2288069999999891
20
-160.9416699999999878
40
0.6
0
CIRCLE
8
BLACK
10
172.2288069999999891
20
-158.8416699999999935
40
0.6
0
CIRCLE
8
BLACK
10
203.3638079999999775
20
-42.7474999999999952
40
0.95
0
CIRCLE
8
BLACK
10
202.8638079999999775
20
-47.8975000000000009
40
0.7999999999999999
0
CIRCLE
8
BLACK
10
197.8638079999999775
20
-42.7474999999999952
40
2.5249999999999999
0
CIRCLE
8
BLACK
10
192.3638079999999775
20
-42.7474999999999952
40
0.95
0
CIRCLE
8
BLACK
10
197.8638079999999775
20
-36.8474999999999966
40
0.6
0
CIRCLE
8
BLACK
10
192.8638079999999775
20
-38.947499999999998
40
0.6
0
CIRCLE
8
BLACK
10
116.3538069999999891
20
-180.2541699999999878
40
0.95
0
CIRCLE
8
BLACK
10
116.8538069999999891
20
-175.1041699999999821
40
0.7999999999999999
0
CIRCLE
8
BLACK
10
121.8538069999999891
20
-180.2541699999999878
40
2.5249999999999999
0
CIRCLE
8
BLACK
10
127.3538069999999891
20
-180.2541699999999878
40
0.95
0
CIRCLE
8
BLACK
10
121.8538069999999891
20
-186.1541699999999935
40
0.6
0
CIRCLE
8
BLACK
10
126.8538069999999891
20
-184.0541699999999992
40
0.6
0
CIRCLE
8
BLACK
10
173.3538069999999891
20
-174.7791699999999935
40
0.95
0
CIRCLE
8
BLACK
10
173.8538069999999891
20
-169.6291699999999878
40
0.7999999999999999
0
CIRCLE
8
BLACK
10
178.8538069999999891
20
-174.7791699999999935
40
2.5249999999999999
0
CIRCLE
8
BLACK
10
184.3538069999999891
20
-174.7791699999999935
40
0.95
0
CIRCLE
8
BLACK
10
178.8538069999999891
20
-180.6791699999999992
40
0.6
0
CIRCLE
8
BLACK
10
183.8538069999999891
20
-178.5791700000000048
40
0.6
0
CIRCLE
8
BLACK
10
173.3538069999999891
20
-193.7791699999999935
40
0.95
0
CIRCLE
8
BLACK
10
173.8538069999999891
20
-188.6291699999999878
40
0.7999999999999999
0
CIRCLE
8
BLACK
10
178.8538069999999891
20
-193.7791699999999935
40
2.5249999999999999
0
CIRCLE
8
BLACK
10
184.3538069999999891
20
-193.7791699999999935
40
0.95
0
CIRCLE
8
BLACK
10
178.8538069999999891
20
-199.6791699999999992
40
0.6
0
CIRCLE
8
BLACK
10
183.8538069999999891
20
-197.5791700000000048
40
0.6
0
CIRCLE
8
BLACK
10
165.3888079999999832
20
-35.6475000000000009
40
0.95
0
CIRCLE
8
BLACK
10
164.8888079999999832
20
-40.7974999999999994
40
0.7999999999999999
0
CIRCLE
8
BLACK
10
159.8888079999999832
20
-35.6475000000000009
40
2.5249999999999999
0
CIRCLE
8
BLACK
10
154.3888079999999832
20
-35.6475000000000009
40
0.95
0
CIRCLE
8
BLACK
10
159.8888079999999832
20
-29.7474999999999987
40
0.6
0
CIRCLE
8
BLACK
10
154.8888079999999832
20
-31.8475000000000001
40
0.6
0
CIRCLE
8
BLACK
10
173.3538069999999891
20
-212.7791699999999935
40
0.95
0
CIRCLE
8
BLACK
10
173.8538069999999891
20
-207.6291699999999878
40
0.7999999999999999
0
CIRCLE
8
BLACK
10
178.8538069999999891
20
-212.7791699999999935
40
2.5249999999999999
0
CIRCLE
8
BLACK
10
184.3538069999999891
20
-212.7791699999999935
40
0.95
0
CIRCLE
8
BLACK
10
178.8538069999999891
20
-218.6791699999999992
40
0.6
0
CIRCLE
8
BLACK
10
183.8538069999999891
20
-216.5791699999999764
40
0.6
0
CIRCLE
8
BLACK
10
203.0656669999999906
20
-146.4541700000000048
40
0.95
0
CIRCLE
8
BLACK
10
200.9236799999999903
20
-141.7441389999999899
40
0.7999999999999999
0
CIRCLE
8
BLACK
10
207.8288069999999834
20
-143.7041700000000048
40
2.5249999999999999
0
CIRCLE
8
BLACK
10
212.5919469999999762
20
-140.9541700000000048
40
0.95
0
CIRCLE
8
BLACK
10
210.7788070000000005
20
-148.8137199999999893
40
0.6
0
CIRCLE
8
BLACK
10
214.0589339999999936
20
-144.4950670000000059
40
0.6
0
CIRCLE
8
BLACK
10
146.3638080000000059
20
-60.7724999999999937
40
0.95
0
CIRCLE
8
BLACK
10
145.8638080000000059
20
-65.9224999999999994
40
0.7999999999999999
0
CIRCLE
8
BLACK
10
140.8638080000000059
20
-60.7724999999999937
40
2.5249999999999999
0
CIRCLE
8
BLACK
10
135.3638080000000059
20
-60.7724999999999937
40
0.95
0
CIRCLE
8
BLACK
10
140.8638080000000059
20
-54.8724999999999952
40
0.6
0
CIRCLE
8
BLACK
10
135.8638080000000059
20
-56.9724999999999966
40
0.6
0
CIRCLE
8
BLACK
10
193.4513999999999783
20
-102.4210049999999939
40
0.95
0
CIRCLE
8
BLACK
10
191.635518999999988
20
-107.2661129999999901
40
0.7999999999999999
0
CIRCLE
8
BLACK
10
188.1388079999999832
20
-100.9975000000000023
40
2.5249999999999999
0
CIRCLE
8
BLACK
10
182.8262159999999881
20
-99.5739949999999965
40
0.95
0
CIRCLE
8
BLACK
10
189.6658400000000029
20
-95.2985379999999935
40
0.6
0
CIRCLE
8
BLACK
10
184.2926909999999907
20
-96.0328870000000023
40
0.6
0
CIRCLE
8
BLACK
10
192.3538069999999891
20
-191.2541699999999878
40
0.95
0
CIRCLE
8
BLACK
10
192.8538069999999891
20
-186.1041699999999821
40
0.7999999999999999
0
CIRCLE
8
BLACK
10
197.8538069999999891
20
-191.2541699999999878
40
2.5249999999999999
0
CIRCLE
8
BLACK
10
203.3538069999999891
20
-191.2541699999999878
40
0.95
0
CIRCLE
8
BLACK
10
197.8538069999999891
20
-197.1541699999999935
40
0.6
0
CIRCLE
8
BLACK
10
202.8538069999999891
20
-195.0541699999999992
40
0.6
0
CIRCLE
8
BLACK
10
172.7388080000000059
20
-97.9599999999999937
40
0.95
0
CIRCLE
8
BLACK
10
172.2388080000000059
20
-103.1099999999999994
40
0.7999999999999999
0
CIRCLE
8
BLACK
10
167.2388080000000059
20
-97.9599999999999937
40
2.5249999999999999
0
CIRCLE
8
BLACK
10
161.7388080000000059
20
-97.9599999999999937
40
0.95
0
CIRCLE
8
BLACK
10
167.2388080000000059
20
-92.0600000000000023
40
0.6
0
CIRCLE
8
BLACK
10
162.2388080000000059
20
-94.1599999999999966
40
0.6
0
CIRCLE
8
BLACK
10
127.3638079999999917
20
-91.7475000000000023
40
0.95
0
CIRCLE
8
BLACK
10
126.8638079999999917
20
-96.8974999999999937
40
0.7999999999999999
0
CIRCLE
8
BLACK
10
121.8638079999999917
20
-91.7475000000000023
40
2.5249999999999999
0
CIRCLE
8
BLACK
10
116.3638079999999917
20
-91.7475000000000023
40
0.95
0
CIRCLE
8
BLACK
10
121.8638079999999917
20
-85.8474999999999966
40
0.6
0
CIRCLE
8
BLACK
10
116.8638079999999917
20
-87.9474999999999909
40
0.6
0
CIRCLE
8
BLACK
10
165.3888079999999832
20
-54.6475000000000009
40
0.95
0
CIRCLE
8
BLACK
10
164.8888079999999832
20
-59.7974999999999994
40
0.7999999999999999
0
CIRCLE
8
BLACK
10
159.8888079999999832
20
-54.6475000000000009
40
2.5249999999999999
0
CIRCLE
8
BLACK
10
154.3888079999999832
20
-54.6475000000000009
40
0.95
0
CIRCLE
8
BLACK
10
159.8888079999999832
20
-48.7474999999999952
40
0.6
0
CIRCLE
8
BLACK
10
154.8888079999999832
20
-50.8474999999999966
40
0.6
0
CIRCLE
8
BLACK
10
135.3538069999999891
20
-173.2291699999999821
40
0.95
0
CIRCLE
8
BLACK
10
135.8538069999999891
20
-168.0791700000000048
40
0.7999999999999999
0
CIRCLE
8
BLACK
10
140.8538069999999891
20
-173.2291699999999821
40
2.5249999999999999
0
CIRCLE
8
BLACK
10
146.3538069999999891
20
-173.2291699999999821
40
0.95
0
CIRCLE
8
BLACK
10
140.8538069999999891
20
-179.1291699999999878
40
0.6
0
CIRCLE
8
BLACK
10
145.8538069999999891
20
-177.0291699999999935
40
0.6
0
CIRCLE
8
BLACK
10
154.3788069999999948
20
-179.3541699999999821
40
0.95
0
CIRCLE
8
BLACK
10
154.8788069999999948
20
-174.2041700000000048
40
0.7999999999999999
0
CIRCLE
8
BLACK
10
159.8788069999999948
20
-179.3541699999999821
40
2.5249999999999999
0
CIRCLE
8
BLACK
10
165.3788069999999948
20
-179.3541699999999821
40
0.95
0
CIRCLE
8
BLACK
10
159.8788069999999948
20
-185.2541699999999878
40
0.6
0
CIRCLE
8
BLACK
10
164.8788069999999948
20
-183.1541699999999935
40
0.6
0
CIRCLE
8
BLACK
10
187.4537979999999777
20
-223.4218189999999993
40
0.5
0
CIRCLE
8
BLACK
10
189.9937979999999982
20
-223.4218189999999993
40
0.5
0
CIRCLE
8
BLACK
10
184.3638079999999775
20
-78.2224999999999966
40
0.95
0
CIRCLE
8
BLACK
10
183.8638079999999775
20
-83.3725000000000023
40
0.7999999999999999
0
CIRCLE
8
BLACK
10
178.8638080000000059
20
-78.2224999999999966
40
2.5249999999999999
0
CIRCLE
8
BLACK
10
173.3638080000000059
20
-78.2224999999999966
40
0.95
0
CIRCLE
8
BLACK
10
178.8638080000000059
20
-72.3224999999999909
40
0.6
0
CIRCLE
8
BLACK
10
173.8638080000000059
20
-74.4224999999999994
40
0.6
0
CIRCLE
8
BLACK
10
127.3638079999999917
20
-53.7474999999999952
40
0.95
0
CIRCLE
8
BLACK
10
126.8638079999999917
20
-58.8975000000000009
40
0.7999999999999999
0
CIRCLE
8
BLACK
10
121.8638079999999917
20
-53.7474999999999952
40
2.5249999999999999
0
CIRCLE
8
BLACK
10
116.3638079999999917
20
-53.7474999999999952
40
0.95
0
CIRCLE
8
BLACK
10
121.8638079999999917
20
-47.8474999999999966
40
0.6
0
CIRCLE
8
BLACK
10
116.8638079999999917
20
-49.947499999999998
40
0.6
0
CIRCLE
8
BLACK
10
203.3638079999999775
20
-80.7475000000000023
40
0.95
0
CIRCLE
8
BLACK
10
202.8638079999999775
20
-85.8974999999999937
40
0.7999999999999999
0
CIRCLE
8
BLACK
10
197.8638079999999775
20
-80.7475000000000023
40
2.5249999999999999
0
CIRCLE
8
BLACK
10
192.3638079999999775
20
-80.7475000000000023
40
0.95
0
CIRCLE
8
BLACK
10
197.8638079999999775
20
-74.8474999999999966
40
0.6
0
CIRCLE
8
BLACK
10
192.8638079999999775
20
-76.9474999999999909
40
0.6
0
CIRCLE
8
BLACK
10
182.8162149999999997
20
-153.4276749999999936
40
0.95
0
CIRCLE
8
BLACK
10
181.9662600000000054
20
-148.3237469999999973
40
0.7999999999999999
0
CIRCLE
8
BLACK
10
188.1288069999999948
20
-152.0041699999999878
40
2.5249999999999999
0
CIRCLE
8
BLACK
10
193.4413989999999899
20
-150.580664999999982
40
0.95
0
CIRCLE
8
BLACK
10
189.6558389999999861
20
-157.7031319999999823
40
0.6
0
CIRCLE
8
BLACK
10
193.9419489999999939
20
-154.3805930000000046
40
0.6
0
CIRCLE
8
BLACK
10
192.3538069999999891
20
-210.2541699999999878
40
0.95
0
CIRCLE
8
BLACK
10
192.8538069999999891
20
-205.1041699999999821
40
0.7999999999999999
0
CIRCLE
8
BLACK
10
197.8538069999999891
20
-210.2541699999999878
40
2.5249999999999999
0
CIRCLE
8
BLACK
10
203.3538069999999891
20
-210.2541699999999878
40
0.95
0
CIRCLE
8
BLACK
10
197.8538069999999891
20
-216.1541699999999935
40
0.6
0
CIRCLE
8
BLACK
10
202.8538069999999891
20
-214.0541699999999992
40
0.6
0
CIRCLE
8
BLACK
10
116.3538069999999891
20
-199.2541699999999878
40
0.95
0
CIRCLE
8
BLACK
10
116.8538069999999891
20
-194.1041699999999821
40
0.7999999999999999
0
CIRCLE
8
BLACK
10
121.8538069999999891
20
-199.2541699999999878
40
2.5249999999999999
0
CIRCLE
8
BLACK
10
127.3538069999999891
20
-199.2541699999999878
40
0.95
0
CIRCLE
8
BLACK
10
121.8538069999999891
20
-205.1541699999999935
40
0.6
0
CIRCLE
8
BLACK
10
126.8538069999999891
20
-203.0541699999999992
40
0.6
0
CIRCLE
8
BLACK
10
192.3538069999999891
20
-172.2541699999999878
40
0.95
0
CIRCLE
8
BLACK
10
192.8538069999999891
20
-167.1041699999999821
40
0.7999999999999999
0
CIRCLE
8
BLACK
10
197.8538069999999891
20
-172.2541699999999878
40
2.5249999999999999
0
CIRCLE
8
BLACK
10
203.3538069999999891
20
-172.2541699999999878
40
0.95
0
CIRCLE
8
BLACK
10
197.8538069999999891
20
-178.1541699999999935
40
0.6
0
CIRCLE
8
BLACK
10
202.8538069999999891
20
-176.0541699999999992
40
0.6
0
CIRCLE
8
BLACK
10
146.3638080000000059
20
-41.7725000000000009
40
0.95
0
CIRCLE
8
BLACK
10
145.8638080000000059
20
-46.9224999999999994
40
0.7999999999999999
0
CIRCLE
8
BLACK
10
140.8638080000000059
20
-41.7725000000000009
40
2.5249999999999999
0
CIRCLE
8
BLACK
10
135.3638080000000059
20
-41.7725000000000009
40
0.95
0
CIRCLE
8
BLACK
10
140.8638080000000059
20
-35.8724999999999952
40
0.6
0
CIRCLE
8
BLACK
10
135.8638080000000059
20
-37.9724999999999966
40
0.6
0
CIRCLE
8
BLACK
10
212.601947999999993
20
-112.0474999999999994
40
0.95
0
CIRCLE
8
BLACK
10
209.5939349999999877
20
-116.2575310000000002
40
0.7999999999999999
0
CIRCLE
8
BLACK
10
207.8388080000000002
20
-109.2974999999999994
40
2.5249999999999999
0
CIRCLE
8
BLACK
10
203.075667999999979
20
-106.5474999999999994
40
0.95
0
CIRCLE
8
BLACK
10
210.7888079999999889
20
-104.1879500000000007
40
0.6
0
CIRCLE
8
BLACK
10
205.4086810000000014
20
-103.5066029999999984
40
0.6
0
CIRCLE
8
BLACK
10
154.3788069999999948
20
-198.3541699999999821
40
0.95
0
CIRCLE
8
BLACK
10
154.8788069999999948
20
-193.2041700000000048
40
0.7999999999999999
0
CIRCLE
8
BLACK
10
159.8788069999999948
20
-198.3541699999999821
40
2.5249999999999999
0
CIRCLE
8
BLACK
10
165.3788069999999948
20
-198.3541699999999821
40
0.95
0
CIRCLE
8
BLACK
10
159.8788069999999948
20
-204.2541699999999878
40
0.6
0
CIRCLE
8
BLACK
10
164.8788069999999948
20
-202.1541699999999935
40
0.6
0
CIRCLE
8
BLACK
10
203.3638079999999775
20
-61.7474999999999952
40
0.95
0
CIRCLE
8
BLACK
10
202.8638079999999775
20
-66.8974999999999937
40
0.7999999999999999
0
CIRCLE
8
BLACK
10
197.8638079999999775
20
-61.7474999999999952
40
2.5249999999999999
0
CIRCLE
8
BLACK
10
192.3638079999999775
20
-61.7474999999999952
40
0.95
0
CIRCLE
8
BLACK
10
197.8638079999999775
20
-55.8474999999999966
40
0.6
0
CIRCLE
8
BLACK
10
192.8638079999999775
20
-57.947499999999998
40
0.6
0
CIRCLE
8
BLACK
10
135.3538069999999891
20
-192.2291699999999821
40
0.95
0
CIRCLE
8
BLACK
10
135.8538069999999891
20
-187.0791700000000048
40
0.7999999999999999
0
CIRCLE
8
BLACK
10
140.8538069999999891
20
-192.2291699999999821
40
2.5249999999999999
0
CIRCLE
8
BLACK
10
146.3538069999999891
20
-192.2291699999999821
40
0.95
0
CIRCLE
8
BLACK
10
140.8538069999999891
20
-198.1291699999999878
40
0.6
0
CIRCLE
8
BLACK
10
145.8538069999999891
20
-196.0291699999999935
40
0.6
0
CIRCLE
8
BLACK
10
116.3538069999999891
20
-161.2541699999999878
40
0.95
0
CIRCLE
8
BLACK
10
116.8538069999999891
20
-156.1041699999999821
40
0.7999999999999999
0
CIRCLE
8
BLACK
10
121.8538069999999891
20
-161.2541699999999878
40
2.5249999999999999
0
CIRCLE
8
BLACK
10
127.3538069999999891
20
-161.2541699999999878
40
0.95
0
CIRCLE
8
BLACK
10
121.8538069999999891
20
-167.1541699999999935
40
0.6
0
CIRCLE
8
BLACK
10
126.8538069999999891
20
-165.0541699999999992
40
0.6
0
CIRCLE
8
BLACK
10
146.3638080000000059
20
-79.7724999999999937
40
0.95
0
CIRCLE
8
BLACK
10
145.8638080000000059
20
-84.9224999999999994
40
0.7999999999999999
0
CIRCLE
8
BLACK
10
140.8638080000000059
20
-79.7724999999999937
40
2.5249999999999999
0
CIRCLE
8
BLACK
10
135.3638080000000059
20
-79.7724999999999937
40
0.95
0
CIRCLE
8
BLACK
10
140.8638080000000059
20
-73.8725000000000023
40
0.6
0
CIRCLE
8
BLACK
10
135.8638080000000059
20
-75.9724999999999966
40
0.6
0
CIRCLE
8
BLACK
10
135.3538069999999891
20
-211.2291699999999821
40
0.95
0
CIRCLE
8
BLACK
10
135.8538069999999891
20
-206.0791700000000048
40
0.7999999999999999
0
CIRCLE
8
BLACK
10
140.8538069999999891
20
-211.2291699999999821
40
2.5249999999999999
0
CIRCLE
8
BLACK
10
146.3538069999999891
20
-211.2291699999999821
40
0.95
0
CIRCLE
8
BLACK
10
140.8538069999999891
20
-217.1291699999999878
40
0.6
0
CIRCLE
8
BLACK
10
145.8538069999999891
20
-215.0291699999999935
40
0.6
0
CIRCLE
8
BLACK
10
154.3788069999999948
20
-217.3541699999999821
40
0.95
0
CIRCLE
8
BLACK
10
154.8788069999999948
20
-212.2041699999999764
40
0.7999999999999999
0
CIRCLE
8
BLACK
10
159.8788069999999948
20
-217.3541699999999821
40
2.5249999999999999
0
CIRCLE
8
BLACK
10
165.3788069999999948
20
-217.3541699999999821
40
0.95
0
CIRCLE
8
BLACK
10
159.8788069999999948
20
-223.2541699999999878
40
0.6
0
CIRCLE
8
BLACK
10
164.8788069999999948
20
-221.1541699999999935
40
0.6
0
CIRCLE
8
BLACK
10
210.2187979999999925
20
-58.0908189999999962
40
0.4
0
CIRCLE
8
BLACK
10
210.2187979999999925
20
-60.6308189999999954
40
0.4
0
CIRCLE
8
BLACK
10
210.2187979999999925
20
-63.1708189999999945
40
0.4
0
CIRCLE
8
BLACK
10
210.2187979999999925
20
-65.7108190000000008
40
0.4
0
CIRCLE
8
BLACK
10
210.2187979999999925
20
-68.2508189999999928
40
0.4
0
CIRCLE
8
BLACK
10
210.2187979999999925
20
-70.7908189999999991
40
0.4
0
CIRCLE
8
BLACK
10
210.2187979999999925
20
-73.3308189999999911
40
0.4
0
CIRCLE
8
BLACK
10
210.2187979999999925
20
-75.8708189999999973
40
0.4
0
CIRCLE
8
BLACK
10
210.2187979999999925
20
-78.4108189999999894
40
0.4
0
CIRCLE
8
BLACK
10
210.2187979999999925
20
-80.9508189999999956
40
0.4
0
CIRCLE
8
BLACK
10
210.2187979999999925
20
-83.4908190000000019
40
0.4
0
CIRCLE
8
BLACK
10
210.2187979999999925
20
-86.0308189999999939
40
0.4
0
CIRCLE
8
BLACK
10
225.4587980000000016
20
-86.0308189999999939
40
0.4
0
CIRCLE
8
BLACK
10
225.4587980000000016
20
-83.4908190000000019
40
0.4
0
CIRCLE
8
BLACK
10
225.4587980000000016
20
-80.9508189999999956
40
0.4
0
CIRCLE
8
BLACK
10
225.4587980000000016
20
-78.4108189999999894
40
0.4
0
CIRCLE
8
BLACK
10
225.4587980000000016
20
-75.8708189999999973
40
0.4
0
CIRCLE
8
BLACK
10
225.4587980000000016
20
-73.3308189999999911
40
0.4
0
CIRCLE
8
BLACK
10
225.4587980000000016
20
-70.7908189999999991
40
0.4
0
CIRCLE
8
BLACK
10
225.4587980000000016
20
-68.2508189999999928
40
0.4
0
CIRCLE
8
BLACK
10
225.4587980000000016
20
-65.7108190000000008
40
0.4
0
CIRCLE
8
BLACK
10
225.4587980000000016
20
-63.1708189999999945
40
0.4
0
CIRCLE
8
BLACK
10
225.4587980000000016
20
-60.6308189999999954
40
0.4
0
CIRCLE
8
BLACK
10
225.4587980000000016
20
-58.0908189999999962
40
0.4
0
CIRCLE
8
BLACK
10
184.3638079999999775
20
-59.2224999999999966
40
0.95
0
CIRCLE
8
BLACK
10
183.8638079999999775
20
-64.3725000000000023
40
0.7999999999999999
0
CIRCLE
8
BLACK
10
178.8638080000000059
20
-59.2224999999999966
40
2.5249999999999999
0
CIRCLE
8
BLACK
10
173.3638080000000059
20
-59.2224999999999966
40
0.95
0
CIRCLE
8
BLACK
10
178.8638080000000059
20
-53.322499999999998
40
0.6
0
CIRCLE
8
BLACK
10
173.8638080000000059
20
-55.4224999999999994
40
0.6
0
CIRCLE
8
BLACK
10
165.3888079999999832
20
-73.6474999999999937
40
0.95
0
CIRCLE
8
BLACK
10
164.8888079999999832
20
-78.7974999999999994
40
0.7999999999999999
0
CIRCLE
8
BLACK
10
159.8888079999999832
20
-73.6474999999999937
40
2.5249999999999999
0
CIRCLE
8
BLACK
10
154.3888079999999832
20
-73.6474999999999937
40
0.95
0
CIRCLE
8
BLACK
10
159.8888079999999832
20
-67.7475000000000023
40
0.6
0
CIRCLE
8
BLACK
10
154.8888079999999832
20
-69.8474999999999966
40
0.6
0
CIRCLE
8
BLACK
10
184.3638079999999775
20
-40.2224999999999966
40
0.95
0
CIRCLE
8
BLACK
10
183.8638079999999775
20
-45.3724999999999952
40
0.7999999999999999
0
CIRCLE
8
BLACK
10
178.8638080000000059
20
-40.2224999999999966
40
2.5249999999999999
0
CIRCLE
8
BLACK
10
173.3638080000000059
20
-40.2224999999999966
40
0.95
0
CIRCLE
8
BLACK
10
178.8638080000000059
20
-34.322499999999998
40
0.6
0
CIRCLE
8
BLACK
10
173.8638080000000059
20
-36.4224999999999994
40
0.6
0
CIRCLE
8
BLACK
10
127.3638079999999917
20
-72.7475000000000023
40
0.95
0
CIRCLE
8
BLACK
10
126.8638079999999917
20
-77.8974999999999937
40
0.7999999999999999
0
CIRCLE
8
BLACK
10
121.8638079999999917
20
-72.7475000000000023
40
2.5249999999999999
0
CIRCLE
8
BLACK
10
116.3638079999999917
20
-72.7475000000000023
40
0.95
0
CIRCLE
8
BLACK
10
121.8638079999999917
20
-66.8474999999999966
40
0.6
0
CIRCLE
8
BLACK
10
116.8638079999999917
20
-68.9474999999999909
40
0.6
0
CIRCLE
8
BLACK
10
115.7187979999999925
20
-82.2718189999999936
40
1.0999999999999999
0
CIRCLE
8
BLACK
10
197.5787979999999777
20
-224.9898499999999899
40
0.36
0
CIRCLE
8
BLACK
10
200.4787979999999834
20
-224.9898499999999899
40
0.36
0
CIRCLE
8
BLACK
10
188.3687979999999982
20
-168.6718189999999993
40
1.0999999999999999
0
CIRCLE
8
BLACK
10
131.3687979999999982
20
-47.4218189999999993
40
1.0999999999999999
0
CIRCLE
8
BLACK
10
115.7187979999999925
20
-170.7718189999999936
40
1.0999999999999999
0
CIRCLE
8
BLACK
10
200.4887980000000027
20
-28.0118189999999991
40
0.36
0
CIRCLE
8
BLACK
10
197.588797999999997
20
-28.0118189999999991
40
0.36
0
CIRCLE
8
BLACK
10
189.7337979999999789
20
-29.4218189999999993
40
0.5
0
CIRCLE
8
BLACK
10
187.1937979999999868
20
-29.4218189999999993
40
0.5
0
CIRCLE
8
BLACK
10
131.3687979999999982
20
-205.4218189999999993
40
1.0999999999999999
0
CIRCLE
8
BLACK
10
203.9687979999999925
20
-52.2718190000000007
40
1.0999999999999999
0
CIRCLE
8
BLACK
10
204.2187979999999925
20
-200.7718189999999936
40
1.0999999999999999
0
CIRCLE
8
BLACK
10
188.3687979999999982
20
-84.4218189999999993
40
1.0999999999999999
0
CIRCLE
8
BLACK
10
225.4687979999999925
20
-195.1318189999999788
40
0.4
0
CIRCLE
8
BLACK
10
225.4687979999999925
20
-192.5918189999999868
40
0.4
0
CIRCLE
8
BLACK
10
225.4687979999999925
20
-190.0518189999999947
40
0.4
0
CIRCLE
8
BLACK
10
225.4687979999999925
20
-187.5118190000000027
40
0.4
0
CIRCLE
8
BLACK
10
225.4687979999999925
20
-184.9718189999999822
40
0.4
0
CIRCLE
8
BLACK
10
225.4687979999999925
20
-182.4318189999999902
40
0.4
0
CIRCLE
8
BLACK
10
225.4687979999999925
20
-179.8918189999999981
40
0.4
0
CIRCLE
8
BLACK
10
225.4687979999999925
20
-177.3518190000000061
40
0.4
0
CIRCLE
8
BLACK
10
225.4687979999999925
20
-174.8118189999999856
40
0.4
0
CIRCLE
8
BLACK
10
225.4687979999999925
20
-172.2718189999999936
40
0.4
0
CIRCLE
8
BLACK
10
225.4687979999999925
20
-169.7318190000000016
40
0.4
0
CIRCLE
8
BLACK
10
225.4687979999999925
20
-167.1918189999999811
40
0.4
0
CIRCLE
8
BLACK
10
210.2287979999999834
20
-167.1918189999999811
40
0.4
0
CIRCLE
8
BLACK
10
210.2287979999999834
20
-169.7318190000000016
40
0.4
0
CIRCLE
8
BLACK
10
210.2287979999999834
20
-172.2718189999999936
40
0.4
0
CIRCLE
8
BLACK
10
210.2287979999999834
20
-174.8118189999999856
40
0.4
0
CIRCLE
8
BLACK
10
210.2287979999999834
20
-177.3518190000000061
40
0.4
0
CIRCLE
8
BLACK
10
210.2287979999999834
20
-179.8918189999999981
40
0.4
0
CIRCLE
8
BLACK
10
210.2287979999999834
20
-182.4318189999999902
40
0.4
0
CIRCLE
8
BLACK
10
210.2287979999999834
20
-184.9718189999999822
40
0.4
0
CIRCLE
8
BLACK
10
210.2287979999999834
20
-187.5118190000000027
40
0.4
0
CIRCLE
8
BLACK
10
210.2287979999999834
20
-190.0518189999999947
40
0.4
0
CIRCLE
8
BLACK
10
210.2287979999999834
20
-192.5918189999999868
40
0.4
0
CIRCLE
8
BLACK
10
210.2287979999999834
20
-195.1318189999999788
40
0.4
  0
ENDSEC
  0
EOF
