  0
SECTION
  2
HEADER
  9
$ANGBASE
  50
0.0
  9
$ANGDIR
  70
1
  9
$MEASUREMENT
  70
1
  0
ENDSEC
  0
SECTION
  2
TABLES
  0
TABLE
  2
LTYPE
  70
4
  0
LTYPE
  5
40F
  2
CONTINUOUS
  70
0
  3
Solid line
  72
65
  73
0
  40
0.0
  0
LTYPE
  5
410
  2
DASHDOT
 70
0
  3
Dash Dot ____ _ ____ _
 72
65
 73
4
 40
2.0
 49
1.25
 49
-0.25
 49
0.25
 49
-0.25
  0
LTYPE
  5
411
  2
DASHED
 70
0
  3
Dashed __ __ __ __ __
 72
65
 73
2
 40
0.75
 49
0.5
 49
-0.25
  0
LTYPE
  5
43B
  2
DOTTED
 70
0
  3
Dotted .  .  .  .
 72
65
 73
2
 40
0.2
 49
0.0
 49
-0.2
  0
ENDTAB
  0
TABLE
  2
STYLE
  70
4
  0
STYLE
  2
KICAD
  70
0
  40
0
  41
1
  42
1
  50
0
  71
0
  3
isocp.shx
  0
STYLE
  2
KICADB
  70
0
  40
0
  41
1
  42
1
  50
0
  71
0
  3
isocp.shx
  0
STYLE
  2
KICADI
  70
0
  40
0
  41
1
  42
1
  50
15
  71
0
  3
isocp.shx
  0
STYLE
  2
KICADBI
  70
0
  40
0
  41
1
  42
1
  50
15
  71
0
  3
isocp.shx
  0
ENDTAB
  0
TABLE
  2
LAYER
  70
1
  0
LAYER
  2
BLACK
  70
0
  62
7
  6
CONTINUOUS
  0
ENDTAB
  0
ENDSEC
  0
SECTION
  2
ENTITIES
0
LINE
8
BLACK
6
CONTINUOUS
10
205.2982810000000029
20
-99.7478219999999993
11
217.3793349999999975
21
-106.7228229999999911
0
LINE
8
BLACK
6
CONTINUOUS
10
217.3793349999999975
20
-106.7228229999999911
11
217.3866689999999835
21
-106.7292539999999974
0
LINE
8
BLACK
6
CONTINUOUS
10
217.3866689999999835
20
-106.7292539999999974
11
217.3916209999999865
21
-106.7477359999999891
0
LINE
8
BLACK
6
CONTINUOUS
10
217.3916209999999865
20
-106.7477359999999891
11
217.3884860000000003
21
-106.7569730000000021
0
LINE
8
BLACK
6
CONTINUOUS
10
217.3884860000000003
20
-106.7569730000000021
11
210.4134859999999776
21
-118.8380269999999967
0
LINE
8
BLACK
6
CONTINUOUS
10
210.4134859999999776
20
-118.8380269999999967
11
210.407053999999988
21
-118.8453609999999969
0
LINE
8
BLACK
6
CONTINUOUS
10
210.407053999999988
20
-118.8453609999999969
11
210.3885719999999822
21
-118.8503129999999999
0
LINE
8
BLACK
6
CONTINUOUS
10
210.3885719999999822
20
-118.8503129999999999
11
210.3793349999999975
21
-118.8471779999999995
0
LINE
8
BLACK
6
CONTINUOUS
10
210.3793349999999975
20
-118.8471779999999995
11
198.2982810000000029
21
-111.872177999999991
0
LINE
8
BLACK
6
CONTINUOUS
10
198.2982810000000029
20
-111.872177999999991
11
198.2909469999999885
21
-111.8657460000000015
0
LINE
8
BLACK
6
CONTINUOUS
10
198.2909469999999885
20
-111.8657460000000015
11
198.2859949999999856
21
-111.8472639999999956
0
LINE
8
BLACK
6
CONTINUOUS
10
198.2859949999999856
20
-111.8472639999999956
11
198.2891300000000001
21
-111.8380269999999967
0
LINE
8
BLACK
6
CONTINUOUS
10
198.2891300000000001
20
-111.8380269999999967
11
205.2641309999999919
21
-99.7569730000000021
0
LINE
8
BLACK
6
CONTINUOUS
10
205.2641309999999919
20
-99.7569730000000021
11
205.270561999999984
21
-99.7496390000000019
0
LINE
8
BLACK
6
CONTINUOUS
10
205.270561999999984
20
-99.7496390000000019
11
205.2890439999999899
21
-99.744686999999999
0
LINE
8
BLACK
6
CONTINUOUS
10
205.2890439999999899
20
-99.744686999999999
11
205.2982810000000029
21
-99.7478219999999993
0
LINE
8
BLACK
6
CONTINUOUS
10
198.344932
20
-111.8413759999999968
11
210.3826829999999859
21
-118.7913759999999996
0
LINE
8
BLACK
6
CONTINUOUS
10
210.3826829999999859
20
-118.7913759999999996
11
217.3326840000000004
21
-106.7536240000000021
0
LINE
8
BLACK
6
CONTINUOUS
10
217.3326840000000004
20
-106.7536240000000021
11
205.2949309999999912
21
-99.8036239999999992
0
LINE
8
BLACK
6
CONTINUOUS
10
205.2949309999999912
20
-99.8036239999999992
11
198.344932
21
-111.8413759999999968
0
LINE
8
BLACK
6
CONTINUOUS
10
183.2034789999999873
20
-92.4301189999999906
11
183.2132079999999803
21
-92.4307569999999998
0
LINE
8
BLACK
6
CONTINUOUS
10
183.2132079999999803
20
-92.4307569999999998
11
196.6878739999999937
21
-96.0412819999999954
0
LINE
8
BLACK
6
CONTINUOUS
10
196.6878739999999937
20
-96.0412819999999954
11
196.6966219999999907
21
-96.0455959999999891
0
LINE
8
BLACK
6
CONTINUOUS
10
196.6966219999999907
20
-96.0455959999999891
11
196.7061899999999923
21
-96.0621670000000023
0
LINE
8
BLACK
6
CONTINUOUS
10
196.7061899999999923
20
-96.0621670000000023
11
196.7061879999999974
21
-96.0621709999999922
0
LINE
8
BLACK
6
CONTINUOUS
10
196.7061879999999974
20
-96.0621709999999922
11
196.7055509999999856
21
-96.0718999999999994
0
LINE
8
BLACK
6
CONTINUOUS
10
196.7055509999999856
20
-96.0718999999999994
11
193.0950259999999901
21
-109.5465650000000011
0
LINE
8
BLACK
6
CONTINUOUS
10
193.0950259999999901
20
-109.5465650000000011
11
193.0907119999999964
21
-109.5553139999999956
0
LINE
8
BLACK
6
CONTINUOUS
10
193.0907119999999964
20
-109.5553139999999956
11
193.0741409999999973
21
-109.5648809999999997
0
LINE
8
BLACK
6
CONTINUOUS
10
193.0741409999999973
20
-109.5648809999999997
11
193.064407999999986
21
-109.5642429999999905
0
LINE
8
BLACK
6
CONTINUOUS
10
193.064407999999986
20
-109.5642429999999905
11
179.5897429999999986
21
-105.953717999999995
0
LINE
8
BLACK
6
CONTINUOUS
10
179.5897429999999986
20
-105.953717999999995
11
179.580994000000004
21
-105.9494040000000012
0
LINE
8
BLACK
6
CONTINUOUS
10
179.580994000000004
20
-105.9494040000000012
11
179.5714269999999999
21
-105.9328330000000022
0
LINE
8
BLACK
6
CONTINUOUS
10
179.5714269999999999
20
-105.9328330000000022
11
179.5720649999999807
21
-105.9230999999999909
0
LINE
8
BLACK
6
CONTINUOUS
10
179.5720649999999807
20
-105.9230999999999909
11
183.1825900000000047
21
-92.4484339999999918
0
LINE
8
BLACK
6
CONTINUOUS
10
183.1825900000000047
20
-92.4484339999999918
11
183.1869039999999984
21
-92.4396859999999947
0
LINE
8
BLACK
6
CONTINUOUS
10
183.1869039999999984
20
-92.4396859999999947
11
183.2034749999999974
21
-92.4301179999999931
0
LINE
8
BLACK
6
CONTINUOUS
10
183.2034749999999974
20
-92.4301179999999931
11
183.2034789999999873
21
-92.4301189999999906
0
LINE
8
BLACK
6
CONTINUOUS
10
179.6268309999999815
20
-105.9118919999999946
11
193.0532000000000039
21
-109.5094759999999923
0
LINE
8
BLACK
6
CONTINUOUS
10
193.0532000000000039
20
-109.5094759999999923
11
196.6507839999999874
21
-96.0831069999999983
0
LINE
8
BLACK
6
CONTINUOUS
10
196.6507839999999874
20
-96.0831069999999983
11
183.2244149999999934
21
-92.4855230000000006
0
LINE
8
BLACK
6
CONTINUOUS
10
183.2244149999999934
20
-92.4855230000000006
11
179.6268309999999815
21
-105.9118919999999946
0
LINE
8
BLACK
6
CONTINUOUS
10
174.2233750000000043
20
-90.9619029999999924
11
174.2369049999999788
21
-90.9754329999999953
0
LINE
8
BLACK
6
CONTINUOUS
10
174.2369049999999788
20
-90.9754329999999953
11
174.2388080000000059
21
-90.9849999999999994
0
LINE
8
BLACK
6
CONTINUOUS
10
174.2388080000000059
20
-90.9849999999999994
11
174.2388080000000059
21
-104.9350000000000023
0
LINE
8
BLACK
6
CONTINUOUS
10
174.2388080000000059
20
-104.9350000000000023
11
174.2369049999999788
21
-104.9445669999999922
0
LINE
8
BLACK
6
CONTINUOUS
10
174.2369049999999788
20
-104.9445669999999922
11
174.2233750000000043
21
-104.9580969999999951
0
LINE
8
BLACK
6
CONTINUOUS
10
174.2233750000000043
20
-104.9580969999999951
11
174.2138080000000002
21
-104.9599999999999937
0
LINE
8
BLACK
6
CONTINUOUS
10
174.2138080000000002
20
-104.9599999999999937
11
160.2638079999999832
21
-104.9599999999999937
0
LINE
8
BLACK
6
CONTINUOUS
10
160.2638079999999832
20
-104.9599999999999937
11
160.2542409999999791
21
-104.9580969999999951
0
LINE
8
BLACK
6
CONTINUOUS
10
160.2542409999999791
20
-104.9580969999999951
11
160.2407110000000046
21
-104.9445669999999922
0
LINE
8
BLACK
6
CONTINUOUS
10
160.2407110000000046
20
-104.9445669999999922
11
160.2388080000000059
21
-104.9350000000000023
0
LINE
8
BLACK
6
CONTINUOUS
10
160.2388080000000059
20
-104.9350000000000023
11
160.2388080000000059
21
-90.9849999999999994
0
LINE
8
BLACK
6
CONTINUOUS
10
160.2388080000000059
20
-90.9849999999999994
11
160.2407110000000046
21
-90.9754329999999953
0
LINE
8
BLACK
6
CONTINUOUS
10
160.2407110000000046
20
-90.9754329999999953
11
160.2542409999999791
21
-90.9619029999999924
0
LINE
8
BLACK
6
CONTINUOUS
10
160.2542409999999791
20
-90.9619029999999924
11
160.2638079999999832
21
-90.9599999999999937
0
LINE
8
BLACK
6
CONTINUOUS
10
160.2638079999999832
20
-90.9599999999999937
11
174.2138080000000002
21
-90.9599999999999937
0
LINE
8
BLACK
6
CONTINUOUS
10
174.2138080000000002
20
-90.9599999999999937
11
174.2233750000000043
21
-90.9619029999999924
0
LINE
8
BLACK
6
CONTINUOUS
10
160.2888079999999889
20
-91.0099999999999909
11
160.2888079999999889
21
-104.9099999999999966
0
LINE
8
BLACK
6
CONTINUOUS
10
160.2888079999999889
20
-104.9099999999999966
11
174.1888079999999945
21
-104.9099999999999966
0
LINE
8
BLACK
6
CONTINUOUS
10
174.1888079999999945
20
-104.9099999999999966
11
174.1888079999999945
21
-91.0099999999999909
0
LINE
8
BLACK
6
CONTINUOUS
10
174.1888079999999945
20
-91.0099999999999909
11
160.2888079999999889
21
-91.0099999999999909
0
LINE
8
BLACK
6
CONTINUOUS
10
128.8483750000000043
20
-84.7494030000000009
11
128.8619050000000072
21
-84.7629329999999896
0
LINE
8
BLACK
6
CONTINUOUS
10
128.8619050000000072
20
-84.7629329999999896
11
128.8638080000000059
21
-84.7724999999999937
0
LINE
8
BLACK
6
CONTINUOUS
10
128.8638080000000059
20
-84.7724999999999937
11
128.8638080000000059
21
-98.7224999999999966
0
LINE
8
BLACK
6
CONTINUOUS
10
128.8638080000000059
20
-98.7224999999999966
11
128.8619050000000072
21
-98.7320670000000007
0
LINE
8
BLACK
6
CONTINUOUS
10
128.8619050000000072
20
-98.7320670000000007
11
128.8483750000000043
21
-98.7455969999999894
0
LINE
8
BLACK
6
CONTINUOUS
10
128.8483750000000043
20
-98.7455969999999894
11
128.8388080000000002
21
-98.7475000000000023
0
LINE
8
BLACK
6
CONTINUOUS
10
128.8388080000000002
20
-98.7475000000000023
11
114.8888079999999974
21
-98.7475000000000023
0
LINE
8
BLACK
6
CONTINUOUS
10
114.8888079999999974
20
-98.7475000000000023
11
114.8792409999999933
21
-98.7455969999999894
0
LINE
8
BLACK
6
CONTINUOUS
10
114.8792409999999933
20
-98.7455969999999894
11
114.8657109999999903
21
-98.7320670000000007
0
LINE
8
BLACK
6
CONTINUOUS
10
114.8657109999999903
20
-98.7320670000000007
11
114.8638079999999917
21
-98.7224999999999966
0
LINE
8
BLACK
6
CONTINUOUS
10
114.8638079999999917
20
-98.7224999999999966
11
114.8638079999999917
21
-84.7724999999999937
0
LINE
8
BLACK
6
CONTINUOUS
10
114.8638079999999917
20
-84.7724999999999937
11
114.8657109999999903
21
-84.7629329999999896
0
LINE
8
BLACK
6
CONTINUOUS
10
114.8657109999999903
20
-84.7629329999999896
11
114.8792409999999933
21
-84.7494030000000009
0
LINE
8
BLACK
6
CONTINUOUS
10
114.8792409999999933
20
-84.7494030000000009
11
114.8888079999999974
21
-84.7475000000000023
0
LINE
8
BLACK
6
CONTINUOUS
10
114.8888079999999974
20
-84.7475000000000023
11
128.8388080000000002
21
-84.7475000000000023
0
LINE
8
BLACK
6
CONTINUOUS
10
128.8388080000000002
20
-84.7475000000000023
11
128.8483750000000043
21
-84.7494030000000009
0
LINE
8
BLACK
6
CONTINUOUS
10
114.9138079999999889
20
-84.7974999999999994
11
114.9138079999999889
21
-98.6974999999999909
0
LINE
8
BLACK
6
CONTINUOUS
10
114.9138079999999889
20
-98.6974999999999909
11
128.8138079999999945
21
-98.6974999999999909
0
LINE
8
BLACK
6
CONTINUOUS
10
128.8138079999999945
20
-98.6974999999999909
11
128.8138079999999945
21
-84.7974999999999994
0
LINE
8
BLACK
6
CONTINUOUS
10
128.8138079999999945
20
-84.7974999999999994
11
114.9138079999999889
21
-84.7974999999999994
0
LINE
8
BLACK
6
CONTINUOUS
10
204.8483750000000043
20
-73.7494030000000009
11
204.8619049999999788
21
-73.7629329999999896
0
LINE
8
BLACK
6
CONTINUOUS
10
204.8619049999999788
20
-73.7629329999999896
11
204.8638079999999775
21
-73.7724999999999937
0
LINE
8
BLACK
6
CONTINUOUS
10
204.8638079999999775
20
-73.7724999999999937
11
204.8638079999999775
21
-87.7224999999999966
0
LINE
8
BLACK
6
CONTINUOUS
10
204.8638079999999775
20
-87.7224999999999966
11
204.8619049999999788
21
-87.7320670000000007
0
LINE
8
BLACK
6
CONTINUOUS
10
204.8619049999999788
20
-87.7320670000000007
11
204.8483750000000043
21
-87.7455969999999894
0
LINE
8
BLACK
6
CONTINUOUS
10
204.8483750000000043
20
-87.7455969999999894
11
204.8388080000000002
21
-87.7475000000000023
0
LINE
8
BLACK
6
CONTINUOUS
10
204.8388080000000002
20
-87.7475000000000023
11
190.8888079999999832
21
-87.7475000000000023
0
LINE
8
BLACK
6
CONTINUOUS
10
190.8888079999999832
20
-87.7475000000000023
11
190.8792409999999791
21
-87.7455969999999894
0
LINE
8
BLACK
6
CONTINUOUS
10
190.8792409999999791
20
-87.7455969999999894
11
190.8657110000000046
21
-87.7320670000000007
0
LINE
8
BLACK
6
CONTINUOUS
10
190.8657110000000046
20
-87.7320670000000007
11
190.8638079999999775
21
-87.7224999999999966
0
LINE
8
BLACK
6
CONTINUOUS
10
190.8638079999999775
20
-87.7224999999999966
11
190.8638079999999775
21
-73.7724999999999937
0
LINE
8
BLACK
6
CONTINUOUS
10
190.8638079999999775
20
-73.7724999999999937
11
190.8657110000000046
21
-73.7629329999999896
0
LINE
8
BLACK
6
CONTINUOUS
10
190.8657110000000046
20
-73.7629329999999896
11
190.8792409999999791
21
-73.7494030000000009
0
LINE
8
BLACK
6
CONTINUOUS
10
190.8792409999999791
20
-73.7494030000000009
11
190.8888079999999832
21
-73.7475000000000023
0
LINE
8
BLACK
6
CONTINUOUS
10
190.8888079999999832
20
-73.7475000000000023
11
204.8388080000000002
21
-73.7475000000000023
0
LINE
8
BLACK
6
CONTINUOUS
10
204.8388080000000002
20
-73.7475000000000023
11
204.8483750000000043
21
-73.7494030000000009
0
LINE
8
BLACK
6
CONTINUOUS
10
190.9138079999999889
20
-73.7974999999999994
11
190.9138079999999889
21
-87.6974999999999909
0
LINE
8
BLACK
6
CONTINUOUS
10
190.9138079999999889
20
-87.6974999999999909
11
204.8138079999999945
21
-87.6974999999999909
0
LINE
8
BLACK
6
CONTINUOUS
10
204.8138079999999945
20
-87.6974999999999909
11
204.8138079999999945
21
-73.7974999999999994
0
LINE
8
BLACK
6
CONTINUOUS
10
204.8138079999999945
20
-73.7974999999999994
11
190.9138079999999889
21
-73.7974999999999994
0
LINE
8
BLACK
6
CONTINUOUS
10
147.8483750000000043
20
-72.7744029999999924
11
147.8619050000000072
21
-72.7879329999999953
0
LINE
8
BLACK
6
CONTINUOUS
10
147.8619050000000072
20
-72.7879329999999953
11
147.8638080000000059
21
-72.7974999999999994
0
LINE
8
BLACK
6
CONTINUOUS
10
147.8638080000000059
20
-72.7974999999999994
11
147.8638080000000059
21
-86.7475000000000023
0
LINE
8
BLACK
6
CONTINUOUS
10
147.8638080000000059
20
-86.7475000000000023
11
147.8619050000000072
21
-86.7570669999999922
0
LINE
8
BLACK
6
CONTINUOUS
10
147.8619050000000072
20
-86.7570669999999922
11
147.8483750000000043
21
-86.7705969999999951
0
LINE
8
BLACK
6
CONTINUOUS
10
147.8483750000000043
20
-86.7705969999999951
11
147.8388080000000002
21
-86.7724999999999937
0
LINE
8
BLACK
6
CONTINUOUS
10
147.8388080000000002
20
-86.7724999999999937
11
133.8888079999999832
21
-86.7724999999999937
0
LINE
8
BLACK
6
CONTINUOUS
10
133.8888079999999832
20
-86.7724999999999937
11
133.8792410000000075
21
-86.7705969999999951
0
LINE
8
BLACK
6
CONTINUOUS
10
133.8792410000000075
20
-86.7705969999999951
11
133.8657110000000046
21
-86.7570669999999922
0
LINE
8
BLACK
6
CONTINUOUS
10
133.8657110000000046
20
-86.7570669999999922
11
133.8638080000000059
21
-86.7475000000000023
0
LINE
8
BLACK
6
CONTINUOUS
10
133.8638080000000059
20
-86.7475000000000023
11
133.8638080000000059
21
-72.7974999999999994
0
LINE
8
BLACK
6
CONTINUOUS
10
133.8638080000000059
20
-72.7974999999999994
11
133.8657110000000046
21
-72.7879329999999953
0
LINE
8
BLACK
6
CONTINUOUS
10
133.8657110000000046
20
-72.7879329999999953
11
133.8792410000000075
21
-72.7744029999999924
0
LINE
8
BLACK
6
CONTINUOUS
10
133.8792410000000075
20
-72.7744029999999924
11
133.8888079999999832
21
-72.7724999999999937
0
LINE
8
BLACK
6
CONTINUOUS
10
133.8888079999999832
20
-72.7724999999999937
11
147.8388080000000002
21
-72.7724999999999937
0
LINE
8
BLACK
6
CONTINUOUS
10
147.8388080000000002
20
-72.7724999999999937
11
147.8483750000000043
21
-72.7744029999999924
0
LINE
8
BLACK
6
CONTINUOUS
10
133.9138079999999889
20
-72.8224999999999909
11
133.9138079999999889
21
-86.7224999999999966
0
LINE
8
BLACK
6
CONTINUOUS
10
133.9138079999999889
20
-86.7224999999999966
11
147.8138079999999945
21
-86.7224999999999966
0
LINE
8
BLACK
6
CONTINUOUS
10
147.8138079999999945
20
-86.7224999999999966
11
147.8138079999999945
21
-72.8224999999999909
0
LINE
8
BLACK
6
CONTINUOUS
10
147.8138079999999945
20
-72.8224999999999909
11
133.9138079999999889
21
-72.8224999999999909
0
LINE
8
BLACK
6
CONTINUOUS
10
185.8483750000000043
20
-71.2244029999999952
11
185.8619049999999788
21
-71.2379329999999982
0
LINE
8
BLACK
6
CONTINUOUS
10
185.8619049999999788
20
-71.2379329999999982
11
185.8638079999999775
21
-71.2475000000000023
0
LINE
8
BLACK
6
CONTINUOUS
10
185.8638079999999775
20
-71.2475000000000023
11
185.8638079999999775
21
-85.1974999999999909
0
LINE
8
BLACK
6
CONTINUOUS
10
185.8638079999999775
20
-85.1974999999999909
11
185.8619049999999788
21
-85.207066999999995
0
LINE
8
BLACK
6
CONTINUOUS
10
185.8619049999999788
20
-85.207066999999995
11
185.8483750000000043
21
-85.2205969999999979
0
LINE
8
BLACK
6
CONTINUOUS
10
185.8483750000000043
20
-85.2205969999999979
11
185.8388080000000002
21
-85.2224999999999966
0
LINE
8
BLACK
6
CONTINUOUS
10
185.8388080000000002
20
-85.2224999999999966
11
171.8888079999999832
21
-85.2224999999999966
0
LINE
8
BLACK
6
CONTINUOUS
10
171.8888079999999832
20
-85.2224999999999966
11
171.8792409999999791
21
-85.2205969999999979
0
LINE
8
BLACK
6
CONTINUOUS
10
171.8792409999999791
20
-85.2205969999999979
11
171.8657110000000046
21
-85.207066999999995
0
LINE
8
BLACK
6
CONTINUOUS
10
171.8657110000000046
20
-85.207066999999995
11
171.8638080000000059
21
-85.1974999999999909
0
LINE
8
BLACK
6
CONTINUOUS
10
171.8638080000000059
20
-85.1974999999999909
11
171.8638080000000059
21
-71.2475000000000023
0
LINE
8
BLACK
6
CONTINUOUS
10
171.8638080000000059
20
-71.2475000000000023
11
171.8657110000000046
21
-71.2379329999999982
0
LINE
8
BLACK
6
CONTINUOUS
10
171.8657110000000046
20
-71.2379329999999982
11
171.8792409999999791
21
-71.2244029999999952
0
LINE
8
BLACK
6
CONTINUOUS
10
171.8792409999999791
20
-71.2244029999999952
11
171.8888079999999832
21
-71.2224999999999966
0
LINE
8
BLACK
6
CONTINUOUS
10
171.8888079999999832
20
-71.2224999999999966
11
185.8388080000000002
21
-71.2224999999999966
0
LINE
8
BLACK
6
CONTINUOUS
10
185.8388080000000002
20
-71.2224999999999966
11
185.8483750000000043
21
-71.2244029999999952
0
LINE
8
BLACK
6
CONTINUOUS
10
171.9138079999999889
20
-71.2724999999999937
11
171.9138079999999889
21
-85.1724999999999994
0
LINE
8
BLACK
6
CONTINUOUS
10
171.9138079999999889
20
-85.1724999999999994
11
185.8138079999999945
21
-85.1724999999999994
0
LINE
8
BLACK
6
CONTINUOUS
10
185.8138079999999945
20
-85.1724999999999994
11
185.8138079999999945
21
-71.2724999999999937
0
LINE
8
BLACK
6
CONTINUOUS
10
185.8138079999999945
20
-71.2724999999999937
11
171.9138079999999889
21
-71.2724999999999937
0
LINE
8
BLACK
6
CONTINUOUS
10
166.8783650000000023
20
-66.6494029999999924
11
166.8918950000000052
21
-66.6629329999999953
0
LINE
8
BLACK
6
CONTINUOUS
10
166.8918950000000052
20
-66.6629329999999953
11
166.8937980000000039
21
-66.6724999999999994
0
LINE
8
BLACK
6
CONTINUOUS
10
166.8937980000000039
20
-66.6724999999999994
11
166.8937980000000039
21
-76.207499999999996
0
LINE
8
BLACK
6
CONTINUOUS
10
166.8937980000000039
20
-76.207499999999996
11
168.8288079999999809
21
-76.207499999999996
0
LINE
8
BLACK
6
CONTINUOUS
10
168.8288079999999809
20
-76.207499999999996
11
170.8288079999999809
21
-76.207499999999996
0
LINE
8
BLACK
6
CONTINUOUS
10
170.8288079999999809
20
-76.207499999999996
11
170.838374999999985
21
-76.2094029999999947
0
LINE
8
BLACK
6
CONTINUOUS
10
170.838374999999985
20
-76.2094029999999947
11
170.8519049999999879
21
-76.2229329999999976
0
LINE
8
BLACK
6
CONTINUOUS
10
170.8519049999999879
20
-76.2229329999999976
11
170.8538079999999866
21
-76.2325000000000017
0
LINE
8
BLACK
6
CONTINUOUS
10
170.8538079999999866
20
-76.2325000000000017
11
170.8538079999999866
21
-80.2325000000000017
0
LINE
8
BLACK
6
CONTINUOUS
10
170.8538079999999866
20
-80.2325000000000017
11
170.8519049999999879
21
-80.2420669999999916
0
LINE
8
BLACK
6
CONTINUOUS
10
170.8519049999999879
20
-80.2420669999999916
11
170.838374999999985
21
-80.2555969999999945
0
LINE
8
BLACK
6
CONTINUOUS
10
170.838374999999985
20
-80.2555969999999945
11
170.8288079999999809
21
-80.2574999999999932
0
LINE
8
BLACK
6
CONTINUOUS
10
170.8288079999999809
20
-80.2574999999999932
11
168.8288079999999809
21
-80.2574999999999932
0
LINE
8
BLACK
6
CONTINUOUS
10
168.8288079999999809
20
-80.2574999999999932
11
166.8934799999999825
21
-80.2574999999999932
0
LINE
8
BLACK
6
CONTINUOUS
10
166.8934799999999825
20
-80.2574999999999932
11
166.8888059999999882
21
-80.6228199999999902
0
LINE
8
BLACK
6
CONTINUOUS
10
166.8888059999999882
20
-80.6228199999999902
11
166.8869049999999845
21
-80.6317769999999996
0
LINE
8
BLACK
6
CONTINUOUS
10
166.8869049999999845
20
-80.6317769999999996
11
166.8869049999999845
21
-80.6320669999999922
0
LINE
8
BLACK
6
CONTINUOUS
10
166.8869049999999845
20
-80.6320669999999922
11
166.8868269999999825
21
-80.6321439999999967
0
LINE
8
BLACK
6
CONTINUOUS
10
166.8868269999999825
20
-80.6321439999999967
11
166.8867809999999849
21
-80.6323620000000005
0
LINE
8
BLACK
6
CONTINUOUS
10
166.8867809999999849
20
-80.6323620000000005
11
166.8800090000000012
21
-80.6389619999999923
0
LINE
8
BLACK
6
CONTINUOUS
10
166.8800090000000012
20
-80.6389619999999923
11
166.8733749999999816
21
-80.6455969999999951
0
LINE
8
BLACK
6
CONTINUOUS
10
166.8733749999999816
20
-80.6455969999999951
11
166.8731589999999869
21
-80.6456390000000027
0
LINE
8
BLACK
6
CONTINUOUS
10
166.8731589999999869
20
-80.6456390000000027
11
166.8730789999999899
21
-80.6457180000000022
0
LINE
8
BLACK
6
CONTINUOUS
10
166.8730789999999899
20
-80.6457180000000022
11
166.8727849999999933
21
-80.6457139999999981
0
LINE
8
BLACK
6
CONTINUOUS
10
166.8727849999999933
20
-80.6457139999999981
11
166.8638080000000059
21
-80.6474999999999937
0
LINE
8
BLACK
6
CONTINUOUS
10
166.8638080000000059
20
-80.6474999999999937
11
152.9138079999999889
21
-80.6474999999999937
0
LINE
8
BLACK
6
CONTINUOUS
10
152.9138079999999889
20
-80.6474999999999937
11
152.9042409999999848
21
-80.6455969999999951
0
LINE
8
BLACK
6
CONTINUOUS
10
152.9042409999999848
20
-80.6455969999999951
11
152.8907109999999818
21
-80.6320669999999922
0
LINE
8
BLACK
6
CONTINUOUS
10
152.8907109999999818
20
-80.6320669999999922
11
152.8888079999999832
21
-80.6225000000000023
0
LINE
8
BLACK
6
CONTINUOUS
10
152.8888079999999832
20
-80.6225000000000023
11
152.8888079999999832
21
-66.6724999999999994
0
LINE
8
BLACK
6
CONTINUOUS
10
152.8888079999999832
20
-66.6724999999999994
11
152.8907109999999818
21
-66.6629329999999953
0
LINE
8
BLACK
6
CONTINUOUS
10
152.8907109999999818
20
-66.6629329999999953
11
152.9042409999999848
21
-66.6494029999999924
0
LINE
8
BLACK
6
CONTINUOUS
10
152.9042409999999848
20
-66.6494029999999924
11
152.9138079999999889
21
-66.6474999999999937
0
LINE
8
BLACK
6
CONTINUOUS
10
152.9138079999999889
20
-66.6474999999999937
11
166.8687979999999982
21
-66.6474999999999937
0
LINE
8
BLACK
6
CONTINUOUS
10
166.8687979999999982
20
-66.6474999999999937
11
166.8783650000000023
21
-66.6494029999999924
0
LINE
8
BLACK
6
CONTINUOUS
10
152.9388079999999945
20
-66.6974999999999909
11
152.9388079999999945
21
-80.5974999999999966
0
LINE
8
BLACK
6
CONTINUOUS
10
152.9388079999999945
20
-80.5974999999999966
11
166.8391259999999932
21
-80.5974999999999966
0
LINE
8
BLACK
6
CONTINUOUS
10
166.8391259999999932
20
-80.5974999999999966
11
166.8437999999999874
21
-80.2321799999999996
0
LINE
8
BLACK
6
CONTINUOUS
10
166.8437999999999874
20
-80.2321799999999996
11
166.8457009999999912
21
-80.2232219999999927
0
LINE
8
BLACK
6
CONTINUOUS
10
166.8457009999999912
20
-80.2232219999999927
11
166.8457009999999912
21
-80.2229329999999976
0
LINE
8
BLACK
6
CONTINUOUS
10
166.8457009999999912
20
-80.2229329999999976
11
166.8457779999999957
21
-80.2228549999999956
0
LINE
8
BLACK
6
CONTINUOUS
10
166.8457779999999957
20
-80.2228549999999956
11
166.8458249999999907
21
-80.2226380000000034
0
LINE
8
BLACK
6
CONTINUOUS
10
166.8458249999999907
20
-80.2226380000000034
11
166.8525960000000055
21
-80.216037
0
LINE
8
BLACK
6
CONTINUOUS
10
166.8525960000000055
20
-80.216037
11
166.8592309999999941
21
-80.2094029999999947
0
LINE
8
BLACK
6
CONTINUOUS
10
166.8592309999999941
20
-80.2094029999999947
11
166.8594459999999913
21
-80.2093599999999896
0
LINE
8
BLACK
6
CONTINUOUS
10
166.8594459999999913
20
-80.2093599999999896
11
166.8595269999999857
21
-80.2092820000000017
0
LINE
8
BLACK
6
CONTINUOUS
10
166.8595269999999857
20
-80.2092820000000017
11
166.8598199999999849
21
-80.2092849999999942
0
LINE
8
BLACK
6
CONTINUOUS
10
166.8598199999999849
20
-80.2092849999999942
11
166.8687979999999982
21
-80.207499999999996
0
LINE
8
BLACK
6
CONTINUOUS
10
166.8687979999999982
20
-80.207499999999996
11
168.8288079999999809
21
-80.207499999999996
0
LINE
8
BLACK
6
CONTINUOUS
10
168.8288079999999809
20
-80.207499999999996
11
170.8038080000000036
21
-80.207499999999996
0
LINE
8
BLACK
6
CONTINUOUS
10
170.8038080000000036
20
-80.207499999999996
11
170.8038080000000036
21
-76.2574999999999932
0
LINE
8
BLACK
6
CONTINUOUS
10
170.8038080000000036
20
-76.2574999999999932
11
168.8288079999999809
21
-76.2574999999999932
0
LINE
8
BLACK
6
CONTINUOUS
10
168.8288079999999809
20
-76.2574999999999932
11
166.8687979999999982
21
-76.2574999999999932
0
LINE
8
BLACK
6
CONTINUOUS
10
166.8687979999999982
20
-76.2574999999999932
11
166.8592309999999941
21
-76.2555969999999945
0
LINE
8
BLACK
6
CONTINUOUS
10
166.8592309999999941
20
-76.2555969999999945
11
166.8457009999999912
21
-76.2420669999999916
0
LINE
8
BLACK
6
CONTINUOUS
10
166.8457009999999912
20
-76.2420669999999916
11
166.8437979999999925
21
-76.2325000000000017
0
LINE
8
BLACK
6
CONTINUOUS
10
166.8437979999999925
20
-76.2325000000000017
11
166.8437979999999925
21
-66.6974999999999909
0
LINE
8
BLACK
6
CONTINUOUS
10
166.8437979999999925
20
-66.6974999999999909
11
152.9388079999999945
21
-66.6974999999999909
0
LINE
8
BLACK
6
CONTINUOUS
10
128.8483750000000043
20
-65.7494030000000009
11
128.8619050000000072
21
-65.7629330000000039
0
LINE
8
BLACK
6
CONTINUOUS
10
128.8619050000000072
20
-65.7629330000000039
11
128.8638080000000059
21
-65.7724999999999937
0
LINE
8
BLACK
6
CONTINUOUS
10
128.8638080000000059
20
-65.7724999999999937
11
128.8638080000000059
21
-79.7224999999999966
0
LINE
8
BLACK
6
CONTINUOUS
10
128.8638080000000059
20
-79.7224999999999966
11
128.8619050000000072
21
-79.7320670000000007
0
LINE
8
BLACK
6
CONTINUOUS
10
128.8619050000000072
20
-79.7320670000000007
11
128.8483750000000043
21
-79.7455969999999894
0
LINE
8
BLACK
6
CONTINUOUS
10
128.8483750000000043
20
-79.7455969999999894
11
128.8388080000000002
21
-79.7475000000000023
0
LINE
8
BLACK
6
CONTINUOUS
10
128.8388080000000002
20
-79.7475000000000023
11
114.8888079999999974
21
-79.7475000000000023
0
LINE
8
BLACK
6
CONTINUOUS
10
114.8888079999999974
20
-79.7475000000000023
11
114.8792409999999933
21
-79.7455969999999894
0
LINE
8
BLACK
6
CONTINUOUS
10
114.8792409999999933
20
-79.7455969999999894
11
114.8657109999999903
21
-79.7320670000000007
0
LINE
8
BLACK
6
CONTINUOUS
10
114.8657109999999903
20
-79.7320670000000007
11
114.8638079999999917
21
-79.7224999999999966
0
LINE
8
BLACK
6
CONTINUOUS
10
114.8638079999999917
20
-79.7224999999999966
11
114.8638079999999917
21
-65.7724999999999937
0
LINE
8
BLACK
6
CONTINUOUS
10
114.8638079999999917
20
-65.7724999999999937
11
114.8657109999999903
21
-65.7629330000000039
0
LINE
8
BLACK
6
CONTINUOUS
10
114.8657109999999903
20
-65.7629330000000039
11
114.8792409999999933
21
-65.7494030000000009
0
LINE
8
BLACK
6
CONTINUOUS
10
114.8792409999999933
20
-65.7494030000000009
11
114.8888079999999974
21
-65.7475000000000023
0
LINE
8
BLACK
6
CONTINUOUS
10
114.8888079999999974
20
-65.7475000000000023
11
128.8388080000000002
21
-65.7475000000000023
0
LINE
8
BLACK
6
CONTINUOUS
10
128.8388080000000002
20
-65.7475000000000023
11
128.8483750000000043
21
-65.7494030000000009
0
LINE
8
BLACK
6
CONTINUOUS
10
114.9138079999999889
20
-65.7974999999999994
11
114.9138079999999889
21
-79.6974999999999909
0
LINE
8
BLACK
6
CONTINUOUS
10
114.9138079999999889
20
-79.6974999999999909
11
128.8138079999999945
21
-79.6974999999999909
0
LINE
8
BLACK
6
CONTINUOUS
10
128.8138079999999945
20
-79.6974999999999909
11
128.8138079999999945
21
-65.7974999999999994
0
LINE
8
BLACK
6
CONTINUOUS
10
128.8138079999999945
20
-65.7974999999999994
11
114.9138079999999889
21
-65.7974999999999994
0
LINE
8
BLACK
6
CONTINUOUS
10
204.8483750000000043
20
-54.7494030000000009
11
204.8619049999999788
21
-54.7629329999999968
0
LINE
8
BLACK
6
CONTINUOUS
10
204.8619049999999788
20
-54.7629329999999968
11
204.8638079999999775
21
-54.7725000000000009
0
LINE
8
BLACK
6
CONTINUOUS
10
204.8638079999999775
20
-54.7725000000000009
11
204.8638079999999775
21
-68.7224999999999966
0
LINE
8
BLACK
6
CONTINUOUS
10
204.8638079999999775
20
-68.7224999999999966
11
204.8619049999999788
21
-68.7320670000000007
0
LINE
8
BLACK
6
CONTINUOUS
10
204.8619049999999788
20
-68.7320670000000007
11
204.8483750000000043
21
-68.7455970000000036
0
LINE
8
BLACK
6
CONTINUOUS
10
204.8483750000000043
20
-68.7455970000000036
11
204.8388080000000002
21
-68.7475000000000023
0
LINE
8
BLACK
6
CONTINUOUS
10
204.8388080000000002
20
-68.7475000000000023
11
190.8888079999999832
21
-68.7475000000000023
0
LINE
8
BLACK
6
CONTINUOUS
10
190.8888079999999832
20
-68.7475000000000023
11
190.8792409999999791
21
-68.7455970000000036
0
LINE
8
BLACK
6
CONTINUOUS
10
190.8792409999999791
20
-68.7455970000000036
11
190.8657110000000046
21
-68.7320670000000007
0
LINE
8
BLACK
6
CONTINUOUS
10
190.8657110000000046
20
-68.7320670000000007
11
190.8638079999999775
21
-68.7224999999999966
0
LINE
8
BLACK
6
CONTINUOUS
10
190.8638079999999775
20
-68.7224999999999966
11
190.8638079999999775
21
-54.7725000000000009
0
LINE
8
BLACK
6
CONTINUOUS
10
190.8638079999999775
20
-54.7725000000000009
11
190.8657110000000046
21
-54.7629329999999968
0
LINE
8
BLACK
6
CONTINUOUS
10
190.8657110000000046
20
-54.7629329999999968
11
190.8792409999999791
21
-54.7494030000000009
0
LINE
8
BLACK
6
CONTINUOUS
10
190.8792409999999791
20
-54.7494030000000009
11
190.8888079999999832
21
-54.7474999999999952
0
LINE
8
BLACK
6
CONTINUOUS
10
190.8888079999999832
20
-54.7474999999999952
11
204.8388080000000002
21
-54.7474999999999952
0
LINE
8
BLACK
6
CONTINUOUS
10
204.8388080000000002
20
-54.7474999999999952
11
204.8483750000000043
21
-54.7494030000000009
0
LINE
8
BLACK
6
CONTINUOUS
10
190.9138079999999889
20
-54.7974999999999994
11
190.9138079999999889
21
-68.6974999999999909
0
LINE
8
BLACK
6
CONTINUOUS
10
190.9138079999999889
20
-68.6974999999999909
11
204.8138079999999945
21
-68.6974999999999909
0
LINE
8
BLACK
6
CONTINUOUS
10
204.8138079999999945
20
-68.6974999999999909
11
204.8138079999999945
21
-54.7974999999999994
0
LINE
8
BLACK
6
CONTINUOUS
10
204.8138079999999945
20
-54.7974999999999994
11
190.9138079999999889
21
-54.7974999999999994
0
LINE
8
BLACK
6
CONTINUOUS
10
147.8483650000000011
20
-53.7744029999999995
11
147.8618950000000041
21
-53.7879329999999953
0
LINE
8
BLACK
6
CONTINUOUS
10
147.8618950000000041
20
-53.7879329999999953
11
147.8637980000000027
21
-53.7974999999999994
0
LINE
8
BLACK
6
CONTINUOUS
10
147.8637980000000027
20
-53.7974999999999994
11
147.8637980000000027
21
-57.1574999999999989
0
LINE
8
BLACK
6
CONTINUOUS
10
147.8637980000000027
20
-57.1574999999999989
11
149.7788079999999979
21
-57.1574999999999989
0
LINE
8
BLACK
6
CONTINUOUS
10
149.7788079999999979
20
-57.1574999999999989
11
151.7788079999999979
21
-57.1574999999999989
0
LINE
8
BLACK
6
CONTINUOUS
10
151.7788079999999979
20
-57.1574999999999989
11
151.788375000000002
21
-57.1594029999999975
0
LINE
8
BLACK
6
CONTINUOUS
10
151.788375000000002
20
-57.1594029999999975
11
151.801905000000005
21
-57.1729330000000004
0
LINE
8
BLACK
6
CONTINUOUS
10
151.801905000000005
20
-57.1729330000000004
11
151.8038080000000036
21
-57.1824999999999974
0
LINE
8
BLACK
6
CONTINUOUS
10
151.8038080000000036
20
-57.1824999999999974
11
151.8038080000000036
21
-61.1824999999999974
0
LINE
8
BLACK
6
CONTINUOUS
10
151.8038080000000036
20
-61.1824999999999974
11
151.801905000000005
21
-61.1920669999999944
0
LINE
8
BLACK
6
CONTINUOUS
10
151.801905000000005
20
-61.1920669999999944
11
151.788375000000002
21
-61.2055969999999974
0
LINE
8
BLACK
6
CONTINUOUS
10
151.788375000000002
20
-61.2055969999999974
11
151.7788079999999979
21
-61.207499999999996
0
LINE
8
BLACK
6
CONTINUOUS
10
151.7788079999999979
20
-61.207499999999996
11
149.7788079999999979
21
-61.207499999999996
0
LINE
8
BLACK
6
CONTINUOUS
10
149.7788079999999979
20
-61.207499999999996
11
147.8637980000000027
21
-61.207499999999996
0
LINE
8
BLACK
6
CONTINUOUS
10
147.8637980000000027
20
-61.207499999999996
11
147.8638080000000059
21
-67.7475000000000023
0
LINE
8
BLACK
6
CONTINUOUS
10
147.8638080000000059
20
-67.7475000000000023
11
147.8619050000000072
21
-67.7570669999999922
0
LINE
8
BLACK
6
CONTINUOUS
10
147.8619050000000072
20
-67.7570669999999922
11
147.8483750000000043
21
-67.7705969999999951
0
LINE
8
BLACK
6
CONTINUOUS
10
147.8483750000000043
20
-67.7705969999999951
11
147.8388080000000002
21
-67.7724999999999937
0
LINE
8
BLACK
6
CONTINUOUS
10
147.8388080000000002
20
-67.7724999999999937
11
133.8888079999999832
21
-67.7724999999999937
0
LINE
8
BLACK
6
CONTINUOUS
10
133.8888079999999832
20
-67.7724999999999937
11
133.8792410000000075
21
-67.7705969999999951
0
LINE
8
BLACK
6
CONTINUOUS
10
133.8792410000000075
20
-67.7705969999999951
11
133.8657110000000046
21
-67.7570669999999922
0
LINE
8
BLACK
6
CONTINUOUS
10
133.8657110000000046
20
-67.7570669999999922
11
133.8638080000000059
21
-67.7475000000000023
0
LINE
8
BLACK
6
CONTINUOUS
10
133.8638080000000059
20
-67.7475000000000023
11
133.8638080000000059
21
-53.7974999999999994
0
LINE
8
BLACK
6
CONTINUOUS
10
133.8638080000000059
20
-53.7974999999999994
11
133.8657110000000046
21
-53.7879329999999953
0
LINE
8
BLACK
6
CONTINUOUS
10
133.8657110000000046
20
-53.7879329999999953
11
133.8792410000000075
21
-53.7744029999999995
0
LINE
8
BLACK
6
CONTINUOUS
10
133.8792410000000075
20
-53.7744029999999995
11
133.8888079999999832
21
-53.7725000000000009
0
LINE
8
BLACK
6
CONTINUOUS
10
133.8888079999999832
20
-53.7725000000000009
11
147.838797999999997
21
-53.7725000000000009
0
LINE
8
BLACK
6
CONTINUOUS
10
147.838797999999997
20
-53.7725000000000009
11
147.8483650000000011
21
-53.7744029999999995
0
LINE
8
BLACK
6
CONTINUOUS
10
133.9138079999999889
20
-53.822499999999998
11
133.9138079999999889
21
-67.7224999999999966
0
LINE
8
BLACK
6
CONTINUOUS
10
133.9138079999999889
20
-67.7224999999999966
11
147.8138079999999945
21
-67.7224999999999966
0
LINE
8
BLACK
6
CONTINUOUS
10
147.8138079999999945
20
-67.7224999999999966
11
147.8137979999999914
21
-61.1824999999999974
0
LINE
8
BLACK
6
CONTINUOUS
10
147.8137979999999914
20
-61.1824999999999974
11
147.81570099999999
21
-61.1729330000000004
0
LINE
8
BLACK
6
CONTINUOUS
10
147.81570099999999
20
-61.1729330000000004
11
147.8292309999999929
21
-61.1594029999999975
0
LINE
8
BLACK
6
CONTINUOUS
10
147.8292309999999929
20
-61.1594029999999975
11
147.838797999999997
21
-61.1574999999999989
0
LINE
8
BLACK
6
CONTINUOUS
10
147.838797999999997
20
-61.1574999999999989
11
149.7788079999999979
21
-61.1574999999999989
0
LINE
8
BLACK
6
CONTINUOUS
10
149.7788079999999979
20
-61.1574999999999989
11
151.7538079999999923
21
-61.1574999999999989
0
LINE
8
BLACK
6
CONTINUOUS
10
151.7538079999999923
20
-61.1574999999999989
11
151.7538079999999923
21
-57.207499999999996
0
LINE
8
BLACK
6
CONTINUOUS
10
151.7538079999999923
20
-57.207499999999996
11
149.7788079999999979
21
-57.207499999999996
0
LINE
8
BLACK
6
CONTINUOUS
10
149.7788079999999979
20
-57.207499999999996
11
147.838797999999997
21
-57.207499999999996
0
LINE
8
BLACK
6
CONTINUOUS
10
147.838797999999997
20
-57.207499999999996
11
147.8292309999999929
21
-57.2055969999999974
0
LINE
8
BLACK
6
CONTINUOUS
10
147.8292309999999929
20
-57.2055969999999974
11
147.81570099999999
21
-57.1920669999999944
0
LINE
8
BLACK
6
CONTINUOUS
10
147.81570099999999
20
-57.1920669999999944
11
147.8137979999999914
21
-57.1824999999999974
0
LINE
8
BLACK
6
CONTINUOUS
10
147.8137979999999914
20
-57.1824999999999974
11
147.8137979999999914
21
-53.822499999999998
0
LINE
8
BLACK
6
CONTINUOUS
10
147.8137979999999914
20
-53.822499999999998
11
133.9138079999999889
21
-53.822499999999998
0
LINE
8
BLACK
6
CONTINUOUS
10
185.8483750000000043
20
-52.2244029999999952
11
185.8619049999999788
21
-52.2379329999999982
0
LINE
8
BLACK
6
CONTINUOUS
10
185.8619049999999788
20
-52.2379329999999982
11
185.8638079999999775
21
-52.2474999999999952
0
LINE
8
BLACK
6
CONTINUOUS
10
185.8638079999999775
20
-52.2474999999999952
11
185.8638079999999775
21
-57.1574999999999989
0
LINE
8
BLACK
6
CONTINUOUS
10
185.8638079999999775
20
-57.1574999999999989
11
187.8788079999999923
21
-57.1574999999999989
0
LINE
8
BLACK
6
CONTINUOUS
10
187.8788079999999923
20
-57.1574999999999989
11
189.8787979999999891
21
-57.1574999999999989
0
LINE
8
BLACK
6
CONTINUOUS
10
189.8787979999999891
20
-57.1574999999999989
11
189.8883649999999932
21
-57.1594029999999975
0
LINE
8
BLACK
6
CONTINUOUS
10
189.8883649999999932
20
-57.1594029999999975
11
189.9018949999999961
21
-57.1729330000000004
0
LINE
8
BLACK
6
CONTINUOUS
10
189.9018949999999961
20
-57.1729330000000004
11
189.9018949999999961
21
-57.1732629999999986
0
LINE
8
BLACK
6
CONTINUOUS
10
189.9018949999999961
20
-57.1732629999999986
11
189.9019049999999993
21
-57.1732729999999947
0
LINE
8
BLACK
6
CONTINUOUS
10
189.9019049999999993
20
-57.1732729999999947
11
189.9038079999999979
21
-57.1828399999999988
0
LINE
8
BLACK
6
CONTINUOUS
10
189.9038079999999979
20
-57.1828399999999988
11
189.9038079999999979
21
-61.1821589999999986
0
LINE
8
BLACK
6
CONTINUOUS
10
189.9038079999999979
20
-61.1821589999999986
11
189.9019049999999993
21
-61.1917259999999956
0
LINE
8
BLACK
6
CONTINUOUS
10
189.9019049999999993
20
-61.1917259999999956
11
189.9018949999999961
21
-61.1917359999999988
0
LINE
8
BLACK
6
CONTINUOUS
10
189.9018949999999961
20
-61.1917359999999988
11
189.9018949999999961
21
-61.1920669999999944
0
LINE
8
BLACK
6
CONTINUOUS
10
189.9018949999999961
20
-61.1920669999999944
11
189.8883649999999932
21
-61.2055969999999974
0
LINE
8
BLACK
6
CONTINUOUS
10
189.8883649999999932
20
-61.2055969999999974
11
189.8787979999999891
21
-61.207499999999996
0
LINE
8
BLACK
6
CONTINUOUS
10
189.8787979999999891
20
-61.207499999999996
11
187.8788079999999923
21
-61.207499999999996
0
LINE
8
BLACK
6
CONTINUOUS
10
187.8788079999999923
20
-61.207499999999996
11
185.8637980000000027
21
-61.207499999999996
0
LINE
8
BLACK
6
CONTINUOUS
10
185.8637980000000027
20
-61.207499999999996
11
185.8637980000000027
21
-66.1974999999999909
0
LINE
8
BLACK
6
CONTINUOUS
10
185.8637980000000027
20
-66.1974999999999909
11
185.8618950000000041
21
-66.207066999999995
0
LINE
8
BLACK
6
CONTINUOUS
10
185.8618950000000041
20
-66.207066999999995
11
185.8483650000000011
21
-66.2205969999999979
0
LINE
8
BLACK
6
CONTINUOUS
10
185.8483650000000011
20
-66.2205969999999979
11
185.838797999999997
21
-66.2224999999999966
0
LINE
8
BLACK
6
CONTINUOUS
10
185.838797999999997
20
-66.2224999999999966
11
171.8888079999999832
21
-66.2224999999999966
0
LINE
8
BLACK
6
CONTINUOUS
10
171.8888079999999832
20
-66.2224999999999966
11
171.8792409999999791
21
-66.2205969999999979
0
LINE
8
BLACK
6
CONTINUOUS
10
171.8792409999999791
20
-66.2205969999999979
11
171.8657110000000046
21
-66.207066999999995
0
LINE
8
BLACK
6
CONTINUOUS
10
171.8657110000000046
20
-66.207066999999995
11
171.8638080000000059
21
-66.1974999999999909
0
LINE
8
BLACK
6
CONTINUOUS
10
171.8638080000000059
20
-66.1974999999999909
11
171.8638080000000059
21
-52.2474999999999952
0
LINE
8
BLACK
6
CONTINUOUS
10
171.8638080000000059
20
-52.2474999999999952
11
171.8657110000000046
21
-52.2379329999999982
0
LINE
8
BLACK
6
CONTINUOUS
10
171.8657110000000046
20
-52.2379329999999982
11
171.8792409999999791
21
-52.2244029999999952
0
LINE
8
BLACK
6
CONTINUOUS
10
171.8792409999999791
20
-52.2244029999999952
11
171.8888079999999832
21
-52.2224999999999966
0
LINE
8
BLACK
6
CONTINUOUS
10
171.8888079999999832
20
-52.2224999999999966
11
185.8388080000000002
21
-52.2224999999999966
0
LINE
8
BLACK
6
CONTINUOUS
10
185.8388080000000002
20
-52.2224999999999966
11
185.8483750000000043
21
-52.2244029999999952
0
LINE
8
BLACK
6
CONTINUOUS
10
171.9138079999999889
20
-52.2725000000000009
11
171.9138079999999889
21
-66.1724999999999994
0
LINE
8
BLACK
6
CONTINUOUS
10
171.9138079999999889
20
-66.1724999999999994
11
185.8137979999999914
21
-66.1724999999999994
0
LINE
8
BLACK
6
CONTINUOUS
10
185.8137979999999914
20
-66.1724999999999994
11
185.8137979999999914
21
-61.1824999999999974
0
LINE
8
BLACK
6
CONTINUOUS
10
185.8137979999999914
20
-61.1824999999999974
11
185.81570099999999
21
-61.1729330000000004
0
LINE
8
BLACK
6
CONTINUOUS
10
185.81570099999999
20
-61.1729330000000004
11
185.8292309999999929
21
-61.1594029999999975
0
LINE
8
BLACK
6
CONTINUOUS
10
185.8292309999999929
20
-61.1594029999999975
11
185.838797999999997
21
-61.1574999999999989
0
LINE
8
BLACK
6
CONTINUOUS
10
185.838797999999997
20
-61.1574999999999989
11
187.8788079999999923
21
-61.1574999999999989
0
LINE
8
BLACK
6
CONTINUOUS
10
187.8788079999999923
20
-61.1574999999999989
11
189.8538079999999866
21
-61.1574999999999989
0
LINE
8
BLACK
6
CONTINUOUS
10
189.8538079999999866
20
-61.1574999999999989
11
189.8538079999999866
21
-57.207499999999996
0
LINE
8
BLACK
6
CONTINUOUS
10
189.8538079999999866
20
-57.207499999999996
11
187.8788079999999923
21
-57.207499999999996
0
LINE
8
BLACK
6
CONTINUOUS
10
187.8788079999999923
20
-57.207499999999996
11
185.838797999999997
21
-57.207499999999996
0
LINE
8
BLACK
6
CONTINUOUS
10
185.838797999999997
20
-57.207499999999996
11
185.8292309999999929
21
-57.2055969999999974
0
LINE
8
BLACK
6
CONTINUOUS
10
185.8292309999999929
20
-57.2055969999999974
11
185.81570099999999
21
-57.1920669999999944
0
LINE
8
BLACK
6
CONTINUOUS
10
185.81570099999999
20
-57.1920669999999944
11
185.81570099999999
21
-57.1920159999999953
0
LINE
8
BLACK
6
CONTINUOUS
10
185.81570099999999
20
-57.1920159999999953
11
185.8138079999999945
21
-57.1824999999999974
0
LINE
8
BLACK
6
CONTINUOUS
10
185.8138079999999945
20
-57.1824999999999974
11
185.8138079999999945
21
-52.2725000000000009
0
LINE
8
BLACK
6
CONTINUOUS
10
185.8138079999999945
20
-52.2725000000000009
11
171.9138079999999889
21
-52.2725000000000009
0
LINE
8
BLACK
6
CONTINUOUS
10
166.8733749999999816
20
-47.6494029999999995
11
166.8869049999999845
21
-47.6629329999999953
0
LINE
8
BLACK
6
CONTINUOUS
10
166.8869049999999845
20
-47.6629329999999953
11
166.8888079999999832
21
-47.6724999999999994
0
LINE
8
BLACK
6
CONTINUOUS
10
166.8888079999999832
20
-47.6724999999999994
11
166.8888079999999832
21
-61.6224999999999952
0
LINE
8
BLACK
6
CONTINUOUS
10
166.8888079999999832
20
-61.6224999999999952
11
166.8869049999999845
21
-61.6320669999999993
0
LINE
8
BLACK
6
CONTINUOUS
10
166.8869049999999845
20
-61.6320669999999993
11
166.8733749999999816
21
-61.6455969999999951
0
LINE
8
BLACK
6
CONTINUOUS
10
166.8733749999999816
20
-61.6455969999999951
11
166.8638080000000059
21
-61.6474999999999937
0
LINE
8
BLACK
6
CONTINUOUS
10
166.8638080000000059
20
-61.6474999999999937
11
152.9138079999999889
21
-61.6474999999999937
0
LINE
8
BLACK
6
CONTINUOUS
10
152.9138079999999889
20
-61.6474999999999937
11
152.9042409999999848
21
-61.6455969999999951
0
LINE
8
BLACK
6
CONTINUOUS
10
152.9042409999999848
20
-61.6455969999999951
11
152.8907109999999818
21
-61.6320669999999993
0
LINE
8
BLACK
6
CONTINUOUS
10
152.8907109999999818
20
-61.6320669999999993
11
152.8888079999999832
21
-61.6224999999999952
0
LINE
8
BLACK
6
CONTINUOUS
10
152.8888079999999832
20
-61.6224999999999952
11
152.8888079999999832
21
-47.6724999999999994
0
LINE
8
BLACK
6
CONTINUOUS
10
152.8888079999999832
20
-47.6724999999999994
11
152.8907109999999818
21
-47.6629329999999953
0
LINE
8
BLACK
6
CONTINUOUS
10
152.8907109999999818
20
-47.6629329999999953
11
152.9042409999999848
21
-47.6494029999999995
0
LINE
8
BLACK
6
CONTINUOUS
10
152.9042409999999848
20
-47.6494029999999995
11
152.9138079999999889
21
-47.6475000000000009
0
LINE
8
BLACK
6
CONTINUOUS
10
152.9138079999999889
20
-47.6475000000000009
11
166.8638080000000059
21
-47.6475000000000009
0
LINE
8
BLACK
6
CONTINUOUS
10
166.8638080000000059
20
-47.6475000000000009
11
166.8733749999999816
21
-47.6494029999999995
0
LINE
8
BLACK
6
CONTINUOUS
10
152.9388079999999945
20
-47.697499999999998
11
152.9388079999999945
21
-61.5974999999999966
0
LINE
8
BLACK
6
CONTINUOUS
10
152.9388079999999945
20
-61.5974999999999966
11
166.8388080000000002
21
-61.5974999999999966
0
LINE
8
BLACK
6
CONTINUOUS
10
166.8388080000000002
20
-61.5974999999999966
11
166.8388080000000002
21
-47.697499999999998
0
LINE
8
BLACK
6
CONTINUOUS
10
166.8388080000000002
20
-47.697499999999998
11
152.9388079999999945
21
-47.697499999999998
0
LINE
8
BLACK
6
CONTINUOUS
10
128.8483750000000043
20
-46.7494030000000009
11
128.8619050000000072
21
-46.7629329999999968
0
LINE
8
BLACK
6
CONTINUOUS
10
128.8619050000000072
20
-46.7629329999999968
11
128.8638080000000059
21
-46.7725000000000009
0
LINE
8
BLACK
6
CONTINUOUS
10
128.8638080000000059
20
-46.7725000000000009
11
128.8638080000000059
21
-60.7224999999999966
0
LINE
8
BLACK
6
CONTINUOUS
10
128.8638080000000059
20
-60.7224999999999966
11
128.8619050000000072
21
-60.7320670000000007
0
LINE
8
BLACK
6
CONTINUOUS
10
128.8619050000000072
20
-60.7320670000000007
11
128.8483750000000043
21
-60.7455969999999965
0
LINE
8
BLACK
6
CONTINUOUS
10
128.8483750000000043
20
-60.7455969999999965
11
128.8388080000000002
21
-60.7474999999999952
0
LINE
8
BLACK
6
CONTINUOUS
10
128.8388080000000002
20
-60.7474999999999952
11
114.8888079999999974
21
-60.7474999999999952
0
LINE
8
BLACK
6
CONTINUOUS
10
114.8888079999999974
20
-60.7474999999999952
11
114.8792409999999933
21
-60.7455969999999965
0
LINE
8
BLACK
6
CONTINUOUS
10
114.8792409999999933
20
-60.7455969999999965
11
114.8657109999999903
21
-60.7320670000000007
0
LINE
8
BLACK
6
CONTINUOUS
10
114.8657109999999903
20
-60.7320670000000007
11
114.8638079999999917
21
-60.7224999999999966
0
LINE
8
BLACK
6
CONTINUOUS
10
114.8638079999999917
20
-60.7224999999999966
11
114.8638079999999917
21
-46.7725000000000009
0
LINE
8
BLACK
6
CONTINUOUS
10
114.8638079999999917
20
-46.7725000000000009
11
114.8657109999999903
21
-46.7629329999999968
0
LINE
8
BLACK
6
CONTINUOUS
10
114.8657109999999903
20
-46.7629329999999968
11
114.8792409999999933
21
-46.7494030000000009
0
LINE
8
BLACK
6
CONTINUOUS
10
114.8792409999999933
20
-46.7494030000000009
11
114.8888079999999974
21
-46.7474999999999952
0
LINE
8
BLACK
6
CONTINUOUS
10
114.8888079999999974
20
-46.7474999999999952
11
128.8388080000000002
21
-46.7474999999999952
0
LINE
8
BLACK
6
CONTINUOUS
10
128.8388080000000002
20
-46.7474999999999952
11
128.8483750000000043
21
-46.7494030000000009
0
LINE
8
BLACK
6
CONTINUOUS
10
114.9138079999999889
20
-46.7974999999999994
11
114.9138079999999889
21
-60.697499999999998
0
LINE
8
BLACK
6
CONTINUOUS
10
114.9138079999999889
20
-60.697499999999998
11
128.8138079999999945
21
-60.697499999999998
0
LINE
8
BLACK
6
CONTINUOUS
10
128.8138079999999945
20
-60.697499999999998
11
128.8138079999999945
21
-46.7974999999999994
0
LINE
8
BLACK
6
CONTINUOUS
10
128.8138079999999945
20
-46.7974999999999994
11
114.9138079999999889
21
-46.7974999999999994
0
LINE
8
BLACK
6
CONTINUOUS
10
204.8483750000000043
20
-35.7494030000000009
11
204.8619049999999788
21
-35.7629329999999968
0
LINE
8
BLACK
6
CONTINUOUS
10
204.8619049999999788
20
-35.7629329999999968
11
204.8638079999999775
21
-35.7725000000000009
0
LINE
8
BLACK
6
CONTINUOUS
10
204.8638079999999775
20
-35.7725000000000009
11
204.8638079999999775
21
-49.7224999999999966
0
LINE
8
BLACK
6
CONTINUOUS
10
204.8638079999999775
20
-49.7224999999999966
11
204.8619049999999788
21
-49.7320670000000007
0
LINE
8
BLACK
6
CONTINUOUS
10
204.8619049999999788
20
-49.7320670000000007
11
204.8483750000000043
21
-49.7455969999999965
0
LINE
8
BLACK
6
CONTINUOUS
10
204.8483750000000043
20
-49.7455969999999965
11
204.8388080000000002
21
-49.7474999999999952
0
LINE
8
BLACK
6
CONTINUOUS
10
204.8388080000000002
20
-49.7474999999999952
11
190.8888079999999832
21
-49.7474999999999952
0
LINE
8
BLACK
6
CONTINUOUS
10
190.8888079999999832
20
-49.7474999999999952
11
190.8792409999999791
21
-49.7455969999999965
0
LINE
8
BLACK
6
CONTINUOUS
10
190.8792409999999791
20
-49.7455969999999965
11
190.8657110000000046
21
-49.7320670000000007
0
LINE
8
BLACK
6
CONTINUOUS
10
190.8657110000000046
20
-49.7320670000000007
11
190.8638079999999775
21
-49.7224999999999966
0
LINE
8
BLACK
6
CONTINUOUS
10
190.8638079999999775
20
-49.7224999999999966
11
190.8638079999999775
21
-35.7725000000000009
0
LINE
8
BLACK
6
CONTINUOUS
10
190.8638079999999775
20
-35.7725000000000009
11
190.8657110000000046
21
-35.7629329999999968
0
LINE
8
BLACK
6
CONTINUOUS
10
190.8657110000000046
20
-35.7629329999999968
11
190.8792409999999791
21
-35.7494030000000009
0
LINE
8
BLACK
6
CONTINUOUS
10
190.8792409999999791
20
-35.7494030000000009
11
190.8888079999999832
21
-35.7474999999999952
0
LINE
8
BLACK
6
CONTINUOUS
10
190.8888079999999832
20
-35.7474999999999952
11
204.8388080000000002
21
-35.7474999999999952
0
LINE
8
BLACK
6
CONTINUOUS
10
204.8388080000000002
20
-35.7474999999999952
11
204.8483750000000043
21
-35.7494030000000009
0
LINE
8
BLACK
6
CONTINUOUS
10
190.9138079999999889
20
-35.7974999999999994
11
190.9138079999999889
21
-49.697499999999998
0
LINE
8
BLACK
6
CONTINUOUS
10
190.9138079999999889
20
-49.697499999999998
11
204.8138079999999945
21
-49.697499999999998
0
LINE
8
BLACK
6
CONTINUOUS
10
204.8138079999999945
20
-49.697499999999998
11
204.8138079999999945
21
-35.7974999999999994
0
LINE
8
BLACK
6
CONTINUOUS
10
204.8138079999999945
20
-35.7974999999999994
11
190.9138079999999889
21
-35.7974999999999994
0
LINE
8
BLACK
6
CONTINUOUS
10
147.8483750000000043
20
-34.7744029999999995
11
147.8619050000000072
21
-34.7879329999999953
0
LINE
8
BLACK
6
CONTINUOUS
10
147.8619050000000072
20
-34.7879329999999953
11
147.8638080000000059
21
-34.7974999999999994
0
LINE
8
BLACK
6
CONTINUOUS
10
147.8638080000000059
20
-34.7974999999999994
11
147.8638080000000059
21
-48.7474999999999952
0
LINE
8
BLACK
6
CONTINUOUS
10
147.8638080000000059
20
-48.7474999999999952
11
147.8619050000000072
21
-48.7570669999999993
0
LINE
8
BLACK
6
CONTINUOUS
10
147.8619050000000072
20
-48.7570669999999993
11
147.8483750000000043
21
-48.7705969999999951
0
LINE
8
BLACK
6
CONTINUOUS
10
147.8483750000000043
20
-48.7705969999999951
11
147.8388080000000002
21
-48.7725000000000009
0
LINE
8
BLACK
6
CONTINUOUS
10
147.8388080000000002
20
-48.7725000000000009
11
133.8888079999999832
21
-48.7725000000000009
0
LINE
8
BLACK
6
CONTINUOUS
10
133.8888079999999832
20
-48.7725000000000009
11
133.8792410000000075
21
-48.7705969999999951
0
LINE
8
BLACK
6
CONTINUOUS
10
133.8792410000000075
20
-48.7705969999999951
11
133.8657110000000046
21
-48.7570669999999993
0
LINE
8
BLACK
6
CONTINUOUS
10
133.8657110000000046
20
-48.7570669999999993
11
133.8638080000000059
21
-48.7474999999999952
0
LINE
8
BLACK
6
CONTINUOUS
10
133.8638080000000059
20
-48.7474999999999952
11
133.8638080000000059
21
-34.7974999999999994
0
LINE
8
BLACK
6
CONTINUOUS
10
133.8638080000000059
20
-34.7974999999999994
11
133.8657110000000046
21
-34.7879329999999953
0
LINE
8
BLACK
6
CONTINUOUS
10
133.8657110000000046
20
-34.7879329999999953
11
133.8792410000000075
21
-34.7744029999999995
0
LINE
8
BLACK
6
CONTINUOUS
10
133.8792410000000075
20
-34.7744029999999995
11
133.8888079999999832
21
-34.7725000000000009
0
LINE
8
BLACK
6
CONTINUOUS
10
133.8888079999999832
20
-34.7725000000000009
11
147.8388080000000002
21
-34.7725000000000009
0
LINE
8
BLACK
6
CONTINUOUS
10
147.8388080000000002
20
-34.7725000000000009
11
147.8483750000000043
21
-34.7744029999999995
0
LINE
8
BLACK
6
CONTINUOUS
10
133.9138079999999889
20
-34.822499999999998
11
133.9138079999999889
21
-48.7224999999999966
0
LINE
8
BLACK
6
CONTINUOUS
10
133.9138079999999889
20
-48.7224999999999966
11
147.8138079999999945
21
-48.7224999999999966
0
LINE
8
BLACK
6
CONTINUOUS
10
147.8138079999999945
20
-48.7224999999999966
11
147.8138079999999945
21
-34.822499999999998
0
LINE
8
BLACK
6
CONTINUOUS
10
147.8138079999999945
20
-34.822499999999998
11
133.9138079999999889
21
-34.822499999999998
0
LINE
8
BLACK
6
CONTINUOUS
10
185.8483750000000043
20
-33.2244029999999952
11
185.8619049999999788
21
-33.2379329999999982
0
LINE
8
BLACK
6
CONTINUOUS
10
185.8619049999999788
20
-33.2379329999999982
11
185.8638079999999775
21
-33.2474999999999952
0
LINE
8
BLACK
6
CONTINUOUS
10
185.8638079999999775
20
-33.2474999999999952
11
185.8638079999999775
21
-47.197499999999998
0
LINE
8
BLACK
6
CONTINUOUS
10
185.8638079999999775
20
-47.197499999999998
11
185.8619049999999788
21
-47.207066999999995
0
LINE
8
BLACK
6
CONTINUOUS
10
185.8619049999999788
20
-47.207066999999995
11
185.8483750000000043
21
-47.2205969999999979
0
LINE
8
BLACK
6
CONTINUOUS
10
185.8483750000000043
20
-47.2205969999999979
11
185.8388080000000002
21
-47.2224999999999966
0
LINE
8
BLACK
6
CONTINUOUS
10
185.8388080000000002
20
-47.2224999999999966
11
171.8888079999999832
21
-47.2224999999999966
0
LINE
8
BLACK
6
CONTINUOUS
10
171.8888079999999832
20
-47.2224999999999966
11
171.8792409999999791
21
-47.2205969999999979
0
LINE
8
BLACK
6
CONTINUOUS
10
171.8792409999999791
20
-47.2205969999999979
11
171.8657110000000046
21
-47.207066999999995
0
LINE
8
BLACK
6
CONTINUOUS
10
171.8657110000000046
20
-47.207066999999995
11
171.8638080000000059
21
-47.197499999999998
0
LINE
8
BLACK
6
CONTINUOUS
10
171.8638080000000059
20
-47.197499999999998
11
171.8638080000000059
21
-33.2474999999999952
0
LINE
8
BLACK
6
CONTINUOUS
10
171.8638080000000059
20
-33.2474999999999952
11
171.8657110000000046
21
-33.2379329999999982
0
LINE
8
BLACK
6
CONTINUOUS
10
171.8657110000000046
20
-33.2379329999999982
11
171.8792409999999791
21
-33.2244029999999952
0
LINE
8
BLACK
6
CONTINUOUS
10
171.8792409999999791
20
-33.2244029999999952
11
171.8888079999999832
21
-33.2224999999999966
0
LINE
8
BLACK
6
CONTINUOUS
10
171.8888079999999832
20
-33.2224999999999966
11
185.8388080000000002
21
-33.2224999999999966
0
LINE
8
BLACK
6
CONTINUOUS
10
185.8388080000000002
20
-33.2224999999999966
11
185.8483750000000043
21
-33.2244029999999952
0
LINE
8
BLACK
6
CONTINUOUS
10
171.9138079999999889
20
-33.2725000000000009
11
171.9138079999999889
21
-47.1724999999999994
0
LINE
8
BLACK
6
CONTINUOUS
10
171.9138079999999889
20
-47.1724999999999994
11
185.8138079999999945
21
-47.1724999999999994
0
LINE
8
BLACK
6
CONTINUOUS
10
185.8138079999999945
20
-47.1724999999999994
11
185.8138079999999945
21
-33.2725000000000009
0
LINE
8
BLACK
6
CONTINUOUS
10
185.8138079999999945
20
-33.2725000000000009
11
171.9138079999999889
21
-33.2725000000000009
0
LINE
8
BLACK
6
CONTINUOUS
10
166.8783650000000023
20
-28.6494029999999995
11
166.8918950000000052
21
-28.6629329999999989
0
LINE
8
BLACK
6
CONTINUOUS
10
166.8918950000000052
20
-28.6629329999999989
11
166.8937980000000039
21
-28.6724999999999994
0
LINE
8
BLACK
6
CONTINUOUS
10
166.8937980000000039
20
-28.6724999999999994
11
166.8937980000000039
21
-38.1075000000000017
0
LINE
8
BLACK
6
CONTINUOUS
10
166.8937980000000039
20
-38.1075000000000017
11
168.8288079999999809
21
-38.1075000000000017
0
LINE
8
BLACK
6
CONTINUOUS
10
168.8288079999999809
20
-38.1075000000000017
11
170.8288079999999809
21
-38.1075000000000017
0
LINE
8
BLACK
6
CONTINUOUS
10
170.8288079999999809
20
-38.1075000000000017
11
170.838374999999985
21
-38.1094030000000004
0
LINE
8
BLACK
6
CONTINUOUS
10
170.838374999999985
20
-38.1094030000000004
11
170.8519049999999879
21
-38.1229329999999962
0
LINE
8
BLACK
6
CONTINUOUS
10
170.8519049999999879
20
-38.1229329999999962
11
170.8538079999999866
21
-38.1325000000000003
0
LINE
8
BLACK
6
CONTINUOUS
10
170.8538079999999866
20
-38.1325000000000003
11
170.8538079999999866
21
-42.1325000000000003
0
LINE
8
BLACK
6
CONTINUOUS
10
170.8538079999999866
20
-42.1325000000000003
11
170.8519049999999879
21
-42.1420669999999973
0
LINE
8
BLACK
6
CONTINUOUS
10
170.8519049999999879
20
-42.1420669999999973
11
170.838374999999985
21
-42.1555970000000002
0
LINE
8
BLACK
6
CONTINUOUS
10
170.838374999999985
20
-42.1555970000000002
11
170.8288079999999809
21
-42.1574999999999989
0
LINE
8
BLACK
6
CONTINUOUS
10
170.8288079999999809
20
-42.1574999999999989
11
168.8288079999999809
21
-42.1574999999999989
0
LINE
8
BLACK
6
CONTINUOUS
10
168.8288079999999809
20
-42.1574999999999989
11
166.8935449999999889
21
-42.1574999999999989
0
LINE
8
BLACK
6
CONTINUOUS
10
166.8935449999999889
20
-42.1574999999999989
11
166.8888069999999857
21
-42.6227549999999979
0
LINE
8
BLACK
6
CONTINUOUS
10
166.8888069999999857
20
-42.6227549999999979
11
166.8869049999999845
21
-42.6318289999999962
0
LINE
8
BLACK
6
CONTINUOUS
10
166.8869049999999845
20
-42.6318289999999962
11
166.8869049999999845
21
-42.6320669999999993
0
LINE
8
BLACK
6
CONTINUOUS
10
166.8869049999999845
20
-42.6320669999999993
11
166.8868420000000015
21
-42.6321289999999991
0
LINE
8
BLACK
6
CONTINUOUS
10
166.8868420000000015
20
-42.6321289999999991
11
166.8868059999999787
21
-42.6323019999999957
0
LINE
8
BLACK
6
CONTINUOUS
10
166.8868059999999787
20
-42.6323019999999957
11
166.8800709999999867
21
-42.6388999999999996
0
LINE
8
BLACK
6
CONTINUOUS
10
166.8800709999999867
20
-42.6388999999999996
11
166.8733749999999816
21
-42.6455969999999951
0
LINE
8
BLACK
6
CONTINUOUS
10
166.8733749999999816
20
-42.6455969999999951
11
166.8732009999999946
21
-42.6456310000000016
0
LINE
8
BLACK
6
CONTINUOUS
10
166.8732009999999946
20
-42.6456310000000016
11
166.8731389999999806
21
-42.6456930000000014
0
LINE
8
BLACK
6
CONTINUOUS
10
166.8731389999999806
20
-42.6456930000000014
11
166.8729040000000055
21
-42.6456899999999948
0
LINE
8
BLACK
6
CONTINUOUS
10
166.8729040000000055
20
-42.6456899999999948
11
166.8638080000000059
21
-42.6475000000000009
0
LINE
8
BLACK
6
CONTINUOUS
10
166.8638080000000059
20
-42.6475000000000009
11
152.9138079999999889
21
-42.6475000000000009
0
LINE
8
BLACK
6
CONTINUOUS
10
152.9138079999999889
20
-42.6475000000000009
11
152.9042409999999848
21
-42.6455969999999951
0
LINE
8
BLACK
6
CONTINUOUS
10
152.9042409999999848
20
-42.6455969999999951
11
152.8907109999999818
21
-42.6320669999999993
0
LINE
8
BLACK
6
CONTINUOUS
10
152.8907109999999818
20
-42.6320669999999993
11
152.8888079999999832
21
-42.6224999999999952
0
LINE
8
BLACK
6
CONTINUOUS
10
152.8888079999999832
20
-42.6224999999999952
11
152.8888079999999832
21
-28.6724999999999994
0
LINE
8
BLACK
6
CONTINUOUS
10
152.8888079999999832
20
-28.6724999999999994
11
152.8907109999999818
21
-28.6629329999999989
0
LINE
8
BLACK
6
CONTINUOUS
10
152.8907109999999818
20
-28.6629329999999989
11
152.9042409999999848
21
-28.6494029999999995
0
LINE
8
BLACK
6
CONTINUOUS
10
152.9042409999999848
20
-28.6494029999999995
11
152.9138079999999889
21
-28.6474999999999973
0
LINE
8
BLACK
6
CONTINUOUS
10
152.9138079999999889
20
-28.6474999999999973
11
166.8687979999999982
21
-28.6474999999999973
0
LINE
8
BLACK
6
CONTINUOUS
10
166.8687979999999982
20
-28.6474999999999973
11
166.8783650000000023
21
-28.6494029999999995
0
LINE
8
BLACK
6
CONTINUOUS
10
152.9388079999999945
20
-28.697499999999998
11
152.9388079999999945
21
-42.5974999999999966
0
LINE
8
BLACK
6
CONTINUOUS
10
152.9388079999999945
20
-42.5974999999999966
11
166.8390609999999867
21
-42.5974999999999966
0
LINE
8
BLACK
6
CONTINUOUS
10
166.8390609999999867
20
-42.5974999999999966
11
166.84379899999999
21
-42.132245999999995
0
LINE
8
BLACK
6
CONTINUOUS
10
166.84379899999999
20
-42.132245999999995
11
166.8457009999999912
21
-42.1231689999999972
0
LINE
8
BLACK
6
CONTINUOUS
10
166.8457009999999912
20
-42.1231689999999972
11
166.8457009999999912
21
-42.1229329999999962
0
LINE
8
BLACK
6
CONTINUOUS
10
166.8457009999999912
20
-42.1229329999999962
11
166.8457640000000026
21
-42.1228690000000014
0
LINE
8
BLACK
6
CONTINUOUS
10
166.8457640000000026
20
-42.1228690000000014
11
166.845799999999997
21
-42.1226989999999972
0
LINE
8
BLACK
6
CONTINUOUS
10
166.845799999999997
20
-42.1226989999999972
11
166.8525089999999977
21
-42.1161239999999992
0
LINE
8
BLACK
6
CONTINUOUS
10
166.8525089999999977
20
-42.1161239999999992
11
166.8592309999999941
21
-42.1094030000000004
0
LINE
8
BLACK
6
CONTINUOUS
10
166.8592309999999941
20
-42.1094030000000004
11
166.8594039999999836
21
-42.1093679999999964
0
LINE
8
BLACK
6
CONTINUOUS
10
166.8594039999999836
20
-42.1093679999999964
11
166.8594669999999951
21
-42.1093070000000012
0
LINE
8
BLACK
6
CONTINUOUS
10
166.8594669999999951
20
-42.1093070000000012
11
166.8597010000000012
21
-42.1093089999999961
0
LINE
8
BLACK
6
CONTINUOUS
10
166.8597010000000012
20
-42.1093089999999961
11
166.8687979999999982
21
-42.1074999999999946
0
LINE
8
BLACK
6
CONTINUOUS
10
166.8687979999999982
20
-42.1074999999999946
11
168.8288079999999809
21
-42.1074999999999946
0
LINE
8
BLACK
6
CONTINUOUS
10
168.8288079999999809
20
-42.1074999999999946
11
170.8038080000000036
21
-42.1074999999999946
0
LINE
8
BLACK
6
CONTINUOUS
10
170.8038080000000036
20
-42.1074999999999946
11
170.8038080000000036
21
-38.1574999999999989
0
LINE
8
BLACK
6
CONTINUOUS
10
170.8038080000000036
20
-38.1574999999999989
11
168.8288079999999809
21
-38.1574999999999989
0
LINE
8
BLACK
6
CONTINUOUS
10
168.8288079999999809
20
-38.1574999999999989
11
166.8687979999999982
21
-38.1574999999999989
0
LINE
8
BLACK
6
CONTINUOUS
10
166.8687979999999982
20
-38.1574999999999989
11
166.8592309999999941
21
-38.1555970000000002
0
LINE
8
BLACK
6
CONTINUOUS
10
166.8592309999999941
20
-38.1555970000000002
11
166.8457009999999912
21
-38.1420669999999973
0
LINE
8
BLACK
6
CONTINUOUS
10
166.8457009999999912
20
-38.1420669999999973
11
166.8437979999999925
21
-38.1325000000000003
0
LINE
8
BLACK
6
CONTINUOUS
10
166.8437979999999925
20
-38.1325000000000003
11
166.8437979999999925
21
-28.697499999999998
0
LINE
8
BLACK
6
CONTINUOUS
10
166.8437979999999925
20
-28.697499999999998
11
152.9388079999999945
21
-28.697499999999998
0
LINE
8
BLACK
6
CONTINUOUS
10
166.8652139999999804
20
-26.1194409999999984
11
166.869876000000005
21
-26.1194179999999996
0
LINE
8
BLACK
6
CONTINUOUS
10
166.869876000000005
20
-26.1194179999999996
11
167.3557229999999834
21
-26.1648119999999977
0
LINE
8
BLACK
6
CONTINUOUS
10
167.3557229999999834
20
-26.1648119999999977
11
167.3566959999999995
21
-26.1649999999999991
0
LINE
8
BLACK
6
CONTINUOUS
10
167.3566959999999995
20
-26.1649999999999991
11
167.3571759999999813
21
-26.1649579999999986
0
LINE
8
BLACK
6
CONTINUOUS
10
167.3571759999999813
20
-26.1649579999999986
11
167.3660469999999805
21
-26.1668109999999992
0
LINE
8
BLACK
6
CONTINUOUS
10
167.3660469999999805
20
-26.1668109999999992
11
167.3749679999999955
21
-26.1685389999999991
0
LINE
8
BLACK
6
CONTINUOUS
10
167.3749679999999955
20
-26.1685389999999991
11
167.375394
21
-26.1687639999999995
0
LINE
8
BLACK
6
CONTINUOUS
10
167.375394
20
-26.1687639999999995
11
167.3763649999999927
21
-26.1689669999999985
0
LINE
8
BLACK
6
CONTINUOUS
10
167.3763649999999927
20
-26.1689669999999985
11
167.8025519999999915
21
-26.3027249999999988
0
LINE
8
BLACK
6
CONTINUOUS
10
167.8025519999999915
20
-26.3027249999999988
11
167.804177999999979
21
-26.3034169999999996
0
LINE
8
BLACK
6
CONTINUOUS
10
167.804177999999979
20
-26.3034169999999996
11
167.804996999999986
21
-26.303526999999999
0
LINE
8
BLACK
6
CONTINUOUS
10
167.804996999999986
20
-26.303526999999999
11
167.8127289999999903
21
-26.3070539999999973
0
LINE
8
BLACK
6
CONTINUOUS
10
167.8127289999999903
20
-26.3070539999999973
11
167.8205899999999815
21
-26.3103990000000003
0
LINE
8
BLACK
6
CONTINUOUS
10
167.8205899999999815
20
-26.3103990000000003
11
167.8212259999999958
21
-26.3109310000000001
0
LINE
8
BLACK
6
CONTINUOUS
10
167.8212259999999958
20
-26.3109310000000001
11
167.8228320000000053
21
-26.3116640000000004
0
LINE
8
BLACK
6
CONTINUOUS
10
167.8228320000000053
20
-26.3116640000000004
11
168.1938360000000046
21
-26.5271519999999974
0
LINE
8
BLACK
6
CONTINUOUS
10
168.1938360000000046
20
-26.5271519999999974
11
168.1941309999999987
21
-26.5273639999999986
0
LINE
8
BLACK
6
CONTINUOUS
10
168.1941309999999987
20
-26.5273639999999986
11
168.1943039999999883
21
-26.5274249999999974
0
LINE
8
BLACK
6
CONTINUOUS
10
168.1943039999999883
20
-26.5274249999999974
11
168.2019829999999843
21
-26.533021999999999
0
LINE
8
BLACK
6
CONTINUOUS
10
168.2019829999999843
20
-26.533021999999999
11
168.2097409999999797
21
-26.5386109999999995
0
LINE
8
BLACK
6
CONTINUOUS
10
168.2097409999999797
20
-26.5386109999999995
11
168.2098519999999837
21
-26.5387570000000004
0
LINE
8
BLACK
6
CONTINUOUS
10
168.2098519999999837
20
-26.5387570000000004
11
168.2101459999999804
21
-26.5389710000000001
0
LINE
8
BLACK
6
CONTINUOUS
10
168.2101459999999804
20
-26.5389710000000001
11
168.5326029999999946
21
-26.8263629999999971
0
LINE
8
BLACK
6
CONTINUOUS
10
168.5326029999999946
20
-26.8263629999999971
11
168.5380329999999844
21
-26.832255
0
LINE
8
BLACK
6
CONTINUOUS
10
168.5380329999999844
20
-26.832255
11
168.5436829999999873
21
-26.837961
0
LINE
8
BLACK
6
CONTINUOUS
10
168.5436829999999873
20
-26.837961
11
168.8257549999999867
21
-27.1851679999999973
0
LINE
8
BLACK
6
CONTINUOUS
10
168.8257549999999867
20
-27.1851679999999973
11
168.8289089999999817
21
-27.189938999999999
0
LINE
8
BLACK
6
CONTINUOUS
10
168.8289089999999817
20
-27.189938999999999
11
168.8324429999999836
21
-27.1944359999999996
0
LINE
8
BLACK
6
CONTINUOUS
10
168.8324429999999836
20
-27.1944359999999996
11
169.0833849999999927
21
-27.5877519999999983
0
LINE
8
BLACK
6
CONTINUOUS
10
169.0833849999999927
20
-27.5877519999999983
11
169.0854029999999852
21
-27.5917279999999998
0
LINE
8
BLACK
6
CONTINUOUS
10
169.0854029999999852
20
-27.5917279999999998
11
169.0878369999999791
21
-27.5954669999999993
0
LINE
8
BLACK
6
CONTINUOUS
10
169.0878369999999791
20
-27.5954669999999993
11
169.5368259999999907
21
-28.4604369999999989
0
LINE
8
BLACK
6
CONTINUOUS
10
169.5368259999999907
20
-28.4604369999999989
11
169.9837599999999895
21
-29.3214469999999992
0
LINE
8
BLACK
6
CONTINUOUS
10
169.9837599999999895
20
-29.3214469999999992
11
170.2292239999999879
21
-29.7061770000000003
0
LINE
8
BLACK
6
CONTINUOUS
10
170.2292239999999879
20
-29.7061770000000003
11
170.5026169999999865
21
-30.0427
0
LINE
8
BLACK
6
CONTINUOUS
10
170.5026169999999865
20
-30.0427
11
170.8115099999999984
21
-30.3180039999999984
0
LINE
8
BLACK
6
CONTINUOUS
10
170.8115099999999984
20
-30.3180039999999984
11
171.1641189999999995
21
-30.5228070000000002
0
LINE
8
BLACK
6
CONTINUOUS
10
171.1641189999999995
20
-30.5228070000000002
11
171.5695670000000064
21
-30.6500559999999993
0
LINE
8
BLACK
6
CONTINUOUS
10
171.5695670000000064
20
-30.6500559999999993
11
172.0402269999999874
21
-30.694032
0
LINE
8
BLACK
6
CONTINUOUS
10
172.0402269999999874
20
-30.694032
11
185.8356430000000046
21
-30.694032
0
LINE
8
BLACK
6
CONTINUOUS
10
185.8356430000000046
20
-30.694032
11
185.838942000000003
21
-30.6943559999999991
0
LINE
8
BLACK
6
CONTINUOUS
10
185.838942000000003
20
-30.6943559999999991
11
185.8422529999999995
21
-30.6942509999999977
0
LINE
8
BLACK
6
CONTINUOUS
10
185.8422529999999995
20
-30.6942509999999977
11
186.2204359999999781
21
-30.7193039999999975
0
LINE
8
BLACK
6
CONTINUOUS
10
186.2204359999999781
20
-30.7193039999999975
11
186.2271789999999783
21
-30.7204209999999982
0
LINE
8
BLACK
6
CONTINUOUS
10
186.2271789999999783
20
-30.7204209999999982
11
186.2339869999999848
21
-30.7211379999999998
0
LINE
8
BLACK
6
CONTINUOUS
10
186.2339869999999848
20
-30.7211379999999998
11
186.592630999999983
21
-30.7949599999999997
0
LINE
8
BLACK
6
CONTINUOUS
10
186.592630999999983
20
-30.7949599999999997
11
186.601822999999996
21
-30.7978149999999999
0
LINE
8
BLACK
6
CONTINUOUS
10
186.601822999999996
20
-30.7978149999999999
11
186.6109739999999988
21
-30.800616999999999
0
LINE
8
BLACK
6
CONTINUOUS
10
186.6109739999999988
20
-30.800616999999999
11
187.2762170000000026
21
-31.078161999999999
0
LINE
8
BLACK
6
CONTINUOUS
10
187.2762170000000026
20
-31.078161999999999
11
187.2847459999999842
21
-31.0827489999999997
0
LINE
8
BLACK
6
CONTINUOUS
10
187.2847459999999842
20
-31.0827489999999997
11
187.2932050000000004
21
-31.0872619999999991
0
LINE
8
BLACK
6
CONTINUOUS
10
187.2932050000000004
20
-31.0872619999999991
11
187.2934789999999907
21
-31.0874449999999989
0
LINE
8
BLACK
6
CONTINUOUS
10
187.2934789999999907
20
-31.0874449999999989
11
187.2934829999999806
21
-31.0874469999999974
0
LINE
8
BLACK
6
CONTINUOUS
10
187.2934829999999806
20
-31.0874469999999974
11
187.2934839999999781
21
-31.0874479999999984
0
LINE
8
BLACK
6
CONTINUOUS
10
187.2934839999999781
20
-31.0874479999999984
11
187.9059010000000001
21
-31.4959629999999997
0
LINE
8
BLACK
6
CONTINUOUS
10
187.9059010000000001
20
-31.4959629999999997
11
187.9096159999999998
21
-31.4990069999999989
0
LINE
8
BLACK
6
CONTINUOUS
10
187.9096159999999998
20
-31.4990069999999989
11
187.9136220000000037
21
-31.5016669999999976
0
LINE
8
BLACK
6
CONTINUOUS
10
187.9136220000000037
20
-31.5016669999999976
11
188.4987999999999886
21
-31.9790519999999994
0
LINE
8
BLACK
6
CONTINUOUS
10
188.4987999999999886
20
-31.9790519999999994
11
188.4988050000000044
21
-31.9790569999999974
0
LINE
8
BLACK
6
CONTINUOUS
10
188.4988050000000044
20
-31.9790569999999974
11
189.0802559999999914
21
-32.453401999999997
0
LINE
8
BLACK
6
CONTINUOUS
10
189.0802559999999914
20
-32.453401999999997
11
189.6808989999999824
21
-32.8540610000000015
0
LINE
8
BLACK
6
CONTINUOUS
10
189.6808989999999824
20
-32.8540610000000015
11
190.3283079999999927
21
-33.1241659999999953
0
LINE
8
BLACK
6
CONTINUOUS
10
190.3283079999999927
20
-33.1241659999999953
11
190.6708019999999806
21
-33.194663999999996
0
LINE
8
BLACK
6
CONTINUOUS
10
190.6708019999999806
20
-33.194663999999996
11
191.0388349999999775
21
-33.2190459999999987
0
LINE
8
BLACK
6
CONTINUOUS
10
191.0388349999999775
20
-33.2190459999999987
11
204.8356049999999868
21
-33.2190459999999987
0
LINE
8
BLACK
6
CONTINUOUS
10
204.8356049999999868
20
-33.2190459999999987
11
204.8395349999999837
21
-33.2194329999999951
0
LINE
8
BLACK
6
CONTINUOUS
10
204.8395349999999837
20
-33.2194329999999951
11
204.8434799999999996
21
-33.2193569999999951
0
LINE
8
BLACK
6
CONTINUOUS
10
204.8434799999999996
20
-33.2193569999999951
11
205.5175449999999842
21
-33.2726040000000012
0
LINE
8
BLACK
6
CONTINUOUS
10
205.5175449999999842
20
-33.2726040000000012
11
205.5247299999999768
21
-33.2738889999999969
0
LINE
8
BLACK
6
CONTINUOUS
10
205.5247299999999768
20
-33.2738889999999969
11
205.5319929999999999
21
-33.2748160000000013
0
LINE
8
BLACK
6
CONTINUOUS
10
205.5319929999999999
20
-33.2748160000000013
11
206.1846659999999929
21
-33.424281999999998
0
LINE
8
BLACK
6
CONTINUOUS
10
206.1846659999999929
20
-33.424281999999998
11
206.1910849999999868
21
-33.4264319999999984
0
LINE
8
BLACK
6
CONTINUOUS
10
206.1910849999999868
20
-33.4264319999999984
11
206.1976200000000006
21
-33.4281879999999987
0
LINE
8
BLACK
6
CONTINUOUS
10
206.1976200000000006
20
-33.4281879999999987
11
207.4633329999999773
21
-33.9053709999999953
0
LINE
8
BLACK
6
CONTINUOUS
10
207.4633329999999773
20
-33.9053709999999953
11
208.7226989999999773
21
-34.3801599999999965
0
LINE
8
BLACK
6
CONTINUOUS
10
208.7226989999999773
20
-34.3801599999999965
11
209.3616269999999986
21
-34.5264790000000019
0
LINE
8
BLACK
6
CONTINUOUS
10
209.3616269999999986
20
-34.5264790000000019
11
210.0244439999999884
21
-34.578837
0
LINE
8
BLACK
6
CONTINUOUS
10
210.0244439999999884
20
-34.578837
11
232.1167480000000012
21
-34.5788340000000005
0
LINE
8
BLACK
6
CONTINUOUS
10
232.1167480000000012
20
-34.5788340000000005
11
241.9707420000000013
21
-34.5788329999999959
0
LINE
8
BLACK
6
CONTINUOUS
10
241.9707420000000013
20
-34.5788329999999959
11
241.9707429999999988
21
-34.5788329999999959
0
LINE
8
BLACK
6
CONTINUOUS
10
241.9707429999999988
20
-34.5788329999999959
11
241.970753000000002
21
-34.5788329999999959
0
LINE
8
BLACK
6
CONTINUOUS
10
241.970753000000002
20
-34.5788329999999959
11
241.9707609999999818
21
-34.5788329999999959
0
LINE
8
BLACK
6
CONTINUOUS
10
241.9707609999999818
20
-34.5788329999999959
11
242.3839820000000032
21
-34.597372
0
LINE
8
BLACK
6
CONTINUOUS
10
242.3839820000000032
20
-34.597372
11
242.7938910000000021
21
-34.6529219999999967
0
LINE
8
BLACK
6
CONTINUOUS
10
242.7938910000000021
20
-34.6529219999999967
11
243.1971599999999967
21
-34.7450339999999969
0
LINE
8
BLACK
6
CONTINUOUS
10
243.1971599999999967
20
-34.7450339999999969
11
243.5905349999999885
21
-34.8729650000000007
0
LINE
8
BLACK
6
CONTINUOUS
10
243.5905349999999885
20
-34.8729650000000007
11
243.9708419999999762
21
-35.0356829999999988
0
LINE
8
BLACK
6
CONTINUOUS
10
243.9708419999999762
20
-35.0356829999999988
11
244.3350119999999777
21
-35.2318739999999977
0
LINE
8
BLACK
6
CONTINUOUS
10
244.3350119999999777
20
-35.2318739999999977
11
244.6801049999999975
21
-35.4599550000000008
0
LINE
8
BLACK
6
CONTINUOUS
10
244.6801049999999975
20
-35.4599550000000008
11
245.0033379999999852
21
-35.718084999999995
0
LINE
8
BLACK
6
CONTINUOUS
10
245.0033379999999852
20
-35.718084999999995
11
245.3020999999999958
21
-36.0041820000000001
0
LINE
8
BLACK
6
CONTINUOUS
10
245.3020999999999958
20
-36.0041820000000001
11
245.5739820000000009
21
-36.3159369999999981
0
LINE
8
BLACK
6
CONTINUOUS
10
245.5739820000000009
20
-36.3159369999999981
11
245.816789
21
-36.6508329999999987
0
LINE
8
BLACK
6
CONTINUOUS
10
245.816789
20
-36.6508329999999987
11
246.0285609999999963
21
-37.0061679999999953
0
LINE
8
BLACK
6
CONTINUOUS
10
246.0285609999999963
20
-37.0061679999999953
11
246.2075909999999794
21
-37.3790739999999957
0
LINE
8
BLACK
6
CONTINUOUS
10
246.2075909999999794
20
-37.3790739999999957
11
246.3524309999999957
21
-37.7665420000000012
0
LINE
8
BLACK
6
CONTINUOUS
10
246.3524309999999957
20
-37.7665420000000012
11
246.4619149999999763
21
-38.1654449999999983
0
LINE
8
BLACK
6
CONTINUOUS
10
246.4619149999999763
20
-38.1654449999999983
11
246.5351579999999956
21
-38.5725639999999999
0
LINE
8
BLACK
6
CONTINUOUS
10
246.5351579999999956
20
-38.5725639999999999
11
246.5715699999999799
21
-38.9846140000000005
0
LINE
8
BLACK
6
CONTINUOUS
10
246.5715699999999799
20
-38.9846140000000005
11
246.5715730000000008
21
-38.9846140000000005
0
LINE
8
BLACK
6
CONTINUOUS
10
246.5715730000000008
20
-38.9846140000000005
11
246.5713419999999871
21
-38.9856499999999997
0
LINE
8
BLACK
6
CONTINUOUS
10
246.5713419999999871
20
-38.9856499999999997
11
246.5716659999999933
21
-38.9889349999999979
0
LINE
8
BLACK
6
CONTINUOUS
10
246.5716659999999933
20
-38.9889349999999979
11
246.5707730000000026
21
-84.4889919999999961
0
LINE
8
BLACK
6
CONTINUOUS
10
246.5707730000000026
20
-84.4889919999999961
11
246.5707730000000026
21
-84.4889929999999936
0
LINE
8
BLACK
6
CONTINUOUS
10
246.5707730000000026
20
-84.4889929999999936
11
246.5540619999999876
21
-84.6800059999999917
0
LINE
8
BLACK
6
CONTINUOUS
10
246.5540619999999876
20
-84.6800059999999917
11
246.5044359999999983
21
-84.8652139999999946
0
LINE
8
BLACK
6
CONTINUOUS
10
246.5044359999999983
20
-84.8652139999999946
11
246.4234019999999816
21
-85.0389909999999958
0
LINE
8
BLACK
6
CONTINUOUS
10
246.4234019999999816
20
-85.0389909999999958
11
246.3134220000000028
21
-85.1960559999999987
0
LINE
8
BLACK
6
CONTINUOUS
10
246.3134220000000028
20
-85.1960559999999987
11
246.1778389999999774
21
-85.3316370000000006
0
LINE
8
BLACK
6
CONTINUOUS
10
246.1778389999999774
20
-85.3316370000000006
11
246.0207709999999963
21
-85.4416129999999896
0
LINE
8
BLACK
6
CONTINUOUS
10
246.0207709999999963
20
-85.4416129999999896
11
245.8469929999999977
21
-85.5226439999999997
0
LINE
8
BLACK
6
CONTINUOUS
10
245.8469929999999977
20
-85.5226439999999997
11
245.6617829999999856
21
-85.5722659999999991
0
LINE
8
BLACK
6
CONTINUOUS
10
245.6617829999999856
20
-85.5722659999999991
11
245.4708869999999763
21
-85.5889619999999951
0
LINE
8
BLACK
6
CONTINUOUS
10
245.4708869999999763
20
-85.5889619999999951
11
245.4707729999999799
21
-85.5889739999999932
0
LINE
8
BLACK
6
CONTINUOUS
10
245.4707729999999799
20
-85.5889739999999932
11
245.4707699999999875
21
-85.5889739999999932
0
LINE
8
BLACK
6
CONTINUOUS
10
245.4707699999999875
20
-85.5889739999999932
11
228.2752169999999978
21
-85.5889739999999932
0
LINE
8
BLACK
6
CONTINUOUS
10
228.2752169999999978
20
-85.5889739999999932
11
227.6988099999999804
21
-85.6344509999999985
0
LINE
8
BLACK
6
CONTINUOUS
10
227.6988099999999804
20
-85.6344509999999985
11
227.164654999999982
21
-85.769016999999991
0
LINE
8
BLACK
6
CONTINUOUS
10
227.164654999999982
20
-85.769016999999991
11
226.6668129999999906
21
-85.9913979999999896
0
LINE
8
BLACK
6
CONTINUOUS
10
226.6668129999999906
20
-85.9913979999999896
11
226.2029969999999821
21
-86.2998410000000007
0
LINE
8
BLACK
6
CONTINUOUS
10
226.2029969999999821
20
-86.2998410000000007
11
225.7713749999999777
21
-86.6920519999999897
0
LINE
8
BLACK
6
CONTINUOUS
10
225.7713749999999777
20
-86.6920519999999897
11
225.3705459999999903
21
-87.1647959999999955
0
LINE
8
BLACK
6
CONTINUOUS
10
225.3705459999999903
20
-87.1647959999999955
11
224.9992529999999817
21
-87.7138119999999901
0
LINE
8
BLACK
6
CONTINUOUS
10
224.9992529999999817
20
-87.7138119999999901
11
224.6561009999999783
21
-88.334044999999989
0
LINE
8
BLACK
6
CONTINUOUS
10
224.6561009999999783
20
-88.334044999999989
11
224.3395109999999875
21
-89.0198039999999935
0
LINE
8
BLACK
6
CONTINUOUS
10
224.3395109999999875
20
-89.0198039999999935
11
224.0476759999999956
21
-89.7649940000000015
0
LINE
8
BLACK
6
CONTINUOUS
10
224.0476759999999956
20
-89.7649940000000015
11
223.7786049999999989
21
-90.5632379999999984
0
LINE
8
BLACK
6
CONTINUOUS
10
223.7786049999999989
20
-90.5632379999999984
11
223.5303629999999941
21
-91.4073379999999958
0
LINE
8
BLACK
6
CONTINUOUS
10
223.5303629999999941
20
-91.4073379999999958
11
223.0863809999999887
21
-93.2101629999999943
0
LINE
8
BLACK
6
CONTINUOUS
10
223.0863809999999887
20
-93.2101629999999943
11
222.6984239999999886
21
-95.1166410000000013
0
LINE
8
BLACK
6
CONTINUOUS
10
222.6984239999999886
20
-95.1166410000000013
11
222.0184709999999768
21
-99.0294639999999902
0
LINE
8
BLACK
6
CONTINUOUS
10
222.0184709999999768
20
-99.0294639999999902
11
222.0184709999999768
21
-99.0294669999999968
0
LINE
8
BLACK
6
CONTINUOUS
10
222.0184709999999768
20
-99.0294669999999968
11
221.692892999999998
21
-100.9303960000000018
0
LINE
8
BLACK
6
CONTINUOUS
10
221.692892999999998
20
-100.9303960000000018
11
221.692688000000004
21
-100.9311399999999992
0
LINE
8
BLACK
6
CONTINUOUS
10
221.692688000000004
20
-100.9311399999999992
11
221.6926220000000001
21
-100.9319059999999979
0
LINE
8
BLACK
6
CONTINUOUS
10
221.6926220000000001
20
-100.9319059999999979
11
221.3561039999999878
21
-102.7303679999999986
0
LINE
8
BLACK
6
CONTINUOUS
10
221.3561039999999878
20
-102.7303679999999986
11
221.3556829999999991
21
-102.7318129999999883
0
LINE
8
BLACK
6
CONTINUOUS
10
221.3556829999999991
20
-102.7318129999999883
11
221.3555069999999887
21
-102.7333160000000021
0
LINE
8
BLACK
6
CONTINUOUS
10
221.3555069999999887
20
-102.7333160000000021
11
220.9945850000000007
21
-104.3856909999999942
0
LINE
8
BLACK
6
CONTINUOUS
10
220.9945850000000007
20
-104.3856909999999942
11
220.9940560000000005
21
-104.387322999999995
0
LINE
8
BLACK
6
CONTINUOUS
10
220.9940560000000005
20
-104.387322999999995
11
220.9937979999999982
21
-104.3890200000000021
0
LINE
8
BLACK
6
CONTINUOUS
10
220.9937979999999982
20
-104.3890200000000021
11
220.8005210000000034
21
-105.1483109999999925
0
LINE
8
BLACK
6
CONTINUOUS
10
220.8005210000000034
20
-105.1483109999999925
11
220.8000040000000013
21
-105.1497379999999993
0
LINE
8
BLACK
6
CONTINUOUS
10
220.8000040000000013
20
-105.1497379999999993
11
220.79973099999998
21
-105.151227999999989
0
LINE
8
BLACK
6
CONTINUOUS
10
220.79973099999998
20
-105.151227999999989
11
220.5962419999999895
21
-105.8603109999999958
0
LINE
8
BLACK
6
CONTINUOUS
10
220.5962419999999895
20
-105.8603109999999958
11
220.5955539999999928
21
-105.8620429999999999
0
LINE
8
BLACK
6
CONTINUOUS
10
220.5955539999999928
20
-105.8620429999999999
11
220.5951499999999896
21
-105.8638669999999991
0
LINE
8
BLACK
6
CONTINUOUS
10
220.5951499999999896
20
-105.8638669999999991
11
220.3804099999999835
21
-106.5191939999999988
0
LINE
8
BLACK
6
CONTINUOUS
10
220.3804099999999835
20
-106.5191939999999988
11
220.3794900000000041
21
-106.5212829999999968
0
LINE
8
BLACK
6
CONTINUOUS
10
220.3794900000000041
20
-106.5212829999999968
11
220.3788940000000025
21
-106.5234880000000004
0
LINE
8
BLACK
6
CONTINUOUS
10
220.3788940000000025
20
-106.5234880000000004
11
220.1520559999999875
21
-107.1221449999999891
0
LINE
8
BLACK
6
CONTINUOUS
10
220.1520559999999875
20
-107.1221449999999891
11
220.1508199999999817
21
-107.1246369999999928
0
LINE
8
BLACK
6
CONTINUOUS
10
220.1508199999999817
20
-107.1246369999999928
11
220.1499459999999999
21
-107.1272790000000015
0
LINE
8
BLACK
6
CONTINUOUS
10
220.1499459999999999
20
-107.1272790000000015
11
219.9103779999999801
21
-107.6670649999999938
0
LINE
8
BLACK
6
CONTINUOUS
10
219.9103779999999801
20
-107.6670649999999938
11
219.9087159999999983
21
-107.6699939999999884
0
LINE
8
BLACK
6
CONTINUOUS
10
219.9087159999999983
20
-107.6699939999999884
11
219.9074439999999981
21
-107.6731189999999998
0
LINE
8
BLACK
6
CONTINUOUS
10
219.9074439999999981
20
-107.6731189999999998
11
219.6547489999999812
21
-108.1526459999999901
0
LINE
8
BLACK
6
CONTINUOUS
10
219.6547489999999812
20
-108.1526459999999901
11
219.6536820000000034
21
-108.1542619999999886
0
LINE
8
BLACK
6
CONTINUOUS
10
219.6536820000000034
20
-108.1542619999999886
11
219.6528830000000028
21
-108.1560269999999946
0
LINE
8
BLACK
6
CONTINUOUS
10
219.6528830000000028
20
-108.1560269999999946
11
212.7527189999999848
21
-120.1069819999999879
0
LINE
8
BLACK
6
CONTINUOUS
10
212.7527189999999848
20
-120.1069819999999879
11
212.7498479999999859
21
-120.1109869999999944
0
LINE
8
BLACK
6
CONTINUOUS
10
212.7498479999999859
20
-120.1109869999999944
11
212.7473839999999825
21
-120.1152529999999956
0
LINE
8
BLACK
6
CONTINUOUS
10
212.7473839999999825
20
-120.1152529999999956
11
212.4345619999999997
21
-120.5515139999999974
0
LINE
8
BLACK
6
CONTINUOUS
10
212.4345619999999997
20
-120.5515139999999974
11
212.4340219999999988
21
-120.5521279999999962
0
LINE
8
BLACK
6
CONTINUOUS
10
212.4340219999999988
20
-120.5521279999999962
11
212.4338549999999941
21
-120.5524869999999993
0
LINE
8
BLACK
6
CONTINUOUS
10
212.4338549999999941
20
-120.5524869999999993
11
212.4277219999999886
21
-120.5593069999999898
0
LINE
8
BLACK
6
CONTINUOUS
10
212.4277219999999886
20
-120.5593069999999898
11
212.4216319999999882
21
-120.5662489999999991
0
LINE
8
BLACK
6
CONTINUOUS
10
212.4216319999999882
20
-120.5662489999999991
11
212.4212929999999915
21
-120.5664589999999947
0
LINE
8
BLACK
6
CONTINUOUS
10
212.4212929999999915
20
-120.5664589999999947
11
212.4207490000000007
21
-120.5670649999999995
0
LINE
8
BLACK
6
CONTINUOUS
10
212.4207490000000007
20
-120.5670649999999995
11
212.0480509999999867
21
-120.9076060000000012
0
LINE
8
BLACK
6
CONTINUOUS
10
212.0480509999999867
20
-120.9076060000000012
11
212.0477400000000046
21
-120.9078370000000007
0
LINE
8
BLACK
6
CONTINUOUS
10
212.0477400000000046
20
-120.9078370000000007
11
212.0476269999999772
21
-120.9079909999999956
0
LINE
8
BLACK
6
CONTINUOUS
10
212.0476269999999772
20
-120.9079909999999956
11
212.0399889999999914
21
-120.9136349999999993
0
LINE
8
BLACK
6
CONTINUOUS
10
212.0399889999999914
20
-120.9136349999999993
11
212.0323530000000005
21
-120.9193469999999877
0
LINE
8
BLACK
6
CONTINUOUS
10
212.0323530000000005
20
-120.9193469999999877
11
212.0321720000000028
21
-120.9194119999999941
0
LINE
8
BLACK
6
CONTINUOUS
10
212.0321720000000028
20
-120.9194119999999941
11
212.0318619999999896
21
-120.9196419999999961
0
LINE
8
BLACK
6
CONTINUOUS
10
212.0318619999999896
20
-120.9196419999999961
11
211.6102439999999945
21
-121.1713809999999967
0
LINE
8
BLACK
6
CONTINUOUS
10
211.6102439999999945
20
-121.1713809999999967
11
211.6017829999999833
21
-121.1753649999999993
0
LINE
8
BLACK
6
CONTINUOUS
10
211.6017829999999833
20
-121.1753649999999993
11
211.5934149999999931
21
-121.1794049999999885
0
LINE
8
BLACK
6
CONTINUOUS
10
211.5934149999999931
20
-121.1794049999999885
11
211.1361289999999826
21
-121.3471329999999995
0
LINE
8
BLACK
6
CONTINUOUS
10
211.1361289999999826
20
-121.3471329999999995
11
211.1274519999999768
21
-121.349378999999999
0
LINE
8
BLACK
6
CONTINUOUS
10
211.1274519999999768
20
-121.349378999999999
11
211.1188119999999913
21
-121.3517729999999943
0
LINE
8
BLACK
6
CONTINUOUS
10
211.1188119999999913
20
-121.3517729999999943
11
210.6389259999999979
21
-121.4351569999999896
0
LINE
8
BLACK
6
CONTINUOUS
10
210.6389259999999979
20
-121.4351569999999896
11
210.6296140000000037
21
-121.435845999999998
0
LINE
8
BLACK
6
CONTINUOUS
10
210.6296140000000037
20
-121.435845999999998
11
210.6203390000000013
21
-121.4366219999999998
0
LINE
8
BLACK
6
CONTINUOUS
10
210.6203390000000013
20
-121.4366219999999998
11
210.12933799999999
21
-121.4294149999999917
0
LINE
8
BLACK
6
CONTINUOUS
10
210.12933799999999
20
-121.4294149999999917
11
210.1289569999999856
21
-121.4293709999999891
0
LINE
8
BLACK
6
CONTINUOUS
10
210.1289569999999856
20
-121.4293709999999891
11
210.1287659999999846
21
-121.4294060000000002
0
LINE
8
BLACK
6
CONTINUOUS
10
210.1287659999999846
20
-121.4294060000000002
11
210.1192649999999844
21
-121.4282729999999901
0
LINE
8
BLACK
6
CONTINUOUS
10
210.1192649999999844
20
-121.4282729999999901
11
210.1098599999999976
21
-121.4272079999999931
0
LINE
8
BLACK
6
CONTINUOUS
10
210.1098599999999976
20
-121.4272079999999931
11
210.1096829999999898
21
-121.4271309999999886
0
LINE
8
BLACK
6
CONTINUOUS
10
210.1096829999999898
20
-121.4271309999999886
11
210.1092999999999904
21
-121.4270859999999885
0
LINE
8
BLACK
6
CONTINUOUS
10
210.1092999999999904
20
-121.4270859999999885
11
209.6162649999999985
21
-121.3185139999999933
0
LINE
8
BLACK
6
CONTINUOUS
10
209.6162649999999985
20
-121.3185139999999933
11
209.6154909999999916
21
-121.3182609999999926
0
LINE
8
BLACK
6
CONTINUOUS
10
209.6154909999999916
20
-121.3182609999999926
11
209.6150920000000042
21
-121.3182489999999945
0
LINE
8
BLACK
6
CONTINUOUS
10
209.6150920000000042
20
-121.3182489999999945
11
209.6063269999999932
21
-121.3152759999999972
0
LINE
8
BLACK
6
CONTINUOUS
10
209.6063269999999932
20
-121.3152759999999972
11
209.5976259999999911
21
-121.3124419999999901
0
LINE
8
BLACK
6
CONTINUOUS
10
209.5976259999999911
20
-121.3124419999999901
11
209.5973019999999849
21
-121.3122149999999948
0
LINE
8
BLACK
6
CONTINUOUS
10
209.5973019999999849
20
-121.3122149999999948
11
209.5965269999999805
21
-121.3119529999999884
0
LINE
8
BLACK
6
CONTINUOUS
10
209.5965269999999805
20
-121.3119529999999884
11
209.1074859999999944
21
-121.0905459999999891
0
LINE
8
BLACK
6
CONTINUOUS
10
209.1074859999999944
20
-121.0905459999999891
11
209.1032149999999774
21
-121.088082
0
LINE
8
BLACK
6
CONTINUOUS
10
209.1032149999999774
20
-121.088082
11
209.0987309999999866
21
-121.0860500000000002
0
LINE
8
BLACK
6
CONTINUOUS
10
209.0987309999999866
20
-121.0860500000000002
11
197.1483269999999948
21
-114.1866039999999884
0
LINE
8
BLACK
6
CONTINUOUS
10
197.1483269999999948
20
-114.1866039999999884
11
194.8154169999999965
21
-112.8963469999999916
0
LINE
8
BLACK
6
CONTINUOUS
10
194.8154169999999965
20
-112.8963469999999916
11
193.6165759999999807
21
-112.340485000000001
0
LINE
8
BLACK
6
CONTINUOUS
10
193.6165759999999807
20
-112.340485000000001
11
192.3604379999999878
21
-111.9134019999999907
0
LINE
8
BLACK
6
CONTINUOUS
10
192.3604379999999878
20
-111.9134019999999907
11
182.9799519999999973
21
-109.3999049999999897
0
LINE
8
BLACK
6
CONTINUOUS
10
182.9799519999999973
20
-109.3999049999999897
11
180.3803230000000042
21
-108.7378700000000009
0
LINE
8
BLACK
6
CONTINUOUS
10
180.3803230000000042
20
-108.7378700000000009
11
177.767154000000005
21
-108.1628729999999905
0
LINE
8
BLACK
6
CONTINUOUS
10
177.767154000000005
20
-108.1628729999999905
11
176.4546569999999974
21
-107.9279339999999934
0
LINE
8
BLACK
6
CONTINUOUS
10
176.4546569999999974
20
-107.9279339999999934
11
175.1350719999999797
21
-107.7441519999999997
0
LINE
8
BLACK
6
CONTINUOUS
10
175.1350719999999797
20
-107.7441519999999997
11
173.8070009999999854
21
-107.6256049999999931
0
LINE
8
BLACK
6
CONTINUOUS
10
173.8070009999999854
20
-107.6256049999999931
11
172.4667949999999905
21
-107.5843009999999964
0
LINE
8
BLACK
6
CONTINUOUS
10
172.4667949999999905
20
-107.5843009999999964
11
161.5985249999999951
21
-107.5843009999999964
0
LINE
8
BLACK
6
CONTINUOUS
10
161.5985249999999951
20
-107.5843009999999964
11
161.5945360000000051
21
-107.5839079999999939
0
LINE
8
BLACK
6
CONTINUOUS
10
161.5945360000000051
20
-107.5839079999999939
11
161.5905329999999935
21
-107.5839809999999943
0
LINE
8
BLACK
6
CONTINUOUS
10
161.5905329999999935
20
-107.5839809999999943
11
160.8052579999999807
21
-107.5210269999999895
0
LINE
8
BLACK
6
CONTINUOUS
10
160.8052579999999807
20
-107.5210269999999895
11
160.7970929999999896
21
-107.5195559999999944
0
LINE
8
BLACK
6
CONTINUOUS
10
160.7970929999999896
20
-107.5195559999999944
11
160.7888749999999902
21
-107.5183309999999892
0
LINE
8
BLACK
6
CONTINUOUS
10
160.7888749999999902
20
-107.5183309999999892
11
160.0594769999999869
21
-107.3350179999999909
0
LINE
8
BLACK
6
CONTINUOUS
10
160.0594769999999869
20
-107.3350179999999909
11
160.0516700000000014
21
-107.3322179999999975
0
LINE
8
BLACK
6
CONTINUOUS
10
160.0516700000000014
20
-107.3322179999999975
11
160.0438069999999868
21
-107.3296659999999889
0
LINE
8
BLACK
6
CONTINUOUS
10
160.0438069999999868
20
-107.3296659999999889
11
159.3750809999999944
21
-107.0374279999999914
0
LINE
8
BLACK
6
CONTINUOUS
10
159.3750809999999944
20
-107.0374279999999914
11
159.3677820000000054
21
-107.0333439999999996
0
LINE
8
BLACK
6
CONTINUOUS
10
159.3677820000000054
20
-107.0333439999999996
11
159.3603569999999934
21
-107.0294650000000019
0
LINE
8
BLACK
6
CONTINUOUS
10
159.3603569999999934
20
-107.0294650000000019
11
158.7631719999999973
21
-106.6385619999999932
0
LINE
8
BLACK
6
CONTINUOUS
10
158.7631719999999973
20
-106.6385619999999932
11
158.756071999999989
21
-106.6328469999999982
0
LINE
8
BLACK
6
CONTINUOUS
10
158.756071999999989
20
-106.6328469999999982
11
158.7489049999999793
21
-106.6272409999999979
0
LINE
8
BLACK
6
CONTINUOUS
10
158.7489049999999793
20
-106.6272409999999979
11
158.2411500000000046
21
-106.1427379999999943
0
LINE
8
BLACK
6
CONTINUOUS
10
158.2411500000000046
20
-106.1427379999999943
11
158.2361139999999864
21
-106.1368859999999898
0
LINE
8
BLACK
6
CONTINUOUS
10
158.2361139999999864
20
-106.1368859999999898
11
158.2308479999999804
21
-106.1312640000000016
0
LINE
8
BLACK
6
CONTINUOUS
10
158.2308479999999804
20
-106.1312640000000016
11
158.0178699999999878
21
-105.8536909999999978
0
LINE
8
BLACK
6
CONTINUOUS
10
158.0178699999999878
20
-105.8536909999999978
11
158.0148559999999804
21
-105.8488439999999997
0
LINE
8
BLACK
6
CONTINUOUS
10
158.0148559999999804
20
-105.8488439999999997
11
158.0114539999999863
21
-105.8442609999999888
0
LINE
8
BLACK
6
CONTINUOUS
10
158.0114539999999863
20
-105.8442609999999888
11
157.8302630000000022
21
-105.542232999999996
0
LINE
8
BLACK
6
CONTINUOUS
10
157.8302630000000022
20
-105.542232999999996
11
157.8276699999999835
21
-105.5367579999999919
0
LINE
8
BLACK
6
CONTINUOUS
10
157.8276699999999835
20
-105.5367579999999919
11
157.8246699999999976
21
-105.5314839999999919
0
LINE
8
BLACK
6
CONTINUOUS
10
157.8246699999999976
20
-105.5314839999999919
11
157.6787569999999903
21
-105.2039639999999991
0
LINE
8
BLACK
6
CONTINUOUS
10
157.6787569999999903
20
-105.2039639999999991
11
157.6767859999999928
21
-105.1980369999999994
0
LINE
8
BLACK
6
CONTINUOUS
10
157.6767859999999928
20
-105.1980369999999994
11
157.674396999999999
21
-105.192261000000002
0
LINE
8
BLACK
6
CONTINUOUS
10
157.674396999999999
20
-105.192261000000002
11
157.5671009999999796
21
-104.8380659999999978
0
LINE
8
BLACK
6
CONTINUOUS
10
157.5671009999999796
20
-104.8380659999999978
11
157.5658959999999809
21
-104.8320009999999911
0
LINE
8
BLACK
6
CONTINUOUS
10
157.5658959999999809
20
-104.8320009999999911
11
157.5642560000000003
21
-104.8260409999999894
0
LINE
8
BLACK
6
CONTINUOUS
10
157.5642560000000003
20
-104.8260409999999894
11
157.4984829999999931
21
-104.4440089999999941
0
LINE
8
BLACK
6
CONTINUOUS
10
157.4984829999999931
20
-104.4440089999999941
11
157.498061000000007
21
-104.4381920000000008
0
LINE
8
BLACK
6
CONTINUOUS
10
157.498061000000007
20
-104.4381920000000008
11
157.4971789999999885
21
-104.4324349999999981
0
LINE
8
BLACK
6
CONTINUOUS
10
157.4971789999999885
20
-104.4324349999999981
11
157.474993999999981
21
-104.0216700000000003
0
LINE
8
BLACK
6
CONTINUOUS
10
157.474993999999981
20
-104.0216700000000003
11
157.4751129999999932
21
-104.0189709999999934
0
LINE
8
BLACK
6
CONTINUOUS
10
157.4751129999999932
20
-104.0189709999999934
11
157.4748479999999802
21
-104.0162770000000023
0
LINE
8
BLACK
6
CONTINUOUS
10
157.4748479999999802
20
-104.0162770000000023
11
157.4748479999999802
21
-93.8677369999999911
0
LINE
8
BLACK
6
CONTINUOUS
10
157.4748479999999802
20
-93.8677369999999911
11
157.412588999999997
21
-93.044556
0
LINE
8
BLACK
6
CONTINUOUS
10
157.412588999999997
20
-93.044556
11
157.2316759999999931
21
-92.2568559999999991
0
LINE
8
BLACK
6
CONTINUOUS
10
157.2316759999999931
20
-92.2568559999999991
11
156.9418430000000058
21
-91.5127310000000023
0
LINE
8
BLACK
6
CONTINUOUS
10
156.9418430000000058
20
-91.5127310000000023
11
156.551922999999988
21
-90.8334940000000017
0
LINE
8
BLACK
6
CONTINUOUS
10
156.551922999999988
20
-90.8334940000000017
11
156.0640789999999924
21
-90.2462659999999914
0
LINE
8
BLACK
6
CONTINUOUS
10
156.0640789999999924
20
-90.2462659999999914
11
155.7863999999999862
21
-90.001308999999992
0
LINE
8
BLACK
6
CONTINUOUS
10
155.7863999999999862
20
-90.001308999999992
11
155.4814159999999958
21
-89.791292999999996
0
LINE
8
BLACK
6
CONTINUOUS
10
155.4814159999999958
20
-89.791292999999996
11
155.1493370000000027
21
-89.6219509999999957
0
LINE
8
BLACK
6
CONTINUOUS
10
155.1493370000000027
20
-89.6219509999999957
11
154.7880089999999882
21
-89.4971199999999953
0
LINE
8
BLACK
6
CONTINUOUS
10
154.7880089999999882
20
-89.4971199999999953
11
154.394992000000002
21
-89.4202820000000003
0
LINE
8
BLACK
6
CONTINUOUS
10
154.394992000000002
20
-89.4202820000000003
11
153.9653040000000033
21
-89.3940520000000021
0
LINE
8
BLACK
6
CONTINUOUS
10
153.9653040000000033
20
-89.3940520000000021
11
134.039984000000004
21
-89.3940520000000021
0
LINE
8
BLACK
6
CONTINUOUS
10
134.039984000000004
20
-89.3940520000000021
11
133.7114509999999825
21
-89.4226439999999911
0
LINE
8
BLACK
6
CONTINUOUS
10
133.7114509999999825
20
-89.4226439999999911
11
133.4213739999999859
21
-89.5060869999999937
0
LINE
8
BLACK
6
CONTINUOUS
10
133.4213739999999859
20
-89.5060869999999937
11
133.1626009999999951
21
-89.6434209999999894
0
LINE
8
BLACK
6
CONTINUOUS
10
133.1626009999999951
20
-89.6434209999999894
11
132.9318030000000022
21
-89.8342509999999947
0
LINE
8
BLACK
6
CONTINUOUS
10
132.9318030000000022
20
-89.8342509999999947
11
132.7267699999999877
21
-90.0782319999999999
0
LINE
8
BLACK
6
CONTINUOUS
10
132.7267699999999877
20
-90.0782319999999999
11
132.547583000000003
21
-90.371822999999992
0
LINE
8
BLACK
6
CONTINUOUS
10
132.547583000000003
20
-90.371822999999992
11
132.2546879999999874
21
-91.10922699999999
0
LINE
8
BLACK
6
CONTINUOUS
10
132.2546879999999874
20
-91.10922699999999
11
132.0448199999999872
21
-92.0065010000000001
0
LINE
8
BLACK
6
CONTINUOUS
10
132.0448199999999872
20
-92.0065010000000001
11
131.8987199999999973
21
-93.0287249999999943
0
LINE
8
BLACK
6
CONTINUOUS
10
131.8987199999999973
20
-93.0287249999999943
11
131.7095630000000028
21
-95.2896349999999899
0
LINE
8
BLACK
6
CONTINUOUS
10
131.7095630000000028
20
-95.2896349999999899
11
131.6194219999999859
21
-96.4419199999999961
0
LINE
8
BLACK
6
CONTINUOUS
10
131.6194219999999859
20
-96.4419199999999961
11
131.6191670000000045
21
-96.4433509999999927
0
LINE
8
BLACK
6
CONTINUOUS
10
131.6191670000000045
20
-96.4433509999999927
11
131.6191539999999804
21
-96.4448139999999938
0
LINE
8
BLACK
6
CONTINUOUS
10
131.6191539999999804
20
-96.4448139999999938
11
131.4996299999999962
21
-97.5561519999999973
0
LINE
8
BLACK
6
CONTINUOUS
10
131.4996299999999962
20
-97.5561519999999973
11
131.4990239999999915
21
-97.5590569999999957
0
LINE
8
BLACK
6
CONTINUOUS
10
131.4990239999999915
20
-97.5590569999999957
11
131.4988229999999874
21
-97.5620150000000024
0
LINE
8
BLACK
6
CONTINUOUS
10
131.4988229999999874
20
-97.5620150000000024
11
131.3259989999999959
21
-98.5914859999999891
0
LINE
8
BLACK
6
CONTINUOUS
10
131.3259989999999959
20
-98.5914859999999891
11
131.3246739999999875
21
-98.5963749999999948
0
LINE
8
BLACK
6
CONTINUOUS
10
131.3246739999999875
20
-98.5963749999999948
11
131.323820999999981
21
-98.6013679999999937
0
LINE
8
BLACK
6
CONTINUOUS
10
131.323820999999981
20
-98.6013679999999937
11
131.0746890000000064
21
-99.5101530000000025
0
LINE
8
BLACK
6
CONTINUOUS
10
131.0746890000000064
20
-99.5101530000000025
11
131.0726349999999911
21
-99.515513999999996
0
LINE
8
BLACK
6
CONTINUOUS
10
131.0726349999999911
20
-99.515513999999996
11
131.0710279999999841
21
-99.5210189999999955
0
LINE
8
BLACK
6
CONTINUOUS
10
131.0710279999999841
20
-99.5210189999999955
11
130.9110949999999889
21
-99.9187960000000004
0
LINE
8
BLACK
6
CONTINUOUS
10
130.9110949999999889
20
-99.9187960000000004
11
130.9087189999999907
21
-99.9233539999999891
0
LINE
8
BLACK
6
CONTINUOUS
10
130.9087189999999907
20
-99.9233539999999891
11
130.9067760000000078
21
-99.9281229999999994
0
LINE
8
BLACK
6
CONTINUOUS
10
130.9067760000000078
20
-99.9281229999999994
11
130.7199389999999823
21
-100.2825729999999993
0
LINE
8
BLACK
6
CONTINUOUS
10
130.7199389999999823
20
-100.2825729999999993
11
130.7164259999999842
21
-100.2878959999999893
0
LINE
8
BLACK
6
CONTINUOUS
10
130.7164259999999842
20
-100.2878959999999893
11
130.7132859999999823
21
-100.2934509999999904
0
LINE
8
BLACK
6
CONTINUOUS
10
130.7132859999999823
20
-100.2934509999999904
11
130.4972659999999962
21
-100.600759999999994
0
LINE
8
BLACK
6
CONTINUOUS
10
130.4972659999999962
20
-100.600759999999994
11
130.4922479999999894
21
-100.6065880000000021
0
LINE
8
BLACK
6
CONTINUOUS
10
130.4922479999999894
20
-100.6065880000000021
11
130.4874790000000075
21
-100.6126259999999917
0
LINE
8
BLACK
6
CONTINUOUS
10
130.4874790000000075
20
-100.6126259999999917
11
130.2402119999999854
21
-100.869339999999994
0
LINE
8
BLACK
6
CONTINUOUS
10
130.2402119999999854
20
-100.869339999999994
11
130.2334909999999866
21
-100.8750689999999963
0
LINE
8
BLACK
6
CONTINUOUS
10
130.2334909999999866
20
-100.8750689999999963
11
130.2268609999999853
21
-100.8809459999999945
0
LINE
8
BLACK
6
CONTINUOUS
10
130.2268609999999853
20
-100.8809459999999945
11
129.9465399999999988
21
-101.0840479999999957
0
LINE
8
BLACK
6
CONTINUOUS
10
129.9465399999999988
20
-101.0840479999999957
11
129.9382740000000069
21
-101.088877999999994
0
LINE
8
BLACK
6
CONTINUOUS
10
129.9382740000000069
20
-101.088877999999994
11
129.9301700000000039
21
-101.0936809999999895
0
LINE
8
BLACK
6
CONTINUOUS
10
129.9301700000000039
20
-101.0936809999999895
11
129.6153039999999805
21
-101.2406790000000001
0
LINE
8
BLACK
6
CONTINUOUS
10
129.6153039999999805
20
-101.2406790000000001
11
129.6064690000000041
21
-101.24378999999999
0
LINE
8
BLACK
6
CONTINUOUS
10
129.6064690000000041
20
-101.24378999999999
11
129.5976110000000006
21
-101.2469919999999917
0
LINE
8
BLACK
6
CONTINUOUS
10
129.5976110000000006
20
-101.2469919999999917
11
129.2470619999999997
21
-101.3359969999999919
0
LINE
8
BLACK
6
CONTINUOUS
10
129.2470619999999997
20
-101.3359969999999919
11
129.2385850000000005
21
-101.3372820000000019
0
LINE
8
BLACK
6
CONTINUOUS
10
129.2385850000000005
20
-101.3372820000000019
11
129.23013499999999
21
-101.3387769999999932
0
LINE
8
BLACK
6
CONTINUOUS
10
129.23013499999999
20
-101.3387769999999932
11
128.8431840000000079
21
-101.3685869999999909
0
LINE
8
BLACK
6
CONTINUOUS
10
128.8431840000000079
20
-101.3685869999999909
11
128.8393309999999872
21
-101.368504999999999
0
LINE
8
BLACK
6
CONTINUOUS
10
128.8393309999999872
20
-101.368504999999999
11
128.8355029999999886
21
-101.3688819999999993
0
LINE
8
BLACK
6
CONTINUOUS
10
128.8355029999999886
20
-101.3688819999999993
11
115.0356829999999917
21
-101.3688819999999993
0
LINE
8
BLACK
6
CONTINUOUS
10
115.0356829999999917
20
-101.3688819999999993
11
115.0307819999999879
21
-101.3683989999999966
0
LINE
8
BLACK
6
CONTINUOUS
10
115.0307819999999879
20
-101.3683989999999966
11
115.0258520000000004
21
-101.3683979999999991
0
LINE
8
BLACK
6
CONTINUOUS
10
115.0258520000000004
20
-101.3683979999999991
11
114.491619
21
-101.3156239999999997
0
LINE
8
BLACK
6
CONTINUOUS
10
114.491619
20
-101.3156239999999997
11
114.4908199999999994
21
-101.3154639999999915
0
LINE
8
BLACK
6
CONTINUOUS
10
114.4908199999999994
20
-101.3154639999999915
11
114.4904239999999902
21
-101.3154989999999884
0
LINE
8
BLACK
6
CONTINUOUS
10
114.4904239999999902
20
-101.3154989999999884
11
114.4814389999999946
21
-101.3135959999999898
0
LINE
8
BLACK
6
CONTINUOUS
10
114.4814389999999946
20
-101.3135959999999898
11
114.4723939999999942
21
-101.3117939999999919
0
LINE
8
BLACK
6
CONTINUOUS
10
114.4723939999999942
20
-101.3117939999999919
11
114.4720409999999902
21
-101.3116050000000001
0
LINE
8
BLACK
6
CONTINUOUS
10
114.4720409999999902
20
-101.3116050000000001
11
114.4712459999999936
21
-101.311436999999998
0
LINE
8
BLACK
6
CONTINUOUS
10
114.4712459999999936
20
-101.311436999999998
11
113.9899699999999996
21
-101.1589460000000003
0
LINE
8
BLACK
6
CONTINUOUS
10
113.9899699999999996
20
-101.1589460000000003
11
113.9896159999999981
21
-101.1587940000000003
0
LINE
8
BLACK
6
CONTINUOUS
10
113.9896159999999981
20
-101.1587940000000003
11
113.9894239999999996
21
-101.158771999999999
0
LINE
8
BLACK
6
CONTINUOUS
10
113.9894239999999996
20
-101.158771999999999
11
113.9806669999999968
21
-101.154956999999996
0
LINE
8
BLACK
6
CONTINUOUS
10
113.9806669999999968
20
-101.154956999999996
11
113.9719529999999992
21
-101.15122199999999
0
LINE
8
BLACK
6
CONTINUOUS
10
113.9719529999999992
20
-101.15122199999999
11
113.9718049999999891
21
-101.1510979999999904
0
LINE
8
BLACK
6
CONTINUOUS
10
113.9718049999999891
20
-101.1510979999999904
11
113.9714519999999993
21
-101.1509439999999955
0
LINE
8
BLACK
6
CONTINUOUS
10
113.9714519999999993
20
-101.1509439999999955
11
113.5426229999999919
21
-100.911681999999999
0
LINE
8
BLACK
6
CONTINUOUS
10
113.5426229999999919
20
-100.911681999999999
11
113.5349689999999896
21
-100.9063649999999939
0
LINE
8
BLACK
6
CONTINUOUS
10
113.5349689999999896
20
-100.9063649999999939
11
113.5272599999999983
21
-100.9011199999999917
0
LINE
8
BLACK
6
CONTINUOUS
10
113.5272599999999983
20
-100.9011199999999917
11
113.1533529999999956
21
-100.5889589999999885
0
LINE
8
BLACK
6
CONTINUOUS
10
113.1533529999999956
20
-100.5889589999999885
11
113.1470539999999971
21
-100.5825529999999901
0
LINE
8
BLACK
6
CONTINUOUS
10
113.1470539999999971
20
-100.5825529999999901
11
113.1406759999999991
21
-100.576281999999992
0
LINE
8
BLACK
6
CONTINUOUS
10
113.1406759999999991
20
-100.576281999999992
11
112.8285169999999908
21
-100.202376000000001
0
LINE
8
BLACK
6
CONTINUOUS
10
112.8285169999999908
20
-100.202376000000001
11
112.8232599999999906
21
-100.1946509999999932
0
LINE
8
BLACK
6
CONTINUOUS
10
112.8232599999999906
20
-100.1946509999999932
11
112.8179540000000003
21
-100.1870109999999983
0
LINE
8
BLACK
6
CONTINUOUS
10
112.8179540000000003
20
-100.1870109999999983
11
112.5786909999999921
21
-99.758184
0
LINE
8
BLACK
6
CONTINUOUS
10
112.5786909999999921
20
-99.758184
11
112.5785359999999997
21
-99.7578299999999984
0
LINE
8
BLACK
6
CONTINUOUS
10
112.5785359999999997
20
-99.7578299999999984
11
112.5784129999999976
21
-99.7576830000000001
0
LINE
8
BLACK
6
CONTINUOUS
10
112.5784129999999976
20
-99.7576830000000001
11
112.5746759999999966
21
-99.7489659999999958
0
LINE
8
BLACK
6
CONTINUOUS
10
112.5746759999999966
20
-99.7489659999999958
11
112.5708629999999886
21
-99.7402110000000022
0
LINE
8
BLACK
6
CONTINUOUS
10
112.5708629999999886
20
-99.7402110000000022
11
112.5708399999999898
21
-99.7400179999999921
0
LINE
8
BLACK
6
CONTINUOUS
10
112.5708399999999898
20
-99.7400179999999921
11
112.5706890000000016
21
-99.7396650000000022
0
LINE
8
BLACK
6
CONTINUOUS
10
112.5706890000000016
20
-99.7396650000000022
11
112.4181979999999896
21
-99.2583899999999915
0
LINE
8
BLACK
6
CONTINUOUS
10
112.4181979999999896
20
-99.2583899999999915
11
112.41802899999999
21
-99.2575920000000025
0
LINE
8
BLACK
6
CONTINUOUS
10
112.41802899999999
20
-99.2575920000000025
11
112.4178409999999957
21
-99.2572409999999934
0
LINE
8
BLACK
6
CONTINUOUS
10
112.4178409999999957
20
-99.2572409999999934
11
112.4160430000000019
21
-99.2482189999999918
0
LINE
8
BLACK
6
CONTINUOUS
10
112.4160430000000019
20
-99.2482189999999918
11
112.4141359999999992
21
-99.2392119999999949
0
LINE
8
BLACK
6
CONTINUOUS
10
112.4141359999999992
20
-99.2392119999999949
11
112.4141699999999986
21
-99.2388139999999908
0
LINE
8
BLACK
6
CONTINUOUS
10
112.4141699999999986
20
-99.2388139999999908
11
112.4140109999999879
21
-99.2380149999999901
0
LINE
8
BLACK
6
CONTINUOUS
10
112.4140109999999879
20
-99.2380149999999901
11
112.3612369999999885
21
-98.7037830000000014
0
LINE
8
BLACK
6
CONTINUOUS
10
112.3612369999999885
20
-98.7037830000000014
11
112.3612349999999935
21
-98.6988520000000022
0
LINE
8
BLACK
6
CONTINUOUS
10
112.3612349999999935
20
-98.6988520000000022
11
112.3607529999999883
21
-98.6939519999999959
0
LINE
8
BLACK
6
CONTINUOUS
10
112.3607529999999883
20
-98.6939519999999959
11
112.3607529999999883
21
-46.8939540000000008
0
LINE
8
BLACK
6
CONTINUOUS
10
112.3607529999999883
20
-46.8939540000000008
11
112.3612349999999935
21
-46.889052999999997
0
LINE
8
BLACK
6
CONTINUOUS
10
112.3612349999999935
20
-46.889052999999997
11
112.3612369999999885
21
-46.8841229999999953
0
LINE
8
BLACK
6
CONTINUOUS
10
112.3612369999999885
20
-46.8841229999999953
11
112.4140109999999879
21
-46.3498909999999995
0
LINE
8
BLACK
6
CONTINUOUS
10
112.4140109999999879
20
-46.3498909999999995
11
112.4141699999999986
21
-46.3490910000000014
0
LINE
8
BLACK
6
CONTINUOUS
10
112.4141699999999986
20
-46.3490910000000014
11
112.4141359999999992
21
-46.3486939999999947
0
LINE
8
BLACK
6
CONTINUOUS
10
112.4141359999999992
20
-46.3486939999999947
11
112.4160430000000019
21
-46.3396860000000004
0
LINE
8
BLACK
6
CONTINUOUS
10
112.4160430000000019
20
-46.3396860000000004
11
112.4178409999999957
21
-46.3306649999999962
0
LINE
8
BLACK
6
CONTINUOUS
10
112.4178409999999957
20
-46.3306649999999962
11
112.41802899999999
21
-46.3303129999999967
0
LINE
8
BLACK
6
CONTINUOUS
10
112.41802899999999
20
-46.3303129999999967
11
112.4181979999999896
21
-46.3295159999999981
0
LINE
8
BLACK
6
CONTINUOUS
10
112.4181979999999896
20
-46.3295159999999981
11
112.5706890000000016
21
-45.8482409999999945
0
LINE
8
BLACK
6
CONTINUOUS
10
112.5706890000000016
20
-45.8482409999999945
11
112.5708399999999898
21
-45.8478870000000001
0
LINE
8
BLACK
6
CONTINUOUS
10
112.5708399999999898
20
-45.8478870000000001
11
112.5708629999999886
21
-45.8476949999999945
0
LINE
8
BLACK
6
CONTINUOUS
10
112.5708629999999886
20
-45.8476949999999945
11
112.5746759999999966
21
-45.8389389999999963
0
LINE
8
BLACK
6
CONTINUOUS
10
112.5746759999999966
20
-45.8389389999999963
11
112.5784129999999976
21
-45.8302229999999966
0
LINE
8
BLACK
6
CONTINUOUS
10
112.5784129999999976
20
-45.8302229999999966
11
112.5785359999999997
21
-45.8300750000000008
0
LINE
8
BLACK
6
CONTINUOUS
10
112.5785359999999997
20
-45.8300750000000008
11
112.5786909999999921
21
-45.8297219999999967
0
LINE
8
BLACK
6
CONTINUOUS
10
112.5786909999999921
20
-45.8297219999999967
11
112.8179540000000003
21
-45.400894000000001
0
LINE
8
BLACK
6
CONTINUOUS
10
112.8179540000000003
20
-45.400894000000001
11
112.8232439999999883
21
-45.3932760000000002
0
LINE
8
BLACK
6
CONTINUOUS
10
112.8232439999999883
20
-45.3932760000000002
11
112.8285169999999908
21
-45.3855289999999982
0
LINE
8
BLACK
6
CONTINUOUS
10
112.8285169999999908
20
-45.3855289999999982
11
113.1406769999999966
21
-45.0116230000000002
0
LINE
8
BLACK
6
CONTINUOUS
10
113.1406769999999966
20
-45.0116230000000002
11
113.1470679999999902
21
-45.0053379999999947
0
LINE
8
BLACK
6
CONTINUOUS
10
113.1470679999999902
20
-45.0053379999999947
11
113.1533529999999956
21
-44.9989470000000011
0
LINE
8
BLACK
6
CONTINUOUS
10
113.1533529999999956
20
-44.9989470000000011
11
113.5272599999999983
21
-44.6867859999999979
0
LINE
8
BLACK
6
CONTINUOUS
10
113.5272599999999983
20
-44.6867859999999979
11
113.5349689999999896
21
-44.6815399999999983
0
LINE
8
BLACK
6
CONTINUOUS
10
113.5349689999999896
20
-44.6815399999999983
11
113.5426229999999919
21
-44.6762239999999977
0
LINE
8
BLACK
6
CONTINUOUS
10
113.5426229999999919
20
-44.6762239999999977
11
113.9714519999999993
21
-44.4369620000000012
0
LINE
8
BLACK
6
CONTINUOUS
10
113.9714519999999993
20
-44.4369620000000012
11
113.9718029999999942
21
-44.4368079999999992
0
LINE
8
BLACK
6
CONTINUOUS
10
113.9718029999999942
20
-44.4368079999999992
11
113.9719520000000017
21
-44.4366839999999996
0
LINE
8
BLACK
6
CONTINUOUS
10
113.9719520000000017
20
-44.4366839999999996
11
113.9806990000000013
21
-44.4329339999999959
0
LINE
8
BLACK
6
CONTINUOUS
10
113.9806990000000013
20
-44.4329339999999959
11
113.9894239999999996
21
-44.4291339999999977
0
LINE
8
BLACK
6
CONTINUOUS
10
113.9894239999999996
20
-44.4291339999999977
11
113.9896159999999981
21
-44.4291109999999989
0
LINE
8
BLACK
6
CONTINUOUS
10
113.9896159999999981
20
-44.4291109999999989
11
113.9899699999999996
21
-44.4289599999999965
0
LINE
8
BLACK
6
CONTINUOUS
10
113.9899699999999996
20
-44.4289599999999965
11
114.4712449999999961
21
-44.2764680000000013
0
LINE
8
BLACK
6
CONTINUOUS
10
114.4712449999999961
20
-44.2764680000000013
11
114.4720420000000018
21
-44.2762989999999945
0
LINE
8
BLACK
6
CONTINUOUS
10
114.4720420000000018
20
-44.2762989999999945
11
114.4723939999999942
21
-44.2761110000000002
0
LINE
8
BLACK
6
CONTINUOUS
10
114.4723939999999942
20
-44.2761110000000002
11
114.4814149999999984
21
-44.2743129999999994
0
LINE
8
BLACK
6
CONTINUOUS
10
114.4814149999999984
20
-44.2743129999999994
11
114.4904229999999927
21
-44.2724059999999966
0
LINE
8
BLACK
6
CONTINUOUS
10
114.4904229999999927
20
-44.2724059999999966
11
114.4908199999999994
21
-44.272439999999996
0
LINE
8
BLACK
6
CONTINUOUS
10
114.4908199999999994
20
-44.272439999999996
11
114.4916199999999975
21
-44.2722809999999996
0
LINE
8
BLACK
6
CONTINUOUS
10
114.4916199999999975
20
-44.2722809999999996
11
115.0258520000000004
21
-44.2195079999999976
0
LINE
8
BLACK
6
CONTINUOUS
10
115.0258520000000004
20
-44.2195079999999976
11
115.0307819999999879
21
-44.2195059999999955
0
LINE
8
BLACK
6
CONTINUOUS
10
115.0307819999999879
20
-44.2195059999999955
11
115.0356829999999917
21
-44.2190239999999974
0
LINE
8
BLACK
6
CONTINUOUS
10
115.0356829999999917
20
-44.2190239999999974
11
128.8292179999999973
21
-44.2190239999999974
0
LINE
8
BLACK
6
CONTINUOUS
10
128.8292179999999973
20
-44.2190239999999974
11
129.1669359999999926
21
-44.1764200000000002
0
LINE
8
BLACK
6
CONTINUOUS
10
129.1669359999999926
20
-44.1764200000000002
11
129.46963599999998
21
-44.0517839999999978
0
LINE
8
BLACK
6
CONTINUOUS
10
129.46963599999998
20
-44.0517839999999978
11
129.7479730000000018
21
-43.8435059999999979
0
LINE
8
BLACK
6
CONTINUOUS
10
129.7479730000000018
20
-43.8435059999999979
11
130.0037749999999903
21
-43.5506189999999975
0
LINE
8
BLACK
6
CONTINUOUS
10
130.0037749999999903
20
-43.5506189999999975
11
130.2368809999999826
21
-43.1747209999999981
0
LINE
8
BLACK
6
CONTINUOUS
10
130.2368809999999826
20
-43.1747209999999981
11
130.4471299999999871
21
-42.7199120000000008
0
LINE
8
BLACK
6
CONTINUOUS
10
130.4471299999999871
20
-42.7199120000000008
11
130.6351180000000056
21
-42.1916709999999995
0
LINE
8
BLACK
6
CONTINUOUS
10
130.6351180000000056
20
-42.1916709999999995
11
130.8021169999999813
21
-41.5962229999999948
0
LINE
8
BLACK
6
CONTINUOUS
10
130.8021169999999813
20
-41.5962229999999948
11
130.9498829999999998
21
-40.940183999999995
0
LINE
8
BLACK
6
CONTINUOUS
10
130.9498829999999998
20
-40.940183999999995
11
131.0804019999999923
21
-40.2310349999999985
0
LINE
8
BLACK
6
CONTINUOUS
10
131.0804019999999923
20
-40.2310349999999985
11
131.2997499999999889
21
-38.678722999999998
0
LINE
8
BLACK
6
CONTINUOUS
10
131.2997499999999889
20
-38.678722999999998
11
131.4799869999999942
21
-37.0012299999999996
0
LINE
8
BLACK
6
CONTINUOUS
10
131.4799869999999942
20
-37.0012299999999996
11
131.642768999999987
21
-35.2596980000000002
0
LINE
8
BLACK
6
CONTINUOUS
10
131.642768999999987
20
-35.2596980000000002
11
131.6427939999999808
21
-35.259566999999997
0
LINE
8
BLACK
6
CONTINUOUS
10
131.6427939999999808
20
-35.259566999999997
11
131.6427939999999808
21
-35.2594360000000009
0
LINE
8
BLACK
6
CONTINUOUS
10
131.6427939999999808
20
-35.2594360000000009
11
131.8102639999999894
21
-33.5171909999999968
0
LINE
8
BLACK
6
CONTINUOUS
10
131.8102639999999894
20
-33.5171909999999968
11
131.8104510000000005
21
-33.5162369999999967
0
LINE
8
BLACK
6
CONTINUOUS
10
131.8104510000000005
20
-33.5162369999999967
11
131.810467999999986
21
-33.5152609999999953
0
LINE
8
BLACK
6
CONTINUOUS
10
131.810467999999986
20
-33.5152609999999953
11
132.0048960000000022
21
-31.8354660000000003
0
LINE
8
BLACK
6
CONTINUOUS
10
132.0048960000000022
20
-31.8354660000000003
11
132.0051839999999856
21
-31.8341359999999973
0
LINE
8
BLACK
6
CONTINUOUS
10
132.0051839999999856
20
-31.8341359999999973
11
132.0052440000000047
21
-31.8327809999999971
0
LINE
8
BLACK
6
CONTINUOUS
10
132.0052440000000047
20
-31.8327809999999971
11
132.1194710000000043
21
-31.035537999999999
0
LINE
8
BLACK
6
CONTINUOUS
10
132.1194710000000043
20
-31.035537999999999
11
132.1197850000000074
21
-31.0342570000000002
0
LINE
8
BLACK
6
CONTINUOUS
10
132.1197850000000074
20
-31.0342570000000002
11
132.1198779999999999
21
-31.03294
0
LINE
8
BLACK
6
CONTINUOUS
10
132.1198779999999999
20
-31.03294
11
132.2490459999999928
21
-30.274130999999997
0
LINE
8
BLACK
6
CONTINUOUS
10
132.2490459999999928
20
-30.274130999999997
11
132.2494979999999885
21
-30.272472999999998
0
LINE
8
BLACK
6
CONTINUOUS
10
132.2494979999999885
20
-30.272472999999998
11
132.2496789999999862
21
-30.2707599999999992
0
LINE
8
BLACK
6
CONTINUOUS
10
132.2496789999999862
20
-30.2707599999999992
11
132.3963980000000049
21
-29.557624999999998
0
LINE
8
BLACK
6
CONTINUOUS
10
132.3963980000000049
20
-29.557624999999998
11
132.397057999999987
21
-29.555495999999998
0
LINE
8
BLACK
6
CONTINUOUS
10
132.397057999999987
20
-29.555495999999998
11
132.3973900000000015
21
-29.553293
0
LINE
8
BLACK
6
CONTINUOUS
10
132.3973900000000015
20
-29.553293
11
132.5641750000000059
21
-28.8927929999999975
0
LINE
8
BLACK
6
CONTINUOUS
10
132.5641750000000059
20
-28.8927929999999975
11
132.5651540000000068
21
-28.890072
0
LINE
8
BLACK
6
CONTINUOUS
10
132.5651540000000068
20
-28.890072
11
132.5657459999999901
21
-28.8872520000000002
0
LINE
8
BLACK
6
CONTINUOUS
10
132.5657459999999901
20
-28.8872520000000002
11
132.7549950000000081
21
-28.2860099999999974
0
LINE
8
BLACK
6
CONTINUOUS
10
132.7549950000000081
20
-28.2860099999999974
11
132.7564669999999865
21
-28.2825569999999971
0
LINE
8
BLACK
6
CONTINUOUS
10
132.7564669999999865
20
-28.2825569999999971
11
132.7575129999999888
21
-28.2789450000000002
0
LINE
8
BLACK
6
CONTINUOUS
10
132.7575129999999888
20
-28.2789450000000002
11
132.9714819999999804
21
-27.7431889999999974
0
LINE
8
BLACK
6
CONTINUOUS
10
132.9714819999999804
20
-27.7431889999999974
11
132.9737450000000081
21
-27.738821999999999
0
LINE
8
BLACK
6
CONTINUOUS
10
132.9737450000000081
20
-27.738821999999999
11
132.9755690000000072
21
-27.7342569999999995
0
LINE
8
BLACK
6
CONTINUOUS
10
132.9755690000000072
20
-27.7342569999999995
11
133.216352999999998
21
-27.269755
0
LINE
8
BLACK
6
CONTINUOUS
10
133.216352999999998
20
-27.269755
11
133.2198609999999803
21
-27.2643570000000004
0
LINE
8
BLACK
6
CONTINUOUS
10
133.2198609999999803
20
-27.2643570000000004
11
133.2229999999999848
21
-27.2587319999999984
0
LINE
8
BLACK
6
CONTINUOUS
10
133.2229999999999848
20
-27.2587319999999984
11
133.492496999999986
21
-26.8707080000000005
0
LINE
8
BLACK
6
CONTINUOUS
10
133.492496999999986
20
-26.8707080000000005
11
133.4978799999999808
21
-26.8643830000000001
0
LINE
8
BLACK
6
CONTINUOUS
10
133.4978799999999808
20
-26.8643830000000001
11
133.5030940000000044
21
-26.8578769999999984
0
LINE
8
BLACK
6
CONTINUOUS
10
133.5030940000000044
20
-26.8578769999999984
11
133.8029599999999846
21
-26.5508869999999995
0
LINE
8
BLACK
6
CONTINUOUS
10
133.8029599999999846
20
-26.5508869999999995
11
133.8035019999999804
21
-26.5504309999999997
0
LINE
8
BLACK
6
CONTINUOUS
10
133.8035019999999804
20
-26.5504309999999997
11
133.8036950000000047
21
-26.5501419999999975
0
LINE
8
BLACK
6
CONTINUOUS
10
133.8036950000000047
20
-26.5501419999999975
11
133.8108499999999879
21
-26.5442539999999987
0
LINE
8
BLACK
6
CONTINUOUS
10
133.8108499999999879
20
-26.5442539999999987
11
133.8179669999999817
21
-26.5382730000000002
0
LINE
8
BLACK
6
CONTINUOUS
10
133.8179669999999817
20
-26.5382730000000002
11
133.818286999999998
21
-26.5381350000000005
0
LINE
8
BLACK
6
CONTINUOUS
10
133.818286999999998
20
-26.5381350000000005
11
133.8188329999999837
21
-26.5376869999999982
0
LINE
8
BLACK
6
CONTINUOUS
10
133.8188329999999837
20
-26.5376869999999982
11
134.1504429999999957
21
-26.3154979999999981
0
LINE
8
BLACK
6
CONTINUOUS
10
134.1504429999999957
20
-26.3154979999999981
11
134.1529199999999946
21
-26.3141689999999997
0
LINE
8
BLACK
6
CONTINUOUS
10
134.1529199999999946
20
-26.3141689999999997
11
134.1538369999999816
21
-26.3133219999999994
0
LINE
8
BLACK
6
CONTINUOUS
10
134.1538369999999816
20
-26.3133219999999994
11
134.1608459999999923
21
-26.3099199999999982
0
LINE
8
BLACK
6
CONTINUOUS
10
134.1608459999999923
20
-26.3099199999999982
11
134.1677200000000028
21
-26.3062349999999974
0
LINE
8
BLACK
6
CONTINUOUS
10
134.1677200000000028
20
-26.3062349999999974
11
134.1689450000000079
21
-26.3059890000000003
0
LINE
8
BLACK
6
CONTINUOUS
10
134.1689450000000079
20
-26.3059890000000003
11
134.1714729999999918
21
-26.3047629999999977
0
LINE
8
BLACK
6
CONTINUOUS
10
134.1714729999999918
20
-26.3047629999999977
11
134.5358699999999885
21
-26.1702309999999976
0
LINE
8
BLACK
6
CONTINUOUS
10
134.5358699999999885
20
-26.1702309999999976
11
134.5388849999999934
21
-26.1694429999999976
0
LINE
8
BLACK
6
CONTINUOUS
10
134.5388849999999934
20
-26.1694429999999976
11
134.540081999999984
21
-26.1687809999999992
0
LINE
8
BLACK
6
CONTINUOUS
10
134.540081999999984
20
-26.1687809999999992
11
134.5474989999999877
21
-26.167192
0
LINE
8
BLACK
6
CONTINUOUS
10
134.5474989999999877
20
-26.167192
11
134.554836999999992
21
-26.1652759999999986
0
LINE
8
BLACK
6
CONTINUOUS
10
134.554836999999992
20
-26.1652759999999986
11
134.5562029999999822
21
-26.1653289999999998
0
LINE
8
BLACK
6
CONTINUOUS
10
134.5562029999999822
20
-26.1653289999999998
11
134.5592499999999916
21
-26.1646769999999975
0
LINE
8
BLACK
6
CONTINUOUS
10
134.5592499999999916
20
-26.1646769999999975
11
134.9570960000000071
21
-26.1196190000000001
0
LINE
8
BLACK
6
CONTINUOUS
10
134.9570960000000071
20
-26.1196190000000001
11
134.9627370000000042
21
-26.1195360000000001
0
LINE
8
BLACK
6
CONTINUOUS
10
134.9627370000000042
20
-26.1195360000000001
11
134.9683499999999867
21
-26.1189839999999975
0
LINE
8
BLACK
6
CONTINUOUS
10
134.9683499999999867
20
-26.1189839999999975
11
166.860572999999988
21
-26.1189839999999975
0
LINE
8
BLACK
6
CONTINUOUS
10
166.860572999999988
20
-26.1189839999999975
11
166.8652139999999804
21
-26.1194409999999984
0
LINE
8
BLACK
6
CONTINUOUS
10
134.9739959999999996
20
-26.3189840000000004
11
134.5937830000000019
21
-26.3620449999999984
0
LINE
8
BLACK
6
CONTINUOUS
10
134.5937830000000019
20
-26.3620449999999984
11
134.2518929999999955
21
-26.4882670000000005
0
LINE
8
BLACK
6
CONTINUOUS
10
134.2518929999999955
20
-26.4882670000000005
11
133.938777999999985
21
-26.6980629999999977
0
LINE
8
BLACK
6
CONTINUOUS
10
133.938777999999985
20
-26.6980629999999977
11
133.6519989999999893
21
-26.991655999999999
0
LINE
8
BLACK
6
CONTINUOUS
10
133.6519989999999893
20
-26.991655999999999
11
133.3909439999999904
21
-27.3675280000000001
0
LINE
8
BLACK
6
CONTINUOUS
10
133.3909439999999904
20
-27.3675280000000001
11
133.1553949999999986
21
-27.8219309999999993
0
LINE
8
BLACK
6
CONTINUOUS
10
133.1553949999999986
20
-27.8219309999999993
11
132.9446370000000002
21
-28.3496459999999999
0
LINE
8
BLACK
6
CONTINUOUS
10
132.9446370000000002
20
-28.3496459999999999
11
132.7573859999999968
21
-28.9445389999999989
0
LINE
8
BLACK
6
CONTINUOUS
10
132.7573859999999968
20
-28.9445389999999989
11
132.591842999999983
21
-29.6001219999999989
0
LINE
8
BLACK
6
CONTINUOUS
10
132.591842999999983
20
-29.6001219999999989
11
132.4459190000000035
21
-30.309396999999997
0
LINE
8
BLACK
6
CONTINUOUS
10
132.4459190000000035
20
-30.309396999999997
11
132.3172600000000045
21
-31.065216999999997
0
LINE
8
BLACK
6
CONTINUOUS
10
132.3172600000000045
20
-31.065216999999997
11
132.2034150000000068
21
-31.8597989999999989
0
LINE
8
BLACK
6
CONTINUOUS
10
132.2034150000000068
20
-31.8597989999999989
11
132.0092510000000061
21
-33.537309999999998
0
LINE
8
BLACK
6
CONTINUOUS
10
132.0092510000000061
20
-33.537309999999998
11
131.8419010000000071
21
-35.2783109999999951
0
LINE
8
BLACK
6
CONTINUOUS
10
131.8419010000000071
20
-35.2783109999999951
11
131.6790529999999819
21
-37.0205550000000017
0
LINE
8
BLACK
6
CONTINUOUS
10
131.6790529999999819
20
-37.0205550000000017
11
131.6789210000000026
21
-37.0212349999999972
0
LINE
8
BLACK
6
CONTINUOUS
10
131.6789210000000026
20
-37.0212349999999972
11
131.6789149999999893
21
-37.0219319999999996
0
LINE
8
BLACK
6
CONTINUOUS
10
131.6789149999999893
20
-37.0219319999999996
11
131.4984309999999823
21
-38.7017269999999982
0
LINE
8
BLACK
6
CONTINUOUS
10
131.4984309999999823
20
-38.7017269999999982
11
131.4980889999999931
21
-38.7033679999999976
0
LINE
8
BLACK
6
CONTINUOUS
10
131.4980889999999931
20
-38.7033679999999976
11
131.4980189999999993
21
-38.7050349999999952
0
LINE
8
BLACK
6
CONTINUOUS
10
131.4980189999999993
20
-38.7050349999999952
11
131.2781420000000026
21
-40.2610869999999963
0
LINE
8
BLACK
6
CONTINUOUS
10
131.2781420000000026
20
-40.2610869999999963
11
131.2776489999999967
21
-40.2631140000000016
0
LINE
8
BLACK
6
CONTINUOUS
10
131.2776489999999967
20
-40.2631140000000016
11
131.2774739999999838
21
-40.2651970000000006
0
LINE
8
BLACK
6
CONTINUOUS
10
131.2774739999999838
20
-40.2651970000000006
11
131.146220999999997
21
-40.9783319999999947
0
LINE
8
BLACK
6
CONTINUOUS
10
131.146220999999997
20
-40.9783319999999947
11
131.145672999999988
21
-40.9802359999999979
0
LINE
8
BLACK
6
CONTINUOUS
10
131.145672999999988
20
-40.9802359999999979
11
131.1454290000000071
21
-40.9822050000000004
0
LINE
8
BLACK
6
CONTINUOUS
10
131.1454290000000071
20
-40.9822050000000004
11
130.9966579999999965
21
-41.6427049999999994
0
LINE
8
BLACK
6
CONTINUOUS
10
130.9966579999999965
20
-41.6427049999999994
11
130.995839999999987
21
-41.6451739999999972
0
LINE
8
BLACK
6
CONTINUOUS
10
130.995839999999987
20
-41.6451739999999972
11
130.9953869999999938
21
-41.6477359999999948
0
LINE
8
BLACK
6
CONTINUOUS
10
130.9953869999999938
20
-41.6477359999999948
11
130.8267639999999972
21
-42.248978000000001
0
LINE
8
BLACK
6
CONTINUOUS
10
130.8267639999999972
20
-42.248978000000001
11
130.8255179999999882
21
-42.2521729999999991
0
LINE
8
BLACK
6
CONTINUOUS
10
130.8255179999999882
20
-42.2521729999999991
11
130.8246910000000014
21
-42.2555019999999999
0
LINE
8
BLACK
6
CONTINUOUS
10
130.8246910000000014
20
-42.2555019999999999
11
130.6340280000000007
21
-42.7912579999999991
0
LINE
8
BLACK
6
CONTINUOUS
10
130.6340280000000007
20
-42.7912579999999991
11
130.6320829999999944
21
-42.7953869999999981
0
LINE
8
BLACK
6
CONTINUOUS
10
130.6320829999999944
20
-42.7953869999999981
11
130.6305859999999939
21
-42.7996909999999957
0
LINE
8
BLACK
6
CONTINUOUS
10
130.6305859999999939
20
-42.7996909999999957
11
130.4158569999999884
21
-43.2641920000000013
0
LINE
8
BLACK
6
CONTINUOUS
10
130.4158569999999884
20
-43.2641920000000013
11
130.4127650000000074
21
-43.2694539999999961
0
LINE
8
BLACK
6
CONTINUOUS
10
130.4127650000000074
20
-43.2694539999999961
11
130.4100719999999853
21
-43.2749329999999972
0
LINE
8
BLACK
6
CONTINUOUS
10
130.4100719999999853
20
-43.2749329999999972
11
130.1694459999999935
21
-43.6629569999999987
0
LINE
8
BLACK
6
CONTINUOUS
10
130.1694459999999935
20
-43.6629569999999987
11
130.1645079999999837
21
-43.6694079999999971
0
LINE
8
BLACK
6
CONTINUOUS
10
130.1645079999999837
20
-43.6694079999999971
11
130.1597789999999861
21
-43.6760370000000009
0
LINE
8
BLACK
6
CONTINUOUS
10
130.1597789999999861
20
-43.6760370000000009
11
129.8916600000000017
21
-43.9830259999999953
0
LINE
8
BLACK
6
CONTINUOUS
10
129.8916600000000017
20
-43.9830259999999953
11
129.8909620000000018
21
-43.9836809999999971
0
LINE
8
BLACK
6
CONTINUOUS
10
129.8909620000000018
20
-43.9836809999999971
11
129.8907240000000058
21
-43.9840839999999957
0
LINE
8
BLACK
6
CONTINUOUS
10
129.8907240000000058
20
-43.9840839999999957
11
129.8839859999999931
21
-43.990241999999995
0
LINE
8
BLACK
6
CONTINUOUS
10
129.8839859999999931
20
-43.990241999999995
11
129.8773799999999881
21
-43.9964559999999949
0
LINE
8
BLACK
6
CONTINUOUS
10
129.8773799999999881
20
-43.9964559999999949
11
129.8769629999999893
21
-43.9966620000000006
0
LINE
8
BLACK
6
CONTINUOUS
10
129.8769629999999893
20
-43.9966620000000006
11
129.8762539999999888
21
-43.9973109999999963
0
LINE
8
BLACK
6
CONTINUOUS
10
129.8762539999999888
20
-43.9973109999999963
11
129.5793259999999805
21
-44.2194999999999965
0
LINE
8
BLACK
6
CONTINUOUS
10
129.5793259999999805
20
-44.2194999999999965
11
129.575963999999999
21
-44.2215339999999983
0
LINE
8
BLACK
6
CONTINUOUS
10
129.575963999999999
20
-44.2215339999999983
11
129.5747959999999921
21
-44.2226980000000012
0
LINE
8
BLACK
6
CONTINUOUS
10
129.5747959999999921
20
-44.2226980000000012
11
129.5685859999999821
21
-44.2259999999999991
0
LINE
8
BLACK
6
CONTINUOUS
10
129.5685859999999821
20
-44.2259999999999991
11
129.5625560000000007
21
-44.2296499999999995
0
LINE
8
BLACK
6
CONTINUOUS
10
129.5625560000000007
20
-44.2296499999999995
11
129.560955000000007
21
-44.2300579999999997
0
LINE
8
BLACK
6
CONTINUOUS
10
129.560955000000007
20
-44.2300579999999997
11
129.5574880000000064
21
-44.2319019999999981
0
LINE
8
BLACK
6
CONTINUOUS
10
129.5574880000000064
20
-44.2319019999999981
11
129.2307529999999929
21
-44.3664339999999982
0
LINE
8
BLACK
6
CONTINUOUS
10
129.2307529999999929
20
-44.3664339999999982
11
129.2260119999999972
21
-44.3678609999999978
0
LINE
8
BLACK
6
CONTINUOUS
10
129.2260119999999972
20
-44.3678609999999978
11
129.2243100000000027
21
-44.3688319999999976
0
LINE
8
BLACK
6
CONTINUOUS
10
129.2243100000000027
20
-44.3688319999999976
11
129.218086999999997
21
-44.3702469999999991
0
LINE
8
BLACK
6
CONTINUOUS
10
129.218086999999997
20
-44.3702469999999991
11
129.2119809999999802
21
-44.3720859999999959
0
LINE
8
BLACK
6
CONTINUOUS
10
129.2119809999999802
20
-44.3720859999999959
11
129.2100219999999808
21
-44.3720810000000014
0
LINE
8
BLACK
6
CONTINUOUS
10
129.2100219999999808
20
-44.3720810000000014
11
129.2051950000000033
21
-44.3731799999999978
0
LINE
8
BLACK
6
CONTINUOUS
10
129.2051950000000033
20
-44.3731799999999978
11
128.8480189999999936
21
-44.4182379999999952
0
LINE
8
BLACK
6
CONTINUOUS
10
128.8480189999999936
20
-44.4182379999999952
11
128.8417409999999848
21
-44.4184089999999969
0
LINE
8
BLACK
6
CONTINUOUS
10
128.8417409999999848
20
-44.4184089999999969
11
128.8355029999999886
21
-44.4190240000000003
0
LINE
8
BLACK
6
CONTINUOUS
10
128.8355029999999886
20
-44.4190240000000003
11
115.0406129999999933
21
-44.4190240000000003
0
LINE
8
BLACK
6
CONTINUOUS
10
115.0406129999999933
20
-44.4190240000000003
11
114.5216839999999934
21
-44.470284999999997
0
LINE
8
BLACK
6
CONTINUOUS
10
114.5216839999999934
20
-44.470284999999997
11
114.0600459999999998
21
-44.6165549999999982
0
LINE
8
BLACK
6
CONTINUOUS
10
114.0600459999999998
20
-44.6165549999999982
11
113.6482460000000003
21
-44.8463159999999945
0
LINE
8
BLACK
6
CONTINUOUS
10
113.6482460000000003
20
-44.8463159999999945
11
113.2884370000000018
21
-45.1467059999999947
0
LINE
8
BLACK
6
CONTINUOUS
10
113.2884370000000018
20
-45.1467059999999947
11
112.9880459999999971
21
-45.5065159999999977
0
LINE
8
BLACK
6
CONTINUOUS
10
112.9880459999999971
20
-45.5065159999999977
11
112.7582829999999916
21
-45.9183179999999993
0
LINE
8
BLACK
6
CONTINUOUS
10
112.7582829999999916
20
-45.9183179999999993
11
112.6120149999999995
21
-46.3799539999999979
0
LINE
8
BLACK
6
CONTINUOUS
10
112.6120149999999995
20
-46.3799539999999979
11
112.5607529999999912
21
-46.8988849999999999
0
LINE
8
BLACK
6
CONTINUOUS
10
112.5607529999999912
20
-46.8988849999999999
11
112.5607529999999912
21
-98.6890199999999993
0
LINE
8
BLACK
6
CONTINUOUS
10
112.5607529999999912
20
-98.6890199999999993
11
112.6120149999999995
21
-99.2079509999999942
0
LINE
8
BLACK
6
CONTINUOUS
10
112.6120149999999995
20
-99.2079509999999942
11
112.7582829999999916
21
-99.6695869999999928
0
LINE
8
BLACK
6
CONTINUOUS
10
112.7582829999999916
20
-99.6695869999999928
11
112.9880459999999971
21
-100.0813879999999898
0
LINE
8
BLACK
6
CONTINUOUS
10
112.9880459999999971
20
-100.0813879999999898
11
113.2884370000000018
21
-100.441198
0
LINE
8
BLACK
6
CONTINUOUS
10
113.2884370000000018
20
-100.441198
11
113.6482460000000003
21
-100.7415889999999905
0
LINE
8
BLACK
6
CONTINUOUS
10
113.6482460000000003
20
-100.7415889999999905
11
114.0600459999999998
21
-100.971350000000001
0
LINE
8
BLACK
6
CONTINUOUS
10
114.0600459999999998
20
-100.971350000000001
11
114.5216829999999959
21
-101.1176189999999906
0
LINE
8
BLACK
6
CONTINUOUS
10
114.5216829999999959
20
-101.1176189999999906
11
115.0406129999999933
21
-101.1688819999999964
0
LINE
8
BLACK
6
CONTINUOUS
10
115.0406129999999933
20
-101.1688819999999964
11
128.8316509999999937
21
-101.1688819999999964
0
LINE
8
BLACK
6
CONTINUOUS
10
128.8316509999999937
20
-101.1688819999999964
11
129.2061879999999974
21
-101.1400280000000009
0
LINE
8
BLACK
6
CONTINUOUS
10
129.2061879999999974
20
-101.1400280000000009
11
129.5392459999999915
21
-101.0554640000000006
0
LINE
8
BLACK
6
CONTINUOUS
10
129.5392459999999915
20
-101.0554640000000006
11
129.8369189999999946
21
-100.9164940000000001
0
LINE
8
BLACK
6
CONTINUOUS
10
129.8369189999999946
20
-100.9164940000000001
11
130.1023270000000025
21
-100.7241959999999921
0
LINE
8
BLACK
6
CONTINUOUS
10
130.1023270000000025
20
-100.7241959999999921
11
130.3380809999999883
21
-100.4794349999999952
0
LINE
8
BLACK
6
CONTINUOUS
10
130.3380809999999883
20
-100.4794349999999952
11
130.5459889999999916
21
-100.1836649999999906
0
LINE
8
BLACK
6
CONTINUOUS
10
130.5459889999999916
20
-100.1836649999999906
11
130.727454999999992
21
-99.8394059999999968
0
LINE
8
BLACK
6
CONTINUOUS
10
130.727454999999992
20
-99.8394059999999968
11
130.8833209999999951
21
-99.4517429999999933
0
LINE
8
BLACK
6
CONTINUOUS
10
130.8833209999999951
20
-99.4517429999999933
11
131.1295979999999872
21
-98.5533739999999909
0
LINE
8
BLACK
6
CONTINUOUS
10
131.1295979999999872
20
-98.5533739999999909
11
131.3010919999999828
21
-97.5318269999999927
0
LINE
8
BLACK
6
CONTINUOUS
10
131.3010919999999828
20
-97.5318269999999927
11
131.4201469999999858
21
-96.4248469999999998
0
LINE
8
BLACK
6
CONTINUOUS
10
131.4201469999999858
20
-96.4248469999999998
11
131.5102019999999925
21
-95.2736680000000007
0
LINE
8
BLACK
6
CONTINUOUS
10
131.5102019999999925
20
-95.2736680000000007
11
131.5102489999999875
21
-95.2734030000000018
0
LINE
8
BLACK
6
CONTINUOUS
10
131.5102489999999875
20
-95.2734030000000018
11
131.5102449999999976
21
-95.2731299999999948
0
LINE
8
BLACK
6
CONTINUOUS
10
131.5102449999999976
20
-95.2731299999999948
11
131.6996599999999944
21
-93.009137999999993
0
LINE
8
BLACK
6
CONTINUOUS
10
131.6996599999999944
20
-93.009137999999993
11
131.7001889999999946
21
-93.0062539999999984
0
LINE
8
BLACK
6
CONTINUOUS
10
131.7001889999999946
20
-93.0062539999999984
11
131.7003179999999816
21
-93.0033260000000013
0
LINE
8
BLACK
6
CONTINUOUS
10
131.7003179999999816
20
-93.0033260000000013
11
131.847453999999999
21
-91.9738559999999978
0
LINE
8
BLACK
6
CONTINUOUS
10
131.847453999999999
20
-91.9738559999999978
11
131.8484980000000064
21
-91.9695880000000017
0
LINE
8
BLACK
6
CONTINUOUS
10
131.8484980000000064
20
-91.9695880000000017
11
131.8490759999999966
21
-91.9652289999999937
0
LINE
8
BLACK
6
CONTINUOUS
10
131.8490759999999966
20
-91.9652289999999937
11
132.0616369999999904
21
-91.0564439999999991
0
LINE
8
BLACK
6
CONTINUOUS
10
132.0616369999999904
20
-91.0564439999999991
11
132.0640239999999892
21
-91.0494269999999943
0
LINE
8
BLACK
6
CONTINUOUS
10
132.0640239999999892
20
-91.0494269999999943
11
132.0660719999999912
21
-91.0423049999999989
0
LINE
8
BLACK
6
CONTINUOUS
10
132.0660719999999912
20
-91.0423049999999989
11
132.3648550000000057
21
-90.2900759999999991
0
LINE
8
BLACK
6
CONTINUOUS
10
132.3648550000000057
20
-90.2900759999999991
11
132.368739000000005
21
-90.2825440000000015
0
LINE
8
BLACK
6
CONTINUOUS
10
132.368739000000005
20
-90.2825440000000015
11
132.3724339999999984
21
-90.2748939999999891
0
LINE
8
BLACK
6
CONTINUOUS
10
132.3724339999999984
20
-90.2748939999999891
11
132.5599949999999865
21
-89.9675840000000022
0
LINE
8
BLACK
6
CONTINUOUS
10
132.5599949999999865
20
-89.9675840000000022
11
132.5645329999999831
21
-89.9615659999999906
0
LINE
8
BLACK
6
CONTINUOUS
10
132.5645329999999831
20
-89.9615659999999906
11
132.5687959999999919
21
-89.9553449999999941
0
LINE
8
BLACK
6
CONTINUOUS
10
132.5687959999999919
20
-89.9553449999999941
11
132.784528999999992
21
-89.6986309999999918
0
LINE
8
BLACK
6
CONTINUOUS
10
132.784528999999992
20
-89.6986309999999918
11
132.7910149999999874
21
-89.6922929999999923
0
LINE
8
BLACK
6
CONTINUOUS
10
132.7910149999999874
20
-89.6922929999999923
11
132.7973639999999875
21
-89.685898999999992
0
LINE
8
BLACK
6
CONTINUOUS
10
132.7973639999999875
20
-89.685898999999992
11
133.0430049999999937
21
-89.4827969999999908
0
LINE
8
BLACK
6
CONTINUOUS
10
133.0430049999999937
20
-89.4827969999999908
11
133.0433749999999975
21
-89.4825469999999967
0
LINE
8
BLACK
6
CONTINUOUS
10
133.0433749999999975
20
-89.4825469999999967
11
133.04351699999998
21
-89.4823760000000021
0
LINE
8
BLACK
6
CONTINUOUS
10
133.04351699999998
20
-89.4823760000000021
11
133.051415999999989
21
-89.4771319999999974
0
LINE
8
BLACK
6
CONTINUOUS
10
133.051415999999989
20
-89.4771319999999974
11
133.0592649999999821
21
-89.4718459999999993
0
LINE
8
BLACK
6
CONTINUOUS
10
133.0592649999999821
20
-89.4718459999999993
11
133.0594769999999869
21
-89.4717799999999954
0
LINE
8
BLACK
6
CONTINUOUS
10
133.0594769999999869
20
-89.4717799999999954
11
133.0598489999999856
21
-89.4715339999999912
0
LINE
8
BLACK
6
CONTINUOUS
10
133.0598489999999856
20
-89.4715339999999912
11
133.3368319999999869
21
-89.3245359999999948
0
LINE
8
BLACK
6
CONTINUOUS
10
133.3368319999999869
20
-89.3245359999999948
11
133.3375479999999982
21
-89.3242410000000007
0
LINE
8
BLACK
6
CONTINUOUS
10
133.3375479999999982
20
-89.3242410000000007
11
133.3378469999999822
21
-89.3240040000000022
0
LINE
8
BLACK
6
CONTINUOUS
10
133.3378469999999822
20
-89.3240040000000022
11
133.3464390000000037
21
-89.3205889999999982
0
LINE
8
BLACK
6
CONTINUOUS
10
133.3464390000000037
20
-89.3205889999999982
11
133.3549649999999929
21
-89.3170870000000008
0
LINE
8
BLACK
6
CONTINUOUS
10
133.3549649999999929
20
-89.3170870000000008
11
133.3553430000000048
21
-89.3170499999999947
0
LINE
8
BLACK
6
CONTINUOUS
10
133.3553430000000048
20
-89.3170499999999947
11
133.356065000000001
21
-89.3167639999999921
0
LINE
8
BLACK
6
CONTINUOUS
10
133.356065000000001
20
-89.3167639999999921
11
133.6654749999999865
21
-89.2277589999999918
0
LINE
8
BLACK
6
CONTINUOUS
10
133.6654749999999865
20
-89.2277589999999918
11
133.6751040000000046
21
-89.2259869999999893
0
LINE
8
BLACK
6
CONTINUOUS
10
133.6751040000000046
20
-89.2259869999999893
11
133.6844499999999982
21
-89.2242389999999972
0
LINE
8
BLACK
6
CONTINUOUS
10
133.6844499999999982
20
-89.2242389999999972
11
133.6847499999999798
21
-89.2242119999999943
0
LINE
8
BLACK
6
CONTINUOUS
10
133.6847499999999798
20
-89.2242119999999943
11
133.6847549999999956
21
-89.2242119999999943
0
LINE
8
BLACK
6
CONTINUOUS
10
133.6847549999999956
20
-89.2242119999999943
11
133.6847569999999905
21
-89.2242119999999943
0
LINE
8
BLACK
6
CONTINUOUS
10
133.6847569999999905
20
-89.2242119999999943
11
134.0269749999999931
21
-89.1944289999999995
0
LINE
8
BLACK
6
CONTINUOUS
10
134.0269749999999931
20
-89.1944289999999995
11
134.0313160000000039
21
-89.1944779999999895
0
LINE
8
BLACK
6
CONTINUOUS
10
134.0313160000000039
20
-89.1944779999999895
11
134.0356449999999882
21
-89.1940519999999992
0
LINE
8
BLACK
6
CONTINUOUS
10
134.0356449999999882
20
-89.1940519999999992
11
153.9683499999999867
21
-89.1940519999999992
0
LINE
8
BLACK
6
CONTINUOUS
10
153.9683499999999867
20
-89.1940519999999992
11
153.9713909999999828
21
-89.1943509999999975
0
LINE
8
BLACK
6
CONTINUOUS
10
153.9713909999999828
20
-89.1943509999999975
11
153.9744429999999795
21
-89.1942379999999986
0
LINE
8
BLACK
6
CONTINUOUS
10
153.9744429999999795
20
-89.1942379999999986
11
154.4137819999999977
21
-89.2210579999999993
0
LINE
8
BLACK
6
CONTINUOUS
10
154.4137819999999977
20
-89.2210579999999993
11
154.420299
21
-89.2221029999999899
0
LINE
8
BLACK
6
CONTINUOUS
10
154.420299
20
-89.2221029999999899
11
154.4268759999999929
21
-89.2227299999999985
0
LINE
8
BLACK
6
CONTINUOUS
10
154.4268759999999929
20
-89.2227299999999985
11
154.8332399999999893
21
-89.3021770000000004
0
LINE
8
BLACK
6
CONTINUOUS
10
154.8332399999999893
20
-89.3021770000000004
11
154.8399229999999989
21
-89.3041800000000023
0
LINE
8
BLACK
6
CONTINUOUS
10
154.8399229999999989
20
-89.3041800000000023
11
154.8467069999999808
21
-89.3058010000000024
0
LINE
8
BLACK
6
CONTINUOUS
10
154.8467069999999808
20
-89.3058010000000024
11
155.2212179999999933
21
-89.4351849999999899
0
LINE
8
BLACK
6
CONTINUOUS
10
155.2212179999999933
20
-89.4351849999999899
11
155.2275239999999883
21
-89.4380829999999918
0
LINE
8
BLACK
6
CONTINUOUS
10
155.2275239999999883
20
-89.4380829999999918
11
155.2339929999999981
21
-89.4406180000000006
0
LINE
8
BLACK
6
CONTINUOUS
10
155.2339929999999981
20
-89.4406180000000006
11
155.5781379999999956
21
-89.6161139999999961
0
LINE
8
BLACK
6
CONTINUOUS
10
155.5781379999999956
20
-89.6161139999999961
11
155.5836689999999862
21
-89.6196569999999895
0
LINE
8
BLACK
6
CONTINUOUS
10
155.5836689999999862
20
-89.6196569999999895
11
155.5894239999999797
21
-89.6228380000000016
0
LINE
8
BLACK
6
CONTINUOUS
10
155.5894239999999797
20
-89.6228380000000016
11
155.90476799999999
21
-89.8399869999999936
0
LINE
8
BLACK
6
CONTINUOUS
10
155.90476799999999
20
-89.8399869999999936
11
155.9093440000000044
21
-89.8438510000000008
0
LINE
8
BLACK
6
CONTINUOUS
10
155.9093440000000044
20
-89.8438510000000008
11
155.9142070000000047
21
-89.8473570000000024
0
LINE
8
BLACK
6
CONTINUOUS
10
155.9142070000000047
20
-89.8473570000000024
11
156.202196999999984
21
-90.1014089999999896
0
LINE
8
BLACK
6
CONTINUOUS
10
156.202196999999984
20
-90.1014089999999896
11
156.2074739999999906
21
-90.1070759999999922
0
LINE
8
BLACK
6
CONTINUOUS
10
156.2074739999999906
20
-90.1070759999999922
11
156.2129620000000045
21
-90.1124989999999997
0
LINE
8
BLACK
6
CONTINUOUS
10
156.2129620000000045
20
-90.1124989999999997
11
156.711275999999998
21
-90.7123279999999994
0
LINE
8
BLACK
6
CONTINUOUS
10
156.711275999999998
20
-90.7123279999999994
11
156.7160930000000008
21
-90.7194449999999932
0
LINE
8
BLACK
6
CONTINUOUS
10
156.7160930000000008
20
-90.7194449999999932
11
156.7210819999999956
21
-90.7264429999999891
0
LINE
8
BLACK
6
CONTINUOUS
10
156.7210819999999956
20
-90.7264429999999891
11
157.1190279999999859
21
-91.4196620000000024
0
LINE
8
BLACK
6
CONTINUOUS
10
157.1190279999999859
20
-91.4196620000000024
11
157.1220989999999915
21
-91.4264840000000021
0
LINE
8
BLACK
6
CONTINUOUS
10
157.1220989999999915
20
-91.4264840000000021
11
157.1254830000000027
21
-91.4331529999999901
0
LINE
8
BLACK
6
CONTINUOUS
10
157.1254830000000027
20
-91.4331529999999901
11
157.4206859999999892
21
-92.1910649999999947
0
LINE
8
BLACK
6
CONTINUOUS
10
157.4206859999999892
20
-92.1910649999999947
11
157.4226519999999994
21
-92.1980810000000019
0
LINE
8
BLACK
6
CONTINUOUS
10
157.4226519999999994
20
-92.1980810000000019
11
157.424966999999981
21
-92.2049749999999904
0
LINE
8
BLACK
6
CONTINUOUS
10
157.424966999999981
20
-92.2049749999999904
11
157.6091999999999871
21
-93.0071259999999995
0
LINE
8
BLACK
6
CONTINUOUS
10
157.6091999999999871
20
-93.0071259999999995
11
157.6101559999999893
21
-93.0145809999999926
0
LINE
8
BLACK
6
CONTINUOUS
10
157.6101559999999893
20
-93.0145809999999926
11
157.6114519999999857
21
-93.0219680000000011
0
LINE
8
BLACK
6
CONTINUOUS
10
157.6114519999999857
20
-93.0219680000000011
11
157.6745630000000062
21
-93.8564229999999924
0
LINE
8
BLACK
6
CONTINUOUS
10
157.6745630000000062
20
-93.8564229999999924
11
157.674476999999996
21
-93.8602009999999893
0
LINE
8
BLACK
6
CONTINUOUS
10
157.674476999999996
20
-93.8602009999999893
11
157.6748479999999972
21
-93.8639649999999932
0
LINE
8
BLACK
6
CONTINUOUS
10
157.6748479999999972
20
-93.8639649999999932
11
157.6748479999999972
21
-104.0135870000000011
0
LINE
8
BLACK
6
CONTINUOUS
10
157.6748479999999972
20
-104.0135870000000011
11
157.6965720000000033
21
-104.4158199999999965
0
LINE
8
BLACK
6
CONTINUOUS
10
157.6965720000000033
20
-104.4158199999999965
11
157.7603049999999882
21
-104.7860060000000004
0
LINE
8
BLACK
6
CONTINUOUS
10
157.7603049999999882
20
-104.7860060000000004
11
157.8639929999999936
21
-105.1282879999999977
0
LINE
8
BLACK
6
CONTINUOUS
10
157.8639929999999936
20
-105.1282879999999977
11
158.0048909999999864
21
-105.4445529999999991
0
LINE
8
BLACK
6
CONTINUOUS
10
158.0048909999999864
20
-105.4445529999999991
11
158.1800199999999847
21
-105.7364740000000012
0
LINE
8
BLACK
6
CONTINUOUS
10
158.1800199999999847
20
-105.7364740000000012
11
158.3848129999999799
21
-106.0033789999999954
0
LINE
8
BLACK
6
CONTINUOUS
10
158.3848129999999799
20
-106.0033789999999954
11
158.8803589999999986
21
-106.476231999999996
0
LINE
8
BLACK
6
CONTINUOUS
10
158.8803589999999986
20
-106.476231999999996
11
159.4628669999999886
21
-106.8575280000000021
0
LINE
8
BLACK
6
CONTINUOUS
10
159.4628669999999886
20
-106.8575280000000021
11
160.1162809999999865
21
-107.1430739999999986
0
LINE
8
BLACK
6
CONTINUOUS
10
160.1162809999999865
20
-107.1430739999999986
11
160.8295459999999935
21
-107.3223319999999887
0
LINE
8
BLACK
6
CONTINUOUS
10
160.8295459999999935
20
-107.3223319999999887
11
161.6025239999999883
21
-107.3843009999999936
0
LINE
8
BLACK
6
CONTINUOUS
10
161.6025239999999883
20
-107.3843009999999936
11
172.4683499999999867
21
-107.3843009999999936
0
LINE
8
BLACK
6
CONTINUOUS
10
172.4683499999999867
20
-107.3843009999999936
11
172.469885000000005
21
-107.384451999999996
0
LINE
8
BLACK
6
CONTINUOUS
10
172.469885000000005
20
-107.384451999999996
11
172.471429999999998
21
-107.3843479999999886
0
LINE
8
BLACK
6
CONTINUOUS
10
172.471429999999998
20
-107.3843479999999886
11
173.8160649999999805
21
-107.4257889999999946
0
LINE
8
BLACK
6
CONTINUOUS
10
173.8160649999999805
20
-107.4257889999999946
11
173.8189600000000041
21
-107.426164
0
LINE
8
BLACK
6
CONTINUOUS
10
173.8189600000000041
20
-107.426164
11
173.8218760000000032
21
-107.4261379999999946
0
LINE
8
BLACK
6
CONTINUOUS
10
173.8218760000000032
20
-107.4261379999999946
11
175.1553109999999833
21
-107.5451639999999998
0
LINE
8
BLACK
6
CONTINUOUS
10
175.1553109999999833
20
-107.5451639999999998
11
175.1577409999999873
21
-107.5456239999999895
0
LINE
8
BLACK
6
CONTINUOUS
10
175.1577409999999873
20
-107.5456239999999895
11
175.1602139999999963
21
-107.5457239999999928
0
LINE
8
BLACK
6
CONTINUOUS
10
175.1602139999999963
20
-107.5457239999999928
11
176.4841509999999971
21
-107.7301119999999912
0
LINE
8
BLACK
6
CONTINUOUS
10
176.4841509999999971
20
-107.7301119999999912
11
176.4860410000000002
21
-107.7305669999999935
0
LINE
8
BLACK
6
CONTINUOUS
10
176.4860410000000002
20
-107.7305669999999935
11
176.4879770000000008
21
-107.7307209999999884
0
LINE
8
BLACK
6
CONTINUOUS
10
176.4879770000000008
20
-107.7307209999999884
11
177.8043569999999818
21
-107.966354999999993
0
LINE
8
BLACK
6
CONTINUOUS
10
177.8043569999999818
20
-107.966354999999993
11
177.806256999999988
21
-107.9668909999999897
0
LINE
8
BLACK
6
CONTINUOUS
10
177.806256999999988
20
-107.9668909999999897
11
177.808226999999988
21
-107.9671259999999933
0
LINE
8
BLACK
6
CONTINUOUS
10
177.808226999999988
20
-107.9671259999999933
11
180.424902000000003
21
-108.5428939999999898
0
LINE
8
BLACK
6
CONTINUOUS
10
180.424902000000003
20
-108.5428939999999898
11
180.4264660000000049
21
-108.5434029999999979
0
LINE
8
BLACK
6
CONTINUOUS
10
180.4264660000000049
20
-108.5434029999999979
11
180.4280909999999949
21
-108.543650999999997
0
LINE
8
BLACK
6
CONTINUOUS
10
180.4280909999999949
20
-108.543650999999997
11
183.0299389999999846
21
-109.2062509999999946
0
LINE
8
BLACK
6
CONTINUOUS
10
183.0299389999999846
20
-109.2062509999999946
11
183.0305239999999856
21
-109.2064629999999994
0
LINE
8
BLACK
6
CONTINUOUS
10
183.0305239999999856
20
-109.2064629999999994
11
183.0311419999999885
21
-109.2065649999999977
0
LINE
8
BLACK
6
CONTINUOUS
10
183.0311419999999885
20
-109.2065649999999977
11
192.4153769999999781
21
-111.7210669999999908
0
LINE
8
BLACK
6
CONTINUOUS
10
192.4153769999999781
20
-111.7210669999999908
11
192.4184729999999774
21
-111.7222319999999911
0
LINE
8
BLACK
6
CONTINUOUS
10
192.4184729999999774
20
-111.7222319999999911
11
192.4216849999999965
21
-111.7229829999999993
0
LINE
8
BLACK
6
CONTINUOUS
10
192.4216849999999965
20
-111.7229829999999993
11
193.6859999999999786
21
-112.1528459999999967
0
LINE
8
BLACK
6
CONTINUOUS
10
193.6859999999999786
20
-112.1528459999999967
11
193.6908479999999884
21
-112.1550450000000012
0
LINE
8
BLACK
6
CONTINUOUS
10
193.6908479999999884
20
-112.1550450000000012
11
193.6958750000000009
21
-112.1568010000000015
0
LINE
8
BLACK
6
CONTINUOUS
10
193.6958750000000009
20
-112.1568010000000015
11
194.9027749999999912
21
-112.716399999999993
0
LINE
8
BLACK
6
CONTINUOUS
10
194.9027749999999912
20
-112.716399999999993
11
194.9058379999999886
21
-112.7182040000000001
0
LINE
8
BLACK
6
CONTINUOUS
10
194.9058379999999886
20
-112.7182040000000001
11
194.9091080000000034
21
-112.7196139999999929
0
LINE
8
BLACK
6
CONTINUOUS
10
194.9091080000000034
20
-112.7196139999999929
11
197.2459199999999839
21
-114.0120289999999983
0
LINE
8
BLACK
6
CONTINUOUS
10
197.2459199999999839
20
-114.0120289999999983
11
197.2466799999999978
21
-114.0125529999999969
0
LINE
8
BLACK
6
CONTINUOUS
10
197.2466799999999978
20
-114.0125529999999969
11
197.2475209999999777
21
-114.0129340000000013
0
LINE
8
BLACK
6
CONTINUOUS
10
197.2475209999999777
20
-114.0129340000000013
11
209.1944609999999898
21
-120.9103789999999918
0
LINE
8
BLACK
6
CONTINUOUS
10
209.1944609999999898
20
-120.9103789999999918
11
209.6694909999999936
21
-121.12544299999999
0
LINE
8
BLACK
6
CONTINUOUS
10
209.6694909999999936
20
-121.12544299999999
11
210.1424109999999814
21
-121.2295850000000002
0
LINE
8
BLACK
6
CONTINUOUS
10
210.1424109999999814
20
-121.2295850000000002
11
210.6139100000000042
21
-121.2365059999999914
0
LINE
8
BLACK
6
CONTINUOUS
10
210.6139100000000042
20
-121.2365059999999914
11
211.0757069999999942
21
-121.1562649999999906
0
LINE
8
BLACK
6
CONTINUOUS
10
211.0757069999999942
20
-121.1562649999999906
11
211.5157529999999895
21
-120.9948610000000002
0
LINE
8
BLACK
6
CONTINUOUS
10
211.5157529999999895
20
-120.9948610000000002
11
211.9206269999999961
21
-120.7531189999999981
0
LINE
8
BLACK
6
CONTINUOUS
10
211.9206269999999961
20
-120.7531189999999981
11
212.2781179999999779
21
-120.4264739999999989
0
LINE
8
BLACK
6
CONTINUOUS
10
212.2781179999999779
20
-120.4264739999999989
11
212.5819740000000024
21
-120.0027180000000016
0
LINE
8
BLACK
6
CONTINUOUS
10
212.5819740000000024
20
-120.0027180000000016
11
219.4787189999999839
21
-108.0576859999999897
0
LINE
8
BLACK
6
CONTINUOUS
10
219.4787189999999839
20
-108.0576859999999897
11
219.7289409999999918
21
-107.5828509999999909
0
LINE
8
BLACK
6
CONTINUOUS
10
219.7289409999999918
20
-107.5828509999999909
11
219.9660189999999886
21
-107.0486729999999937
0
LINE
8
BLACK
6
CONTINUOUS
10
219.9660189999999886
20
-107.0486729999999937
11
220.191063999999983
21
-106.454747999999995
0
LINE
8
BLACK
6
CONTINUOUS
10
220.191063999999983
20
-106.454747999999995
11
220.404516000000001
21
-105.8033509999999922
0
LINE
8
BLACK
6
CONTINUOUS
10
220.404516000000001
20
-105.8033509999999922
11
220.6070679999999982
21
-105.0975309999999894
0
LINE
8
BLACK
6
CONTINUOUS
10
220.6070679999999982
20
-105.0975309999999894
11
220.7995559999999955
21
-104.3413409999999999
0
LINE
8
BLACK
6
CONTINUOUS
10
220.7995559999999955
20
-104.3413409999999999
11
221.1597950000000026
21
-102.6920920000000024
0
LINE
8
BLACK
6
CONTINUOUS
10
221.1597950000000026
20
-102.6920920000000024
11
221.495886999999982
21
-100.8959029999999899
0
LINE
8
BLACK
6
CONTINUOUS
10
221.495886999999982
20
-100.8959029999999899
11
221.8213409999999897
21
-98.9957039999999893
0
LINE
8
BLACK
6
CONTINUOUS
10
221.8213409999999897
20
-98.9957039999999893
11
221.8213739999999916
21
-98.9955819999999989
0
LINE
8
BLACK
6
CONTINUOUS
10
221.8213739999999916
20
-98.9955819999999989
11
221.8213829999999973
21
-98.9954649999999958
0
LINE
8
BLACK
6
CONTINUOUS
10
221.8213829999999973
20
-98.9954649999999958
11
222.5016279999999824
21
-95.0809589999999929
0
LINE
8
BLACK
6
CONTINUOUS
10
222.5016279999999824
20
-95.0809589999999929
11
222.5020119999999793
21
-95.0795699999999897
0
LINE
8
BLACK
6
CONTINUOUS
10
222.5020119999999793
20
-95.0795699999999897
11
222.5021600000000035
21
-95.0781379999999956
0
LINE
8
BLACK
6
CONTINUOUS
10
222.5021600000000035
20
-95.0781379999999956
11
222.8908029999999769
21
-93.1682899999999989
0
LINE
8
BLACK
6
CONTINUOUS
10
222.8908029999999769
20
-93.1682899999999989
11
222.8914039999999943
21
-93.1663379999999961
0
LINE
8
BLACK
6
CONTINUOUS
10
222.8914039999999943
20
-93.1663379999999961
11
222.891695999999996
21
-93.1643179999999944
0
LINE
8
BLACK
6
CONTINUOUS
10
222.891695999999996
20
-93.1643179999999944
11
223.3366969999999867
21
-91.3573559999999958
0
LINE
8
BLACK
6
CONTINUOUS
10
223.3366969999999867
20
-91.3573559999999958
11
223.3374419999999816
21
-91.3552469999999914
0
LINE
8
BLACK
6
CONTINUOUS
10
223.3374419999999816
20
-91.3552469999999914
11
223.3378589999999804
21
-91.3530549999999977
0
LINE
8
BLACK
6
CONTINUOUS
10
223.3378589999999804
20
-91.3530549999999977
11
223.5872829999999851
21
-90.504934999999989
0
LINE
8
BLACK
6
CONTINUOUS
10
223.5872829999999851
20
-90.504934999999989
11
223.5880169999999794
21
-90.5031169999999889
0
LINE
8
BLACK
6
CONTINUOUS
10
223.5880169999999794
20
-90.5031169999999889
11
223.5884590000000003
21
-90.5012069999999937
0
LINE
8
BLACK
6
CONTINUOUS
10
223.5884590000000003
20
-90.5012069999999937
11
223.8589249999999993
21
-89.6988240000000019
0
LINE
8
BLACK
6
CONTINUOUS
10
223.8589249999999993
20
-89.6988240000000019
11
223.8599150000000009
21
-89.6966249999999974
0
LINE
8
BLACK
6
CONTINUOUS
10
223.8599150000000009
20
-89.6966249999999974
11
223.8605719999999906
21
-89.6942999999999984
0
LINE
8
BLACK
6
CONTINUOUS
10
223.8605719999999906
20
-89.6942999999999984
11
224.1543659999999818
21
-88.9441079999999999
0
LINE
8
BLACK
6
CONTINUOUS
10
224.1543659999999818
20
-88.9441079999999999
11
224.1557119999999941
21
-88.9414649999999938
0
LINE
8
BLACK
6
CONTINUOUS
10
224.1557119999999941
20
-88.9414649999999938
11
224.1566880000000026
21
-88.9386590000000012
0
LINE
8
BLACK
6
CONTINUOUS
10
224.1566880000000026
20
-88.9386590000000012
11
224.4760449999999992
21
-88.2469079999999906
0
LINE
8
BLACK
6
CONTINUOUS
10
224.4760449999999992
20
-88.2469079999999906
11
224.4778909999999996
21
-88.2437609999999921
0
LINE
8
BLACK
6
CONTINUOUS
10
224.4778909999999996
20
-88.2437609999999921
11
224.4793359999999893
21
-88.2404119999999921
0
LINE
8
BLACK
6
CONTINUOUS
10
224.4793359999999893
20
-88.2404119999999921
11
224.8264099999999814
21
-87.6130899999999997
0
LINE
8
BLACK
6
CONTINUOUS
10
224.8264099999999814
20
-87.6130899999999997
11
224.8289489999999944
21
-87.6094049999999953
0
LINE
8
BLACK
6
CONTINUOUS
10
224.8289489999999944
20
-87.6094049999999953
11
224.8310759999999959
21
-87.6054809999999975
0
LINE
8
BLACK
6
CONTINUOUS
10
224.8310759999999959
20
-87.6054809999999975
11
225.2079219999999964
21
-87.0482509999999934
0
LINE
8
BLACK
6
CONTINUOUS
10
225.2079219999999964
20
-87.0482509999999934
11
225.2113909999999919
21
-87.0440710000000024
0
LINE
8
BLACK
6
CONTINUOUS
10
225.2113909999999919
20
-87.0440710000000024
11
225.2144830000000013
21
-87.0396009999999904
0
LINE
8
BLACK
6
CONTINUOUS
10
225.2144830000000013
20
-87.0396009999999904
11
225.6230339999999899
21
-86.5577490000000012
0
LINE
8
BLACK
6
CONTINUOUS
10
225.6230339999999899
20
-86.5577490000000012
11
225.6277010000000018
21
-86.5532279999999901
0
LINE
8
BLACK
6
CONTINUOUS
10
225.6277010000000018
20
-86.5532279999999901
11
225.6320570000000032
21
-86.5484110000000015
0
LINE
8
BLACK
6
CONTINUOUS
10
225.6320570000000032
20
-86.5484110000000015
11
226.0740819999999758
21
-86.1467480000000023
0
LINE
8
BLACK
6
CONTINUOUS
10
226.0740819999999758
20
-86.1467480000000023
11
226.0801189999999963
21
-86.1422570000000007
0
LINE
8
BLACK
6
CONTINUOUS
10
226.0801189999999963
20
-86.1422570000000007
11
226.0859579999999767
21
-86.1374879999999905
0
LINE
8
BLACK
6
CONTINUOUS
10
226.0859579999999767
20
-86.1374879999999905
11
226.5630199999999945
21
-85.8202349999999967
0
LINE
8
BLACK
6
CONTINUOUS
10
226.5630199999999945
20
-85.8202349999999967
11
226.5703699999999969
21
-85.8163259999999894
0
LINE
8
BLACK
6
CONTINUOUS
10
226.5703699999999969
20
-85.8163259999999894
11
226.5776099999999929
21
-85.8121979999999951
0
LINE
8
BLACK
6
CONTINUOUS
10
226.5776099999999929
20
-85.8121979999999951
11
227.0910159999999962
21
-85.5828649999999982
0
LINE
8
BLACK
6
CONTINUOUS
10
227.0910159999999962
20
-85.5828649999999982
11
227.0992299999999773
21
-85.5801239999999979
0
LINE
8
BLACK
6
CONTINUOUS
10
227.0992299999999773
20
-85.5801239999999979
11
227.107371999999998
21
-85.5771999999999906
0
LINE
8
BLACK
6
CONTINUOUS
10
227.107371999999998
20
-85.5771999999999906
11
227.6581199999999967
21
-85.438453999999993
0
LINE
8
BLACK
6
CONTINUOUS
10
227.6581199999999967
20
-85.438453999999993
11
227.6664129999999773
21
-85.4372120000000024
0
LINE
8
BLACK
6
CONTINUOUS
10
227.6664129999999773
20
-85.4372120000000024
11
227.674683999999985
21
-85.4357339999999965
0
LINE
8
BLACK
6
CONTINUOUS
10
227.674683999999985
20
-85.4357339999999965
11
228.2634149999999806
21
-85.3892839999999893
0
LINE
8
BLACK
6
CONTINUOUS
10
228.2634149999999806
20
-85.3892839999999893
11
228.2673549999999807
21
-85.3893599999999964
0
LINE
8
BLACK
6
CONTINUOUS
10
228.2673549999999807
20
-85.3893599999999964
11
228.2712799999999902
21
-85.3889739999999904
0
LINE
8
BLACK
6
CONTINUOUS
10
228.2712799999999902
20
-85.3889739999999904
11
245.4707729999999799
21
-85.3889739999999904
0
LINE
8
BLACK
6
CONTINUOUS
10
245.4707729999999799
20
-85.3889739999999904
11
245.4707749999999749
21
-85.3889739999999904
0
LINE
8
BLACK
6
CONTINUOUS
10
245.4707749999999749
20
-85.3889739999999904
11
245.4707760000000007
21
-85.3889739999999904
0
LINE
8
BLACK
6
CONTINUOUS
10
245.4707760000000007
20
-85.3889739999999904
11
245.4707760000000007
21
-85.3889729999999929
0
LINE
8
BLACK
6
CONTINUOUS
10
245.4707760000000007
20
-85.3889729999999929
11
245.5594169999999963
21
-85.3889759999999995
0
LINE
8
BLACK
6
CONTINUOUS
10
245.5594169999999963
20
-85.3889759999999995
11
245.7332949999999983
21
-85.3543930000000017
0
LINE
8
BLACK
6
CONTINUOUS
10
245.7332949999999983
20
-85.3543930000000017
11
245.8970839999999782
21
-85.2865529999999978
0
LINE
8
BLACK
6
CONTINUOUS
10
245.8970839999999782
20
-85.2865529999999978
11
246.0444909999999936
21
-85.1880620000000022
0
LINE
8
BLACK
6
CONTINUOUS
10
246.0444909999999936
20
-85.1880620000000022
11
246.1698499999999967
21
-85.0627059999999915
0
LINE
8
BLACK
6
CONTINUOUS
10
246.1698499999999967
20
-85.0627059999999915
11
246.2683439999999848
21
-84.9153009999999995
0
LINE
8
BLACK
6
CONTINUOUS
10
246.2683439999999848
20
-84.9153009999999995
11
246.3361879999999928
21
-84.7515130000000028
0
LINE
8
BLACK
6
CONTINUOUS
10
246.3361879999999928
20
-84.7515130000000028
11
246.3707739999999831
21
-84.5776359999999983
0
LINE
8
BLACK
6
CONTINUOUS
10
246.3707739999999831
20
-84.5776359999999983
11
246.3707729999999856
21
-84.4889950000000027
0
LINE
8
BLACK
6
CONTINUOUS
10
246.3707729999999856
20
-84.4889950000000027
11
246.3707729999999856
21
-84.488993999999991
0
LINE
8
BLACK
6
CONTINUOUS
10
246.3707729999999856
20
-84.488993999999991
11
246.3707729999999856
21
-84.4889919999999961
0
LINE
8
BLACK
6
CONTINUOUS
10
246.3707729999999856
20
-84.4889919999999961
11
246.3716649999999788
21
-38.9911710000000014
0
LINE
8
BLACK
6
CONTINUOUS
10
246.3716649999999788
20
-38.9911710000000014
11
246.3631929999999954
21
-38.7953940000000017
0
LINE
8
BLACK
6
CONTINUOUS
10
246.3631929999999954
20
-38.7953940000000017
11
246.3106409999999755
21
-38.4028089999999978
0
LINE
8
BLACK
6
CONTINUOUS
10
246.3106409999999755
20
-38.4028089999999978
11
246.2230689999999811
21
-38.0165229999999994
0
LINE
8
BLACK
6
CONTINUOUS
10
246.2230689999999811
20
-38.0165229999999994
11
246.1011839999999893
21
-37.6396559999999951
0
LINE
8
BLACK
6
CONTINUOUS
10
246.1011839999999893
20
-37.6396559999999951
11
245.9459699999999884
21
-37.2752470000000002
0
LINE
8
BLACK
6
CONTINUOUS
10
245.9459699999999884
20
-37.2752470000000002
11
245.7586790000000008
21
-36.9262389999999954
0
LINE
8
BLACK
6
CONTINUOUS
10
245.7586790000000008
20
-36.9262389999999954
11
245.5408219999999915
21
-36.5954459999999955
0
LINE
8
BLACK
6
CONTINUOUS
10
245.5408219999999915
20
-36.5954459999999955
11
245.2941579999999817
21
-36.2855399999999975
0
LINE
8
BLACK
6
CONTINUOUS
10
245.2941579999999817
20
-36.2855399999999975
11
245.0206779999999753
21
-35.9990200000000016
0
LINE
8
BLACK
6
CONTINUOUS
10
245.0206779999999753
20
-35.9990200000000016
11
244.7225880000000018
21
-35.7381999999999991
0
LINE
8
BLACK
6
CONTINUOUS
10
244.7225880000000018
20
-35.7381999999999991
11
244.402292999999986
21
-35.5051839999999999
0
LINE
8
BLACK
6
CONTINUOUS
10
244.402292999999986
20
-35.5051839999999999
11
244.0623799999999903
21
-35.3018519999999967
0
LINE
8
BLACK
6
CONTINUOUS
10
244.0623799999999903
20
-35.3018519999999967
11
243.7055900000000008
21
-35.129844999999996
0
LINE
8
BLACK
6
CONTINUOUS
10
243.7055900000000008
20
-35.129844999999996
11
243.3348039999999912
21
-34.990552000000001
0
LINE
8
BLACK
6
CONTINUOUS
10
243.3348039999999912
20
-34.990552000000001
11
242.9530129999999986
21
-34.8850970000000018
0
LINE
8
BLACK
6
CONTINUOUS
10
242.9530129999999986
20
-34.8850970000000018
11
242.5632990000000007
21
-34.8143299999999982
0
LINE
8
BLACK
6
CONTINUOUS
10
242.5632990000000007
20
-34.8143299999999982
11
242.1688069999999868
21
-34.7788229999999956
0
LINE
8
BLACK
6
CONTINUOUS
10
242.1688069999999868
20
-34.7788229999999956
11
241.9707629999999767
21
-34.7788329999999988
0
LINE
8
BLACK
6
CONTINUOUS
10
241.9707629999999767
20
-34.7788329999999988
11
241.9707599999999843
21
-34.7788320000000013
0
LINE
8
BLACK
6
CONTINUOUS
10
241.9707599999999843
20
-34.7788320000000013
11
241.970753000000002
21
-34.7788329999999988
0
LINE
8
BLACK
6
CONTINUOUS
10
241.970753000000002
20
-34.7788329999999988
11
232.1167480000000012
21
-34.7788339999999963
0
LINE
8
BLACK
6
CONTINUOUS
10
232.1167480000000012
20
-34.7788339999999963
11
210.0205069999999807
21
-34.7788380000000004
0
LINE
8
BLACK
6
CONTINUOUS
10
210.0205069999999807
20
-34.7788380000000004
11
210.0165759999999864
21
-34.7784499999999994
0
LINE
8
BLACK
6
CONTINUOUS
10
210.0165759999999864
20
-34.7784499999999994
11
210.0126319999999964
21
-34.7785269999999969
0
LINE
8
BLACK
6
CONTINUOUS
10
210.0126319999999964
20
-34.7785269999999969
11
209.3385669999999834
21
-34.7252799999999979
0
LINE
8
BLACK
6
CONTINUOUS
10
209.3385669999999834
20
-34.7252799999999979
11
209.3313789999999983
21
-34.7239939999999976
0
LINE
8
BLACK
6
CONTINUOUS
10
209.3313789999999983
20
-34.7239939999999976
11
209.3241199999999935
21
-34.7230679999999978
0
LINE
8
BLACK
6
CONTINUOUS
10
209.3241199999999935
20
-34.7230679999999978
11
208.6714470000000006
21
-34.5736020000000011
0
LINE
8
BLACK
6
CONTINUOUS
10
208.6714470000000006
20
-34.5736020000000011
11
208.6650269999999807
21
-34.5714509999999962
0
LINE
8
BLACK
6
CONTINUOUS
10
208.6650269999999807
20
-34.5714509999999962
11
208.6584929999999929
21
-34.5696960000000004
0
LINE
8
BLACK
6
CONTINUOUS
10
208.6584929999999929
20
-34.5696960000000004
11
207.3927789999999902
21
-34.0925129999999967
0
LINE
8
BLACK
6
CONTINUOUS
10
207.3927789999999902
20
-34.0925129999999967
11
206.1334119999999928
21
-33.6177220000000005
0
LINE
8
BLACK
6
CONTINUOUS
10
206.1334119999999928
20
-33.6177220000000005
11
205.4944839999999999
21
-33.4714039999999997
0
LINE
8
BLACK
6
CONTINUOUS
10
205.4944839999999999
20
-33.4714039999999997
11
204.8316669999999817
21
-33.4190460000000016
0
LINE
8
BLACK
6
CONTINUOUS
10
204.8316669999999817
20
-33.4190460000000016
11
191.0355309999999918
21
-33.4190460000000016
0
LINE
8
BLACK
6
CONTINUOUS
10
191.0355309999999918
20
-33.4190460000000016
11
191.0322309999999959
21
-33.4187209999999979
0
LINE
8
BLACK
6
CONTINUOUS
10
191.0322309999999959
20
-33.4187209999999979
11
191.0289209999999969
21
-33.4188270000000003
0
LINE
8
BLACK
6
CONTINUOUS
10
191.0289209999999969
20
-33.4188270000000003
11
190.6507389999999873
21
-33.3937729999999959
0
LINE
8
BLACK
6
CONTINUOUS
10
190.6507389999999873
20
-33.3937729999999959
11
190.6439949999999897
21
-33.3926549999999978
0
LINE
8
BLACK
6
CONTINUOUS
10
190.6439949999999897
20
-33.3926549999999978
11
190.6371879999999805
21
-33.3919390000000007
0
LINE
8
BLACK
6
CONTINUOUS
10
190.6371879999999805
20
-33.3919390000000007
11
190.2785439999999824
21
-33.3181170000000009
0
LINE
8
BLACK
6
CONTINUOUS
10
190.2785439999999824
20
-33.3181170000000009
11
190.2693170000000009
21
-33.3152509999999964
0
LINE
8
BLACK
6
CONTINUOUS
10
190.2693170000000009
20
-33.3152509999999964
11
190.260200999999995
21
-33.3124600000000015
0
LINE
8
BLACK
6
CONTINUOUS
10
190.260200999999995
20
-33.3124600000000015
11
189.5949579999999912
21
-33.034914999999998
0
LINE
8
BLACK
6
CONTINUOUS
10
189.5949579999999912
20
-33.034914999999998
11
189.5864899999999977
21
-33.0303609999999992
0
LINE
8
BLACK
6
CONTINUOUS
10
189.5864899999999977
20
-33.0303609999999992
11
189.5779699999999934
21
-33.0258150000000015
0
LINE
8
BLACK
6
CONTINUOUS
10
189.5779699999999934
20
-33.0258150000000015
11
188.9652739999999937
21
-32.6171149999999983
0
LINE
8
BLACK
6
CONTINUOUS
10
188.9652739999999937
20
-32.6171149999999983
11
188.9615569999999991
21
-32.6140699999999981
0
LINE
8
BLACK
6
CONTINUOUS
10
188.9615569999999991
20
-32.6140699999999981
11
188.9575529999999901
21
-32.6114109999999968
0
LINE
8
BLACK
6
CONTINUOUS
10
188.9575529999999901
20
-32.6114109999999968
11
188.3723739999999793
21
-32.1340250000000012
0
LINE
8
BLACK
6
CONTINUOUS
10
188.3723739999999793
20
-32.1340250000000012
11
187.7909219999999948
21
-31.659678999999997
0
LINE
8
BLACK
6
CONTINUOUS
10
187.7909219999999948
20
-31.659678999999997
11
187.1902749999999855
21
-31.259013999999997
0
LINE
8
BLACK
6
CONTINUOUS
10
187.1902749999999855
20
-31.259013999999997
11
186.5428660000000036
21
-30.9889099999999971
0
LINE
8
BLACK
6
CONTINUOUS
10
186.5428660000000036
20
-30.9889099999999971
11
186.2003719999999873
21
-30.918412
0
LINE
8
BLACK
6
CONTINUOUS
10
186.2003719999999873
20
-30.918412
11
185.8323389999999904
21
-30.8940319999999993
0
LINE
8
BLACK
6
CONTINUOUS
10
185.8323389999999904
20
-30.8940319999999993
11
172.0355689999999811
21
-30.8940319999999993
0
LINE
8
BLACK
6
CONTINUOUS
10
172.0355689999999811
20
-30.8940319999999993
11
172.0309269999999913
21
-30.8935739999999974
0
LINE
8
BLACK
6
CONTINUOUS
10
172.0309269999999913
20
-30.8935739999999974
11
172.0262659999999926
21
-30.8935979999999972
0
LINE
8
BLACK
6
CONTINUOUS
10
172.0262659999999926
20
-30.8935979999999972
11
171.5404199999999832
21
-30.8482039999999991
0
LINE
8
BLACK
6
CONTINUOUS
10
171.5404199999999832
20
-30.8482039999999991
11
171.5394459999999981
21
-30.8480150000000002
0
LINE
8
BLACK
6
CONTINUOUS
10
171.5394459999999981
20
-30.8480150000000002
11
171.5389669999999853
21
-30.8480579999999982
0
LINE
8
BLACK
6
CONTINUOUS
10
171.5389669999999853
20
-30.8480579999999982
11
171.5300949999999887
21
-30.8462040000000002
0
LINE
8
BLACK
6
CONTINUOUS
10
171.5300949999999887
20
-30.8462040000000002
11
171.5211749999999995
21
-30.8444769999999977
0
LINE
8
BLACK
6
CONTINUOUS
10
171.5211749999999995
20
-30.8444769999999977
11
171.5207479999999975
21
-30.8442509999999999
0
LINE
8
BLACK
6
CONTINUOUS
10
171.5207479999999975
20
-30.8442509999999999
11
171.5197780000000023
21
-30.8440489999999983
0
LINE
8
BLACK
6
CONTINUOUS
10
171.5197780000000023
20
-30.8440489999999983
11
171.0935910000000035
21
-30.710290999999998
0
LINE
8
BLACK
6
CONTINUOUS
10
171.0935910000000035
20
-30.710290999999998
11
171.0919639999999902
21
-30.7095989999999972
0
LINE
8
BLACK
6
CONTINUOUS
10
171.0919639999999902
20
-30.7095989999999972
11
171.0911449999999832
21
-30.7094889999999978
0
LINE
8
BLACK
6
CONTINUOUS
10
171.0911449999999832
20
-30.7094889999999978
11
171.0834040000000016
21
-30.7059569999999979
0
LINE
8
BLACK
6
CONTINUOUS
10
171.0834040000000016
20
-30.7059569999999979
11
171.0755529999999851
21
-30.702617
0
LINE
8
BLACK
6
CONTINUOUS
10
171.0755529999999851
20
-30.702617
11
171.0749169999999992
21
-30.7020839999999993
0
LINE
8
BLACK
6
CONTINUOUS
10
171.0749169999999992
20
-30.7020839999999993
11
171.0733109999999897
21
-30.701352
0
LINE
8
BLACK
6
CONTINUOUS
10
171.0733109999999897
20
-30.701352
11
170.7023069999999905
21
-30.4858639999999994
0
LINE
8
BLACK
6
CONTINUOUS
10
170.7023069999999905
20
-30.4858639999999994
11
170.7020109999999988
21
-30.4856509999999972
0
LINE
8
BLACK
6
CONTINUOUS
10
170.7020109999999988
20
-30.4856509999999972
11
170.7018389999999783
21
-30.4855909999999994
0
LINE
8
BLACK
6
CONTINUOUS
10
170.7018389999999783
20
-30.4855909999999994
11
170.6941589999999849
21
-30.4799930000000003
0
LINE
8
BLACK
6
CONTINUOUS
10
170.6941589999999849
20
-30.4799930000000003
11
170.6864019999999869
21
-30.4744049999999973
0
LINE
8
BLACK
6
CONTINUOUS
10
170.6864019999999869
20
-30.4744049999999973
11
170.6862899999999854
21
-30.474257999999999
0
LINE
8
BLACK
6
CONTINUOUS
10
170.6862899999999854
20
-30.474257999999999
11
170.6859969999999862
21
-30.4740450000000003
0
LINE
8
BLACK
6
CONTINUOUS
10
170.6859969999999862
20
-30.4740450000000003
11
170.3635400000000004
21
-30.1866519999999987
0
LINE
8
BLACK
6
CONTINUOUS
10
170.3635400000000004
20
-30.1866519999999987
11
170.3581029999999998
21
-30.1807540000000003
0
LINE
8
BLACK
6
CONTINUOUS
10
170.3581029999999998
20
-30.1807540000000003
11
170.3524599999999793
21
-30.1750539999999994
0
LINE
8
BLACK
6
CONTINUOUS
10
170.3524599999999793
20
-30.1750539999999994
11
170.0703879999999799
21
-29.8278479999999995
0
LINE
8
BLACK
6
CONTINUOUS
10
170.0703879999999799
20
-29.8278479999999995
11
170.0672339999999849
21
-29.8230769999999978
0
LINE
8
BLACK
6
CONTINUOUS
10
170.0672339999999849
20
-29.8230769999999978
11
170.063699999999983
21
-29.8185799999999972
0
LINE
8
BLACK
6
CONTINUOUS
10
170.063699999999983
20
-29.8185799999999972
11
169.8127580000000023
21
-29.4252649999999996
0
LINE
8
BLACK
6
CONTINUOUS
10
169.8127580000000023
20
-29.4252649999999996
11
169.8107369999999889
21
-29.4212849999999975
0
LINE
8
BLACK
6
CONTINUOUS
10
169.8107369999999889
20
-29.4212849999999975
11
169.8083059999999875
21
-29.4175489999999975
0
LINE
8
BLACK
6
CONTINUOUS
10
169.8083059999999875
20
-29.4175489999999975
11
169.3593159999999784
21
-28.5525789999999979
0
LINE
8
BLACK
6
CONTINUOUS
10
169.3593159999999784
20
-28.5525789999999979
11
168.9123819999999796
21
-27.6915680000000002
0
LINE
8
BLACK
6
CONTINUOUS
10
168.9123819999999796
20
-27.6915680000000002
11
168.6669149999999888
21
-27.3068339999999985
0
LINE
8
BLACK
6
CONTINUOUS
10
168.6669149999999888
20
-27.3068339999999985
11
168.3935249999999826
21
-26.9703139999999983
0
LINE
8
BLACK
6
CONTINUOUS
10
168.3935249999999826
20
-26.9703139999999983
11
168.0846319999999992
21
-26.6950109999999974
0
LINE
8
BLACK
6
CONTINUOUS
10
168.0846319999999992
20
-26.6950109999999974
11
167.7320229999999981
21
-26.4902079999999991
0
LINE
8
BLACK
6
CONTINUOUS
10
167.7320229999999981
20
-26.4902079999999991
11
167.3265749999999912
21
-26.362959
0
LINE
8
BLACK
6
CONTINUOUS
10
167.3265749999999912
20
-26.362959
11
166.8559149999999818
21
-26.3189840000000004
0
LINE
8
BLACK
6
CONTINUOUS
10
166.8559149999999818
20
-26.3189840000000004
11
134.9739959999999996
21
-26.3189840000000004
0
CIRCLE
8
BLACK
10
135.5138079999999832
20
-30.6524999999999999
40
0.25
0
CIRCLE
8
BLACK
10
136.1069169999999815
20
-29.2206089999999996
40
0.25
0
CIRCLE
8
BLACK
10
136.1069169999999815
20
-32.0843909999999966
40
0.25
0
CIRCLE
8
BLACK
10
137.5388079999999889
20
-28.6274999999999977
40
0.25
0
CIRCLE
8
BLACK
10
137.5388079999999889
20
-30.6524999999999999
40
1.5
0
CIRCLE
8
BLACK
10
137.5388079999999889
20
-32.677500000000002
40
0.25
0
CIRCLE
8
BLACK
10
138.9706989999999962
20
-29.2206089999999996
40
0.25
0
CIRCLE
8
BLACK
10
138.9706989999999962
20
-32.0843909999999966
40
0.25
0
CIRCLE
8
BLACK
10
139.5638079999999945
20
-30.6524999999999999
40
0.25
0
CIRCLE
8
BLACK
10
217.2638079999999832
20
-90.2224999999999966
40
0.25
0
CIRCLE
8
BLACK
10
217.8569169999999815
20
-88.7906089999999892
40
0.25
0
CIRCLE
8
BLACK
10
217.8569169999999815
20
-91.6543909999999897
40
0.25
0
CIRCLE
8
BLACK
10
219.2888079999999889
20
-88.1974999999999909
40
0.25
0
CIRCLE
8
BLACK
10
219.2888079999999889
20
-90.2224999999999966
40
1.5
0
CIRCLE
8
BLACK
10
219.2888079999999889
20
-92.2475000000000023
40
0.25
0
CIRCLE
8
BLACK
10
220.7206989999999962
20
-88.7906089999999892
40
0.25
0
CIRCLE
8
BLACK
10
220.7206989999999962
20
-91.6543909999999897
40
0.25
0
CIRCLE
8
BLACK
10
221.3138079999999945
20
-90.2224999999999966
40
0.25
0
CIRCLE
8
BLACK
10
210.9437959999999919
20
-38.6718180000000018
40
0.25
0
CIRCLE
8
BLACK
10
211.5369049999999902
20
-37.2399270000000016
40
0.25
0
CIRCLE
8
BLACK
10
211.5369049999999902
20
-40.1037089999999949
40
0.25
0
CIRCLE
8
BLACK
10
212.9687959999999975
20
-36.6468179999999961
40
0.25
0
CIRCLE
8
BLACK
10
212.9687959999999975
20
-38.6718180000000018
40
1.5
0
CIRCLE
8
BLACK
10
212.9687959999999975
20
-40.6968180000000004
40
0.25
0
CIRCLE
8
BLACK
10
214.4006869999999765
20
-37.2399270000000016
40
0.25
0
CIRCLE
8
BLACK
10
214.4006869999999765
20
-40.1037089999999949
40
0.25
0
CIRCLE
8
BLACK
10
214.9937960000000032
20
-38.6718180000000018
40
0.25
0
CIRCLE
8
BLACK
10
155.9019169999999974
20
-86.4281089999999921
40
0.25
0
CIRCLE
8
BLACK
10
156.4950259999999957
20
-84.9962179999999989
40
0.25
0
CIRCLE
8
BLACK
10
156.4950259999999957
20
-87.8599999999999994
40
0.25
0
CIRCLE
8
BLACK
10
157.9269170000000031
20
-84.4031090000000006
40
0.25
0
CIRCLE
8
BLACK
10
157.9269170000000031
20
-86.4281089999999921
40
1.5
0
CIRCLE
8
BLACK
10
157.9269170000000031
20
-88.4531089999999978
40
0.25
0
CIRCLE
8
BLACK
10
159.358807999999982
20
-84.9962179999999989
40
0.25
0
CIRCLE
8
BLACK
10
159.358807999999982
20
-87.8599999999999994
40
0.25
0
CIRCLE
8
BLACK
10
159.9519169999999804
20
-86.4281089999999921
40
0.25
  0
ENDSEC
  0
EOF
