<?xml version="1.0" standalone="no"?>
 <!DOCTYPE svg PUBLIC "-//W3C//DTD SVG 1.1//EN" 
 "http://www.w3.org/Graphics/SVG/1.1/DTD/svg11.dtd"> 
<svg
  xmlns:svg="http://www.w3.org/2000/svg"
  xmlns="http://www.w3.org/2000/svg"
  xmlns:xlink="http://www.w3.org/1999/xlink"
  version="1.1"
  width="139.3952mm" height="167.1320mm" viewBox="0.0000 0.0000 139.3952 167.1320">
<title>SVG Image created as dilemma-plate-Edge_Cuts.svg date 2024/07/22 19:36:25 </title>
  <desc>Image generated by PCBNEW </desc>
<g style="fill:#000000; fill-opacity:1.0000;stroke:#000000; stroke-opacity:1.0000;
stroke-linecap:round; stroke-linejoin:round;"
 transform="translate(0 0) scale(1 1)">
</g>
<g style="fill:none; 
stroke:#000000; stroke-width:0.0500; stroke-opacity:1; 
stroke-linecap:round; stroke-linejoin:round;">
<path d="M57.8000 52.0607
L57.8000 42.5007
" />
</g>
<g style="fill:none; 
stroke:#000000; stroke-width:0.2000; stroke-opacity:1; 
stroke-linecap:round; stroke-linejoin:round;">
<path d="M22.5411 71.1096
L22.7305 68.8457
" />
<path d="M21.8303 17.4489
L21.9791 16.7884
" />
<path d="M20.1537 77.0673
L20.5042 76.9782
" />
<path d="M112.5255 76.7417
L112.8511 74.8408
" />
</g>
<g style="fill:none; 
stroke:#000000; stroke-width:0.0500; stroke-opacity:1; 
stroke-linecap:round; stroke-linejoin:round;">
<path d="M76.7700 37.0107
L76.7700 42.0257
" />
</g>
<g style="fill:none; 
stroke:#000000; stroke-width:0.2000; stroke-opacity:1; 
stroke-linecap:round; stroke-linejoin:round;">
<path d="M48.5060 79.8445
L48.5282 80.2552
" />
<path d="M19.7667 77.0971
L5.9669 77.0971
" />
<path d="M48.2587 68.0555
L48.4429 68.8577
" />
<path d="M48.7013 80.9915
L48.8472 81.3190
" />
<path d="M47.5656 66.6044
L47.9635 67.2976
" />
<path d="M62.9668 6.6222
L62.4809 6.5768
" />
<path d="M48.5940 80.6373
L48.7013 80.9915
" />
<path d="M98.3593 9.8271
L99.6250 10.3043
" />
<path d="M114.8849 65.5589
L115.1787 64.8088
" />
<path d="M58.7038 2.2263
L58.2776 2.0926
" />
</g>
<g style="fill:none; 
stroke:#000000; stroke-width:0.0500; stroke-opacity:1; 
stroke-linecap:round; stroke-linejoin:round;">
<path d="M38.7700 33.0107
L38.7700 29.6257
" />
</g>
<g style="fill:none; 
stroke:#000000; stroke-width:0.2000; stroke-opacity:1; 
stroke-linecap:round; stroke-linejoin:round;">
<path d="M61.0792 5.5930
L60.8283 5.1997
" />
<path d="M116.2220 62.9325
L116.6305 62.4506
" />
<path d="M44.8996 65.1222
L45.3389 65.1491
" />
</g>
<g style="fill:none; 
stroke:#000000; stroke-width:0.0500; stroke-opacity:1; 
stroke-linecap:round; stroke-linejoin:round;">
<path d="M59.7600 56.0607
L57.8000 56.0607
" />
</g>
<g style="fill:none; 
stroke:#000000; stroke-width:0.2000; stroke-opacity:1; 
stroke-linecap:round; stroke-linejoin:round;">
<path d="M24.6243 65.1520
L24.9668 65.1222
" />
</g>
<g style="fill:none; 
stroke:#000000; stroke-width:0.0500; stroke-opacity:1; 
stroke-linecap:round; stroke-linejoin:round;">
<path d="M42.7100 37.0107
L42.7100 33.0107
" />
<path d="M78.8100 37.0107
L76.7700 37.0107
" />
</g>
<g style="fill:none; 
stroke:#000000; stroke-width:0.2000; stroke-opacity:1; 
stroke-linecap:round; stroke-linejoin:round;">
<path d="M19.7667 20.1472
L20.1239 20.1021
" />
</g>
<g style="fill:none; 
stroke:#000000; stroke-width:0.0500; stroke-opacity:1; 
stroke-linecap:round; stroke-linejoin:round;">
<path d="M61.7600 13.9607
L61.7600 17.9607
" />
<path d="M59.7600 52.0607
L61.7600 52.0607
" />
</g>
<g style="fill:none; 
stroke:#000000; stroke-width:0.2000; stroke-opacity:1; 
stroke-linecap:round; stroke-linejoin:round;">
<path d="M49.0284 81.6210
L49.2414 81.8986
" />
</g>
<g style="fill:none; 
stroke:#000000; stroke-width:0.0500; stroke-opacity:1; 
stroke-linecap:round; stroke-linejoin:round;">
<path d="M43.8450 42.5007
L57.8000 42.5007
" />
<path d="M43.8450 4.5007
L43.8450 18.4507
" />
</g>
<g style="fill:none; 
stroke:#000000; stroke-width:0.2000; stroke-opacity:1; 
stroke-linecap:round; stroke-linejoin:round;">
<path d="M59.0748 2.4418
L58.7038 2.2263
" />
<path d="M5.4327 20.2000
L4.9514 20.3525
" />
<path d="M5.4327 20.2000
L5.9669 20.1472
" />
<path d="M22.6735 11.0972
L22.8410 9.3549
" />
<path d="M117.5496 61.7317
L118.0630 61.5024
" />
</g>
<g style="fill:none; 
stroke:#000000; stroke-width:0.0500; stroke-opacity:1; 
stroke-linecap:round; stroke-linejoin:round;">
<path d="M62.8200 28.0757
L76.7700 28.0757
" />
</g>
<g style="fill:none; 
stroke:#000000; stroke-width:0.2000; stroke-opacity:1; 
stroke-linecap:round; stroke-linejoin:round;">
<path d="M57.7918 2.0472
L25.8996 2.0472
" />
</g>
<g style="fill:none; 
stroke:#000000; stroke-width:0.0500; stroke-opacity:1; 
stroke-linecap:round; stroke-linejoin:round;">
<path d="M43.8450 4.5007
L57.8000 4.5007
" />
</g>
<g style="fill:none; 
stroke:#000000; stroke-width:0.2000; stroke-opacity:1; 
stroke-linecap:round; stroke-linejoin:round;">
<path d="M136.4020 61.3172 A1.0000 1.0000 0.0 0 0 137.4020 60.3172" />
<path d="M81.9667 9.1472
L95.7668 9.1472
" />
<path d="M3.3920 22.7221
L3.3920 74.5221
" />
<path d="M77.1450 6.6473
L77.5037 6.7211
" />
<path d="M20.8191 76.8312
L21.0994 76.6281
" />
</g>
<g style="fill:none; 
stroke:#000000; stroke-width:0.0500; stroke-opacity:1; 
stroke-linecap:round; stroke-linejoin:round;">
<path d="M59.7600 52.0607
L57.8000 52.0607
" />
<path d="M57.8000 13.9607
L57.8000 4.5007
" />
</g>
<g style="fill:none; 
stroke:#000000; stroke-width:0.2000; stroke-opacity:1; 
stroke-linecap:round; stroke-linejoin:round;">
<path d="M22.1586 74.4031
L22.3314 73.3736
" />
<path d="M62.0547 6.4431
L61.6837 6.2276
" />
<path d="M110.7502 83.4547
L110.9897 82.9149
" />
<path d="M47.0672 66.0046
L47.5656 66.6044
" />
<path d="M20.7475 19.7454
L21.0157 19.4384
" />
<path d="M48.5060 69.6921
L48.5060 79.8445
" />
<path d="M46.7793 65.7505
L47.0672 66.0046
" />
<path d="M59.3973 2.7292
L59.0748 2.4418
" />
<path d="M22.1103 16.0753
L22.3302 14.5192
" />
<path d="M137.4029 14.8171 A4.5047 4.5047 0.0 0 0 132.9020 10.5070" />
</g>
<g style="fill:none; 
stroke:#000000; stroke-width:0.0500; stroke-opacity:1; 
stroke-linecap:round; stroke-linejoin:round;">
<path d="M76.7700 28.0757
L76.7700 33.0107
" />
</g>
<g style="fill:none; 
stroke:#000000; stroke-width:0.2000; stroke-opacity:1; 
stroke-linecap:round; stroke-linejoin:round;">
<path d="M23.5766 65.8479
L23.7923 65.5911
" />
</g>
<g style="fill:none; 
stroke:#000000; stroke-width:0.0500; stroke-opacity:1; 
stroke-linecap:round; stroke-linejoin:round;">
<path d="M62.8200 42.0257
L62.8200 28.0757
" />
<path d="M59.7600 17.9607
L57.8000 17.9607
" />
</g>
<g style="fill:none; 
stroke:#000000; stroke-width:0.2000; stroke-opacity:1; 
stroke-linecap:round; stroke-linejoin:round;">
<path d="M5.9669 20.1472
L19.7667 20.1472
" />
<path d="M110.9897 82.9149
L111.2166 82.3162
" />
<path d="M5.4327 77.0443
L5.9669 77.0971
" />
<path d="M21.9094 75.3119
L22.1586 74.4031
" />
<path d="M3.3920 74.5221
L3.4447 75.0564
" />
<path d="M71.3346 84.4687
L73.9365 85.1313
" />
</g>
<g style="fill:none; 
stroke:#000000; stroke-width:0.0500; stroke-opacity:1; 
stroke-linecap:round; stroke-linejoin:round;">
<path d="M38.7700 43.5757
L38.7700 37.0107
" />
</g>
<g style="fill:none; 
stroke:#000000; stroke-width:0.2000; stroke-opacity:1; 
stroke-linecap:round; stroke-linejoin:round;">
<path d="M51.7445 83.2495
L52.5297 83.3125
" />
<path d="M19.7667 77.0971
L20.1537 77.0673
" />
<path d="M23.1497 6.8779
L23.0354 7.6751
" />
<path d="M23.0354 7.6751
L22.8410 9.3549
" />
<path d="M117.0725 62.0489
L117.5496 61.7317
" />
<path d="M21.7495 75.7097
L21.9094 75.3119
" />
</g>
<g style="fill:none; 
stroke:#000000; stroke-width:0.0500; stroke-opacity:1; 
stroke-linecap:round; stroke-linejoin:round;">
<path d="M59.7600 13.9607
L61.7600 13.9607
" />
</g>
<g style="fill:none; 
stroke:#000000; stroke-width:0.2000; stroke-opacity:1; 
stroke-linecap:round; stroke-linejoin:round;">
<path d="M66.0776 83.4729
L67.4016 83.6573
" />
<path d="M111.4313 81.6609
L111.6348 80.9518
" />
<path d="M59.9303 3.4697
L59.6793 3.0764
" />
<path d="M111.2166 82.3162
L111.4313 81.6609
" />
<path d="M20.1239 20.1021
L20.4506 19.9676
" />
<path d="M61.3613 5.9402
L61.0792 5.5930
" />
<path d="M22.3302 14.5192
L22.5107 12.8394
" />
<path d="M25.8996 2.0472
L25.5017 2.0922
" />
<path d="M45.3389 65.1491
L45.7453 65.2285
" />
<path d="M4.9514 20.3525
L4.5225 20.5917
" />
<path d="M100.0799 96.8276
L88.1287 89.9277
" />
<path d="M22.7305 68.8457
L22.8776 67.8162
" />
<path d="M45.7453 65.2285
L46.1198 65.3579
" />
<path d="M3.8365 21.2778
L3.5972 21.7066
" />
</g>
<g style="fill:none; 
stroke:#000000; stroke-width:0.0500; stroke-opacity:1; 
stroke-linecap:round; stroke-linejoin:round;">
<path d="M43.8450 18.4507
L57.7950 18.4507
" />
</g>
<g style="fill:none; 
stroke:#000000; stroke-width:0.2000; stroke-opacity:1; 
stroke-linecap:round; stroke-linejoin:round;">
<path d="M114.6144 66.3613
L114.8849 65.5589
" />
<path d="M21.3467 76.3714
L21.5627 76.0641
" />
<path d="M25.5017 2.0922
L25.1373 2.2268
" />
<path d="M77.5037 6.7211
L78.1689 6.9986
" />
<path d="M3.4447 22.1879
L3.3920 22.7221
" />
<path d="M100.2776 10.4538
L100.9517 10.5070
" />
</g>
<g style="fill:none; 
stroke:#000000; stroke-width:0.0500; stroke-opacity:1; 
stroke-linecap:round; stroke-linejoin:round;">
<path d="M59.7600 17.9607
L61.7600 17.9607
" />
</g>
<g style="fill:none; 
stroke:#000000; stroke-width:0.2000; stroke-opacity:1; 
stroke-linecap:round; stroke-linejoin:round;">
<path d="M119.2025 61.3172
L136.4020 61.3172
" />
<path d="M24.2363 3.1440
L23.9956 3.6085
" />
<path d="M21.2563 19.0504
L21.4710 18.5859
" />
<path d="M62.4809 6.5768
L62.0547 6.4431
" />
<path d="M20.4506 19.9676
L20.7475 19.7454
" />
<path d="M48.4429 68.8577
L48.5060 69.6921
" />
<path d="M47.9635 67.2976
L48.2587 68.0555
" />
</g>
<g style="fill:none; 
stroke:#000000; stroke-width:0.0500; stroke-opacity:1; 
stroke-linecap:round; stroke-linejoin:round;">
<path d="M40.7100 33.0107
L42.7100 33.0107
" />
<path d="M80.8100 33.0110
L80.8100 37.0103
" />
</g>
<g style="fill:none; 
stroke:#000000; stroke-width:0.2000; stroke-opacity:1; 
stroke-linecap:round; stroke-linejoin:round;">
<path d="M49.7491 82.3831
L50.3463 82.7740
" />
<path d="M21.4710 18.5859
L21.6617 18.0502
" />
<path d="M23.3890 66.1552
L23.5766 65.8479
" />
<path d="M78.7816 7.4073
L79.3668 7.8847
" />
</g>
<g style="fill:none; 
stroke:#000000; stroke-width:0.0500; stroke-opacity:1; 
stroke-linecap:round; stroke-linejoin:round;">
<path d="M43.8450 42.5007
L43.8450 56.4507
" />
</g>
<g style="fill:none; 
stroke:#000000; stroke-width:0.2000; stroke-opacity:1; 
stroke-linecap:round; stroke-linejoin:round;">
<path d="M23.4255 5.4060
L23.2788 6.1191
" />
<path d="M21.0994 76.6281
L21.3467 76.3714
" />
<path d="M64.7442 83.3539
L66.0776 83.4729
" />
<path d="M21.6617 18.0502
L21.8303 17.4489
" />
</g>
<g style="fill:none; 
stroke:#000000; stroke-width:0.0500; stroke-opacity:1; 
stroke-linecap:round; stroke-linejoin:round;">
<path d="M38.7700 43.5757
L24.8200 43.5757
" />
<path d="M78.8100 33.0107
L80.8100 33.0107
" />
</g>
<g style="fill:none; 
stroke:#000000; stroke-width:0.2000; stroke-opacity:1; 
stroke-linecap:round; stroke-linejoin:round;">
<path d="M83.3207 87.6458
L84.5850 88.0757
" />
<path d="M3.5972 75.5376
L3.8365 75.9665
" />
<path d="M111.6348 80.9518
L111.8281 80.1925
" />
<path d="M58.2776 2.0926
L57.7918 2.0472
" />
<path d="M81.2299 9.0484
L81.5886 9.1222
" />
<path d="M114.3650 67.2095
L114.6144 66.3613
" />
</g>
<g style="fill:none; 
stroke:#000000; stroke-width:0.0500; stroke-opacity:1; 
stroke-linecap:round; stroke-linejoin:round;">
<path d="M78.8100 37.0107
L80.8100 37.0107
" />
</g>
<g style="fill:none; 
stroke:#000000; stroke-width:0.2000; stroke-opacity:1; 
stroke-linecap:round; stroke-linejoin:round;">
<path d="M3.5972 21.7066
L3.4447 22.1879
" />
<path d="M68.7179 83.8930
L71.3346 84.4687
" />
<path d="M24.9668 65.1222
L44.8996 65.1222
" />
<path d="M113.5314 70.9263
L113.9200 69.0164
" />
<path d="M3.4447 75.0564
L3.5972 75.5376
" />
<path d="M85.7919 88.6353
L88.1287 89.9277
" />
<path d="M79.3668 7.8847
L79.9520 8.3621
" />
<path d="M80.5647 8.7708
L81.2299 9.0484
" />
<path d="M59.6793 3.0764
L59.3973 2.7292
" />
<path d="M110.4975 83.9342
L110.7502 83.4547
" />
<path d="M46.1198 65.3579
L46.4639 65.5334
" />
</g>
<g style="fill:none; 
stroke:#000000; stroke-width:0.0500; stroke-opacity:1; 
stroke-linecap:round; stroke-linejoin:round;">
<path d="M78.8100 33.0107
L76.7700 33.0107
" />
</g>
<g style="fill:none; 
stroke:#000000; stroke-width:0.2000; stroke-opacity:1; 
stroke-linecap:round; stroke-linejoin:round;">
<path d="M78.1689 6.9986
L78.7816 7.4073
" />
<path d="M102.0329 97.0814
L102.4902 96.9137
" />
<path d="M79.9520 8.3621
L80.5647 8.7708
" />
<path d="M115.4980 64.1170
L115.8451 63.4897
" />
<path d="M84.5850 88.0757
L85.7919 88.6353
" />
<path d="M63.3996 83.3125
L64.7442 83.3539
" />
<path d="M23.9956 3.6085
L23.7816 4.1442
" />
<path d="M111.8281 80.1925
L112.1890 78.5402
" />
<path d="M20.5042 76.9782
L20.8191 76.8312
" />
<path d="M113.9200 69.0164
L114.3650 67.2095
" />
<path d="M21.5627 76.0641
L21.7495 75.7097
" />
<path d="M23.7923 65.5911
L24.0379 65.3880
" />
<path d="M50.3463 82.7740
L51.0151 83.0662
" />
</g>
<g style="fill:none; 
stroke:#000000; stroke-width:0.0500; stroke-opacity:1; 
stroke-linecap:round; stroke-linejoin:round;">
<path d="M59.7600 13.9607
L57.8000 13.9607
" />
</g>
<g style="fill:none; 
stroke:#000000; stroke-width:0.2000; stroke-opacity:1; 
stroke-linecap:round; stroke-linejoin:round;">
<path d="M23.7816 4.1442
L23.5923 4.7455
" />
<path d="M24.3149 65.2410
L24.6243 65.1520
" />
<path d="M23.2788 6.1191
L23.1497 6.8779
" />
<path d="M101.5530 97.1648
L102.0329 97.0814
" />
<path d="M61.6837 6.2276
L61.3613 5.9402
" />
<path d="M76.7668 6.6222
L62.9668 6.6222
" />
</g>
<g style="fill:none; 
stroke:#000000; stroke-width:0.0500; stroke-opacity:1; 
stroke-linecap:round; stroke-linejoin:round;">
<path d="M57.7950 18.4507
L57.8000 17.9607
" />
</g>
<g style="fill:none; 
stroke:#000000; stroke-width:0.2000; stroke-opacity:1; 
stroke-linecap:round; stroke-linejoin:round;">
<path d="M102.9118 96.6620
L103.2845 96.3214
" />
</g>
<g style="fill:none; 
stroke:#000000; stroke-width:0.0500; stroke-opacity:1; 
stroke-linecap:round; stroke-linejoin:round;">
<path d="M40.7100 37.0107
L38.7700 37.0107
" />
<path d="M24.8200 29.6257
L38.7700 29.6257
" />
</g>
<g style="fill:none; 
stroke:#000000; stroke-width:0.2000; stroke-opacity:1; 
stroke-linecap:round; stroke-linejoin:round;">
<path d="M101.0620 97.1576
L101.5530 97.1648
" />
<path d="M110.4975 83.9342
L103.5973 95.8852
" />
</g>
<g style="fill:none; 
stroke:#000000; stroke-width:0.0500; stroke-opacity:1; 
stroke-linecap:round; stroke-linejoin:round;">
<path d="M59.7600 56.0607
L61.7600 56.0607
" />
</g>
<g style="fill:none; 
stroke:#000000; stroke-width:0.2000; stroke-opacity:1; 
stroke-linecap:round; stroke-linejoin:round;">
<path d="M60.3793 4.3347
L59.9303 3.4697
" />
<path d="M52.5297 83.3125
L63.3996 83.3125
" />
<path d="M46.4639 65.5334
L46.7793 65.7505
" />
<path d="M4.1486 20.9039
L3.8365 21.2778
" />
<path d="M103.2845 96.3214
L103.5973 95.8852
" />
<path d="M132.9020 10.5070
L123.0480 10.5070
" />
<path d="M22.4509 72.2623
L22.5411 71.1096
" />
<path d="M76.7668 6.6222
L77.1450 6.6473
" />
</g>
<g style="fill:none; 
stroke:#000000; stroke-width:0.0500; stroke-opacity:1; 
stroke-linecap:round; stroke-linejoin:round;">
<path d="M40.7100 33.0107
L38.7700 33.0107
" />
</g>
<g style="fill:none; 
stroke:#000000; stroke-width:0.2000; stroke-opacity:1; 
stroke-linecap:round; stroke-linejoin:round;">
<path d="M95.7668 9.1472
L96.4409 9.2005
" />
<path d="M3.8365 75.9665
L4.1486 76.3404
" />
<path d="M24.0379 65.3880
L24.3149 65.2410
" />
<path d="M112.1890 78.5402
L112.5255 76.7417
" />
<path d="M22.5107 12.8394
L22.6735 11.0972
" />
</g>
<g style="fill:none; 
stroke:#000000; stroke-width:0.0500; stroke-opacity:1; 
stroke-linecap:round; stroke-linejoin:round;">
<path d="M43.8450 56.4507
L57.7950 56.4507
" />
</g>
<g style="fill:none; 
stroke:#000000; stroke-width:0.2000; stroke-opacity:1; 
stroke-linecap:round; stroke-linejoin:round;">
<path d="M23.0902 66.9074
L23.3890 66.1552
" />
</g>
<g style="fill:none; 
stroke:#000000; stroke-width:0.0500; stroke-opacity:1; 
stroke-linecap:round; stroke-linejoin:round;">
<path d="M61.7600 56.0607
L61.7600 52.0607
" />
</g>
<g style="fill:none; 
stroke:#000000; stroke-width:0.2000; stroke-opacity:1; 
stroke-linecap:round; stroke-linejoin:round;">
<path d="M100.5690 97.0490
L101.0620 97.1576
" />
</g>
<g style="fill:none; 
stroke:#000000; stroke-width:0.0500; stroke-opacity:1; 
stroke-linecap:round; stroke-linejoin:round;">
<path d="M40.7100 37.0107
L42.7100 37.0107
" />
</g>
<g style="fill:none; 
stroke:#000000; stroke-width:0.2000; stroke-opacity:1; 
stroke-linecap:round; stroke-linejoin:round;">
<path d="M24.8057 2.4489
L24.5058 2.7559
" />
<path d="M25.1373 2.2268
L24.8057 2.4489
" />
<path d="M22.8776 67.8162
L23.0902 66.9074
" />
<path d="M48.8472 81.3190
L49.0284 81.6210
" />
<path d="M48.5282 80.2552
L48.5940 80.6373
" />
</g>
<g style="fill:none; 
stroke:#000000; stroke-width:0.0500; stroke-opacity:1; 
stroke-linecap:round; stroke-linejoin:round;">
<path d="M62.8200 42.0257
L76.7700 42.0257
" />
</g>
<g style="fill:none; 
stroke:#000000; stroke-width:0.2000; stroke-opacity:1; 
stroke-linecap:round; stroke-linejoin:round;">
<path d="M21.0157 19.4384
L21.2563 19.0504
" />
<path d="M97.0935 9.3499
L98.3593 9.8271
" />
</g>
<g style="fill:none; 
stroke:#000000; stroke-width:0.0500; stroke-opacity:1; 
stroke-linecap:round; stroke-linejoin:round;">
<path d="M57.7950 56.4507
L57.8000 56.0607
" />
</g>
<g style="fill:none; 
stroke:#000000; stroke-width:0.2000; stroke-opacity:1; 
stroke-linecap:round; stroke-linejoin:round;">
<path d="M24.5058 2.7559
L24.2363 3.1440
" />
<path d="M21.9791 16.7884
L22.1103 16.0753
" />
<path d="M4.9514 76.8918
L5.4327 77.0443
" />
<path d="M81.5886 9.1222
L81.9667 9.1472
" />
<path d="M51.0151 83.0662
L51.7445 83.2495
" />
<path d="M4.1486 76.3404
L4.5225 76.6525
" />
<path d="M22.3314 73.3736
L22.4509 72.2623
" />
<path d="M112.8511 74.8408
L113.5314 70.9263
" />
<path d="M60.8283 5.1997
L60.3793 4.3347
" />
<path d="M99.6250 10.3043
L100.2776 10.4538
" />
<path d="M118.0630 61.5024
L118.6138 61.3636
" />
<path d="M4.5225 76.6525
L4.9514 76.8918
" />
<path d="M115.8451 63.4897
L116.2220 62.9325
" />
</g>
<g style="fill:none; 
stroke:#000000; stroke-width:0.0500; stroke-opacity:1; 
stroke-linecap:round; stroke-linejoin:round;">
<path d="M24.8200 29.6257
L24.8200 43.5757
" />
</g>
<g style="fill:none; 
stroke:#000000; stroke-width:0.2000; stroke-opacity:1; 
stroke-linecap:round; stroke-linejoin:round;">
<path d="M116.6305 62.4506
L117.0725 62.0489
" />
<path d="M115.1787 64.8088
L115.4980 64.1170
" />
<path d="M137.4020 60.3172
L137.4029 14.8171
" />
<path d="M67.4016 83.6573
L68.7179 83.8930
" />
<path d="M96.4409 9.2005
L97.0935 9.3499
" />
<path d="M73.9365 85.1313
L83.3207 87.6458
" />
<path d="M49.2414 81.8986
L49.7491 82.3831
" />
<path d="M123.0480 10.5070
L100.9517 10.5070
" />
<path d="M23.5923 4.7455
L23.4255 5.4060
" />
<path d="M118.6138 61.3636
L119.2025 61.3172
" />
<path d="M4.5225 20.5917
L4.1486 20.9039
" />
<path d="M102.4902 96.9137
L102.9118 96.6620
" />
<path d="M100.0799 96.8276
L100.5690 97.0490
" />
</g>
<g style="fill:none; 
stroke:#000000; stroke-width:0.0500; stroke-opacity:1; 
stroke-linecap:round; stroke-linejoin:round;">
<path d="M5.8200 41.6007
L19.7700 41.6007
" />
<path d="M5.8200 55.5507
L5.8200 41.6007
" />
<path d="M19.7700 41.6007
L19.7700 55.5507
" />
<path d="M19.7700 55.5507
L5.8200 55.5507
" />
<path d="M62.8200 9.0757
L76.7700 9.0757
" />
<path d="M62.8200 23.0257
L62.8200 9.0757
" />
<path d="M76.7700 9.0757
L76.7700 23.0257
" />
<path d="M76.7700 23.0257
L62.8200 23.0257
" />
<path d="M24.8200 48.6257
L38.7700 48.6257
" />
<path d="M24.8200 62.5757
L24.8200 48.6257
" />
<path d="M38.7700 48.6257
L38.7700 62.5757
" />
<path d="M38.7700 62.5757
L24.8200 62.5757
" />
<path d="M81.8200 30.6007
L95.7700 30.6007
" />
<path d="M81.8200 44.5507
L81.8200 30.6007
" />
<path d="M95.7700 30.6007
L95.7700 44.5507
" />
<path d="M95.7700 44.5507
L81.8200 44.5507
" />
<path d="M89.2420 87.6787
L96.2170 75.5977
" />
<path d="M96.2170 75.5977
L108.2980 82.5727
" />
<path d="M101.3230 94.6537
L89.2420 87.6787
" />
<path d="M108.2980 82.5727
L101.3230 94.6537
" />
<path d="M24.8200 10.6257
L38.7700 10.6257
" />
<path d="M24.8200 24.5757
L24.8200 10.6257
" />
<path d="M38.7700 10.6257
L38.7700 24.5757
" />
<path d="M38.7700 24.5757
L24.8200 24.5757
" />
<path d="M81.8200 49.6007
L95.7700 49.6007
" />
<path d="M81.8200 63.5507
L81.8200 49.6007
" />
<path d="M95.7700 49.6007
L95.7700 63.5507
" />
<path d="M95.7700 63.5507
L81.8200 63.5507
" />
<path d="M5.8200 22.6007
L19.7700 22.6007
" />
<path d="M5.8200 36.5507
L5.8200 22.6007
" />
<path d="M19.7700 22.6007
L19.7700 36.5507
" />
<path d="M19.7700 36.5507
L5.8200 36.5507
" />
<path d="M62.8200 47.0757
L76.7700 47.0757
" />
<path d="M62.8200 61.0257
L62.8200 47.0757
" />
<path d="M76.7700 47.0757
L76.7700 61.0257
" />
<path d="M76.7700 61.0257
L62.8200 61.0257
" />
<path d="M43.8450 23.5007
L57.7950 23.5007
" />
<path d="M43.8450 37.4507
L43.8450 23.5007
" />
<path d="M57.7950 23.5007
L57.7950 37.4507
" />
<path d="M57.7950 37.4507
L43.8450 37.4507
" />
<path d="M5.8200 60.6007
L19.7700 60.6007
" />
<path d="M5.8200 74.5507
L5.8200 60.6007
" />
<path d="M19.7700 60.6007
L19.7700 74.5507
" />
<path d="M19.7700 74.5507
L5.8200 74.5507
" />
<path d="M51.1950 66.8132
L65.1450 66.8132
" />
<path d="M51.1950 80.7632
L51.1950 66.8132
" />
<path d="M65.1450 66.8132
L65.1450 80.7632
" />
<path d="M65.1450 80.7632
L51.1950 80.7632
" />
<path d="M70.5274 81.7578
L74.1379 68.2831
" />
<path d="M74.1379 68.2831
L87.6126 71.8936
" />
<path d="M84.0021 85.3683
L70.5274 81.7578
" />
<path d="M87.6126 71.8936
L84.0021 85.3683
" />
<path d="M81.8200 11.6007
L95.7700 11.6007
" />
<path d="M81.8200 25.5507
L81.8200 11.6007
" />
<path d="M95.7700 11.6007
L95.7700 25.5507
" />
<path d="M95.7700 25.5507
L81.8200 25.5507
" />
<path d="M57.8000 52.0607
L57.8000 42.5007
" />
</g>
<g style="fill:none; 
stroke:#000000; stroke-width:0.2000; stroke-opacity:1; 
stroke-linecap:round; stroke-linejoin:round;">
<path d="M22.5411 71.1096
L22.7305 68.8457
" />
<path d="M21.8303 17.4489
L21.9791 16.7884
" />
<path d="M20.1537 77.0673
L20.5042 76.9782
" />
<path d="M112.5255 76.7417
L112.8511 74.8408
" />
</g>
<g style="fill:none; 
stroke:#000000; stroke-width:0.0500; stroke-opacity:1; 
stroke-linecap:round; stroke-linejoin:round;">
<path d="M76.7700 37.0107
L76.7700 42.0257
" />
</g>
<g style="fill:none; 
stroke:#000000; stroke-width:0.2000; stroke-opacity:1; 
stroke-linecap:round; stroke-linejoin:round;">
<path d="M48.5060 79.8445
L48.5282 80.2552
" />
<path d="M19.7667 77.0971
L5.9669 77.0971
" />
<path d="M48.2587 68.0555
L48.4429 68.8577
" />
<path d="M48.7013 80.9915
L48.8472 81.3190
" />
<path d="M47.5656 66.6044
L47.9635 67.2976
" />
<path d="M62.9668 6.6222
L62.4809 6.5768
" />
<path d="M48.5940 80.6373
L48.7013 80.9915
" />
<path d="M98.3593 9.8271
L99.6250 10.3043
" />
<path d="M114.8849 65.5589
L115.1787 64.8088
" />
<path d="M58.7038 2.2263
L58.2776 2.0926
" />
</g>
<g style="fill:none; 
stroke:#000000; stroke-width:0.0500; stroke-opacity:1; 
stroke-linecap:round; stroke-linejoin:round;">
<path d="M38.7700 33.0107
L38.7700 29.6257
" />
</g>
<g style="fill:none; 
stroke:#000000; stroke-width:0.2000; stroke-opacity:1; 
stroke-linecap:round; stroke-linejoin:round;">
<path d="M61.0792 5.5930
L60.8283 5.1997
" />
<path d="M116.2220 62.9325
L116.6305 62.4506
" />
<path d="M44.8996 65.1222
L45.3389 65.1491
" />
</g>
<g style="fill:none; 
stroke:#000000; stroke-width:0.0500; stroke-opacity:1; 
stroke-linecap:round; stroke-linejoin:round;">
<path d="M59.7600 56.0607
L57.8000 56.0607
" />
</g>
<g style="fill:none; 
stroke:#000000; stroke-width:0.2000; stroke-opacity:1; 
stroke-linecap:round; stroke-linejoin:round;">
<path d="M24.6243 65.1520
L24.9668 65.1222
" />
</g>
<g style="fill:none; 
stroke:#000000; stroke-width:0.0500; stroke-opacity:1; 
stroke-linecap:round; stroke-linejoin:round;">
<path d="M42.7100 37.0107
L42.7100 33.0107
" />
<path d="M78.8100 37.0107
L76.7700 37.0107
" />
</g>
<g style="fill:none; 
stroke:#000000; stroke-width:0.2000; stroke-opacity:1; 
stroke-linecap:round; stroke-linejoin:round;">
<path d="M19.7667 20.1472
L20.1239 20.1021
" />
</g>
<g style="fill:none; 
stroke:#000000; stroke-width:0.0500; stroke-opacity:1; 
stroke-linecap:round; stroke-linejoin:round;">
<path d="M61.7600 13.9607
L61.7600 17.9607
" />
<path d="M59.7600 52.0607
L61.7600 52.0607
" />
</g>
<g style="fill:none; 
stroke:#000000; stroke-width:0.2000; stroke-opacity:1; 
stroke-linecap:round; stroke-linejoin:round;">
<path d="M49.0284 81.6210
L49.2414 81.8986
" />
</g>
<g style="fill:none; 
stroke:#000000; stroke-width:0.0500; stroke-opacity:1; 
stroke-linecap:round; stroke-linejoin:round;">
<path d="M43.8450 42.5007
L57.8000 42.5007
" />
<path d="M43.8450 4.5007
L43.8450 18.4507
" />
</g>
<g style="fill:none; 
stroke:#000000; stroke-width:0.2000; stroke-opacity:1; 
stroke-linecap:round; stroke-linejoin:round;">
<path d="M59.0748 2.4418
L58.7038 2.2263
" />
<path d="M5.4327 20.2000
L4.9514 20.3525
" />
<path d="M5.4327 20.2000
L5.9669 20.1472
" />
<path d="M22.6735 11.0972
L22.8410 9.3549
" />
<path d="M117.5496 61.7317
L118.0630 61.5024
" />
</g>
<g style="fill:none; 
stroke:#000000; stroke-width:0.0500; stroke-opacity:1; 
stroke-linecap:round; stroke-linejoin:round;">
<path d="M62.8200 28.0757
L76.7700 28.0757
" />
</g>
<g style="fill:none; 
stroke:#000000; stroke-width:0.2000; stroke-opacity:1; 
stroke-linecap:round; stroke-linejoin:round;">
<path d="M57.7918 2.0472
L25.8996 2.0472
" />
</g>
<g style="fill:none; 
stroke:#000000; stroke-width:0.0500; stroke-opacity:1; 
stroke-linecap:round; stroke-linejoin:round;">
<path d="M43.8450 4.5007
L57.8000 4.5007
" />
</g>
<g style="fill:none; 
stroke:#000000; stroke-width:0.2000; stroke-opacity:1; 
stroke-linecap:round; stroke-linejoin:round;">
<path d="M136.4020 61.3172 A1.0000 1.0000 0.0 0 0 137.4020 60.3172" />
<path d="M81.9667 9.1472
L95.7668 9.1472
" />
<path d="M3.3920 22.7221
L3.3920 74.5221
" />
<path d="M77.1450 6.6473
L77.5037 6.7211
" />
<path d="M20.8191 76.8312
L21.0994 76.6281
" />
</g>
<g style="fill:none; 
stroke:#000000; stroke-width:0.0500; stroke-opacity:1; 
stroke-linecap:round; stroke-linejoin:round;">
<path d="M59.7600 52.0607
L57.8000 52.0607
" />
<path d="M57.8000 13.9607
L57.8000 4.5007
" />
</g>
<g style="fill:none; 
stroke:#000000; stroke-width:0.2000; stroke-opacity:1; 
stroke-linecap:round; stroke-linejoin:round;">
<path d="M22.1586 74.4031
L22.3314 73.3736
" />
<path d="M62.0547 6.4431
L61.6837 6.2276
" />
<path d="M110.7502 83.4547
L110.9897 82.9149
" />
<path d="M47.0672 66.0046
L47.5656 66.6044
" />
<path d="M20.7475 19.7454
L21.0157 19.4384
" />
<path d="M48.5060 69.6921
L48.5060 79.8445
" />
<path d="M46.7793 65.7505
L47.0672 66.0046
" />
<path d="M59.3973 2.7292
L59.0748 2.4418
" />
<path d="M22.1103 16.0753
L22.3302 14.5192
" />
<path d="M137.4029 14.8171 A4.5047 4.5047 0.0 0 0 132.9020 10.5070" />
</g>
<g style="fill:none; 
stroke:#000000; stroke-width:0.0500; stroke-opacity:1; 
stroke-linecap:round; stroke-linejoin:round;">
<path d="M76.7700 28.0757
L76.7700 33.0107
" />
</g>
<g style="fill:none; 
stroke:#000000; stroke-width:0.2000; stroke-opacity:1; 
stroke-linecap:round; stroke-linejoin:round;">
<path d="M23.5766 65.8479
L23.7923 65.5911
" />
</g>
<g style="fill:none; 
stroke:#000000; stroke-width:0.0500; stroke-opacity:1; 
stroke-linecap:round; stroke-linejoin:round;">
<path d="M62.8200 42.0257
L62.8200 28.0757
" />
<path d="M59.7600 17.9607
L57.8000 17.9607
" />
</g>
<g style="fill:none; 
stroke:#000000; stroke-width:0.2000; stroke-opacity:1; 
stroke-linecap:round; stroke-linejoin:round;">
<path d="M5.9669 20.1472
L19.7667 20.1472
" />
<path d="M110.9897 82.9149
L111.2166 82.3162
" />
<path d="M5.4327 77.0443
L5.9669 77.0971
" />
<path d="M21.9094 75.3119
L22.1586 74.4031
" />
<path d="M3.3920 74.5221
L3.4447 75.0564
" />
<path d="M71.3346 84.4687
L73.9365 85.1313
" />
</g>
<g style="fill:none; 
stroke:#000000; stroke-width:0.0500; stroke-opacity:1; 
stroke-linecap:round; stroke-linejoin:round;">
<path d="M38.7700 43.5757
L38.7700 37.0107
" />
</g>
<g style="fill:none; 
stroke:#000000; stroke-width:0.2000; stroke-opacity:1; 
stroke-linecap:round; stroke-linejoin:round;">
<path d="M51.7445 83.2495
L52.5297 83.3125
" />
<path d="M19.7667 77.0971
L20.1537 77.0673
" />
<path d="M23.1497 6.8779
L23.0354 7.6751
" />
<path d="M23.0354 7.6751
L22.8410 9.3549
" />
<path d="M117.0725 62.0489
L117.5496 61.7317
" />
<path d="M21.7495 75.7097
L21.9094 75.3119
" />
</g>
<g style="fill:none; 
stroke:#000000; stroke-width:0.0500; stroke-opacity:1; 
stroke-linecap:round; stroke-linejoin:round;">
<path d="M59.7600 13.9607
L61.7600 13.9607
" />
</g>
<g style="fill:none; 
stroke:#000000; stroke-width:0.2000; stroke-opacity:1; 
stroke-linecap:round; stroke-linejoin:round;">
<path d="M66.0776 83.4729
L67.4016 83.6573
" />
<path d="M111.4313 81.6609
L111.6348 80.9518
" />
<path d="M59.9303 3.4697
L59.6793 3.0764
" />
<path d="M111.2166 82.3162
L111.4313 81.6609
" />
<path d="M20.1239 20.1021
L20.4506 19.9676
" />
<path d="M61.3613 5.9402
L61.0792 5.5930
" />
<path d="M22.3302 14.5192
L22.5107 12.8394
" />
<path d="M25.8996 2.0472
L25.5017 2.0922
" />
<path d="M45.3389 65.1491
L45.7453 65.2285
" />
<path d="M4.9514 20.3525
L4.5225 20.5917
" />
<path d="M100.0799 96.8276
L88.1287 89.9277
" />
<path d="M22.7305 68.8457
L22.8776 67.8162
" />
<path d="M45.7453 65.2285
L46.1198 65.3579
" />
<path d="M3.8365 21.2778
L3.5972 21.7066
" />
</g>
<g style="fill:none; 
stroke:#000000; stroke-width:0.0500; stroke-opacity:1; 
stroke-linecap:round; stroke-linejoin:round;">
<path d="M43.8450 18.4507
L57.7950 18.4507
" />
</g>
<g style="fill:none; 
stroke:#000000; stroke-width:0.2000; stroke-opacity:1; 
stroke-linecap:round; stroke-linejoin:round;">
<path d="M114.6144 66.3613
L114.8849 65.5589
" />
<path d="M21.3467 76.3714
L21.5627 76.0641
" />
<path d="M25.5017 2.0922
L25.1373 2.2268
" />
<path d="M77.5037 6.7211
L78.1689 6.9986
" />
<path d="M3.4447 22.1879
L3.3920 22.7221
" />
<path d="M100.2776 10.4538
L100.9517 10.5070
" />
</g>
<g style="fill:none; 
stroke:#000000; stroke-width:0.0500; stroke-opacity:1; 
stroke-linecap:round; stroke-linejoin:round;">
<path d="M59.7600 17.9607
L61.7600 17.9607
" />
</g>
<g style="fill:none; 
stroke:#000000; stroke-width:0.2000; stroke-opacity:1; 
stroke-linecap:round; stroke-linejoin:round;">
<path d="M119.2025 61.3172
L136.4020 61.3172
" />
<path d="M24.2363 3.1440
L23.9956 3.6085
" />
<path d="M21.2563 19.0504
L21.4710 18.5859
" />
<path d="M62.4809 6.5768
L62.0547 6.4431
" />
<path d="M20.4506 19.9676
L20.7475 19.7454
" />
<path d="M48.4429 68.8577
L48.5060 69.6921
" />
<path d="M47.9635 67.2976
L48.2587 68.0555
" />
</g>
<g style="fill:none; 
stroke:#000000; stroke-width:0.0500; stroke-opacity:1; 
stroke-linecap:round; stroke-linejoin:round;">
<path d="M40.7100 33.0107
L42.7100 33.0107
" />
<path d="M80.8100 33.0110
L80.8100 37.0103
" />
</g>
<g style="fill:none; 
stroke:#000000; stroke-width:0.2000; stroke-opacity:1; 
stroke-linecap:round; stroke-linejoin:round;">
<path d="M49.7491 82.3831
L50.3463 82.7740
" />
<path d="M21.4710 18.5859
L21.6617 18.0502
" />
<path d="M23.3890 66.1552
L23.5766 65.8479
" />
<path d="M78.7816 7.4073
L79.3668 7.8847
" />
</g>
<g style="fill:none; 
stroke:#000000; stroke-width:0.0500; stroke-opacity:1; 
stroke-linecap:round; stroke-linejoin:round;">
<path d="M43.8450 42.5007
L43.8450 56.4507
" />
</g>
<g style="fill:none; 
stroke:#000000; stroke-width:0.2000; stroke-opacity:1; 
stroke-linecap:round; stroke-linejoin:round;">
<path d="M23.4255 5.4060
L23.2788 6.1191
" />
<path d="M21.0994 76.6281
L21.3467 76.3714
" />
<path d="M64.7442 83.3539
L66.0776 83.4729
" />
<path d="M21.6617 18.0502
L21.8303 17.4489
" />
</g>
<g style="fill:none; 
stroke:#000000; stroke-width:0.0500; stroke-opacity:1; 
stroke-linecap:round; stroke-linejoin:round;">
<path d="M38.7700 43.5757
L24.8200 43.5757
" />
<path d="M78.8100 33.0107
L80.8100 33.0107
" />
</g>
<g style="fill:none; 
stroke:#000000; stroke-width:0.2000; stroke-opacity:1; 
stroke-linecap:round; stroke-linejoin:round;">
<path d="M83.3207 87.6458
L84.5850 88.0757
" />
<path d="M3.5972 75.5376
L3.8365 75.9665
" />
<path d="M111.6348 80.9518
L111.8281 80.1925
" />
<path d="M58.2776 2.0926
L57.7918 2.0472
" />
<path d="M81.2299 9.0484
L81.5886 9.1222
" />
<path d="M114.3650 67.2095
L114.6144 66.3613
" />
</g>
<g style="fill:none; 
stroke:#000000; stroke-width:0.0500; stroke-opacity:1; 
stroke-linecap:round; stroke-linejoin:round;">
<path d="M78.8100 37.0107
L80.8100 37.0107
" />
</g>
<g style="fill:none; 
stroke:#000000; stroke-width:0.2000; stroke-opacity:1; 
stroke-linecap:round; stroke-linejoin:round;">
<path d="M3.5972 21.7066
L3.4447 22.1879
" />
<path d="M68.7179 83.8930
L71.3346 84.4687
" />
<path d="M24.9668 65.1222
L44.8996 65.1222
" />
<path d="M113.5314 70.9263
L113.9200 69.0164
" />
<path d="M3.4447 75.0564
L3.5972 75.5376
" />
<path d="M85.7919 88.6353
L88.1287 89.9277
" />
<path d="M79.3668 7.8847
L79.9520 8.3621
" />
<path d="M80.5647 8.7708
L81.2299 9.0484
" />
<path d="M59.6793 3.0764
L59.3973 2.7292
" />
<path d="M110.4975 83.9342
L110.7502 83.4547
" />
<path d="M46.1198 65.3579
L46.4639 65.5334
" />
</g>
<g style="fill:none; 
stroke:#000000; stroke-width:0.0500; stroke-opacity:1; 
stroke-linecap:round; stroke-linejoin:round;">
<path d="M78.8100 33.0107
L76.7700 33.0107
" />
</g>
<g style="fill:none; 
stroke:#000000; stroke-width:0.2000; stroke-opacity:1; 
stroke-linecap:round; stroke-linejoin:round;">
<path d="M78.1689 6.9986
L78.7816 7.4073
" />
<path d="M102.0329 97.0814
L102.4902 96.9137
" />
<path d="M79.9520 8.3621
L80.5647 8.7708
" />
<path d="M115.4980 64.1170
L115.8451 63.4897
" />
<path d="M84.5850 88.0757
L85.7919 88.6353
" />
<path d="M63.3996 83.3125
L64.7442 83.3539
" />
<path d="M23.9956 3.6085
L23.7816 4.1442
" />
<path d="M111.8281 80.1925
L112.1890 78.5402
" />
<path d="M20.5042 76.9782
L20.8191 76.8312
" />
<path d="M113.9200 69.0164
L114.3650 67.2095
" />
<path d="M21.5627 76.0641
L21.7495 75.7097
" />
<path d="M23.7923 65.5911
L24.0379 65.3880
" />
<path d="M50.3463 82.7740
L51.0151 83.0662
" />
</g>
<g style="fill:none; 
stroke:#000000; stroke-width:0.0500; stroke-opacity:1; 
stroke-linecap:round; stroke-linejoin:round;">
<path d="M59.7600 13.9607
L57.8000 13.9607
" />
</g>
<g style="fill:none; 
stroke:#000000; stroke-width:0.2000; stroke-opacity:1; 
stroke-linecap:round; stroke-linejoin:round;">
<path d="M23.7816 4.1442
L23.5923 4.7455
" />
<path d="M24.3149 65.2410
L24.6243 65.1520
" />
<path d="M23.2788 6.1191
L23.1497 6.8779
" />
<path d="M101.5530 97.1648
L102.0329 97.0814
" />
<path d="M61.6837 6.2276
L61.3613 5.9402
" />
<path d="M76.7668 6.6222
L62.9668 6.6222
" />
</g>
<g style="fill:none; 
stroke:#000000; stroke-width:0.0500; stroke-opacity:1; 
stroke-linecap:round; stroke-linejoin:round;">
<path d="M57.7950 18.4507
L57.8000 17.9607
" />
</g>
<g style="fill:none; 
stroke:#000000; stroke-width:0.2000; stroke-opacity:1; 
stroke-linecap:round; stroke-linejoin:round;">
<path d="M102.9118 96.6620
L103.2845 96.3214
" />
</g>
<g style="fill:none; 
stroke:#000000; stroke-width:0.0500; stroke-opacity:1; 
stroke-linecap:round; stroke-linejoin:round;">
<path d="M40.7100 37.0107
L38.7700 37.0107
" />
<path d="M24.8200 29.6257
L38.7700 29.6257
" />
</g>
<g style="fill:none; 
stroke:#000000; stroke-width:0.2000; stroke-opacity:1; 
stroke-linecap:round; stroke-linejoin:round;">
<path d="M101.0620 97.1576
L101.5530 97.1648
" />
<path d="M110.4975 83.9342
L103.5973 95.8852
" />
</g>
<g style="fill:none; 
stroke:#000000; stroke-width:0.0500; stroke-opacity:1; 
stroke-linecap:round; stroke-linejoin:round;">
<path d="M59.7600 56.0607
L61.7600 56.0607
" />
</g>
<g style="fill:none; 
stroke:#000000; stroke-width:0.2000; stroke-opacity:1; 
stroke-linecap:round; stroke-linejoin:round;">
<path d="M60.3793 4.3347
L59.9303 3.4697
" />
<path d="M52.5297 83.3125
L63.3996 83.3125
" />
<path d="M46.4639 65.5334
L46.7793 65.7505
" />
<path d="M4.1486 20.9039
L3.8365 21.2778
" />
<path d="M103.2845 96.3214
L103.5973 95.8852
" />
<path d="M132.9020 10.5070
L123.0480 10.5070
" />
<path d="M22.4509 72.2623
L22.5411 71.1096
" />
<path d="M76.7668 6.6222
L77.1450 6.6473
" />
</g>
<g style="fill:none; 
stroke:#000000; stroke-width:0.0500; stroke-opacity:1; 
stroke-linecap:round; stroke-linejoin:round;">
<path d="M40.7100 33.0107
L38.7700 33.0107
" />
</g>
<g style="fill:none; 
stroke:#000000; stroke-width:0.2000; stroke-opacity:1; 
stroke-linecap:round; stroke-linejoin:round;">
<path d="M95.7668 9.1472
L96.4409 9.2005
" />
<path d="M3.8365 75.9665
L4.1486 76.3404
" />
<path d="M24.0379 65.3880
L24.3149 65.2410
" />
<path d="M112.1890 78.5402
L112.5255 76.7417
" />
<path d="M22.5107 12.8394
L22.6735 11.0972
" />
</g>
<g style="fill:none; 
stroke:#000000; stroke-width:0.0500; stroke-opacity:1; 
stroke-linecap:round; stroke-linejoin:round;">
<path d="M43.8450 56.4507
L57.7950 56.4507
" />
</g>
<g style="fill:none; 
stroke:#000000; stroke-width:0.2000; stroke-opacity:1; 
stroke-linecap:round; stroke-linejoin:round;">
<path d="M23.0902 66.9074
L23.3890 66.1552
" />
</g>
<g style="fill:none; 
stroke:#000000; stroke-width:0.0500; stroke-opacity:1; 
stroke-linecap:round; stroke-linejoin:round;">
<path d="M61.7600 56.0607
L61.7600 52.0607
" />
</g>
<g style="fill:none; 
stroke:#000000; stroke-width:0.2000; stroke-opacity:1; 
stroke-linecap:round; stroke-linejoin:round;">
<path d="M100.5690 97.0490
L101.0620 97.1576
" />
</g>
<g style="fill:none; 
stroke:#000000; stroke-width:0.0500; stroke-opacity:1; 
stroke-linecap:round; stroke-linejoin:round;">
<path d="M40.7100 37.0107
L42.7100 37.0107
" />
</g>
<g style="fill:none; 
stroke:#000000; stroke-width:0.2000; stroke-opacity:1; 
stroke-linecap:round; stroke-linejoin:round;">
<path d="M24.8057 2.4489
L24.5058 2.7559
" />
<path d="M25.1373 2.2268
L24.8057 2.4489
" />
<path d="M22.8776 67.8162
L23.0902 66.9074
" />
<path d="M48.8472 81.3190
L49.0284 81.6210
" />
<path d="M48.5282 80.2552
L48.5940 80.6373
" />
</g>
<g style="fill:none; 
stroke:#000000; stroke-width:0.0500; stroke-opacity:1; 
stroke-linecap:round; stroke-linejoin:round;">
<path d="M62.8200 42.0257
L76.7700 42.0257
" />
</g>
<g style="fill:none; 
stroke:#000000; stroke-width:0.2000; stroke-opacity:1; 
stroke-linecap:round; stroke-linejoin:round;">
<path d="M21.0157 19.4384
L21.2563 19.0504
" />
<path d="M97.0935 9.3499
L98.3593 9.8271
" />
</g>
<g style="fill:none; 
stroke:#000000; stroke-width:0.0500; stroke-opacity:1; 
stroke-linecap:round; stroke-linejoin:round;">
<path d="M57.7950 56.4507
L57.8000 56.0607
" />
</g>
<g style="fill:none; 
stroke:#000000; stroke-width:0.2000; stroke-opacity:1; 
stroke-linecap:round; stroke-linejoin:round;">
<path d="M24.5058 2.7559
L24.2363 3.1440
" />
<path d="M21.9791 16.7884
L22.1103 16.0753
" />
<path d="M4.9514 76.8918
L5.4327 77.0443
" />
<path d="M81.5886 9.1222
L81.9667 9.1472
" />
<path d="M51.0151 83.0662
L51.7445 83.2495
" />
<path d="M4.1486 76.3404
L4.5225 76.6525
" />
<path d="M22.3314 73.3736
L22.4509 72.2623
" />
<path d="M112.8511 74.8408
L113.5314 70.9263
" />
<path d="M60.8283 5.1997
L60.3793 4.3347
" />
<path d="M99.6250 10.3043
L100.2776 10.4538
" />
<path d="M118.0630 61.5024
L118.6138 61.3636
" />
<path d="M4.5225 76.6525
L4.9514 76.8918
" />
<path d="M115.8451 63.4897
L116.2220 62.9325
" />
</g>
<g style="fill:none; 
stroke:#000000; stroke-width:0.0500; stroke-opacity:1; 
stroke-linecap:round; stroke-linejoin:round;">
<path d="M24.8200 29.6257
L24.8200 43.5757
" />
</g>
<g style="fill:none; 
stroke:#000000; stroke-width:0.2000; stroke-opacity:1; 
stroke-linecap:round; stroke-linejoin:round;">
<path d="M116.6305 62.4506
L117.0725 62.0489
" />
<path d="M115.1787 64.8088
L115.4980 64.1170
" />
<path d="M137.4020 60.3172
L137.4029 14.8171
" />
<path d="M67.4016 83.6573
L68.7179 83.8930
" />
<path d="M96.4409 9.2005
L97.0935 9.3499
" />
<path d="M73.9365 85.1313
L83.3207 87.6458
" />
<path d="M49.2414 81.8986
L49.7491 82.3831
" />
<path d="M123.0480 10.5070
L100.9517 10.5070
" />
<path d="M23.5923 4.7455
L23.4255 5.4060
" />
<path d="M118.6138 61.3636
L119.2025 61.3172
" />
<path d="M4.5225 20.5917
L4.1486 20.9039
" />
<path d="M102.4902 96.9137
L102.9118 96.6620
" />
<path d="M100.0799 96.8276
L100.5690 97.0490
" />
</g>
<g style="fill:none; 
stroke:#000000; stroke-width:0.0500; stroke-opacity:1; 
stroke-linecap:round; stroke-linejoin:round;">
<path d="M5.8200 41.6007
L19.7700 41.6007
" />
<path d="M5.8200 55.5507
L5.8200 41.6007
" />
<path d="M19.7700 41.6007
L19.7700 55.5507
" />
<path d="M19.7700 55.5507
L5.8200 55.5507
" />
<path d="M62.8200 9.0757
L76.7700 9.0757
" />
<path d="M62.8200 23.0257
L62.8200 9.0757
" />
<path d="M76.7700 9.0757
L76.7700 23.0257
" />
<path d="M76.7700 23.0257
L62.8200 23.0257
" />
<path d="M24.8200 48.6257
L38.7700 48.6257
" />
<path d="M24.8200 62.5757
L24.8200 48.6257
" />
<path d="M38.7700 48.6257
L38.7700 62.5757
" />
<path d="M38.7700 62.5757
L24.8200 62.5757
" />
<path d="M81.8200 30.6007
L95.7700 30.6007
" />
<path d="M81.8200 44.5507
L81.8200 30.6007
" />
<path d="M95.7700 30.6007
L95.7700 44.5507
" />
<path d="M95.7700 44.5507
L81.8200 44.5507
" />
<path d="M89.2420 87.6787
L96.2170 75.5977
" />
<path d="M96.2170 75.5977
L108.2980 82.5727
" />
<path d="M101.3230 94.6537
L89.2420 87.6787
" />
<path d="M108.2980 82.5727
L101.3230 94.6537
" />
<path d="M24.8200 10.6257
L38.7700 10.6257
" />
<path d="M24.8200 24.5757
L24.8200 10.6257
" />
<path d="M38.7700 10.6257
L38.7700 24.5757
" />
<path d="M38.7700 24.5757
L24.8200 24.5757
" />
<path d="M81.8200 49.6007
L95.7700 49.6007
" />
<path d="M81.8200 63.5507
L81.8200 49.6007
" />
<path d="M95.7700 49.6007
L95.7700 63.5507
" />
<path d="M95.7700 63.5507
L81.8200 63.5507
" />
<path d="M5.8200 22.6007
L19.7700 22.6007
" />
<path d="M5.8200 36.5507
L5.8200 22.6007
" />
<path d="M19.7700 22.6007
L19.7700 36.5507
" />
<path d="M19.7700 36.5507
L5.8200 36.5507
" />
<path d="M62.8200 47.0757
L76.7700 47.0757
" />
<path d="M62.8200 61.0257
L62.8200 47.0757
" />
<path d="M76.7700 47.0757
L76.7700 61.0257
" />
<path d="M76.7700 61.0257
L62.8200 61.0257
" />
<path d="M43.8450 23.5007
L57.7950 23.5007
" />
<path d="M43.8450 37.4507
L43.8450 23.5007
" />
<path d="M57.7950 23.5007
L57.7950 37.4507
" />
<path d="M57.7950 37.4507
L43.8450 37.4507
" />
<path d="M5.8200 60.6007
L19.7700 60.6007
" />
<path d="M5.8200 74.5507
L5.8200 60.6007
" />
<path d="M19.7700 60.6007
L19.7700 74.5507
" />
<path d="M19.7700 74.5507
L5.8200 74.5507
" />
<path d="M51.1950 66.8132
L65.1450 66.8132
" />
<path d="M51.1950 80.7632
L51.1950 66.8132
" />
<path d="M65.1450 66.8132
L65.1450 80.7632
" />
<path d="M65.1450 80.7632
L51.1950 80.7632
" />
<path d="M70.5274 81.7578
L74.1379 68.2831
" />
<path d="M74.1379 68.2831
L87.6126 71.8936
" />
<path d="M84.0021 85.3683
L70.5274 81.7578
" />
<path d="M87.6126 71.8936
L84.0021 85.3683
" />
<path d="M81.8200 11.6007
L95.7700 11.6007
" />
<path d="M81.8200 25.5507
L81.8200 11.6007
" />
<path d="M95.7700 11.6007
L95.7700 25.5507
" />
<path d="M95.7700 25.5507
L81.8200 25.5507
" />
</g> 
</svg>
