<?xml version="1.0" standalone="no"?>
 <!DOCTYPE svg PUBLIC "-//W3C//DTD SVG 1.1//EN" 
 "http://www.w3.org/Graphics/SVG/1.1/DTD/svg11.dtd"> 
<svg
  xmlns:svg="http://www.w3.org/2000/svg"
  xmlns="http://www.w3.org/2000/svg"
  xmlns:xlink="http://www.w3.org/1999/xlink"
  version="1.1"
  width="134.1882mm" height="95.3008mm" viewBox="0.0000 0.0000 134.1882 95.3008">
<title>SVG Image created as dilemma-plate-F_Cu.svg date 2024/07/22 19:38:57 </title>
  <desc>Image generated by PCBNEW </desc>
<g style="fill:#000000; fill-opacity:1.0000;stroke:#000000; stroke-opacity:1.0000;
stroke-linecap:round; stroke-linejoin:round;"
 transform="translate(0 0) scale(1 1)">
</g>
<g style="fill:none; 
stroke:#000000; stroke-width:0.0500; stroke-opacity:1; 
stroke-linecap:round; stroke-linejoin:round;">
<path d="M54.5080 50.1135
L54.5080 40.5535
" />
</g>
<g style="fill:none; 
stroke:#000000; stroke-width:0.2000; stroke-opacity:1; 
stroke-linecap:round; stroke-linejoin:round;">
<path d="M19.2491 69.1625
L19.4386 66.8985
" />
<path d="M18.5383 15.5017
L18.6871 14.8412
" />
<path d="M16.8617 75.1201
L17.2122 75.0311
" />
<path d="M109.2336 74.7945
L109.5592 72.8936
" />
</g>
<g style="fill:none; 
stroke:#000000; stroke-width:0.0500; stroke-opacity:1; 
stroke-linecap:round; stroke-linejoin:round;">
<path d="M73.4780 35.0635
L73.4780 40.0785
" />
</g>
<g style="fill:none; 
stroke:#000000; stroke-width:0.2000; stroke-opacity:1; 
stroke-linecap:round; stroke-linejoin:round;">
<path d="M45.2141 77.8973
L45.2363 78.3081
" />
<path d="M16.4748 75.1499
L2.6749 75.1499
" />
<path d="M44.9668 66.1084
L45.1510 66.9105
" />
<path d="M45.4093 79.0443
L45.5553 79.3718
" />
<path d="M44.2736 64.6572
L44.6715 65.3505
" />
<path d="M59.6748 4.6750
L59.1890 4.6297
" />
<path d="M45.3021 78.6901
L45.4093 79.0443
" />
<path d="M95.0673 7.8800
L96.3330 8.3571
" />
<path d="M111.5929 63.6118
L111.8867 62.8616
" />
<path d="M55.4119 0.2792
L54.9857 0.1454
" />
</g>
<g style="fill:none; 
stroke:#000000; stroke-width:0.0500; stroke-opacity:1; 
stroke-linecap:round; stroke-linejoin:round;">
<path d="M35.4780 31.0635
L35.4780 27.6785
" />
</g>
<g style="fill:none; 
stroke:#000000; stroke-width:0.2000; stroke-opacity:1; 
stroke-linecap:round; stroke-linejoin:round;">
<path d="M57.7873 3.6458
L57.5363 3.2525
" />
<path d="M112.9300 60.9853
L113.3386 60.5034
" />
<path d="M41.6076 63.1751
L42.0469 63.2019
" />
</g>
<g style="fill:none; 
stroke:#000000; stroke-width:0.0500; stroke-opacity:1; 
stroke-linecap:round; stroke-linejoin:round;">
<path d="M56.4681 54.1135
L54.5080 54.1135
" />
</g>
<g style="fill:none; 
stroke:#000000; stroke-width:0.2000; stroke-opacity:1; 
stroke-linecap:round; stroke-linejoin:round;">
<path d="M21.3324 63.2049
L21.6749 63.1751
" />
</g>
<g style="fill:none; 
stroke:#000000; stroke-width:0.0500; stroke-opacity:1; 
stroke-linecap:round; stroke-linejoin:round;">
<path d="M39.4181 35.0635
L39.4181 31.0635
" />
<path d="M75.5181 35.0635
L73.4780 35.0635
" />
</g>
<g style="fill:none; 
stroke:#000000; stroke-width:0.2000; stroke-opacity:1; 
stroke-linecap:round; stroke-linejoin:round;">
<path d="M16.4748 18.2000
L16.8319 18.1550
" />
</g>
<g style="fill:none; 
stroke:#000000; stroke-width:0.0500; stroke-opacity:1; 
stroke-linecap:round; stroke-linejoin:round;">
<path d="M58.4681 12.0135
L58.4681 16.0135
" />
<path d="M56.4681 50.1135
L58.4681 50.1135
" />
</g>
<g style="fill:none; 
stroke:#000000; stroke-width:0.2000; stroke-opacity:1; 
stroke-linecap:round; stroke-linejoin:round;">
<path d="M45.7365 79.6738
L45.9494 79.9514
" />
</g>
<g style="fill:none; 
stroke:#000000; stroke-width:0.0500; stroke-opacity:1; 
stroke-linecap:round; stroke-linejoin:round;">
<path d="M40.5531 40.5535
L54.5080 40.5535
" />
<path d="M40.5531 2.5535
L40.5531 16.5035
" />
</g>
<g style="fill:none; 
stroke:#000000; stroke-width:0.2000; stroke-opacity:1; 
stroke-linecap:round; stroke-linejoin:round;">
<path d="M55.7829 0.4946
L55.4119 0.2792
" />
<path d="M2.1407 18.2528
L1.6594 18.4053
" />
<path d="M2.1407 18.2528
L2.6749 18.2000
" />
<path d="M19.3816 9.1500
L19.5491 7.4078
" />
<path d="M114.2576 59.7845
L114.7710 59.5552
" />
</g>
<g style="fill:none; 
stroke:#000000; stroke-width:0.0500; stroke-opacity:1; 
stroke-linecap:round; stroke-linejoin:round;">
<path d="M59.5281 26.1285
L73.4781 26.1285
" />
</g>
<g style="fill:none; 
stroke:#000000; stroke-width:0.2000; stroke-opacity:1; 
stroke-linecap:round; stroke-linejoin:round;">
<path d="M54.4998 0.1000
L22.6076 0.1000
" />
</g>
<g style="fill:none; 
stroke:#000000; stroke-width:0.0500; stroke-opacity:1; 
stroke-linecap:round; stroke-linejoin:round;">
<path d="M40.5531 2.5535
L54.5080 2.5535
" />
</g>
<g style="fill:none; 
stroke:#000000; stroke-width:0.2000; stroke-opacity:1; 
stroke-linecap:round; stroke-linejoin:round;">
<path d="M133.1100 59.3700 A1.0000 1.0000 0.0 0 0 134.1100 58.3700" />
<path d="M78.6748 7.2001
L92.4749 7.2001
" />
<path d="M0.1000 20.7750
L0.1000 72.5750
" />
<path d="M73.8531 4.7001
L74.2117 4.7739
" />
<path d="M17.5271 74.8841
L17.8074 74.6810
" />
</g>
<g style="fill:none; 
stroke:#000000; stroke-width:0.0500; stroke-opacity:1; 
stroke-linecap:round; stroke-linejoin:round;">
<path d="M56.4681 50.1135
L54.5080 50.1135
" />
<path d="M54.5080 12.0135
L54.5080 2.5535
" />
</g>
<g style="fill:none; 
stroke:#000000; stroke-width:0.2000; stroke-opacity:1; 
stroke-linecap:round; stroke-linejoin:round;">
<path d="M18.8666 72.4559
L19.0394 71.4265
" />
<path d="M58.7628 4.4959
L58.3918 4.2804
" />
<path d="M107.4582 81.5075
L107.6978 80.9677
" />
<path d="M43.7753 64.0574
L44.2736 64.6572
" />
<path d="M17.4556 17.7983
L17.7237 17.4913
" />
<path d="M45.2141 67.7450
L45.2141 77.8973
" />
<path d="M43.4873 63.8034
L43.7753 64.0574
" />
<path d="M56.1053 0.7820
L55.7829 0.4946
" />
<path d="M18.8184 14.1281
L19.0382 12.5721
" />
<path d="M134.1109 12.8699 A4.5047 4.5047 0.0 0 0 129.6100 8.5598" />
</g>
<g style="fill:none; 
stroke:#000000; stroke-width:0.0500; stroke-opacity:1; 
stroke-linecap:round; stroke-linejoin:round;">
<path d="M73.4781 26.1285
L73.4781 31.0635
" />
</g>
<g style="fill:none; 
stroke:#000000; stroke-width:0.2000; stroke-opacity:1; 
stroke-linecap:round; stroke-linejoin:round;">
<path d="M20.2846 63.9007
L20.5003 63.6440
" />
</g>
<g style="fill:none; 
stroke:#000000; stroke-width:0.0500; stroke-opacity:1; 
stroke-linecap:round; stroke-linejoin:round;">
<path d="M59.5281 40.0785
L59.5281 26.1285
" />
<path d="M56.4681 16.0135
L54.5080 16.0135
" />
</g>
<g style="fill:none; 
stroke:#000000; stroke-width:0.2000; stroke-opacity:1; 
stroke-linecap:round; stroke-linejoin:round;">
<path d="M2.6749 18.2000
L16.4748 18.2000
" />
<path d="M107.6978 80.9677
L107.9246 80.3691
" />
<path d="M2.1407 75.0971
L2.6749 75.1499
" />
<path d="M18.6175 73.3647
L18.8666 72.4559
" />
<path d="M0.1000 72.5750
L0.1528 73.1092
" />
<path d="M68.0427 82.5216
L70.6445 83.1842
" />
</g>
<g style="fill:none; 
stroke:#000000; stroke-width:0.0500; stroke-opacity:1; 
stroke-linecap:round; stroke-linejoin:round;">
<path d="M35.4781 41.6285
L35.4780 35.0635
" />
</g>
<g style="fill:none; 
stroke:#000000; stroke-width:0.2000; stroke-opacity:1; 
stroke-linecap:round; stroke-linejoin:round;">
<path d="M48.4525 81.3024
L49.2378 81.3653
" />
<path d="M16.4748 75.1499
L16.8617 75.1201
" />
<path d="M19.8577 4.9307
L19.7435 5.7280
" />
<path d="M19.7435 5.7280
L19.5491 7.4078
" />
<path d="M113.7806 60.1018
L114.2576 59.7845
" />
<path d="M18.4576 73.7625
L18.6175 73.3647
" />
</g>
<g style="fill:none; 
stroke:#000000; stroke-width:0.0500; stroke-opacity:1; 
stroke-linecap:round; stroke-linejoin:round;">
<path d="M56.4681 12.0135
L58.4681 12.0135
" />
</g>
<g style="fill:none; 
stroke:#000000; stroke-width:0.2000; stroke-opacity:1; 
stroke-linecap:round; stroke-linejoin:round;">
<path d="M62.7857 81.5258
L64.1096 81.7102
" />
<path d="M108.1394 79.7137
L108.3429 79.0047
" />
<path d="M56.6383 1.5226
L56.3874 1.1292
" />
<path d="M107.9246 80.3691
L108.1394 79.7137
" />
<path d="M16.8319 18.1550
L17.1587 18.0205
" />
<path d="M58.0693 3.9930
L57.7873 3.6458
" />
<path d="M19.0382 12.5721
L19.2187 10.8923
" />
<path d="M22.6076 0.1000
L22.2098 0.1451
" />
<path d="M42.0469 63.2019
L42.4533 63.2813
" />
<path d="M1.6594 18.4053
L1.2306 18.6446
" />
<path d="M96.7880 94.8805
L84.8368 87.9806
" />
<path d="M19.4386 66.8985
L19.5857 65.8690
" />
<path d="M42.4533 63.2813
L42.8278 63.4107
" />
<path d="M0.5445 19.3306
L0.3053 19.7595
" />
</g>
<g style="fill:none; 
stroke:#000000; stroke-width:0.0500; stroke-opacity:1; 
stroke-linecap:round; stroke-linejoin:round;">
<path d="M40.5531 16.5035
L54.5031 16.5035
" />
</g>
<g style="fill:none; 
stroke:#000000; stroke-width:0.2000; stroke-opacity:1; 
stroke-linecap:round; stroke-linejoin:round;">
<path d="M111.3225 64.4142
L111.5929 63.6118
" />
<path d="M18.0547 74.4243
L18.2707 74.1170
" />
<path d="M22.2098 0.1451
L21.8454 0.2796
" />
<path d="M74.2117 4.7739
L74.8770 5.0515
" />
<path d="M0.1528 20.2407
L0.1000 20.7750
" />
<path d="M96.9857 8.5066
L97.6598 8.5599
" />
</g>
<g style="fill:none; 
stroke:#000000; stroke-width:0.0500; stroke-opacity:1; 
stroke-linecap:round; stroke-linejoin:round;">
<path d="M56.4681 16.0135
L58.4681 16.0135
" />
</g>
<g style="fill:none; 
stroke:#000000; stroke-width:0.2000; stroke-opacity:1; 
stroke-linecap:round; stroke-linejoin:round;">
<path d="M115.9105 59.3700
L133.1100 59.3700
" />
<path d="M20.9444 1.1968
L20.7036 1.6613
" />
<path d="M17.9643 17.1032
L18.1791 16.6387
" />
<path d="M59.1890 4.6297
L58.7628 4.4959
" />
<path d="M17.1587 18.0205
L17.4556 17.7983
" />
<path d="M45.1510 66.9105
L45.2141 67.7450
" />
<path d="M44.6715 65.3505
L44.9668 66.1084
" />
</g>
<g style="fill:none; 
stroke:#000000; stroke-width:0.0500; stroke-opacity:1; 
stroke-linecap:round; stroke-linejoin:round;">
<path d="M37.4181 31.0635
L39.4181 31.0635
" />
<path d="M77.5181 31.0639
L77.5181 35.0632
" />
</g>
<g style="fill:none; 
stroke:#000000; stroke-width:0.2000; stroke-opacity:1; 
stroke-linecap:round; stroke-linejoin:round;">
<path d="M46.4572 80.4359
L47.0544 80.8268
" />
<path d="M18.1791 16.6387
L18.3697 16.1030
" />
<path d="M20.0970 64.2080
L20.2846 63.9007
" />
<path d="M75.4897 5.4602
L76.0748 5.9376
" />
</g>
<g style="fill:none; 
stroke:#000000; stroke-width:0.0500; stroke-opacity:1; 
stroke-linecap:round; stroke-linejoin:round;">
<path d="M40.5531 40.5535
L40.5531 54.5035
" />
</g>
<g style="fill:none; 
stroke:#000000; stroke-width:0.2000; stroke-opacity:1; 
stroke-linecap:round; stroke-linejoin:round;">
<path d="M20.1336 3.4588
L19.9869 4.1719
" />
<path d="M17.8074 74.6810
L18.0547 74.4243
" />
<path d="M61.4522 81.4068
L62.7857 81.5258
" />
<path d="M18.3697 16.1030
L18.5383 15.5017
" />
</g>
<g style="fill:none; 
stroke:#000000; stroke-width:0.0500; stroke-opacity:1; 
stroke-linecap:round; stroke-linejoin:round;">
<path d="M35.4781 41.6285
L21.5281 41.6285
" />
<path d="M75.5181 31.0635
L77.5180 31.0635
" />
</g>
<g style="fill:none; 
stroke:#000000; stroke-width:0.2000; stroke-opacity:1; 
stroke-linecap:round; stroke-linejoin:round;">
<path d="M80.0287 85.6987
L81.2931 86.1285
" />
<path d="M0.3053 73.5905
L0.5445 74.0193
" />
<path d="M108.3429 79.0047
L108.5361 78.2454
" />
<path d="M54.9857 0.1454
L54.4998 0.1000
" />
<path d="M77.9380 7.1012
L78.2966 7.1750
" />
<path d="M111.0730 65.2623
L111.3225 64.4142
" />
</g>
<g style="fill:none; 
stroke:#000000; stroke-width:0.0500; stroke-opacity:1; 
stroke-linecap:round; stroke-linejoin:round;">
<path d="M75.5181 35.0635
L77.5180 35.0635
" />
</g>
<g style="fill:none; 
stroke:#000000; stroke-width:0.2000; stroke-opacity:1; 
stroke-linecap:round; stroke-linejoin:round;">
<path d="M0.3053 19.7595
L0.1528 20.2407
" />
<path d="M65.4260 81.9458
L68.0427 82.5216
" />
<path d="M21.6749 63.1751
L41.6076 63.1751
" />
<path d="M110.2394 68.9791
L110.6280 67.0692
" />
<path d="M0.1528 73.1092
L0.3053 73.5905
" />
<path d="M82.5000 86.6881
L84.8368 87.9806
" />
<path d="M76.0748 5.9376
L76.6600 6.4149
" />
<path d="M77.2727 6.8236
L77.9380 7.1012
" />
<path d="M56.3874 1.1292
L56.1053 0.7820
" />
<path d="M107.2055 81.9870
L107.4582 81.5075
" />
<path d="M42.8278 63.4107
L43.1720 63.5862
" />
</g>
<g style="fill:none; 
stroke:#000000; stroke-width:0.0500; stroke-opacity:1; 
stroke-linecap:round; stroke-linejoin:round;">
<path d="M75.5181 31.0635
L73.4780 31.0635
" />
</g>
<g style="fill:none; 
stroke:#000000; stroke-width:0.2000; stroke-opacity:1; 
stroke-linecap:round; stroke-linejoin:round;">
<path d="M74.8770 5.0515
L75.4897 5.4602
" />
<path d="M98.7409 95.1343
L99.1982 94.9665
" />
<path d="M76.6600 6.4149
L77.2727 6.8236
" />
<path d="M112.2061 62.1698
L112.5532 61.5425
" />
<path d="M81.2931 86.1285
L82.5000 86.6881
" />
<path d="M60.1076 81.3653
L61.4522 81.4068
" />
<path d="M20.7036 1.6613
L20.4896 2.1970
" />
<path d="M108.5361 78.2454
L108.8971 76.5930
" />
<path d="M17.2122 75.0311
L17.5271 74.8841
" />
<path d="M110.6280 67.0692
L111.0730 65.2623
" />
<path d="M18.2707 74.1170
L18.4576 73.7625
" />
<path d="M20.5003 63.6440
L20.7460 63.4409
" />
<path d="M47.0544 80.8268
L47.7231 81.1191
" />
</g>
<g style="fill:none; 
stroke:#000000; stroke-width:0.0500; stroke-opacity:1; 
stroke-linecap:round; stroke-linejoin:round;">
<path d="M56.4681 12.0135
L54.5080 12.0135
" />
</g>
<g style="fill:none; 
stroke:#000000; stroke-width:0.2000; stroke-opacity:1; 
stroke-linecap:round; stroke-linejoin:round;">
<path d="M20.4896 2.1970
L20.3004 2.7983
" />
<path d="M21.0230 63.2939
L21.3324 63.2049
" />
<path d="M19.9869 4.1719
L19.8577 4.9307
" />
<path d="M98.2611 95.2176
L98.7409 95.1343
" />
<path d="M58.3918 4.2804
L58.0693 3.9930
" />
<path d="M73.4749 4.6750
L59.6748 4.6750
" />
</g>
<g style="fill:none; 
stroke:#000000; stroke-width:0.0500; stroke-opacity:1; 
stroke-linecap:round; stroke-linejoin:round;">
<path d="M54.5031 16.5035
L54.5080 16.0135
" />
</g>
<g style="fill:none; 
stroke:#000000; stroke-width:0.2000; stroke-opacity:1; 
stroke-linecap:round; stroke-linejoin:round;">
<path d="M99.6198 94.7148
L99.9925 94.3743
" />
</g>
<g style="fill:none; 
stroke:#000000; stroke-width:0.0500; stroke-opacity:1; 
stroke-linecap:round; stroke-linejoin:round;">
<path d="M37.4181 35.0635
L35.4780 35.0635
" />
<path d="M21.5281 27.6785
L35.4780 27.6785
" />
</g>
<g style="fill:none; 
stroke:#000000; stroke-width:0.2000; stroke-opacity:1; 
stroke-linecap:round; stroke-linejoin:round;">
<path d="M97.7701 95.2104
L98.2611 95.2176
" />
<path d="M107.2055 81.9870
L100.3054 93.9380
" />
</g>
<g style="fill:none; 
stroke:#000000; stroke-width:0.0500; stroke-opacity:1; 
stroke-linecap:round; stroke-linejoin:round;">
<path d="M56.4681 54.1135
L58.4681 54.1135
" />
</g>
<g style="fill:none; 
stroke:#000000; stroke-width:0.2000; stroke-opacity:1; 
stroke-linecap:round; stroke-linejoin:round;">
<path d="M57.0873 2.3875
L56.6383 1.5226
" />
<path d="M49.2378 81.3653
L60.1076 81.3653
" />
<path d="M43.1720 63.5862
L43.4873 63.8034
" />
<path d="M0.8567 18.9567
L0.5445 19.3306
" />
<path d="M99.9925 94.3743
L100.3054 93.9380
" />
<path d="M129.6100 8.5598
L119.7560 8.5598
" />
<path d="M19.1590 70.3151
L19.2491 69.1625
" />
<path d="M73.4749 4.6750
L73.8531 4.7001
" />
</g>
<g style="fill:none; 
stroke:#000000; stroke-width:0.0500; stroke-opacity:1; 
stroke-linecap:round; stroke-linejoin:round;">
<path d="M37.4181 31.0635
L35.4780 31.0635
" />
</g>
<g style="fill:none; 
stroke:#000000; stroke-width:0.2000; stroke-opacity:1; 
stroke-linecap:round; stroke-linejoin:round;">
<path d="M92.4749 7.2001
L93.1489 7.2533
" />
<path d="M0.5445 74.0193
L0.8567 74.3932
" />
<path d="M20.7460 63.4409
L21.0230 63.2939
" />
<path d="M108.8971 76.5930
L109.2336 74.7945
" />
<path d="M19.2187 10.8923
L19.3816 9.1500
" />
</g>
<g style="fill:none; 
stroke:#000000; stroke-width:0.0500; stroke-opacity:1; 
stroke-linecap:round; stroke-linejoin:round;">
<path d="M40.5531 54.5035
L54.5031 54.5035
" />
</g>
<g style="fill:none; 
stroke:#000000; stroke-width:0.2000; stroke-opacity:1; 
stroke-linecap:round; stroke-linejoin:round;">
<path d="M19.7983 64.9602
L20.0970 64.2080
" />
</g>
<g style="fill:none; 
stroke:#000000; stroke-width:0.0500; stroke-opacity:1; 
stroke-linecap:round; stroke-linejoin:round;">
<path d="M58.4681 54.1135
L58.4681 50.1135
" />
</g>
<g style="fill:none; 
stroke:#000000; stroke-width:0.2000; stroke-opacity:1; 
stroke-linecap:round; stroke-linejoin:round;">
<path d="M97.2770 95.1019
L97.7701 95.2104
" />
</g>
<g style="fill:none; 
stroke:#000000; stroke-width:0.0500; stroke-opacity:1; 
stroke-linecap:round; stroke-linejoin:round;">
<path d="M37.4181 35.0635
L39.4181 35.0635
" />
</g>
<g style="fill:none; 
stroke:#000000; stroke-width:0.2000; stroke-opacity:1; 
stroke-linecap:round; stroke-linejoin:round;">
<path d="M21.5137 0.5018
L21.2139 0.8088
" />
<path d="M21.8454 0.2796
L21.5137 0.5018
" />
<path d="M19.5857 65.8690
L19.7983 64.9602
" />
<path d="M45.5553 79.3718
L45.7365 79.6738
" />
<path d="M45.2363 78.3081
L45.3021 78.6901
" />
</g>
<g style="fill:none; 
stroke:#000000; stroke-width:0.0500; stroke-opacity:1; 
stroke-linecap:round; stroke-linejoin:round;">
<path d="M59.5281 40.0785
L73.4780 40.0785
" />
</g>
<g style="fill:none; 
stroke:#000000; stroke-width:0.2000; stroke-opacity:1; 
stroke-linecap:round; stroke-linejoin:round;">
<path d="M17.7237 17.4913
L17.9643 17.1032
" />
<path d="M93.8016 7.4028
L95.0673 7.8800
" />
</g>
<g style="fill:none; 
stroke:#000000; stroke-width:0.0500; stroke-opacity:1; 
stroke-linecap:round; stroke-linejoin:round;">
<path d="M54.5031 54.5035
L54.5080 54.1135
" />
</g>
<g style="fill:none; 
stroke:#000000; stroke-width:0.2000; stroke-opacity:1; 
stroke-linecap:round; stroke-linejoin:round;">
<path d="M21.2139 0.8088
L20.9444 1.1968
" />
<path d="M18.6871 14.8412
L18.8184 14.1281
" />
<path d="M1.6594 74.9446
L2.1407 75.0971
" />
<path d="M78.2966 7.1750
L78.6748 7.2001
" />
<path d="M47.7231 81.1191
L48.4525 81.3024
" />
<path d="M0.8567 74.3932
L1.2306 74.7054
" />
<path d="M19.0394 71.4265
L19.1590 70.3151
" />
<path d="M109.5592 72.8936
L110.2394 68.9791
" />
<path d="M57.5363 3.2525
L57.0873 2.3875
" />
<path d="M96.3330 8.3571
L96.9857 8.5066
" />
<path d="M114.7710 59.5552
L115.3218 59.4164
" />
<path d="M1.2306 74.7054
L1.6594 74.9446
" />
<path d="M112.5532 61.5425
L112.9300 60.9853
" />
</g>
<g style="fill:none; 
stroke:#000000; stroke-width:0.0500; stroke-opacity:1; 
stroke-linecap:round; stroke-linejoin:round;">
<path d="M21.5281 27.6785
L21.5281 41.6285
" />
</g>
<g style="fill:none; 
stroke:#000000; stroke-width:0.2000; stroke-opacity:1; 
stroke-linecap:round; stroke-linejoin:round;">
<path d="M113.3386 60.5034
L113.7806 60.1018
" />
<path d="M111.8867 62.8616
L112.2061 62.1698
" />
<path d="M134.1100 58.3700
L134.1109 12.8699
" />
<path d="M64.1096 81.7102
L65.4260 81.9458
" />
<path d="M93.1489 7.2533
L93.8016 7.4028
" />
<path d="M70.6445 83.1842
L80.0287 85.6987
" />
<path d="M45.9494 79.9514
L46.4572 80.4359
" />
<path d="M119.7560 8.5598
L97.6598 8.5599
" />
<path d="M20.3004 2.7983
L20.1336 3.4588
" />
<path d="M115.3218 59.4164
L115.9105 59.3700
" />
<path d="M1.2306 18.6446
L0.8567 18.9567
" />
<path d="M99.1982 94.9665
L99.6198 94.7148
" />
<path d="M96.7880 94.8805
L97.2770 95.1019
" />
</g>
<g style="fill:none; 
stroke:#000000; stroke-width:0.0500; stroke-opacity:1; 
stroke-linecap:round; stroke-linejoin:round;">
<path d="M2.5281 39.6535
L16.4781 39.6535
" />
<path d="M2.5281 53.6035
L2.5281 39.6535
" />
<path d="M16.4781 39.6535
L16.4781 53.6035
" />
<path d="M16.4781 53.6035
L2.5281 53.6035
" />
<path d="M59.5281 7.1285
L73.4781 7.1285
" />
<path d="M59.5281 21.0785
L59.5281 7.1285
" />
<path d="M73.4781 7.1285
L73.4781 21.0785
" />
<path d="M73.4781 21.0785
L59.5281 21.0785
" />
<path d="M21.5281 46.6785
L35.4781 46.6785
" />
<path d="M21.5281 60.6285
L21.5281 46.6785
" />
<path d="M35.4781 46.6785
L35.4781 60.6285
" />
<path d="M35.4781 60.6285
L21.5281 60.6285
" />
<path d="M78.5281 28.6535
L92.4781 28.6535
" />
<path d="M78.5281 42.6035
L78.5281 28.6535
" />
<path d="M92.4781 28.6535
L92.4781 42.6035
" />
<path d="M92.4781 42.6035
L78.5281 42.6035
" />
<path d="M85.9500 85.7315
L92.9250 73.6505
" />
<path d="M92.9250 73.6505
L105.0061 80.6255
" />
<path d="M98.0311 92.7065
L85.9500 85.7315
" />
<path d="M105.0061 80.6255
L98.0311 92.7065
" />
<path d="M21.5281 8.6785
L35.4781 8.6785
" />
<path d="M21.5281 22.6285
L21.5281 8.6785
" />
<path d="M35.4781 8.6785
L35.4781 22.6285
" />
<path d="M35.4781 22.6285
L21.5281 22.6285
" />
<path d="M78.5281 47.6535
L92.4781 47.6535
" />
<path d="M78.5281 61.6035
L78.5281 47.6535
" />
<path d="M92.4781 47.6535
L92.4781 61.6035
" />
<path d="M92.4781 61.6035
L78.5281 61.6035
" />
<path d="M2.5281 20.6535
L16.4781 20.6535
" />
<path d="M2.5281 34.6035
L2.5281 20.6535
" />
<path d="M16.4781 20.6535
L16.4781 34.6035
" />
<path d="M16.4781 34.6035
L2.5281 34.6035
" />
<path d="M59.5281 45.1285
L73.4781 45.1285
" />
<path d="M59.5281 59.0785
L59.5281 45.1285
" />
<path d="M73.4781 45.1285
L73.4781 59.0785
" />
<path d="M73.4781 59.0785
L59.5281 59.0785
" />
<path d="M40.5531 21.5535
L54.5031 21.5535
" />
<path d="M40.5531 35.5035
L40.5531 21.5535
" />
<path d="M54.5031 21.5535
L54.5031 35.5035
" />
<path d="M54.5031 35.5035
L40.5531 35.5035
" />
<path d="M2.5281 58.6535
L16.4781 58.6535
" />
<path d="M2.5281 72.6035
L2.5281 58.6535
" />
<path d="M16.4781 58.6535
L16.4781 72.6035
" />
<path d="M16.4781 72.6035
L2.5281 72.6035
" />
<path d="M47.9031 64.8660
L61.8531 64.8660
" />
<path d="M47.9031 78.8160
L47.9031 64.8660
" />
<path d="M61.8531 64.8660
L61.8531 78.8160
" />
<path d="M61.8531 78.8160
L47.9031 78.8160
" />
<path d="M67.2355 79.8106
L70.8460 66.3359
" />
<path d="M70.8460 66.3359
L84.3207 69.9464
" />
<path d="M80.7101 83.4211
L67.2355 79.8106
" />
<path d="M84.3207 69.9464
L80.7101 83.4211
" />
<path d="M78.5281 9.6535
L92.4781 9.6535
" />
<path d="M78.5281 23.6035
L78.5281 9.6535
" />
<path d="M92.4781 9.6535
L92.4781 23.6035
" />
<path d="M92.4781 23.6035
L78.5281 23.6035
" />
</g>
<g style="fill:#000000; fill-opacity:1.0000; stroke:none;">
<circle cx="23.1531" cy="4.5335" r="0.2500" /> 
</g>
<g style="fill:#000000; fill-opacity:1.0000; stroke:none;">
<circle cx="23.7462" cy="3.1016" r="0.2500" /> 
</g>
<g style="fill:#000000; fill-opacity:1.0000; stroke:none;">
<circle cx="23.7462" cy="5.9654" r="0.2500" /> 
</g>
<g style="fill:#000000; fill-opacity:1.0000; stroke:none;">
<circle cx="25.1781" cy="2.5085" r="0.2500" /> 
</g>
<g style="fill:#000000; fill-opacity:1.0000; stroke:none;">
<circle cx="25.1781" cy="4.5335" r="1.5000" /> 
</g>
<g style="fill:#000000; fill-opacity:1.0000; stroke:none;">
<circle cx="25.1781" cy="6.5585" r="0.2500" /> 
</g>
<g style="fill:#000000; fill-opacity:1.0000; stroke:none;">
<circle cx="26.6099" cy="3.1016" r="0.2500" /> 
</g>
<g style="fill:#000000; fill-opacity:1.0000; stroke:none;">
<circle cx="26.6099" cy="5.9654" r="0.2500" /> 
</g>
<g style="fill:#000000; fill-opacity:1.0000; stroke:none;">
<circle cx="27.2031" cy="4.5335" r="0.2500" /> 
</g>
<g style="fill:#000000; fill-opacity:1.0000; stroke:none;">
<circle cx="104.9031" cy="64.1035" r="0.2500" /> 
</g>
<g style="fill:#000000; fill-opacity:1.0000; stroke:none;">
<circle cx="105.4962" cy="62.6716" r="0.2500" /> 
</g>
<g style="fill:#000000; fill-opacity:1.0000; stroke:none;">
<circle cx="105.4962" cy="65.5354" r="0.2500" /> 
</g>
<g style="fill:#000000; fill-opacity:1.0000; stroke:none;">
<circle cx="106.9281" cy="62.0785" r="0.2500" /> 
</g>
<g style="fill:#000000; fill-opacity:1.0000; stroke:none;">
<circle cx="106.9281" cy="64.1035" r="1.5000" /> 
</g>
<g style="fill:#000000; fill-opacity:1.0000; stroke:none;">
<circle cx="106.9281" cy="66.1285" r="0.2500" /> 
</g>
<g style="fill:#000000; fill-opacity:1.0000; stroke:none;">
<circle cx="108.3599" cy="62.6716" r="0.2500" /> 
</g>
<g style="fill:#000000; fill-opacity:1.0000; stroke:none;">
<circle cx="108.3599" cy="65.5354" r="0.2500" /> 
</g>
<g style="fill:#000000; fill-opacity:1.0000; stroke:none;">
<circle cx="108.9531" cy="64.1035" r="0.2500" /> 
</g>
<g style="fill:#000000; fill-opacity:1.0000; stroke:none;">
<circle cx="98.5830" cy="12.5528" r="0.2500" /> 
</g>
<g style="fill:#000000; fill-opacity:1.0000; stroke:none;">
<circle cx="99.1762" cy="11.1209" r="0.2500" /> 
</g>
<g style="fill:#000000; fill-opacity:1.0000; stroke:none;">
<circle cx="99.1762" cy="13.9847" r="0.2500" /> 
</g>
<g style="fill:#000000; fill-opacity:1.0000; stroke:none;">
<circle cx="100.6080" cy="10.5278" r="0.2500" /> 
</g>
<g style="fill:#000000; fill-opacity:1.0000; stroke:none;">
<circle cx="100.6080" cy="12.5528" r="1.5000" /> 
</g>
<g style="fill:#000000; fill-opacity:1.0000; stroke:none;">
<circle cx="100.6080" cy="14.5778" r="0.2500" /> 
</g>
<g style="fill:#000000; fill-opacity:1.0000; stroke:none;">
<circle cx="102.0399" cy="11.1209" r="0.2500" /> 
</g>
<g style="fill:#000000; fill-opacity:1.0000; stroke:none;">
<circle cx="102.0399" cy="13.9847" r="0.2500" /> 
</g>
<g style="fill:#000000; fill-opacity:1.0000; stroke:none;">
<circle cx="102.6330" cy="12.5528" r="0.2500" /> 
</g>
<g style="fill:#000000; fill-opacity:1.0000; stroke:none;">
<circle cx="43.5412" cy="60.3091" r="0.2500" /> 
</g>
<g style="fill:#000000; fill-opacity:1.0000; stroke:none;">
<circle cx="44.1343" cy="58.8772" r="0.2500" /> 
</g>
<g style="fill:#000000; fill-opacity:1.0000; stroke:none;">
<circle cx="44.1343" cy="61.7410" r="0.2500" /> 
</g>
<g style="fill:#000000; fill-opacity:1.0000; stroke:none;">
<circle cx="45.5662" cy="58.2841" r="0.2500" /> 
</g>
<g style="fill:#000000; fill-opacity:1.0000; stroke:none;">
<circle cx="45.5662" cy="60.3091" r="1.5000" /> 
</g>
<g style="fill:#000000; fill-opacity:1.0000; stroke:none;">
<circle cx="45.5662" cy="62.3341" r="0.2500" /> 
</g>
<g style="fill:#000000; fill-opacity:1.0000; stroke:none;">
<circle cx="46.9981" cy="58.8772" r="0.2500" /> 
</g>
<g style="fill:#000000; fill-opacity:1.0000; stroke:none;">
<circle cx="46.9981" cy="61.7410" r="0.2500" /> 
</g>
<g style="fill:#000000; fill-opacity:1.0000; stroke:none;">
<circle cx="47.5912" cy="60.3091" r="0.2500" /> 
</g>
<g style="fill:#000000; fill-opacity:1.0000; stroke:none;">
<circle cx="23.1531" cy="4.5335" r="0.4000" /> 
</g>
<g style="fill:#000000; fill-opacity:1.0000; stroke:none;">
<circle cx="23.7462" cy="3.1016" r="0.4000" /> 
</g>
<g style="fill:#000000; fill-opacity:1.0000; stroke:none;">
<circle cx="23.7462" cy="5.9654" r="0.4000" /> 
</g>
<g style="fill:#000000; fill-opacity:1.0000; stroke:none;">
<circle cx="25.1781" cy="2.5085" r="0.4000" /> 
</g>
<g style="fill:#000000; fill-opacity:1.0000; stroke:none;">
<circle cx="25.1781" cy="4.5335" r="2.5000" /> 
</g>
<g style="fill:#000000; fill-opacity:1.0000; stroke:none;">
<circle cx="25.1781" cy="6.5585" r="0.4000" /> 
</g>
<g style="fill:#000000; fill-opacity:1.0000; stroke:none;">
<circle cx="26.6099" cy="3.1016" r="0.4000" /> 
</g>
<g style="fill:#000000; fill-opacity:1.0000; stroke:none;">
<circle cx="26.6099" cy="5.9654" r="0.4000" /> 
</g>
<g style="fill:#000000; fill-opacity:1.0000; stroke:none;">
<circle cx="27.2031" cy="4.5335" r="0.4000" /> 
</g>
<g style="fill:#000000; fill-opacity:1.0000; stroke:none;">
<circle cx="104.9031" cy="64.1035" r="0.4000" /> 
</g>
<g style="fill:#000000; fill-opacity:1.0000; stroke:none;">
<circle cx="105.4962" cy="62.6716" r="0.4000" /> 
</g>
<g style="fill:#000000; fill-opacity:1.0000; stroke:none;">
<circle cx="105.4962" cy="65.5354" r="0.4000" /> 
</g>
<g style="fill:#000000; fill-opacity:1.0000; stroke:none;">
<circle cx="106.9281" cy="62.0785" r="0.4000" /> 
</g>
<g style="fill:#000000; fill-opacity:1.0000; stroke:none;">
<circle cx="106.9281" cy="64.1035" r="2.5000" /> 
</g>
<g style="fill:#000000; fill-opacity:1.0000; stroke:none;">
<circle cx="106.9281" cy="66.1285" r="0.4000" /> 
</g>
<g style="fill:#000000; fill-opacity:1.0000; stroke:none;">
<circle cx="108.3599" cy="62.6716" r="0.4000" /> 
</g>
<g style="fill:#000000; fill-opacity:1.0000; stroke:none;">
<circle cx="108.3599" cy="65.5354" r="0.4000" /> 
</g>
<g style="fill:#000000; fill-opacity:1.0000; stroke:none;">
<circle cx="108.9531" cy="64.1035" r="0.4000" /> 
</g>
<g style="fill:#000000; fill-opacity:1.0000; stroke:none;">
<circle cx="98.5830" cy="12.5528" r="0.4000" /> 
</g>
<g style="fill:#000000; fill-opacity:1.0000; stroke:none;">
<circle cx="99.1762" cy="11.1209" r="0.4000" /> 
</g>
<g style="fill:#000000; fill-opacity:1.0000; stroke:none;">
<circle cx="99.1762" cy="13.9847" r="0.4000" /> 
</g>
<g style="fill:#000000; fill-opacity:1.0000; stroke:none;">
<circle cx="100.6080" cy="10.5278" r="0.4000" /> 
</g>
<g style="fill:#000000; fill-opacity:1.0000; stroke:none;">
<circle cx="100.6080" cy="12.5528" r="2.5000" /> 
</g>
<g style="fill:#000000; fill-opacity:1.0000; stroke:none;">
<circle cx="100.6080" cy="14.5778" r="0.4000" /> 
</g>
<g style="fill:#000000; fill-opacity:1.0000; stroke:none;">
<circle cx="102.0399" cy="11.1209" r="0.4000" /> 
</g>
<g style="fill:#000000; fill-opacity:1.0000; stroke:none;">
<circle cx="102.0399" cy="13.9847" r="0.4000" /> 
</g>
<g style="fill:#000000; fill-opacity:1.0000; stroke:none;">
<circle cx="102.6330" cy="12.5528" r="0.4000" /> 
</g>
<g style="fill:#000000; fill-opacity:1.0000; stroke:none;">
<circle cx="43.5412" cy="60.3091" r="0.4000" /> 
</g>
<g style="fill:#000000; fill-opacity:1.0000; stroke:none;">
<circle cx="44.1343" cy="58.8772" r="0.4000" /> 
</g>
<g style="fill:#000000; fill-opacity:1.0000; stroke:none;">
<circle cx="44.1343" cy="61.7410" r="0.4000" /> 
</g>
<g style="fill:#000000; fill-opacity:1.0000; stroke:none;">
<circle cx="45.5662" cy="58.2841" r="0.4000" /> 
</g>
<g style="fill:#000000; fill-opacity:1.0000; stroke:none;">
<circle cx="45.5662" cy="60.3091" r="2.5000" /> 
</g>
<g style="fill:#000000; fill-opacity:1.0000; stroke:none;">
<circle cx="45.5662" cy="62.3341" r="0.4000" /> 
</g>
<g style="fill:#000000; fill-opacity:1.0000; stroke:none;">
<circle cx="46.9981" cy="58.8772" r="0.4000" /> 
</g>
<g style="fill:#000000; fill-opacity:1.0000; stroke:none;">
<circle cx="46.9981" cy="61.7410" r="0.4000" /> 
</g>
<g style="fill:#000000; fill-opacity:1.0000; stroke:none;">
<circle cx="47.5912" cy="60.3091" r="0.4000" /> 
<path style="fill:#000000; fill-opacity:1.0000; stroke:none;fill-rule:evenodd;"
d="M 108.5016,65.3235
108.4097,65.2854
108.3102,65.2854
108.2183,65.3235
108.1480,65.3938
108.1099,65.4857
108.1099,65.5851
108.1480,65.6770
107.7972,65.3262
107.9052,65.2477
108.0722,65.0807
108.1507,64.9726
Z" /> 
<path style="fill:#000000; fill-opacity:1.0000; stroke:none;fill-rule:evenodd;"
d="M 106.0589,62.8809
105.9509,62.9594
105.7839,63.1263
105.7054,63.2344
105.3546,62.8836
105.4464,62.9216
105.5459,62.9216
105.6378,62.8836
105.7081,62.8132
105.7462,62.7214
105.7462,62.6219
105.7081,62.5300
Z" /> 
<path style="fill:#000000; fill-opacity:1.0000; stroke:none;fill-rule:evenodd;"
d="M 47.1397,61.5291
47.0478,61.4910
46.9483,61.4910
46.8564,61.5291
46.7861,61.5994
46.7481,61.6913
46.7481,61.7907
46.7861,61.8826
46.4353,61.5318
46.5433,61.4533
46.7103,61.2863
46.7888,61.1782
Z" /> 
<path style="fill:#000000; fill-opacity:1.0000; stroke:none;fill-rule:evenodd;"
d="M 44.6971,59.0865
44.5890,59.1650
44.4220,59.3319
44.3435,59.4400
43.9927,59.0892
44.0845,59.1272
44.1840,59.1272
44.2759,59.0892
44.3462,59.0188
44.3843,58.9270
44.3843,58.8275
44.3462,58.7356
Z" /> 
<path style="fill:#000000; fill-opacity:1.0000; stroke:none;fill-rule:evenodd;"
d="M 102.1815,13.7728
102.0897,13.7347
101.9902,13.7347
101.8983,13.7728
101.8280,13.8431
101.7899,13.9350
101.7899,14.0345
101.8280,14.1263
101.4771,13.7755
101.5852,13.6970
101.7522,13.5300
101.8307,13.4219
Z" /> 
<path style="fill:#000000; fill-opacity:1.0000; stroke:none;fill-rule:evenodd;"
d="M 99.7389,11.3302
99.6309,11.4087
99.4639,11.5756
99.3854,11.6837
99.0345,11.3329
99.1264,11.3709
99.2259,11.3709
99.3178,11.3329
99.3881,11.2626
99.4262,11.1707
99.4262,11.0712
99.3881,10.9793
Z" /> 
<path style="fill:#000000; fill-opacity:1.0000; stroke:none;fill-rule:evenodd;"
d="M 26.7516,5.7535
26.6597,5.7154
26.5602,5.7154
26.4683,5.7535
26.3980,5.8238
26.3599,5.9157
26.3599,6.0151
26.3980,6.1070
26.0472,5.7562
26.1552,5.6777
26.3222,5.5107
26.4007,5.4026
Z" /> 
<path style="fill:#000000; fill-opacity:1.0000; stroke:none;fill-rule:evenodd;"
d="M 24.3089,3.3109
24.2009,3.3894
24.0339,3.5563
23.9554,3.6644
23.6046,3.3136
23.6964,3.3516
23.7959,3.3516
23.8878,3.3136
23.9581,3.2432
23.9962,3.1514
23.9962,3.0519
23.9581,2.9600
Z" /> 
<path style="fill:#000000; fill-opacity:1.0000; stroke:none;fill-rule:evenodd;"
d="M 54.4822,0.6010
54.8733,0.6376
54.8989,0.6427
55.1955,0.7358
55.2207,0.7469
55.4768,0.8957
55.4970,0.9103
55.7348,1.1222
55.7485,1.1366
55.9764,1.4171
55.9847,1.4286
56.0390,1.5138
56.2014,1.7683
56.2069,1.7779
56.6329,2.5984
57.0549,3.4114
57.0672,3.4351
57.0754,3.4549
57.0789,3.4661
57.0789,3.4662
57.0994,3.4982
57.1049,3.5078
57.1224,3.5416
57.1225,3.5416
57.1304,3.5503
57.1434,3.5673
57.3405,3.8761
57.3492,3.8922
57.3572,3.9103
57.3572,3.9103
57.3762,3.9336
57.3845,3.9451
57.4008,3.9706
57.4153,3.9839
57.4279,3.9972
57.5967,4.2051
57.6609,4.2841
57.6683,4.2942
57.6871,4.3228
57.6988,4.3332
57.7125,4.3476
57.7224,4.3597
57.7224,4.3597
57.7224,4.3597
57.7502,4.3798
57.7599,4.3877
58.0448,4.6416
58.0502,4.6467
58.0834,4.6801
58.0857,4.6815
58.1060,4.6961
58.1080,4.6979
58.1080,4.6979
58.1501,4.7191
58.1566,4.7226
58.5007,4.9225
58.5049,4.9250
58.5500,4.9537
58.5500,4.9537
58.5574,4.9571
58.5573,4.9574
58.5608,4.9589
58.5609,4.9587
58.5684,4.9618
58.5684,4.9618
58.5684,4.9618
58.5684,4.9618
58.5818,4.9654
58.6201,4.9758
58.6247,4.9771
59.0239,5.1024
59.0299,5.1045
59.0768,5.1219
59.0777,5.1221
59.1010,5.1268
59.1020,5.1269
59.1020,5.1269
59.1520,5.1290
59.1582,5.1295
59.5757,5.1685
59.5963,5.1722
59.6089,5.1755
59.6457,5.1755
59.6572,5.1761
59.6939,5.1795
59.7028,5.1780
59.7068,5.1773
59.7276,5.1755
73.4542,5.1755
73.4624,5.1758
73.7773,5.1967
73.7941,5.1990
73.9281,5.2265
74.0518,5.2520
74.0746,5.2590
74.6285,5.4901
74.6495,5.5014
75.1870,5.8599
75.1965,5.8670
75.7074,6.2837
75.7074,6.2837
75.8706,6.4169
76.3034,6.7700
76.3182,6.7842
76.3275,6.7947
76.3275,6.7947
76.3573,6.8147
76.3669,6.8217
76.3947,6.8444
76.3947,6.8444
76.3947,6.8444
76.4075,6.8502
76.4254,6.8601
76.9771,7.2281
76.9840,7.2331
77.0192,7.2602
77.0192,7.2602
77.0242,7.2623
77.0453,7.2736
77.0498,7.2766
77.0919,7.2908
77.0998,7.2938
77.7252,7.5547
77.7330,7.5583
77.7725,7.5781
77.7725,7.5781
77.7725,7.5781
77.7781,7.5793
77.8008,7.5863
77.8061,7.5885
77.8499,7.5943
77.8583,7.5958
78.1574,7.6574
78.1724,7.6614
78.1849,7.6657
78.1978,7.6701
78.2208,7.6716
78.2376,7.6739
78.2602,7.6785
78.2870,7.6769
78.3025,7.6770
78.5805,7.6954
78.6044,7.6994
78.6089,7.7006
78.6541,7.7006
78.6623,7.7008
78.6640,7.7009
78.7074,7.7038
78.7120,7.7029
78.7361,7.7006
92.4502,7.7006
92.4600,7.7009
93.0639,7.7487
93.0818,7.7514
93.6486,7.8812
93.6646,7.8860
94.9524,8.3715
94.9524,8.3715
94.9629,8.3755
94.9629,8.3755
96.1195,8.8115
96.1337,8.8180
96.1571,8.8303
96.1800,8.8356
96.1961,8.8404
96.2181,8.8487
96.2444,8.8513
96.2598,8.8538
96.8388,8.9864
96.8525,8.9904
96.8806,9.0004
96.9006,9.0019
96.9186,9.0047
96.9382,9.0092
96.9382,9.0092
96.9382,9.0092
96.9582,9.0085
96.9680,9.0081
96.9823,9.0084
97.5632,9.0543
97.5856,9.0581
97.5939,9.0604
97.6351,9.0604
97.6449,9.0607
97.6860,9.0640
97.6945,9.0624
97.7170,9.0604
119.7197,9.0603
119.8732,9.0603
119.8732,9.0603
129.5362,9.0603
129.5364,9.0604
129.5442,9.0604
129.5442,9.0604
129.6071,9.0603
129.6130,9.0605
129.9859,9.0783
129.9976,9.0794
130.3642,9.1322
130.3758,9.1345
130.7357,9.2220
130.7470,9.2253
131.0969,9.3468
131.1078,9.3512
131.4445,9.5054
131.4550,9.5108
131.7755,9.6965
131.7854,9.7029
131.9122,9.7935
132.0867,9.9182
132.0960,9.9255
132.3754,10.1686
132.3839,10.1768
132.6389,10.4454
132.6466,10.4544
132.8748,10.7460
132.8816,10.7557
133.0809,11.0678
133.0868,11.0781
133.2555,11.4078
133.2604,11.4186
133.3968,11.7628
133.4007,11.7740
133.5037,12.1297
133.5064,12.1412
133.5751,12.5051
133.5767,12.5169
133.6099,12.8809
133.6104,12.8921
133.6095,58.2980
133.6095,58.2980
133.6095,58.3631
133.6087,58.3769
133.5986,58.4673
133.5924,58.4943
133.5647,58.5735
133.5526,58.5986
133.5080,58.6696
133.4907,58.6913
133.4313,58.7506
133.4096,58.7680
133.3386,58.8126
133.3136,58.8246
133.2344,58.8524
133.2073,58.8585
133.1169,58.8687
133.1031,58.8695
133.0524,58.8695
133.0441,58.8695
133.0441,58.8695
133.0355,58.8695
133.0355,58.8695
115.9678,58.8695
115.9453,58.8674
115.9369,58.8659
115.9368,58.8659
115.8957,58.8691
115.8859,58.8695
115.8446,58.8695
115.8363,58.8717
115.8140,58.8755
115.3116,58.9152
115.3000,58.9156
115.2634,58.9150
115.2505,58.9183
115.2300,58.9216
115.2167,58.9227
115.1822,58.9349
115.1711,58.9383
114.6756,59.0631
114.6649,59.0653
114.6271,59.0713
114.6271,59.0713
114.6164,59.0761
114.5962,59.0831
114.5849,59.0859
114.5849,59.0859
114.5515,59.1046
114.5417,59.1095
114.0806,59.3154
114.0697,59.3197
114.0354,59.3313
114.0354,59.3313
114.0239,59.3389
114.0059,59.3488
113.9934,59.3544
113.9933,59.3544
113.9652,59.3772
113.9558,59.3842
113.5323,59.6658
113.5205,59.6728
113.4928,59.6870
113.4927,59.6870
113.4789,59.6996
113.4642,59.7111
113.4486,59.7215
113.4486,59.7215
113.4280,59.7449
113.4183,59.7547
113.0325,60.1053
113.0197,60.1155
112.9994,60.1295
112.9994,60.1295
112.9831,60.1488
112.9719,60.1603
112.9532,60.1773
112.9532,60.1773
112.9399,60.1981
112.9301,60.2112
112.5792,60.6251
112.5659,60.6385
112.5523,60.6503
112.5523,60.6503
112.5344,60.6768
112.5263,60.6875
112.5056,60.7119
112.5056,60.7119
112.4980,60.7281
112.4886,60.7446
112.1688,61.2174
112.1554,61.2340
112.1471,61.2426
112.1287,61.2758
112.1229,61.2852
112.1017,61.3167
112.1017,61.3167
112.0978,61.3280
112.0891,61.3475
111.7968,61.8758
111.7836,61.8951
111.7793,61.9002
111.7793,61.9002
111.7612,61.9394
111.7571,61.9474
111.7362,61.9852
111.7362,61.9852
111.7346,61.9917
111.7269,62.0138
111.4589,62.5942
111.4462,62.6158
111.4447,62.6177
111.4447,62.6177
111.4274,62.6618
111.4246,62.6686
111.4047,62.7116
111.4043,62.7140
111.3975,62.7382
111.1513,63.3669
111.1418,63.3852
111.1397,63.3895
111.1235,63.4377
111.1214,63.4433
111.1029,63.4906
111.1017,63.4952
111.0973,63.5154
110.8705,64.1881
110.8639,64.2022
110.8642,64.2023
110.8609,64.2097
110.8457,64.2612
110.8443,64.2659
110.8271,64.3167
110.8256,64.3247
110.8253,64.3246
110.8226,64.3399
110.6121,65.0557
110.6057,65.0710
110.6058,65.0711
110.6028,65.0786
110.5957,65.1074
110.5904,65.1291
110.5890,65.1344
110.5743,65.1843
110.5730,65.1923
110.5730,65.1923
110.5708,65.2087
110.1586,66.8823
110.1532,66.8971
110.1534,66.8972
110.1507,66.9049
110.1401,66.9570
110.1390,66.9619
110.1263,67.0135
110.1254,67.0216
110.1252,67.0216
110.1238,67.0374
109.7635,68.8077
109.7593,68.8205
109.7600,68.8207
109.7576,68.8285
109.7478,68.8846
109.7472,68.8881
109.7358,68.9439
109.7352,68.9520
109.7345,68.9519
109.7338,68.9654
109.0787,72.7352
109.0780,72.7378
109.0660,72.8083
109.0659,72.8086
109.0537,72.8792
109.0534,72.8819
108.7411,74.7053
108.7407,74.7071
108.4068,76.4917
108.4061,76.4954
108.0494,78.1282
108.0485,78.1323
107.8601,78.8721
107.8592,78.8757
107.6615,79.5645
107.6601,79.5689
107.4534,80.1997
107.4516,80.2050
107.2359,80.7742
107.2333,80.7805
107.0093,81.2853
107.0056,81.2928
106.7684,81.7430
106.7661,81.7472
99.8873,93.6611
99.8807,93.6713
99.6239,94.0295
99.6067,94.0488
99.3290,94.3026
99.3089,94.3175
98.9918,94.5068
98.9710,94.5168
98.6214,94.6450
98.5999,94.6508
98.2330,94.7145
98.2099,94.7163
97.8407,94.7109
97.8159,94.7080
97.4484,94.6271
97.4239,94.6190
97.0224,94.4372
97.0116,94.4316
85.1508,87.5839
85.1391,87.5763
85.1367,87.5745
85.0840,87.5453
85.0820,87.5442
85.0300,87.5142
85.0271,87.5130
85.0146,87.5069
82.7945,86.2791
82.7750,86.2657
82.7703,86.2618
82.7703,86.2618
82.7306,86.2434
82.7228,86.2394
82.6968,86.2250
82.6845,86.2183
82.6845,86.2183
82.6845,86.2183
82.6786,86.2168
82.6563,86.2089
81.5477,85.6949
81.5309,85.6855
81.5166,85.6759
81.5166,85.6759
81.5166,85.6759
81.4864,85.6657
85.4495,85.6657
85.4495,85.7974
85.4836,85.9247
85.5166,85.9818
85.5495,86.0389
85.6427,86.1320
85.7371,86.1865
97.7238,93.1070
97.8138,93.1590
97.8379,93.1729
97.8379,93.1729
97.9652,93.2070
97.9652,93.2070
98.0970,93.2070
98.0970,93.2070
98.2243,93.1729
98.3384,93.1070
98.4316,93.0139
98.4975,92.8997
98.4975,92.8997
105.4725,80.8187
105.4780,80.7982
105.5066,80.6914
105.5066,80.5596
105.4725,80.4323
105.4472,80.3886
105.4066,80.3182
105.4066,80.3182
105.4066,80.3182
105.3134,80.2250
105.3134,80.2250
105.2063,80.1632
105.2063,80.1632
104.9968,80.0422
103.4053,79.1233
93.1182,73.1841
93.1182,73.1841
93.1078,73.1813
92.9909,73.1500
92.9909,73.1500
92.8591,73.1500
92.8591,73.1500
92.7318,73.1841
92.6177,73.2500
92.6177,73.2500
92.5245,73.3432
92.4972,73.3905
92.4972,73.3905
85.4836,85.5384
85.4836,85.5384
85.4495,85.6657
81.4864,85.6657
81.4857,85.6654
81.4734,85.6605
81.4438,85.6468
81.4347,85.6452
81.4268,85.6438
81.4081,85.6390
80.2479,85.2446
80.2259,85.2346
80.2219,85.2323
80.2219,85.2323
80.1782,85.2206
80.1703,85.2182
80.1612,85.2151
80.1275,85.2036
80.1275,85.2036
80.1275,85.2036
80.1229,85.2033
80.0990,85.1993
70.8451,82.7198
70.8325,82.7156
70.8284,82.7145
70.7717,82.7001
70.7703,82.6997
70.7098,82.6835
70.6967,82.6810
68.2358,82.0543
68.2224,82.0492
68.2222,82.0497
68.2146,82.0469
68.1602,82.0350
68.1563,82.0340
68.1023,82.0203
68.0943,82.0193
68.0943,82.0188
68.0801,82.0173
65.6016,81.4720
65.5869,81.4670
65.5868,81.4672
65.5790,81.4647
65.5790,81.4647
65.5790,81.4647
65.5790,81.4647
65.5263,81.4553
65.5215,81.4543
65.4692,81.4428
65.4611,81.4421
65.4611,81.4419
65.4455,81.4409
64.2666,81.2298
64.2518,81.2254
64.2517,81.2257
64.2439,81.2235
64.2439,81.2235
64.2439,81.2235
64.2439,81.2235
64.1906,81.2161
64.1859,81.2154
64.1329,81.2059
64.1248,81.2055
64.1248,81.2052
64.1094,81.2048
62.9206,81.0393
62.8987,81.0338
62.8958,81.0331
62.8455,81.0286
62.8395,81.0279
62.7894,81.0210
62.7865,81.0210
62.7638,81.0213
61.5603,80.9139
61.5355,80.9091
61.5335,80.9085
61.5335,80.9085
61.4858,80.9071
61.4786,80.9066
61.4552,80.9045
61.4311,80.9024
61.4311,80.9024
61.4311,80.9024
61.4311,80.9024
61.4290,80.9027
61.4039,80.9045
60.1954,80.8673
60.1816,80.8653
60.1815,80.8659
60.1735,80.8648
60.1735,80.8648
60.1735,80.8648
60.1172,80.8648
60.1134,80.8648
60.1024,80.8644
60.0572,80.8630
60.0572,80.8630
60.0572,80.8630
60.0491,80.8638
60.0490,80.8632
60.0351,80.8648
49.2628,80.8648
49.2529,80.8644
48.5443,80.8076
48.5240,80.8043
47.8954,80.6463
47.8760,80.6397
47.3029,80.3892
47.2846,80.3793
47.1912,80.3182
46.7791,80.0484
46.7614,80.0344
46.4578,79.7447
66.7350,79.7447
66.7350,79.8765
66.7562,79.9558
66.7691,80.0038
66.7691,80.0038
66.8350,80.1179
66.8350,80.1179
66.8762,80.1591
66.9281,80.2111
67.0423,80.2770
79.3724,83.5808
80.5109,83.8859
80.5109,83.8859
80.5169,83.8875
80.5169,83.8875
80.6442,83.9216
80.6442,83.9216
80.7760,83.9216
80.7760,83.9216
80.7760,83.9216
80.9033,83.8875
81.0174,83.8216
81.1106,83.7284
81.1765,83.6143
81.1855,83.5808
81.3925,82.8081
82.6134,78.2519
84.8212,70.0123
84.8212,69.9498
84.8212,69.8806
84.7870,69.7533
84.7870,69.7533
84.7870,69.7533
84.7212,69.6391
84.7211,69.6391
84.6280,69.5459
84.6280,69.5459
84.5138,69.4801
84.5138,69.4801
84.4936,69.4746
84.4936,69.4746
71.0392,65.8695
71.0392,65.8695
71.0313,65.8674
70.9343,65.8414
70.9119,65.8354
70.9119,65.8354
70.9119,65.8354
70.7801,65.8354
70.7801,65.8354
70.7577,65.8414
70.6797,65.8623
70.6797,65.8623
70.6528,65.8695
70.5387,65.9354
70.5387,65.9354
70.4455,66.0286
70.4455,66.0286
70.3796,66.1427
70.3796,66.1427
70.3796,66.1427
66.7691,79.6174
66.7691,79.6174
66.7350,79.7447
46.4578,79.7447
46.3299,79.6226
46.3171,79.6084
46.1552,79.3975
46.1473,79.3858
46.1058,79.3165
46.0039,79.1468
45.9970,79.1335
45.8824,78.8763
45.8770,78.8618
45.8432,78.7501
45.7923,78.5820
45.7887,78.5671
45.7357,78.2590
45.7341,78.2447
45.7148,77.8871
45.7146,77.8804
45.7146,67.8033
45.7167,67.7804
45.7181,67.7729
45.7149,67.7307
45.7146,67.7214
45.7146,67.6791
45.7146,67.6791
45.7126,67.6718
45.7088,67.6491
45.6732,67.1790
45.6527,66.9075
45.6524,66.8937
45.6535,66.8627
45.6493,66.8443
45.6465,66.8259
45.6451,66.8071
45.6348,66.7778
45.6310,66.7645
45.5734,66.5140
45.4627,66.0317
45.4603,66.0175
45.4570,65.9881
45.4497,65.9692
45.4444,65.9519
45.4398,65.9321
45.4398,65.9321
45.4398,65.9321
45.4259,65.9060
45.4199,65.8929
45.1506,65.2015
45.1463,65.1883
45.1384,65.1584
45.1384,65.1584
45.1289,65.1419
45.1209,65.1252
45.1140,65.1074
45.0957,65.0825
45.0882,65.0709
45.0152,64.9439
44.9327,64.8001
47.4026,64.8001
47.4026,78.8819
47.4367,79.0092
47.4696,79.0663
47.5026,79.1233
47.5957,79.2165
47.7099,79.2824
47.8372,79.3165
47.8372,79.3165
61.9189,79.3165
61.9189,79.3165
62.0462,79.2824
62.1604,79.2165
62.2536,79.1233
62.3194,79.0092
62.3536,78.8819
62.3536,64.8001
62.3194,64.6728
62.2536,64.5587
62.1604,64.4655
62.0946,64.4276
62.0462,64.3996
61.9826,64.3826
61.9189,64.3655
47.9689,64.3655
47.8372,64.3655
47.7099,64.3996
47.5957,64.4655
47.5957,64.4655
47.5026,64.5587
47.5026,64.5587
47.4367,64.6728
47.4026,64.8001
44.9327,64.8001
44.7216,64.4324
44.7165,64.4225
44.7007,64.3881
44.6930,64.3788
44.6809,64.3614
44.6749,64.3509
44.6507,64.3266
44.6482,64.3241
44.6407,64.3159
44.4643,64.1035
103.9230,64.1035
103.9230,64.1035
103.9433,64.4524
103.9433,64.4524
104.0040,64.7965
104.0040,64.7965
104.1042,65.1313
104.2426,65.4522
104.2426,65.4522
104.4173,65.7548
104.6260,66.0351
104.6342,66.0438
105.7054,64.9726
105.7839,65.0807
105.9509,65.2477
106.0589,65.3262
105.7081,65.6770
105.7462,65.5851
105.7462,65.4857
105.7081,65.3938
105.6378,65.3235
105.5459,65.2854
105.4464,65.2854
105.3545,65.3235
105.2842,65.3938
105.2462,65.4857
105.2462,65.5851
105.2842,65.6770
105.3545,65.7473
105.4464,65.7854
105.5459,65.7854
105.6378,65.7473
104.9909,66.3942
104.9909,66.3942
105.1335,66.5140
105.4255,66.7060
105.7378,66.8628
105.7378,66.8628
106.0662,66.9824
106.0662,66.9824
106.4062,67.0629
106.7533,67.1035
106.7533,67.1035
107.1028,67.1035
107.1028,67.1035
107.4499,67.0629
107.4499,67.0629
107.7899,66.9824
107.7899,66.9824
108.1183,66.8628
108.1183,66.8628
108.4306,66.7060
108.7226,66.5140
108.7226,66.5140
108.8652,66.3942
108.8652,66.3942
108.2183,65.7473
108.3102,65.7854
108.4097,65.7854
108.5016,65.7473
108.5719,65.6770
108.6099,65.5851
108.6099,65.4857
108.5719,65.3938
109.2219,66.0438
109.2219,66.0438
109.2301,66.0352
109.2301,66.0351
109.4388,65.7548
109.6135,65.4522
109.6135,65.4522
109.7519,65.1313
109.8521,64.7965
109.8521,64.7965
109.9128,64.4524
109.9128,64.4524
109.9331,64.1035
109.9331,64.1035
109.9128,63.7546
109.9128,63.7546
109.8521,63.4105
109.8521,63.4105
109.7519,63.0757
109.6135,62.7548
109.6135,62.7548
109.4388,62.4522
109.2301,62.1719
109.2219,62.1632
108.5719,62.8132
108.6099,62.7214
108.6099,62.6219
108.5719,62.5300
108.5016,62.4597
108.4097,62.4216
108.3102,62.4216
108.2183,62.4597
108.1480,62.5300
108.1099,62.6219
108.1099,62.7214
108.1480,62.8132
108.2183,62.8836
108.3102,62.9216
108.4097,62.9216
108.5016,62.8836
108.1507,63.2344
108.0722,63.1263
107.9052,62.9594
107.7972,62.8809
108.8652,61.8128
108.8652,61.8128
108.7226,61.6931
108.4306,61.5010
108.1183,61.3442
108.1183,61.3442
107.7899,61.2247
107.7899,61.2247
107.4499,61.1441
107.1028,61.1035
106.7533,61.1035
106.4062,61.1441
106.4062,61.1441
106.0662,61.2247
106.0662,61.2247
105.7378,61.3442
105.7378,61.3442
105.4255,61.5010
105.1335,61.6931
104.9909,61.8128
104.9909,61.8128
105.6378,62.4597
105.5459,62.4216
105.4464,62.4216
105.3545,62.4597
105.2842,62.5300
105.2462,62.6219
105.2462,62.7214
105.2842,62.8132
104.6342,62.1632
104.6342,62.1632
104.6260,62.1719
104.6260,62.1719
104.4173,62.4522
104.2426,62.7548
104.2426,62.7548
104.1042,63.0757
104.0040,63.4105
104.0040,63.4105
103.9433,63.7546
103.9433,63.7546
103.9230,64.1035
44.4643,64.1035
44.1817,63.7633
44.1737,63.7527
44.1735,63.7523
44.1558,63.7257
44.1427,63.7141
44.1293,63.7004
44.1182,63.6869
44.1182,63.6869
44.0917,63.6682
44.0813,63.6599
43.8517,63.4574
43.8394,63.4449
43.8254,63.4285
43.8020,63.4124
43.7903,63.4033
43.7690,63.3844
43.7497,63.3749
43.7346,63.3660
43.4894,63.1971
43.4767,63.1871
43.4686,63.1798
43.4580,63.1703
43.4359,63.1590
43.4220,63.1507
43.4015,63.1366
43.4015,63.1366
43.3779,63.1282
43.3630,63.1218
43.1823,63.0297
43.1082,62.9919
43.0894,62.9823
43.0763,62.9746
43.0535,62.9592
43.0445,62.9560
43.0323,62.9518
43.0165,62.9451
42.9965,62.9349
42.9965,62.9349
42.9965,62.9349
42.9696,62.9292
42.9549,62.9251
42.6529,62.8207
42.6389,62.8149
42.6251,62.8082
42.6140,62.8028
42.6140,62.8028
42.6140,62.8028
42.5922,62.7985
42.5755,62.7940
42.5545,62.7868
42.5545,62.7868
42.5268,62.7848
42.5118,62.7828
42.1828,62.7185
42.1672,62.7144
42.1432,62.7063
42.1432,62.7063
42.1187,62.7048
42.1024,62.7028
42.0900,62.7003
42.0783,62.6980
42.0783,62.6980
42.0530,62.6998
42.0370,62.6998
41.7009,62.6793
41.6764,62.6753
41.6735,62.6746
41.6735,62.6746
41.6735,62.6746
41.6735,62.6746
41.6266,62.6746
41.6191,62.6743
41.6015,62.6733
41.5723,62.6715
41.5723,62.6715
41.5694,62.6721
41.5447,62.6746
21.7297,62.6746
21.7081,62.6727
21.7047,62.6721
21.6971,62.6707
21.6610,62.6739
21.6585,62.6741
21.6478,62.6746
21.6090,62.6746
21.6090,62.6746
21.6090,62.6746
21.5983,62.6774
21.5769,62.6812
21.3103,62.7044
21.3018,62.7049
21.2573,62.7057
21.2573,62.7057
21.2522,62.7071
21.2287,62.7115
21.2233,62.7120
21.1815,62.7272
21.1734,62.7298
20.9008,62.8082
20.8943,62.8099
20.8465,62.8209
20.8465,62.8209
20.8458,62.8213
20.8220,62.8309
20.8213,62.8311
20.8213,62.8311
20.7793,62.8564
20.7734,62.8597
20.5276,62.9902
20.5210,62.9934
20.4778,63.0132
20.4778,63.0132
20.4761,63.0146
20.4552,63.0286
20.4531,63.0297
20.4184,63.0621
20.4129,63.0669
20.2009,63.2422
20.1929,63.2482
20.1596,63.2715
20.1596,63.2715
20.1536,63.2786
20.1377,63.2944
20.1306,63.3002
20.1306,63.3002
20.1071,63.3334
20.1009,63.3413
19.9237,63.5522
19.9143,63.5622
19.8917,63.5837
19.8917,63.5837
19.8820,63.5997
19.8711,63.6148
19.8590,63.6291
19.8590,63.6291
19.8458,63.6574
19.8393,63.6695
19.6848,63.9228
19.6784,63.9322
19.6562,63.9620
19.6562,63.9620
19.6515,63.9738
19.6421,63.9927
19.6355,64.0035
19.6250,64.0392
19.6213,64.0499
19.3462,64.7425
19.3403,64.7553
19.3259,64.7821
19.3259,64.7821
19.3215,64.8011
19.3160,64.8186
19.3089,64.8364
19.3088,64.8367
19.3088,64.8367
19.3088,64.8367
19.3053,64.8669
19.3028,64.8808
19.1107,65.7020
19.1040,65.7225
19.0996,65.7330
19.0996,65.7330
19.0941,65.7710
19.0921,65.7817
19.0833,65.8192
19.0833,65.8192
19.0837,65.8306
19.0825,65.8521
18.9521,66.7646
18.9460,66.7890
18.9453,66.7911
18.9453,66.7911
18.9413,66.8385
18.9405,66.8457
18.9338,66.8929
18.9340,66.8951
18.9345,66.9202
18.7565,69.0473
18.7557,69.0532
18.7503,69.1219
18.7502,69.1225
18.7445,69.1910
18.7444,69.1970
18.6607,70.2670
18.6604,70.2706
18.5438,71.3546
18.5428,71.3618
18.3783,72.3419
18.3756,72.3541
18.1443,73.1978
18.1397,73.2113
18.0052,73.5460
17.9998,73.5575
17.8466,73.8483
17.8383,73.8618
17.6729,74.0970
17.6608,74.1117
17.4854,74.2938
17.4689,74.3082
17.2817,74.4438
17.2614,74.4558
17.0539,74.5526
17.0320,74.5605
16.7906,74.6217
16.7697,74.6252
16.4603,74.6490
16.4507,74.6494
2.7057,74.6494
2.6935,74.6488
2.2549,74.6055
2.2296,74.6003
1.8710,74.4866
1.8480,74.4767
1.5684,74.3207
1.5255,74.2968
1.5065,74.2837
1.2206,74.0450
1.2049,74.0293
0.9662,73.7434
0.9531,73.7244
0.7732,73.4019
0.7633,73.3789
0.7015,73.1841
0.6496,73.0203
0.6444,72.9950
0.6361,72.9108
0.6011,72.5564
0.6005,72.5442
0.6005,58.5876
2.0276,58.5876
2.0276,72.6694
2.0617,72.7967
2.0946,72.8538
2.1276,72.9108
2.2207,73.0040
2.3349,73.0699
2.4622,73.1040
2.4622,73.1040
16.5439,73.1040
16.5439,73.1040
16.6712,73.0699
16.7854,73.0040
16.8786,72.9108
16.9444,72.7967
16.9786,72.6694
16.9786,58.5876
16.9444,58.4603
16.8786,58.3462
16.7854,58.2530
16.7283,58.2201
16.6712,58.1871
16.6076,58.1701
16.5439,58.1530
2.5939,58.1530
2.4622,58.1530
2.3349,58.1871
2.2207,58.2530
2.2207,58.2530
2.1276,58.3462
2.1276,58.3462
2.0617,58.4603
2.0276,58.5876
0.6005,58.5876
0.6005,39.5876
2.0276,39.5876
2.0276,53.6694
2.0617,53.7967
2.0946,53.8538
2.1276,53.9108
2.2207,54.0040
2.3349,54.0699
2.4622,54.1040
2.4622,54.1040
16.5439,54.1040
16.5439,54.1040
16.6712,54.0699
16.7854,54.0040
16.8786,53.9108
16.9444,53.7967
16.9786,53.6694
16.9786,46.6126
21.0276,46.6126
21.0276,60.6944
21.0617,60.8217
21.0791,60.8520
21.1276,60.9358
21.2207,61.0290
21.3349,61.0949
21.4622,61.1290
21.4622,61.1290
35.5439,61.1290
35.5439,61.1290
35.6712,61.0949
35.7854,61.0290
35.8786,60.9358
35.9444,60.8217
35.9786,60.6944
35.9786,60.3091
42.5611,60.3091
42.5611,60.3091
42.5814,60.6580
42.5814,60.6580
42.6421,61.0021
42.6421,61.0021
42.7423,61.3369
42.8807,61.6578
42.8807,61.6578
43.0555,61.9604
43.2641,62.2407
43.2723,62.2494
44.3435,61.1782
44.4220,61.2863
44.5890,61.4533
44.6971,61.5318
44.3462,61.8826
44.3843,61.7907
44.3843,61.6913
44.3462,61.5994
44.2759,61.5291
44.1840,61.4910
44.0845,61.4910
43.9927,61.5291
43.9223,61.5994
43.8843,61.6913
43.8843,61.7907
43.9223,61.8826
43.9927,61.9530
44.0845,61.9910
44.1840,61.9910
44.2759,61.9530
43.6290,62.5999
43.6290,62.5999
43.7716,62.7196
44.0636,62.9116
44.3759,63.0684
44.3759,63.0684
44.7043,63.1880
44.7043,63.1880
45.0443,63.2686
45.3914,63.3091
45.3914,63.3091
45.7409,63.3091
45.7409,63.3091
46.0880,63.2686
46.0880,63.2686
46.4280,63.1880
46.4280,63.1880
46.7564,63.0684
46.7564,63.0684
47.0687,62.9116
47.3607,62.7196
47.3607,62.7196
47.5033,62.5999
47.5033,62.5999
46.8564,61.9530
46.9483,61.9910
47.0478,61.9910
47.1397,61.9530
47.2100,61.8826
47.2481,61.7907
47.2481,61.6913
47.2100,61.5994
47.8600,62.2494
47.8600,62.2494
47.8682,62.2408
47.8682,62.2407
48.0769,61.9604
48.2516,61.6578
48.2516,61.6578
48.3900,61.3369
48.4902,61.0021
48.4902,61.0021
48.5509,60.6580
48.5509,60.6580
48.5712,60.3091
48.5712,60.3091
48.5509,59.9603
48.5509,59.9602
48.4902,59.6161
48.4902,59.6161
48.3900,59.2813
48.2516,58.9605
48.2516,58.9604
48.0769,58.6578
47.8682,58.3775
47.8600,58.3688
47.2100,59.0188
47.2481,58.9270
47.2481,58.8275
47.2100,58.7356
47.1397,58.6653
47.0478,58.6272
46.9483,58.6272
46.8564,58.6653
46.7861,58.7356
46.7481,58.8275
46.7481,58.9270
46.7861,59.0188
46.8564,59.0892
46.9483,59.1272
47.0478,59.1272
47.1397,59.0892
46.7888,59.4400
46.7103,59.3319
46.5433,59.1650
46.4353,59.0865
47.5033,58.0184
47.5033,58.0184
47.3607,57.8987
47.0687,57.7066
46.7564,57.5498
46.7564,57.5498
46.4280,57.4303
46.4280,57.4303
46.0880,57.3497
45.7409,57.3091
45.3914,57.3091
45.0443,57.3497
45.0443,57.3497
44.7043,57.4303
44.7043,57.4303
44.3759,57.5498
44.3759,57.5498
44.0636,57.7066
43.7716,57.8987
43.6290,58.0184
43.6290,58.0184
44.2759,58.6653
44.1840,58.6272
44.0845,58.6272
43.9927,58.6653
43.9223,58.7356
43.8843,58.8275
43.8843,58.9270
43.9223,59.0188
43.2723,58.3688
43.2723,58.3688
43.2641,58.3775
43.2641,58.3775
43.0555,58.6578
42.8807,58.9604
42.8807,58.9605
42.7423,59.2813
42.6421,59.6161
42.6421,59.6161
42.5814,59.9602
42.5814,59.9603
42.5611,60.3091
35.9786,60.3091
35.9786,46.6126
35.9444,46.4853
35.8786,46.3712
35.7854,46.2780
35.7283,46.2451
35.6712,46.2121
35.6076,46.1951
35.5439,46.1780
21.5939,46.1780
21.4622,46.1780
21.3349,46.2121
21.2207,46.2780
21.2207,46.2780
21.1276,46.3712
21.1276,46.3712
21.0617,46.4853
21.0276,46.6126
16.9786,46.6126
16.9786,39.5876
16.9444,39.4603
16.8786,39.3462
16.7854,39.2530
16.7283,39.2201
16.6712,39.1871
16.6076,39.1701
16.5439,39.1530
2.5939,39.1530
2.4622,39.1530
2.3349,39.1871
2.2207,39.2530
2.2207,39.2530
2.1276,39.3462
2.1276,39.3462
2.0617,39.4603
2.0276,39.5876
0.6005,39.5876
0.6005,20.8057
0.6011,20.7935
0.6094,20.7091
0.6214,20.5876
2.0276,20.5876
2.0276,34.6694
2.0617,34.7967
2.0946,34.8538
2.1276,34.9108
2.2207,35.0040
2.3349,35.0699
2.4622,35.1040
2.4622,35.1040
16.5439,35.1040
16.5439,35.1040
16.6712,35.0699
16.7854,35.0040
16.8786,34.9108
16.9444,34.7967
16.9786,34.6694
16.9786,27.6126
21.0276,27.6126
21.0276,41.6944
21.0617,41.8217
21.0946,41.8788
21.1276,41.9358
21.2207,42.0290
21.3349,42.0949
21.4622,42.1290
21.4622,42.1290
35.5439,42.1290
35.5439,42.1290
35.6712,42.0949
35.7854,42.0290
35.8320,41.9824
35.8786,41.9358
35.9444,41.8217
35.9786,41.6944
35.9786,41.5626
35.9786,41.5382
35.9786,41.5381
35.9786,40.4876
40.0526,40.4876
40.0526,54.4376
40.0526,54.5694
40.0696,54.6331
40.0867,54.6967
40.1196,54.7538
40.1526,54.8108
40.2457,54.9040
40.3599,54.9699
40.4872,55.0040
54.4991,55.0040
54.5006,55.0040
54.5625,55.0048
54.5625,55.0048
54.5628,55.0048
54.5649,55.0045
54.5665,55.0043
54.5687,55.0041
54.5689,55.0040
54.5689,55.0040
54.6290,54.9879
54.6301,54.9876
54.6903,54.9723
54.6903,54.9723
54.6905,54.9723
54.6925,54.9714
54.6940,54.9709
54.6960,54.9700
54.6962,54.9699
54.6962,54.9699
54.7500,54.9389
54.7511,54.9382
54.8052,54.9079
54.8052,54.9079
54.8055,54.9078
54.8072,54.9065
54.8085,54.9055
54.8102,54.9042
54.8104,54.9040
54.8104,54.9040
54.8543,54.8601
54.8552,54.8592
54.8996,54.8159
54.8996,54.8159
54.8998,54.8157
54.9011,54.8140
54.9021,54.8128
54.9034,54.8111
54.9036,54.8108
54.9036,54.8108
54.9346,54.7571
54.9352,54.7560
54.9669,54.7027
54.9669,54.7026
54.9671,54.7024
54.9679,54.7004
54.9685,54.6990
54.9694,54.6968
54.9697,54.6962
54.9720,54.6905
55.0159,54.6361
55.0822,54.6141
55.0866,54.6140
58.5339,54.6140
58.5339,54.6140
58.6612,54.5799
58.7754,54.5140
58.8159,54.4735
58.8772,54.4400
58.9469,54.4450
59.0028,54.4869
59.0272,54.5523
59.0276,54.5612
59.0276,59.0126
59.0276,59.1444
59.0331,59.1650
59.0617,59.2717
59.0946,59.3288
59.1276,59.3858
59.2207,59.4790
59.3349,59.5449
59.4622,59.5790
59.4622,59.5790
73.5439,59.5790
73.5439,59.5790
73.6712,59.5449
73.7854,59.4790
73.8786,59.3858
73.9444,59.2717
73.9786,59.1444
73.9786,47.5876
78.0276,47.5876
78.0276,61.5376
78.0276,61.6694
78.0446,61.7331
78.0617,61.7967
78.0709,61.8128
78.1276,61.9108
78.2207,62.0040
78.3349,62.0699
78.4622,62.1040
78.4622,62.1040
92.5439,62.1040
92.5439,62.1040
92.6712,62.0699
92.7854,62.0040
92.8786,61.9108
92.9444,61.7967
92.9786,61.6694
92.9786,47.5876
92.9444,47.4603
92.8786,47.3462
92.7854,47.2530
92.7283,47.2201
92.6712,47.1871
92.6076,47.1701
92.5439,47.1530
78.5939,47.1530
78.4622,47.1530
78.3349,47.1871
78.2207,47.2530
78.2207,47.2530
78.1276,47.3462
78.1276,47.3462
78.0617,47.4603
78.0276,47.5876
73.9786,47.5876
73.9786,45.0626
73.9444,44.9353
73.8786,44.8212
73.7854,44.7280
73.7283,44.6951
73.6712,44.6621
73.6076,44.6451
73.5439,44.6280
59.5939,44.6280
59.4622,44.6280
59.3349,44.6621
59.2207,44.7280
59.2207,44.7280
59.1276,44.8212
59.1276,44.8212
59.0617,44.9353
59.0276,45.0626
59.0276,49.6658
59.0079,49.7329
58.9551,49.7786
58.8859,49.7886
58.8224,49.7596
58.8159,49.7535
58.7754,49.7130
58.7754,49.7130
58.6937,49.6658
58.6612,49.6471
58.5976,49.6301
58.5339,49.6130
58.5339,49.6130
55.1325,49.6130
55.0655,49.5933
55.0198,49.5405
55.0085,49.4890
55.0085,40.4876
55.0085,40.4876
54.9744,40.3603
54.9085,40.2462
54.8154,40.1530
54.7583,40.1201
54.7012,40.0871
54.6376,40.0701
54.5739,40.0530
40.6189,40.0530
40.4872,40.0530
40.3599,40.0871
40.2457,40.1530
40.2457,40.1530
40.1526,40.2462
40.1526,40.2462
40.0867,40.3603
40.0549,40.4790
40.0526,40.4876
35.9786,40.4876
35.9785,35.6880
35.9982,35.6210
36.0510,35.5752
36.1025,35.5640
39.4839,35.5640
39.4839,35.5640
39.6112,35.5299
39.7254,35.4640
39.8186,35.3708
39.8212,35.3663
39.8717,35.3181
39.9403,35.3049
40.0052,35.3308
40.0457,35.3877
40.0526,35.4283
40.0526,35.5694
40.0867,35.6967
40.1196,35.7538
40.1526,35.8108
40.2457,35.9040
40.3599,35.9699
40.4872,36.0040
40.4872,36.0040
54.5689,36.0040
54.5689,36.0040
54.6962,35.9699
54.8104,35.9040
54.9036,35.8108
54.9694,35.6967
55.0036,35.5694
55.0036,26.0626
59.0276,26.0626
59.0276,40.0126
59.0276,40.1444
59.0446,40.2081
59.0617,40.2717
59.0946,40.3288
59.1276,40.3858
59.2207,40.4790
59.3349,40.5449
59.4622,40.5790
59.4622,40.5790
73.5439,40.5790
73.5439,40.5790
73.6712,40.5449
73.7854,40.4790
73.8785,40.3858
73.9444,40.2717
73.9785,40.1444
73.9785,35.6880
73.9982,35.6210
74.0510,35.5752
74.1025,35.5640
77.5839,35.5640
77.5839,35.5640
77.7112,35.5299
77.8254,35.4640
77.8254,35.4640
77.8281,35.4619
77.8308,35.4609
77.8324,35.4600
77.8325,35.4602
77.8932,35.4367
77.9617,35.4508
78.0117,35.4996
78.0276,35.5603
78.0276,42.6694
78.0617,42.7967
78.0946,42.8538
78.1276,42.9108
78.2207,43.0040
78.3349,43.0699
78.4622,43.1040
78.4622,43.1040
92.5439,43.1040
92.5439,43.1040
92.6712,43.0699
92.7854,43.0040
92.8786,42.9108
92.9444,42.7967
92.9786,42.6694
92.9786,28.5876
92.9444,28.4603
92.8786,28.3462
92.7854,28.2530
92.7283,28.2201
92.6712,28.1871
92.6076,28.1701
92.5439,28.1530
78.5939,28.1530
78.4622,28.1530
78.3349,28.1871
78.2207,28.2530
78.2207,28.2530
78.1276,28.3462
78.1276,28.3462
78.0617,28.4603
78.0276,28.5876
78.0276,30.5667
78.0079,30.6338
77.9551,30.6795
77.8859,30.6895
77.8325,30.6669
77.8324,30.6671
77.8314,30.6665
77.8281,30.6651
77.8254,30.6630
77.7112,30.5971
77.6476,30.5801
77.5839,30.5630
77.5839,30.5630
74.1026,30.5630
74.0355,30.5433
73.9898,30.4905
73.9786,30.4390
73.9786,26.0626
73.9786,26.0626
73.9444,25.9353
73.8786,25.8212
73.7854,25.7280
73.7283,25.6951
73.6712,25.6621
73.6076,25.6451
73.5439,25.6280
59.5939,25.6280
59.4622,25.6280
59.3349,25.6621
59.2207,25.7280
59.2207,25.7280
59.1276,25.8212
59.1276,25.8212
59.0617,25.9353
59.0276,26.0626
55.0036,26.0626
55.0036,21.4876
54.9694,21.3603
54.9036,21.2462
54.8104,21.1530
54.7533,21.1201
54.6962,21.0871
54.6326,21.0701
54.5689,21.0530
40.6189,21.0530
40.4872,21.0530
40.3599,21.0871
40.2457,21.1530
40.2457,21.1530
40.1526,21.2462
40.1526,21.2462
40.0867,21.3603
40.0526,21.4876
40.0526,30.6987
40.0329,30.7658
39.9801,30.8115
39.9109,30.8215
39.8474,30.7924
39.8212,30.7607
39.8207,30.7599
39.8186,30.7562
39.7254,30.6630
39.6683,30.6301
39.6112,30.5971
39.5476,30.5801
39.4839,30.5630
39.4839,30.5630
36.1025,30.5630
36.0355,30.5433
35.9898,30.4905
35.9785,30.4390
35.9785,27.6126
35.9785,27.6126
35.9444,27.4853
35.8785,27.3712
35.7854,27.2780
35.7283,27.2451
35.6712,27.2121
35.6076,27.1951
35.5439,27.1780
21.5939,27.1780
21.4622,27.1780
21.3349,27.2121
21.2207,27.2780
21.2207,27.2780
21.1276,27.3712
21.1276,27.3712
21.0617,27.4853
21.0276,27.6126
16.9786,27.6126
16.9786,20.5876
16.9444,20.4603
16.8786,20.3462
16.7854,20.2530
16.7019,20.2048
16.6712,20.1871
16.6076,20.1701
16.5439,20.1530
2.5939,20.1530
2.4622,20.1530
2.3349,20.1871
2.2207,20.2530
2.2207,20.2530
2.1276,20.3462
2.1276,20.3462
2.0617,20.4603
2.0276,20.5876
0.6214,20.5876
0.6444,20.3549
0.6496,20.3297
0.7633,19.9710
0.7732,19.9480
0.9531,19.6255
0.9662,19.6065
1.2049,19.3206
1.2206,19.3049
1.5065,19.0662
1.5255,19.0532
1.8480,18.8732
1.8710,18.8633
2.2296,18.7497
2.2549,18.7445
2.6935,18.7011
2.7057,18.7005
16.4321,18.7005
16.4490,18.7017
16.4502,18.7019
16.4720,18.7049
16.4973,18.7017
16.4985,18.7015
16.5140,18.7005
16.5406,18.7005
16.5406,18.7005
16.5631,18.6945
16.5797,18.6913
16.8213,18.6608
16.8250,18.6606
16.8309,18.6598
16.8309,18.6598
16.8956,18.6514
16.9447,18.6452
16.9600,18.6433
16.9608,18.6431
16.9611,18.6430
16.9615,18.6429
16.9616,18.6429
16.9616,18.6429
17.0218,18.6181
17.0820,18.5935
17.0820,18.5935
17.0875,18.5913
17.0908,18.5897
17.3464,18.4844
17.3475,18.4840
17.3517,18.4823
17.4058,18.4607
17.4058,18.4607
17.4059,18.4606
17.4074,18.4597
17.4085,18.4591
17.4100,18.4583
17.4101,18.4582
17.4101,18.4582
17.4602,18.4200
17.4610,18.4193
17.7426,18.2086
17.7478,18.2049
17.7892,18.1771
17.7892,18.1771
17.7894,18.1769
17.8080,18.1597
17.8082,18.1595
17.8082,18.1595
17.8391,18.1203
17.8431,18.1154
18.0803,17.8438
18.0888,17.8350
18.1143,17.8110
18.1222,17.7983
18.1342,17.7821
18.1440,17.7709
18.1594,17.7395
18.1653,17.7288
18.3667,17.4041
18.3768,17.3901
18.3910,17.3731
18.3946,17.3653
18.4026,17.3479
18.4098,17.3346
18.4244,17.3110
18.4244,17.3110
18.4244,17.3110
18.4308,17.2898
18.4370,17.2736
18.6110,16.8972
18.6214,16.8789
18.6285,16.8686
18.6411,16.8334
18.6453,16.8229
18.6610,16.7890
18.6631,16.7767
18.6685,16.7562
18.8210,16.3278
18.8311,16.3062
18.8338,16.3016
18.8459,16.2587
18.8484,16.2507
18.8633,16.2087
18.8638,16.2034
18.8680,16.1798
19.0025,15.7002
19.0121,15.6761
19.0121,15.6760
19.0231,15.6275
19.0246,15.6213
19.0278,15.6099
19.0380,15.5735
19.0380,15.5734
19.0411,15.5476
19.1601,15.0192
19.1652,15.0045
19.1649,15.0044
19.1674,14.9967
19.1674,14.9966
19.1674,14.9966
19.1771,14.9439
19.1781,14.9392
19.1899,14.8869
19.1899,14.8869
19.1906,14.8788
19.1909,14.8789
19.1920,14.8633
19.2981,14.2866
19.3027,14.2713
19.3026,14.2712
19.3047,14.2634
19.3047,14.2634
19.3121,14.2109
19.3130,14.2059
19.3225,14.1539
19.3225,14.1539
19.3229,14.1458
19.3231,14.1458
19.3236,14.1298
19.5238,12.7130
19.5274,12.6991
19.5269,12.6989
19.5288,12.6910
19.5288,12.6910
19.5348,12.6358
19.5353,12.6318
19.5430,12.5768
19.5430,12.5768
19.5431,12.5687
19.5436,12.5687
19.5435,12.5543
19.7085,11.0189
19.7109,11.0046
19.7109,11.0045
19.7109,11.0045
19.7167,10.9430
19.7168,10.9414
19.7234,10.8802
19.7234,10.8802
19.7234,10.8801
19.7239,10.8656
19.8798,9.1973
19.9360,8.6126
21.0276,8.6126
21.0276,22.6944
21.0617,22.8217
21.0946,22.8788
21.1276,22.9358
21.2207,23.0290
21.3349,23.0949
21.4622,23.1290
21.4622,23.1290
35.5439,23.1290
35.5439,23.1290
35.6712,23.0949
35.7854,23.0290
35.8786,22.9358
35.9444,22.8217
35.9786,22.6944
35.9786,8.6126
35.9444,8.4853
35.8786,8.3712
35.7854,8.2780
35.7283,8.2451
35.6712,8.2121
35.6076,8.1951
35.5439,8.1780
21.5939,8.1780
21.4622,8.1780
21.3349,8.2121
21.2207,8.2780
21.2207,8.2780
21.1276,8.3712
21.1276,8.3712
21.0617,8.4853
21.0276,8.6126
19.9360,8.6126
20.0467,7.4617
20.0469,7.4594
20.2397,5.7939
20.2401,5.7906
20.2509,5.7154
20.3520,5.0098
20.3525,5.0067
20.4330,4.5335
22.1730,4.5335
22.1730,4.5335
22.1933,4.8824
22.1933,4.8824
22.2540,5.2265
22.2540,5.2265
22.3542,5.5613
22.4926,5.8822
22.4926,5.8822
22.6673,6.1848
22.8760,6.4651
22.8842,6.4738
23.9554,5.4026
24.0339,5.5107
24.2009,5.6777
24.3089,5.7562
23.9581,6.1070
23.9962,6.0151
23.9962,5.9157
23.9581,5.8238
23.8878,5.7535
23.7959,5.7154
23.6964,5.7154
23.6045,5.7535
23.5342,5.8238
23.4962,5.9157
23.4962,6.0151
23.5342,6.1070
23.6045,6.1773
23.6964,6.2154
23.7959,6.2154
23.8878,6.1773
23.2409,6.8242
23.2409,6.8242
23.3835,6.9440
23.6755,7.1360
23.9878,7.2928
23.9878,7.2928
24.3162,7.4124
24.3162,7.4124
24.6562,7.4929
25.0033,7.5335
25.0033,7.5335
25.3528,7.5335
25.3528,7.5335
25.6999,7.4929
25.6999,7.4929
26.0399,7.4124
26.0399,7.4124
26.3683,7.2928
26.3683,7.2928
26.6806,7.1360
26.9726,6.9440
26.9726,6.9440
27.1152,6.8242
27.1152,6.8242
26.4683,6.1773
26.5602,6.2154
26.6597,6.2154
26.7516,6.1773
26.8219,6.1070
26.8599,6.0151
26.8599,5.9157
26.8219,5.8238
27.4719,6.4738
27.4719,6.4738
27.4801,6.4652
27.4801,6.4651
27.6888,6.1848
27.8635,5.8822
27.8635,5.8822
28.0019,5.5613
28.1021,5.2265
28.1021,5.2265
28.1628,4.8824
28.1628,4.8824
28.1831,4.5335
28.1831,4.5335
28.1628,4.1846
28.1628,4.1846
28.1021,3.8405
28.1021,3.8405
28.0019,3.5057
27.8635,3.1848
27.8635,3.1848
27.6888,2.8822
27.4801,2.6019
27.4719,2.5932
26.8219,3.2432
26.8599,3.1514
26.8599,3.0519
26.8219,2.9600
26.7516,2.8897
26.6597,2.8516
26.5602,2.8516
26.4683,2.8897
26.3980,2.9600
26.3599,3.0519
26.3599,3.1514
26.3980,3.2432
26.4683,3.3136
26.5602,3.3516
26.6597,3.3516
26.7516,3.3136
26.4007,3.6644
26.3222,3.5563
26.1552,3.3894
26.0472,3.3109
26.8704,2.4876
40.0526,2.4876
40.0526,16.4376
40.0526,16.5694
40.0539,16.5745
40.0867,16.6967
40.0894,16.7014
40.1526,16.8108
40.2457,16.9040
40.3599,16.9699
40.4872,17.0040
54.4998,17.0040
54.5011,17.0040
54.5019,17.0040
54.5638,17.0047
54.5638,17.0047
54.5640,17.0047
54.5657,17.0044
54.5670,17.0043
54.5688,17.0041
54.5689,17.0040
54.5689,17.0040
54.6298,16.9877
54.6306,16.9875
54.6782,16.9753
54.6916,16.9718
54.6932,16.9712
54.6944,16.9707
54.6961,16.9700
54.6962,16.9699
54.6962,16.9699
54.7507,16.9385
54.7514,16.9380
54.8063,16.9071
54.8063,16.9071
54.8064,16.9070
54.8078,16.9060
54.8088,16.9052
54.8102,16.9041
54.8104,16.9040
54.8104,16.9040
54.8549,16.8595
54.8554,16.8590
54.9004,16.8149
54.9004,16.8149
54.9005,16.8148
54.9016,16.8133
54.9024,16.8123
54.9035,16.8110
54.9036,16.8108
54.9350,16.7564
54.9355,16.7555
54.9675,16.7014
54.9675,16.7014
54.9675,16.7013
54.9682,16.6997
54.9687,16.6985
54.9694,16.6969
54.9694,16.6967
54.9694,16.6967
54.9857,16.6359
54.9860,16.6350
54.9944,16.6047
55.0314,16.5454
55.0946,16.5155
55.1139,16.5140
58.5339,16.5140
58.5339,16.5140
58.6612,16.4799
58.7754,16.4140
58.8159,16.3735
58.8772,16.3400
58.9469,16.3450
59.0028,16.3869
59.0272,16.4523
59.0276,16.4612
59.0276,21.0126
59.0276,21.1444
59.0446,21.2081
59.0617,21.2717
59.0946,21.3288
59.1276,21.3858
59.2207,21.4790
59.3349,21.5449
59.4622,21.5790
59.4622,21.5790
73.5439,21.5790
73.5439,21.5790
73.6712,21.5449
73.7854,21.4790
73.8786,21.3858
73.9444,21.2717
73.9786,21.1444
73.9786,9.5876
78.0276,9.5876
78.0276,23.6694
78.0617,23.7967
78.0946,23.8538
78.1276,23.9108
78.2207,24.0040
78.3349,24.0699
78.4622,24.1040
78.4622,24.1040
92.5439,24.1040
92.5439,24.1040
92.6712,24.0699
92.7854,24.0040
92.8786,23.9108
92.9444,23.7967
92.9786,23.6694
92.9786,12.5528
97.6030,12.5528
97.6030,12.5528
97.6233,12.9017
97.6233,12.9017
97.6840,13.2458
97.6840,13.2458
97.7842,13.5806
97.9226,13.9015
97.9226,13.9015
98.0973,14.2042
98.3060,14.4845
98.3142,14.4931
99.3854,13.4219
99.4639,13.5300
99.6309,13.6970
99.7389,13.7755
99.3881,14.1263
99.4262,14.0345
99.4262,13.9350
99.3881,13.8431
99.3178,13.7728
99.2259,13.7347
99.1264,13.7347
99.0345,13.7728
98.9642,13.8431
98.9262,13.9350
98.9262,14.0345
98.9642,14.1263
99.0345,14.1967
99.1264,14.2347
99.2259,14.2347
99.3178,14.1967
98.6709,14.8436
98.6709,14.8436
98.8135,14.9633
99.1055,15.1553
99.4178,15.3121
99.4178,15.3121
99.7462,15.4317
99.7462,15.4317
100.0862,15.5123
100.4333,15.5528
100.4333,15.5528
100.7828,15.5528
100.7828,15.5528
101.1299,15.5123
101.1299,15.5123
101.4699,15.4317
101.4699,15.4317
101.7983,15.3121
101.7983,15.3121
102.1106,15.1553
102.4026,14.9633
102.4026,14.9633
102.5452,14.8436
102.5452,14.8436
101.8983,14.1967
101.9902,14.2347
102.0897,14.2347
102.1815,14.1967
102.2519,14.1263
102.2899,14.0345
102.2899,13.9350
102.2519,13.8431
102.9019,14.4931
102.9019,14.4931
102.9101,14.4845
102.9101,14.4845
103.1188,14.2042
103.2935,13.9015
103.2935,13.9015
103.4319,13.5806
103.5321,13.2458
103.5321,13.2458
103.5928,12.9017
103.5928,12.9017
103.6131,12.5528
103.6131,12.5528
103.5928,12.2040
103.5928,12.2040
103.5321,11.8598
103.5321,11.8598
103.4319,11.5250
103.2935,11.2042
103.2935,11.2042
103.1188,10.9015
102.9101,10.6212
102.9019,10.6125
102.2519,11.2626
102.2899,11.1707
102.2899,11.0712
102.2519,10.9793
102.1815,10.9090
102.0897,10.8709
101.9902,10.8709
101.8983,10.9090
101.8280,10.9793
101.7899,11.0712
101.7899,11.1707
101.8280,11.2626
101.8983,11.3329
101.9902,11.3709
102.0897,11.3709
102.1815,11.3329
101.8307,11.6837
101.7522,11.5756
101.5852,11.4087
101.4771,11.3302
102.5452,10.2621
102.5452,10.2621
102.4026,10.1424
102.1106,9.9504
101.7983,9.7935
101.7983,9.7935
101.4699,9.6740
101.4699,9.6740
101.1299,9.5934
100.7828,9.5528
100.4333,9.5528
100.0862,9.5934
100.0862,9.5934
99.7462,9.6740
99.7462,9.6740
99.4178,9.7935
99.4178,9.7935
99.1055,9.9504
98.8135,10.1424
98.6709,10.2621
98.6709,10.2621
99.3178,10.9090
99.2259,10.8709
99.1264,10.8709
99.0345,10.9090
98.9642,10.9793
98.9262,11.0712
98.9262,11.1707
98.9642,11.2626
98.3142,10.6125
98.3142,10.6125
98.3060,10.6212
98.3060,10.6212
98.0973,10.9015
97.9226,11.2042
97.9226,11.2042
97.7842,11.5250
97.6840,11.8598
97.6840,11.8598
97.6233,12.2040
97.6233,12.2040
97.6030,12.5528
92.9786,12.5528
92.9786,9.5876
92.9444,9.4603
92.8786,9.3462
92.7854,9.2530
92.7283,9.2201
92.6712,9.1871
92.5988,9.1677
92.5439,9.1530
78.5939,9.1530
78.4622,9.1530
78.3349,9.1871
78.2207,9.2530
78.2207,9.2530
78.1276,9.3462
78.1276,9.3462
78.0617,9.4603
78.0276,9.5876
73.9786,9.5876
73.9786,7.0626
73.9444,6.9353
73.8786,6.8212
73.7854,6.7280
73.7283,6.6951
73.6712,6.6621
73.6076,6.6451
73.5439,6.6280
59.5939,6.6280
59.4622,6.6280
59.3349,6.6621
59.2207,6.7280
59.2207,6.7280
59.1276,6.8212
59.1276,6.8212
59.0617,6.9353
59.0276,7.0626
59.0276,11.5658
59.0079,11.6329
58.9551,11.6786
58.8859,11.6886
58.8224,11.6596
58.8159,11.6535
58.7754,11.6130
58.7754,11.6130
58.6937,11.5658
58.6612,11.5471
58.5788,11.5250
58.5339,11.5130
58.5339,11.5130
55.1325,11.5130
55.0655,11.4933
55.0198,11.4405
55.0085,11.3890
55.0085,2.4876
55.0085,2.4876
54.9744,2.3603
54.9085,2.2462
54.8154,2.1530
54.7088,2.0915
54.7012,2.0871
54.6376,2.0701
54.5739,2.0530
40.6189,2.0530
40.4872,2.0530
40.3599,2.0871
40.2457,2.1530
40.2457,2.1530
40.1526,2.2462
40.1526,2.2462
40.0867,2.3603
40.0526,2.4876
26.8704,2.4876
27.1152,2.2428
27.1152,2.2428
26.9726,2.1231
26.6806,1.9310
26.3683,1.7742
26.3683,1.7742
26.0399,1.6547
26.0399,1.6547
25.6999,1.5741
25.3528,1.5335
25.0033,1.5335
24.6562,1.5741
24.6562,1.5741
24.3162,1.6547
24.3162,1.6547
23.9878,1.7742
23.9878,1.7742
23.6755,1.9310
23.3835,2.1231
23.2409,2.2428
23.2409,2.2428
23.8878,2.8897
23.7959,2.8516
23.6964,2.8516
23.6045,2.8897
23.5342,2.9600
23.4962,3.0519
23.4962,3.1514
23.5342,3.2432
22.8842,2.5932
22.8842,2.5932
22.8760,2.6019
22.8760,2.6019
22.6673,2.8822
22.4926,3.1848
22.4926,3.1848
22.3542,3.5057
22.2540,3.8405
22.2540,3.8405
22.1933,4.1846
22.1933,4.1846
22.1730,4.5335
20.4330,4.5335
20.4785,4.2664
20.4793,4.2623
20.6210,3.5732
20.6222,3.5679
20.7812,2.9382
20.7832,2.9314
20.9600,2.3697
20.9631,2.3609
21.0103,2.2428
21.1570,1.8754
21.1621,1.8644
21.3702,1.4629
21.3784,1.4492
21.5952,1.1371
21.6083,1.1212
21.8265,0.8979
21.8462,0.8815
22.0470,0.7469
22.0623,0.7367
22.0883,0.7234
22.3122,0.6408
22.3412,0.6339
22.6289,0.6013
22.6428,0.6005
54.4707,0.6005
Z" /> 
</g>
<g style="fill:#FFFFFF; fill-opacity:1.0000; stroke:none;">
<circle cx="23.1531" cy="4.5335" r="0.2500" /> 
</g>
<g style="fill:#FFFFFF; fill-opacity:1.0000; stroke:none;">
<circle cx="23.7462" cy="3.1016" r="0.2500" /> 
</g>
<g style="fill:#FFFFFF; fill-opacity:1.0000; stroke:none;">
<circle cx="23.7462" cy="5.9654" r="0.2500" /> 
</g>
<g style="fill:#FFFFFF; fill-opacity:1.0000; stroke:none;">
<circle cx="25.1781" cy="2.5085" r="0.2500" /> 
</g>
<g style="fill:#FFFFFF; fill-opacity:1.0000; stroke:none;">
<circle cx="25.1781" cy="4.5335" r="1.5000" /> 
</g>
<g style="fill:#FFFFFF; fill-opacity:1.0000; stroke:none;">
<circle cx="25.1781" cy="6.5585" r="0.2500" /> 
</g>
<g style="fill:#FFFFFF; fill-opacity:1.0000; stroke:none;">
<circle cx="26.6099" cy="3.1016" r="0.2500" /> 
</g>
<g style="fill:#FFFFFF; fill-opacity:1.0000; stroke:none;">
<circle cx="26.6099" cy="5.9654" r="0.2500" /> 
</g>
<g style="fill:#FFFFFF; fill-opacity:1.0000; stroke:none;">
<circle cx="27.2031" cy="4.5335" r="0.2500" /> 
</g>
<g style="fill:#FFFFFF; fill-opacity:1.0000; stroke:none;">
<circle cx="104.9031" cy="64.1035" r="0.2500" /> 
</g>
<g style="fill:#FFFFFF; fill-opacity:1.0000; stroke:none;">
<circle cx="105.4962" cy="62.6716" r="0.2500" /> 
</g>
<g style="fill:#FFFFFF; fill-opacity:1.0000; stroke:none;">
<circle cx="105.4962" cy="65.5354" r="0.2500" /> 
</g>
<g style="fill:#FFFFFF; fill-opacity:1.0000; stroke:none;">
<circle cx="106.9281" cy="62.0785" r="0.2500" /> 
</g>
<g style="fill:#FFFFFF; fill-opacity:1.0000; stroke:none;">
<circle cx="106.9281" cy="64.1035" r="1.5000" /> 
</g>
<g style="fill:#FFFFFF; fill-opacity:1.0000; stroke:none;">
<circle cx="106.9281" cy="66.1285" r="0.2500" /> 
</g>
<g style="fill:#FFFFFF; fill-opacity:1.0000; stroke:none;">
<circle cx="108.3599" cy="62.6716" r="0.2500" /> 
</g>
<g style="fill:#FFFFFF; fill-opacity:1.0000; stroke:none;">
<circle cx="108.3599" cy="65.5354" r="0.2500" /> 
</g>
<g style="fill:#FFFFFF; fill-opacity:1.0000; stroke:none;">
<circle cx="108.9531" cy="64.1035" r="0.2500" /> 
</g>
<g style="fill:#FFFFFF; fill-opacity:1.0000; stroke:none;">
<circle cx="98.5830" cy="12.5528" r="0.2500" /> 
</g>
<g style="fill:#FFFFFF; fill-opacity:1.0000; stroke:none;">
<circle cx="99.1762" cy="11.1209" r="0.2500" /> 
</g>
<g style="fill:#FFFFFF; fill-opacity:1.0000; stroke:none;">
<circle cx="99.1762" cy="13.9847" r="0.2500" /> 
</g>
<g style="fill:#FFFFFF; fill-opacity:1.0000; stroke:none;">
<circle cx="100.6080" cy="10.5278" r="0.2500" /> 
</g>
<g style="fill:#FFFFFF; fill-opacity:1.0000; stroke:none;">
<circle cx="100.6080" cy="12.5528" r="1.5000" /> 
</g>
<g style="fill:#FFFFFF; fill-opacity:1.0000; stroke:none;">
<circle cx="100.6080" cy="14.5778" r="0.2500" /> 
</g>
<g style="fill:#FFFFFF; fill-opacity:1.0000; stroke:none;">
<circle cx="102.0399" cy="11.1209" r="0.2500" /> 
</g>
<g style="fill:#FFFFFF; fill-opacity:1.0000; stroke:none;">
<circle cx="102.0399" cy="13.9847" r="0.2500" /> 
</g>
<g style="fill:#FFFFFF; fill-opacity:1.0000; stroke:none;">
<circle cx="102.6330" cy="12.5528" r="0.2500" /> 
</g>
<g style="fill:#FFFFFF; fill-opacity:1.0000; stroke:none;">
<circle cx="43.5412" cy="60.3091" r="0.2500" /> 
</g>
<g style="fill:#FFFFFF; fill-opacity:1.0000; stroke:none;">
<circle cx="44.1343" cy="58.8772" r="0.2500" /> 
</g>
<g style="fill:#FFFFFF; fill-opacity:1.0000; stroke:none;">
<circle cx="44.1343" cy="61.7410" r="0.2500" /> 
</g>
<g style="fill:#FFFFFF; fill-opacity:1.0000; stroke:none;">
<circle cx="45.5662" cy="58.2841" r="0.2500" /> 
</g>
<g style="fill:#FFFFFF; fill-opacity:1.0000; stroke:none;">
<circle cx="45.5662" cy="60.3091" r="1.5000" /> 
</g>
<g style="fill:#FFFFFF; fill-opacity:1.0000; stroke:none;">
<circle cx="45.5662" cy="62.3341" r="0.2500" /> 
</g>
<g style="fill:#FFFFFF; fill-opacity:1.0000; stroke:none;">
<circle cx="46.9981" cy="58.8772" r="0.2500" /> 
</g>
<g style="fill:#FFFFFF; fill-opacity:1.0000; stroke:none;">
<circle cx="46.9981" cy="61.7410" r="0.2500" /> 
</g>
<g style="fill:#FFFFFF; fill-opacity:1.0000; stroke:none;">
<circle cx="47.5912" cy="60.3091" r="0.2500" /> 
</g> 
</svg>
