<svg width="138" height="140" viewBox="0 0 138 140" fill="none" xmlns="http://www.w3.org/2000/svg">
<rect x="33.5" y="42" width="48" height="48" rx="8" fill="white"/>
<path fill-rule="evenodd" clip-rule="evenodd" d="M25.5 26C21.0817 26 17.5 29.5817 17.5 34V66C17.5 70.4183 21.0817 74 25.5 74H29V48.4868C29 42.964 33.4772 38.4868 39 38.4868H65.5V34C65.5 29.5817 61.9183 26 57.5 26H25.5Z" fill="white"/>
<path d="M3.25288 121.504C4.40488 121.504 5.27688 122.456 5.27688 123.8C5.27688 125.144 4.42088 126.096 3.24488 126.096C2.55688 126.096 2.02888 125.76 1.70888 125.264V126H0.804878V119.84H1.70888V122.352C2.02888 121.848 2.55688 121.504 3.25288 121.504ZM3.05288 125.232C3.81288 125.232 4.36488 124.648 4.36488 123.8C4.36488 122.96 3.82088 122.368 3.05288 122.368C2.28488 122.368 1.70088 122.96 1.70088 123.8C1.70088 124.648 2.28488 125.232 3.05288 125.232ZM10.2517 121.6H11.1557V126H10.2517V125.264C9.93169 125.768 9.40369 126.096 8.71569 126.096C7.53969 126.096 6.68369 125.144 6.68369 123.8C6.68369 122.456 7.55569 121.504 8.70769 121.504C9.40369 121.504 9.93169 121.848 10.2517 122.352V121.6ZM8.90769 125.232C9.67569 125.232 10.2597 124.648 10.2597 123.8C10.2597 122.96 9.67569 122.368 8.90769 122.368C8.13969 122.368 7.59569 122.96 7.59569 123.8C7.59569 124.648 8.14769 125.232 8.90769 125.232ZM14.7945 126.096C13.6345 126.096 12.8025 125.536 12.6345 124.584H13.5545C13.6905 125.072 14.0505 125.296 14.8105 125.296C15.3945 125.296 15.7545 125.12 15.7545 124.792C15.7545 124.424 15.3385 124.368 14.6025 124.192C13.3705 123.888 12.8505 123.64 12.8505 122.904C12.8505 122.016 13.6025 121.504 14.7065 121.504C15.8345 121.504 16.4665 122.04 16.6265 122.84H15.7145C15.5865 122.48 15.2505 122.304 14.6905 122.304C14.1065 122.304 13.7625 122.504 13.7625 122.808C13.7625 123.088 14.0345 123.16 14.8025 123.344C15.9945 123.624 16.6825 123.832 16.6825 124.688C16.6825 125.632 15.8345 126.096 14.7945 126.096ZM21.3464 125.04L21.5064 125.776C21.2664 125.92 20.7544 126.096 20.2504 126.096C19.3464 126.096 18.6424 125.528 18.6424 124.312V122.448H17.8264V121.6H18.6424V120.6L19.5464 120.4V121.6H21.3544V122.448H19.5464V124.264C19.5464 124.904 19.8424 125.256 20.4104 125.256C20.6904 125.256 21.0024 125.16 21.3464 125.04ZM26.1873 121.6H27.0913V126H26.1873V125.264C25.8673 125.768 25.3393 126.096 24.6513 126.096C23.4753 126.096 22.6193 125.144 22.6193 123.8C22.6193 122.456 23.4913 121.504 24.6433 121.504C25.3393 121.504 25.8673 121.848 26.1873 122.352V121.6ZM24.8433 125.232C25.6113 125.232 26.1953 124.648 26.1953 123.8C26.1953 122.96 25.6113 122.368 24.8433 122.368C24.0753 122.368 23.5313 122.96 23.5313 123.8C23.5313 124.648 24.0833 125.232 24.8433 125.232ZM31.1541 121.504C31.2661 121.504 31.3541 121.512 31.4181 121.528V122.448C31.3381 122.44 31.2661 122.432 31.1461 122.432C30.3221 122.432 29.6901 122.896 29.6901 123.984V126H28.7861V121.6H29.6901V122.472C29.9541 121.856 30.4581 121.504 31.1541 121.504ZM36.1796 119.84H37.0836V126H36.1796V125.264C35.8516 125.76 35.3236 126.096 34.6356 126.096C33.4596 126.096 32.6036 125.144 32.6036 123.8C32.6036 122.456 33.4756 121.504 34.6276 121.504C35.3236 121.504 35.8516 121.848 36.1796 122.352V119.84ZM34.8276 125.232C35.5956 125.232 36.1796 124.648 36.1796 123.8C36.1796 122.96 35.5956 122.368 34.8276 122.368C34.0596 122.368 33.5156 122.96 33.5156 123.8C33.5156 124.648 34.0676 125.232 34.8276 125.232ZM42.9533 126H41.7853L39.7133 123.968V126H38.8093V119.84H39.7133V123.504L41.6173 121.6H42.7773L40.6253 123.688L42.9533 126ZM46.7635 121.504C47.9155 121.504 48.7875 122.456 48.7875 123.8C48.7875 125.144 47.9315 126.096 46.7555 126.096C46.0675 126.096 45.5395 125.76 45.2195 125.264V126H44.3155V119.84H45.2195V122.352C45.5395 121.848 46.0675 121.504 46.7635 121.504ZM46.5635 125.232C47.3235 125.232 47.8755 124.648 47.8755 123.8C47.8755 122.96 47.3315 122.368 46.5635 122.368C45.7955 122.368 45.2115 122.96 45.2115 123.8C45.2115 124.648 45.7955 125.232 46.5635 125.232ZM57.2968 126H56.2168L55.1528 124.424L54.1288 126H53.0408L54.6168 123.736L53.1288 121.6H54.2088L55.1848 123.072L56.1288 121.6H57.2168L55.7288 123.752L57.2968 126ZM64.1438 121.504C65.2958 121.504 66.1678 122.456 66.1678 123.8C66.1678 125.144 65.3118 126.096 64.1358 126.096C63.4478 126.096 62.9198 125.76 62.5998 125.264V126H61.6958V119.84H62.5998V122.352C62.9198 121.848 63.4478 121.504 64.1438 121.504ZM63.9438 125.232C64.7038 125.232 65.2558 124.648 65.2558 123.8C65.2558 122.96 64.7118 122.368 63.9438 122.368C63.1758 122.368 62.5918 122.96 62.5918 123.8C62.5918 124.648 63.1758 125.232 63.9438 125.232ZM72.8386 121.504C73.7666 121.504 74.3266 122.128 74.3266 123.176V126H73.4226V123.368C73.4226 122.712 73.1586 122.368 72.5506 122.368C71.8386 122.368 71.4706 122.92 71.4706 123.72L71.4786 126H70.5666V123.368C70.5666 122.712 70.3026 122.368 69.6946 122.368C68.9826 122.368 68.6226 122.92 68.6226 123.72V126H67.7186V121.6H68.6226V122.304C68.9266 121.8 69.3586 121.504 69.9906 121.504C70.6626 121.504 71.1346 121.832 71.3506 122.424C71.6466 121.856 72.1426 121.504 72.8386 121.504ZM78.1196 121.504C79.3836 121.504 80.3996 122.472 80.3996 123.8C80.3996 125.12 79.3996 126.096 78.1196 126.096C76.8476 126.096 75.8396 125.112 75.8396 123.8C75.8396 122.472 76.8636 121.504 78.1196 121.504ZM78.1196 122.368C77.3596 122.368 76.7516 122.952 76.7516 123.8C76.7516 124.648 77.3516 125.232 78.1196 125.232C78.8876 125.232 79.4876 124.648 79.4876 123.8C79.4876 122.952 78.8796 122.368 78.1196 122.368ZM81.9519 126V119.84H82.8639V126H81.9519ZM86.9131 121.504C87.9051 121.504 88.4971 122.152 88.4971 123.224V126H87.5931V123.408C87.5931 122.728 87.2971 122.368 86.6331 122.368C85.8571 122.368 85.4411 122.872 85.4411 123.72V126H84.5371V121.6H85.4411V122.328C85.7531 121.816 86.2251 121.504 86.9131 121.504ZM93.5776 121.6H94.4816V126H93.5776V125.264C93.2576 125.768 92.7296 126.096 92.0416 126.096C90.8656 126.096 90.0096 125.144 90.0096 123.8C90.0096 122.456 90.8816 121.504 92.0336 121.504C92.7296 121.504 93.2576 121.848 93.5776 122.352V121.6ZM92.2336 125.232C93.0016 125.232 93.5856 124.648 93.5856 123.8C93.5856 122.96 93.0016 122.368 92.2336 122.368C91.4656 122.368 90.9216 122.96 90.9216 123.8C90.9216 124.648 91.4736 125.232 92.2336 125.232ZM98.5444 121.504C98.6564 121.504 98.7444 121.512 98.8084 121.528V122.448C98.7284 122.44 98.6564 122.432 98.5364 122.432C97.7124 122.432 97.0804 122.896 97.0804 123.984V126H96.1764V121.6H97.0804V122.472C97.3444 121.856 97.8484 121.504 98.5444 121.504Z" fill="white"/>
<path d="M5.96607 138H4.79807L2.72607 135.968V138H1.82207V131.84H2.72607V135.504L4.63007 133.6H5.79007L3.63807 135.688L5.96607 138ZM7.77632 131.616C8.12032 131.616 8.36832 131.848 8.36832 132.168C8.36832 132.496 8.12032 132.736 7.77632 132.736C7.44832 132.736 7.19232 132.496 7.19232 132.168C7.19232 131.848 7.44832 131.616 7.77632 131.616ZM7.32832 138V133.6H8.23232V138H7.32832ZM12.0574 138.096C10.7534 138.096 9.77744 137.112 9.77744 135.8C9.77744 134.488 10.7534 133.504 12.0654 133.504C13.1054 133.504 14.0254 134.136 14.2254 135.2H13.2894C13.1214 134.648 12.6334 134.344 12.0654 134.344C11.2494 134.344 10.6894 134.952 10.6894 135.8C10.6894 136.656 11.2654 137.256 12.0574 137.256C12.6334 137.256 13.1214 136.936 13.2894 136.392H14.2254C14.0174 137.48 13.0894 138.096 12.0574 138.096ZM19.1183 133.6H20.0223V138H19.1183V137.264C18.7983 137.768 18.2703 138.096 17.5823 138.096C16.4063 138.096 15.5503 137.144 15.5503 135.8C15.5503 134.456 16.4223 133.504 17.5743 133.504C18.2703 133.504 18.7983 133.848 19.1183 134.352V133.6ZM17.7743 137.232C18.5423 137.232 19.1263 136.648 19.1263 135.8C19.1263 134.96 18.5423 134.368 17.7743 134.368C17.0063 134.368 16.4623 134.96 16.4623 135.8C16.4623 136.648 17.0143 137.232 17.7743 137.232ZM25.1971 131.84H26.1011V138H25.1971V137.264C24.8691 137.76 24.3411 138.096 23.6531 138.096C22.4771 138.096 21.6211 137.144 21.6211 135.8C21.6211 134.456 22.4931 133.504 23.6451 133.504C24.3411 133.504 24.8691 133.848 25.1971 134.352V131.84ZM23.8451 137.232C24.6131 137.232 25.1971 136.648 25.1971 135.8C25.1971 134.96 24.6131 134.368 23.8451 134.368C23.0771 134.368 22.5331 134.96 22.5331 135.8C22.5331 136.648 23.0851 137.232 23.8451 137.232ZM34.7452 138H33.6652L32.6012 136.424L31.5772 138H30.4892L32.0652 135.736L30.5772 133.6H31.6572L32.6332 135.072L33.5772 133.6H34.6652L33.1772 135.752L34.7452 138ZM41.2803 138.096C39.9763 138.096 39.0003 137.112 39.0003 135.8C39.0003 134.488 39.9763 133.504 41.2883 133.504C42.3283 133.504 43.2483 134.136 43.4483 135.2H42.5123C42.3443 134.648 41.8563 134.344 41.2883 134.344C40.4723 134.344 39.9123 134.952 39.9123 135.8C39.9123 136.656 40.4883 137.256 41.2803 137.256C41.8563 137.256 42.3443 136.936 42.5123 136.392H43.4483C43.2403 137.48 42.3123 138.096 41.2803 138.096ZM47.0451 133.504C48.4611 133.504 49.3571 134.6 49.2691 136.048H45.6931C45.7651 136.856 46.3331 137.304 47.0691 137.304C47.5971 137.304 48.0371 137.08 48.2451 136.648H49.1811C48.8371 137.632 47.9971 138.096 47.0611 138.096C45.7251 138.096 44.7731 137.136 44.7731 135.808C44.7731 134.48 45.7171 133.504 47.0451 133.504ZM47.0451 134.288C46.3571 134.288 45.8931 134.72 45.7411 135.312H48.3011C48.1651 134.712 47.7091 134.288 47.0451 134.288ZM53.1594 133.504C53.2714 133.504 53.3594 133.512 53.4234 133.528V134.448C53.3434 134.44 53.2714 134.432 53.1514 134.432C52.3274 134.432 51.6954 134.896 51.6954 135.984V138H50.7914V133.6H51.6954V134.472C51.9594 133.856 52.4634 133.504 53.1594 133.504ZM57.159 133.504C58.151 133.504 58.743 134.152 58.743 135.224V138H57.839V135.408C57.839 134.728 57.543 134.368 56.879 134.368C56.103 134.368 55.687 134.872 55.687 135.72V138H54.783V133.6H55.687V134.328C55.999 133.816 56.471 133.504 57.159 133.504ZM63.1676 135.176V136.04H60.5276V135.176H63.1676ZM67.1209 133.504C68.3849 133.504 69.4009 134.472 69.4009 135.8C69.4009 137.12 68.4009 138.096 67.1209 138.096C65.8489 138.096 64.8409 137.112 64.8409 135.8C64.8409 134.472 65.8649 133.504 67.1209 133.504ZM67.1209 134.368C66.3609 134.368 65.7529 134.952 65.7529 135.8C65.7529 136.648 66.3529 137.232 67.1209 137.232C67.8889 137.232 68.4889 136.648 68.4889 135.8C68.4889 134.952 67.8809 134.368 67.1209 134.368ZM73.3612 133.504C74.3452 133.504 74.9452 134.152 74.9452 135.224V138H74.0412V135.408C74.0412 134.728 73.7372 134.368 73.0732 134.368C72.3052 134.368 71.8892 134.872 71.8892 135.72V138H70.9852V131.84H71.8892V134.32C72.2012 133.808 72.6812 133.504 73.3612 133.504ZM76.601 138V131.84H77.513V138H76.601ZM81.9541 135.176V136.04H79.3141V135.176H81.9541ZM85.9554 134.272C86.9794 134.272 87.8434 134.96 87.8434 136.12C87.8434 137.312 86.9394 138.096 85.7554 138.096C84.6834 138.096 83.6994 137.496 83.5714 136.28H84.4834C84.6114 136.92 85.1314 137.24 85.7474 137.24C86.4514 137.24 86.9234 136.752 86.9234 136.112C86.9234 135.448 86.4354 135.024 85.7634 135.024C85.2034 135.024 84.8354 135.28 84.6274 135.616H83.7634L84.4514 132.4H87.5794V133.264H85.1314L84.8434 134.624C85.1234 134.408 85.4754 134.272 85.9554 134.272ZM92.3013 133.6H93.2613L91.6773 138H90.5813L88.9973 133.6H89.9573L91.1253 137.056L92.3013 133.6ZM95.9018 137.136H98.6698V138H94.4218V137.352L96.0458 135.928C97.3018 134.832 97.6218 134.552 97.6218 134.056C97.6218 133.568 97.2458 133.168 96.5578 133.168C95.8778 133.168 95.5018 133.56 95.3818 134.2H94.4698C94.5978 133.032 95.4378 132.304 96.5978 132.304C97.7898 132.304 98.5338 133.072 98.5338 134.016C98.5338 134.864 97.9418 135.368 96.7978 136.368L95.9178 137.128L95.9018 137.136Z" fill="white"/>
<path d="M115 12.072L121.264 7.272L121.264 4.68L115 4.68L115 1.968L131.8 1.968L131.8 8.904C131.8 12.552 129.64 14.616 126.472 14.616C123.712 14.616 121.912 13.056 121.408 10.392L115 15.408L115 12.072ZM129.208 4.68L123.664 4.68L123.664 8.616C123.664 10.848 124.816 11.88 126.448 11.88C128.08 11.88 129.208 10.824 129.208 8.616L129.208 4.68ZM129.208 37.7244L129.208 29.4684L124.864 29.4684L124.864 37.1244L122.272 37.1244L122.272 29.4684L117.592 29.4684L117.592 37.7244L115 37.7244L115 26.7564L131.8 26.7564L131.8 37.7244L129.208 37.7244ZM131.8 62.0383L131.8 65.2303L115 65.2303L115 62.5183L128.128 62.5183L120.304 57.3343L120.304 57.0703L128.128 51.9103L115 51.9103L115 49.1983L131.8 49.1983L131.8 52.3903L124.552 57.2143L131.8 62.0383ZM129.208 88.7779L129.208 80.5219L124.864 80.5219L124.864 88.1779L122.272 88.1779L122.272 80.5219L117.592 80.5219L117.592 88.7779L115 88.7779L115 77.8099L131.8 77.8099L131.8 88.7779L129.208 88.7779ZM131.8 106.252C131.8 111.148 128.272 114.844 123.4 114.844C118.552 114.844 115 111.124 115 106.252L115 100.372L131.8 100.372L131.8 106.252ZM117.592 106.276C117.592 109.66 119.968 112.132 123.4 112.132C126.808 112.132 129.208 109.66 129.208 106.276L129.208 103.084L117.592 103.084L117.592 106.276ZM131.8 138.909L120.784 132.861L115 132.837L115 130.125L120.736 130.125L131.8 124.053L131.8 127.125L123.784 131.493L131.8 135.861L131.8 138.909Z" fill="white"/>
</svg>
