<svg width="138" height="140" viewBox="0 0 138 140" fill="none" xmlns="http://www.w3.org/2000/svg">
<path d="M6 12.072L12.264 7.272L12.264 4.68L6 4.68L6 1.968L22.8 1.968L22.8 8.904C22.8 12.552 20.64 14.616 17.472 14.616C14.712 14.616 12.912 13.056 12.408 10.392L6 15.408L6 12.072ZM20.208 4.68L14.664 4.68L14.664 8.616C14.664 10.848 15.816 11.88 17.448 11.88C19.08 11.88 20.208 10.824 20.208 8.616L20.208 4.68ZM20.208 37.7244L20.208 29.4684L15.864 29.4684L15.864 37.1244L13.272 37.1244L13.272 29.4684L8.592 29.4684L8.592 37.7244L6 37.7244L6 26.7564L22.8 26.7564L22.8 37.7244L20.208 37.7244ZM22.8 62.0383L22.8 65.2303L6 65.2303L6 62.5183L19.128 62.5183L11.304 57.3343L11.304 57.0703L19.128 51.9103L6 51.9103L6 49.1983L22.8 49.1983L22.8 52.3903L15.552 57.2143L22.8 62.0383ZM20.208 88.7779L20.208 80.5219L15.864 80.5219L15.864 88.1779L13.272 88.1779L13.272 80.5219L8.592 80.5219L8.592 88.7779L6 88.7779L6 77.8099L22.8 77.8099L22.8 88.7779L20.208 88.7779ZM22.8 106.252C22.8 111.148 19.272 114.844 14.4 114.844C9.552 114.844 6 111.124 6 106.252L6 100.372L22.8 100.372L22.8 106.252ZM8.592 106.276C8.592 109.66 10.968 112.132 14.4 112.132C17.808 112.132 20.208 109.66 20.208 106.276L20.208 103.084L8.592 103.084L8.592 106.276ZM22.8 138.909L11.784 132.861L6 132.837L6 130.125L11.736 130.125L22.8 124.053L22.8 127.125L14.784 131.493L22.8 135.861L22.8 138.909Z" fill="white"/>
<rect x="104.5" y="42" width="48" height="48" rx="8" transform="rotate(90 104.5 42)" fill="white"/>
<path fill-rule="evenodd" clip-rule="evenodd" d="M120.5 34C120.5 29.5817 116.918 26 112.5 26L80.5 26C76.0817 26 72.5 29.5817 72.5 34L72.5 38L98.5 38C104.023 38 108.5 42.4772 108.5 48L108.5 74L112.5 74C116.918 74 120.5 70.4183 120.5 66L120.5 34Z" fill="white"/>
<path d="M41.976 121.504C43.128 121.504 44 122.456 44 123.8C44 125.144 43.144 126.096 41.968 126.096C41.28 126.096 40.752 125.76 40.432 125.264V126H39.528V119.84H40.432V122.352C40.752 121.848 41.28 121.504 41.976 121.504ZM41.776 125.232C42.536 125.232 43.088 124.648 43.088 123.8C43.088 122.96 42.544 122.368 41.776 122.368C41.008 122.368 40.424 122.96 40.424 123.8C40.424 124.648 41.008 125.232 41.776 125.232ZM48.9748 121.6H49.8788V126H48.9748V125.264C48.6548 125.768 48.1268 126.096 47.4388 126.096C46.2628 126.096 45.4068 125.144 45.4068 123.8C45.4068 122.456 46.2788 121.504 47.4308 121.504C48.1268 121.504 48.6548 121.848 48.9748 122.352V121.6ZM47.6308 125.232C48.3988 125.232 48.9828 124.648 48.9828 123.8C48.9828 122.96 48.3988 122.368 47.6308 122.368C46.8628 122.368 46.3188 122.96 46.3188 123.8C46.3188 124.648 46.8708 125.232 47.6308 125.232ZM53.5176 126.096C52.3576 126.096 51.5256 125.536 51.3576 124.584H52.2776C52.4136 125.072 52.7736 125.296 53.5336 125.296C54.1176 125.296 54.4776 125.12 54.4776 124.792C54.4776 124.424 54.0616 124.368 53.3256 124.192C52.0936 123.888 51.5736 123.64 51.5736 122.904C51.5736 122.016 52.3256 121.504 53.4296 121.504C54.5576 121.504 55.1896 122.04 55.3496 122.84H54.4376C54.3096 122.48 53.9736 122.304 53.4136 122.304C52.8296 122.304 52.4856 122.504 52.4856 122.808C52.4856 123.088 52.7576 123.16 53.5256 123.344C54.7176 123.624 55.4056 123.832 55.4056 124.688C55.4056 125.632 54.5576 126.096 53.5176 126.096ZM60.0695 125.04L60.2295 125.776C59.9895 125.92 59.4775 126.096 58.9735 126.096C58.0695 126.096 57.3655 125.528 57.3655 124.312V122.448H56.5495V121.6H57.3655V120.6L58.2695 120.4V121.6H60.0775V122.448H58.2695V124.264C58.2695 124.904 58.5655 125.256 59.1335 125.256C59.4135 125.256 59.7255 125.16 60.0695 125.04ZM64.9104 121.6H65.8144V126H64.9104V125.264C64.5904 125.768 64.0624 126.096 63.3744 126.096C62.1984 126.096 61.3424 125.144 61.3424 123.8C61.3424 122.456 62.2144 121.504 63.3664 121.504C64.0624 121.504 64.5904 121.848 64.9104 122.352V121.6ZM63.5664 125.232C64.3344 125.232 64.9184 124.648 64.9184 123.8C64.9184 122.96 64.3344 122.368 63.5664 122.368C62.7984 122.368 62.2544 122.96 62.2544 123.8C62.2544 124.648 62.8064 125.232 63.5664 125.232ZM69.8773 121.504C69.9893 121.504 70.0773 121.512 70.1413 121.528V122.448C70.0613 122.44 69.9893 122.432 69.8693 122.432C69.0453 122.432 68.4133 122.896 68.4133 123.984V126H67.5093V121.6H68.4133V122.472C68.6773 121.856 69.1813 121.504 69.8773 121.504ZM74.9027 119.84H75.8067V126H74.9027V125.264C74.5747 125.76 74.0467 126.096 73.3587 126.096C72.1827 126.096 71.3267 125.144 71.3267 123.8C71.3267 122.456 72.1987 121.504 73.3507 121.504C74.0467 121.504 74.5747 121.848 74.9027 122.352V119.84ZM73.5507 125.232C74.3187 125.232 74.9027 124.648 74.9027 123.8C74.9027 122.96 74.3187 122.368 73.5507 122.368C72.7827 122.368 72.2387 122.96 72.2387 123.8C72.2387 124.648 72.7907 125.232 73.5507 125.232ZM81.6764 126H80.5084L78.4364 123.968V126H77.5324V119.84H78.4364V123.504L80.3404 121.6H81.5004L79.3484 123.688L81.6764 126ZM85.4866 121.504C86.6386 121.504 87.5106 122.456 87.5106 123.8C87.5106 125.144 86.6546 126.096 85.4786 126.096C84.7906 126.096 84.2626 125.76 83.9426 125.264V126H83.0386V119.84H83.9426V122.352C84.2626 121.848 84.7906 121.504 85.4866 121.504ZM85.2866 125.232C86.0466 125.232 86.5986 124.648 86.5986 123.8C86.5986 122.96 86.0546 122.368 85.2866 122.368C84.5186 122.368 83.9346 122.96 83.9346 123.8C83.9346 124.648 84.5186 125.232 85.2866 125.232ZM96.0199 126H94.9399L93.8759 124.424L92.8519 126H91.7639L93.3399 123.736L91.8519 121.6H92.9319L93.9079 123.072L94.8519 121.6H95.9399L94.4519 123.752L96.0199 126ZM102.867 121.504C104.019 121.504 104.891 122.456 104.891 123.8C104.891 125.144 104.035 126.096 102.859 126.096C102.171 126.096 101.643 125.76 101.323 125.264V126H100.419V119.84H101.323V122.352C101.643 121.848 102.171 121.504 102.867 121.504ZM102.667 125.232C103.427 125.232 103.979 124.648 103.979 123.8C103.979 122.96 103.435 122.368 102.667 122.368C101.899 122.368 101.315 122.96 101.315 123.8C101.315 124.648 101.899 125.232 102.667 125.232ZM111.562 121.504C112.49 121.504 113.05 122.128 113.05 123.176V126H112.146V123.368C112.146 122.712 111.882 122.368 111.274 122.368C110.562 122.368 110.194 122.92 110.194 123.72L110.202 126H109.29V123.368C109.29 122.712 109.026 122.368 108.418 122.368C107.706 122.368 107.346 122.92 107.346 123.72V126H106.442V121.6H107.346V122.304C107.65 121.8 108.082 121.504 108.714 121.504C109.386 121.504 109.858 121.832 110.074 122.424C110.37 121.856 110.866 121.504 111.562 121.504ZM116.843 121.504C118.107 121.504 119.123 122.472 119.123 123.8C119.123 125.12 118.123 126.096 116.843 126.096C115.571 126.096 114.563 125.112 114.563 123.8C114.563 122.472 115.587 121.504 116.843 121.504ZM116.843 122.368C116.083 122.368 115.475 122.952 115.475 123.8C115.475 124.648 116.075 125.232 116.843 125.232C117.611 125.232 118.211 124.648 118.211 123.8C118.211 122.952 117.603 122.368 116.843 122.368ZM120.675 126V119.84H121.587V126H120.675ZM125.636 121.504C126.628 121.504 127.22 122.152 127.22 123.224V126H126.316V123.408C126.316 122.728 126.02 122.368 125.356 122.368C124.58 122.368 124.164 122.872 124.164 123.72V126H123.26V121.6H124.164V122.328C124.476 121.816 124.948 121.504 125.636 121.504ZM132.301 121.6H133.205V126H132.301V125.264C131.981 125.768 131.453 126.096 130.765 126.096C129.589 126.096 128.733 125.144 128.733 123.8C128.733 122.456 129.605 121.504 130.757 121.504C131.453 121.504 131.981 121.848 132.301 122.352V121.6ZM130.957 125.232C131.725 125.232 132.309 124.648 132.309 123.8C132.309 122.96 131.725 122.368 130.957 122.368C130.189 122.368 129.645 122.96 129.645 123.8C129.645 124.648 130.197 125.232 130.957 125.232ZM137.268 121.504C137.38 121.504 137.468 121.512 137.532 121.528V122.448C137.452 122.44 137.38 122.432 137.26 122.432C136.436 122.432 135.804 122.896 135.804 123.984V126H134.9V121.6H135.804V122.472C136.068 121.856 136.572 121.504 137.268 121.504Z" fill="white"/>
<path d="M43.712 138H42.544L40.472 135.968V138H39.568V131.84H40.472V135.504L42.376 133.6H43.536L41.384 135.688L43.712 138ZM45.5222 131.616C45.8662 131.616 46.1142 131.848 46.1142 132.168C46.1142 132.496 45.8662 132.736 45.5222 132.736C45.1942 132.736 44.9382 132.496 44.9382 132.168C44.9382 131.848 45.1942 131.616 45.5222 131.616ZM45.0742 138V133.6H45.9782V138H45.0742ZM49.8034 138.096C48.4994 138.096 47.5234 137.112 47.5234 135.8C47.5234 134.488 48.4994 133.504 49.8114 133.504C50.8514 133.504 51.7714 134.136 51.9714 135.2H51.0354C50.8674 134.648 50.3794 134.344 49.8114 134.344C48.9954 134.344 48.4354 134.952 48.4354 135.8C48.4354 136.656 49.0114 137.256 49.8034 137.256C50.3794 137.256 50.8674 136.936 51.0354 136.392H51.9714C51.7634 137.48 50.8354 138.096 49.8034 138.096ZM56.8642 133.6H57.7682V138H56.8642V137.264C56.5442 137.768 56.0162 138.096 55.3282 138.096C54.1522 138.096 53.2962 137.144 53.2962 135.8C53.2962 134.456 54.1682 133.504 55.3202 133.504C56.0162 133.504 56.5442 133.848 56.8642 134.352V133.6ZM55.5202 137.232C56.2882 137.232 56.8722 136.648 56.8722 135.8C56.8722 134.96 56.2882 134.368 55.5202 134.368C54.7522 134.368 54.2082 134.96 54.2082 135.8C54.2082 136.648 54.7602 137.232 55.5202 137.232ZM62.943 131.84H63.847V138H62.943V137.264C62.615 137.76 62.087 138.096 61.399 138.096C60.223 138.096 59.367 137.144 59.367 135.8C59.367 134.456 60.239 133.504 61.391 133.504C62.087 133.504 62.615 133.848 62.943 134.352V131.84ZM61.591 137.232C62.359 137.232 62.943 136.648 62.943 135.8C62.943 134.96 62.359 134.368 61.591 134.368C60.823 134.368 60.279 134.96 60.279 135.8C60.279 136.648 60.831 137.232 61.591 137.232ZM72.4911 138H71.4111L70.3471 136.424L69.3231 138H68.2351L69.8111 135.736L68.3231 133.6H69.4031L70.3791 135.072L71.3231 133.6H72.4111L70.9231 135.752L72.4911 138ZM79.0262 138.096C77.7222 138.096 76.7462 137.112 76.7462 135.8C76.7462 134.488 77.7222 133.504 79.0342 133.504C80.0742 133.504 80.9942 134.136 81.1942 135.2H80.2582C80.0902 134.648 79.6022 134.344 79.0342 134.344C78.2182 134.344 77.6582 134.952 77.6582 135.8C77.6582 136.656 78.2342 137.256 79.0262 137.256C79.6022 137.256 80.0902 136.936 80.2582 136.392H81.1942C80.9862 137.48 80.0582 138.096 79.0262 138.096ZM84.791 133.504C86.207 133.504 87.103 134.6 87.015 136.048H83.439C83.511 136.856 84.079 137.304 84.815 137.304C85.343 137.304 85.783 137.08 85.991 136.648H86.927C86.583 137.632 85.743 138.096 84.807 138.096C83.471 138.096 82.519 137.136 82.519 135.808C82.519 134.48 83.463 133.504 84.791 133.504ZM84.791 134.288C84.103 134.288 83.639 134.72 83.487 135.312H86.047C85.911 134.712 85.455 134.288 84.791 134.288ZM90.9054 133.504C91.0174 133.504 91.1054 133.512 91.1694 133.528V134.448C91.0894 134.44 91.0174 134.432 90.8974 134.432C90.0734 134.432 89.4414 134.896 89.4414 135.984V138H88.5374V133.6H89.4414V134.472C89.7054 133.856 90.2094 133.504 90.9054 133.504ZM94.9049 133.504C95.8969 133.504 96.4889 134.152 96.4889 135.224V138H95.5849V135.408C95.5849 134.728 95.2889 134.368 94.6249 134.368C93.8489 134.368 93.4329 134.872 93.4329 135.72V138H92.5289V133.6H93.4329V134.328C93.7449 133.816 94.2169 133.504 94.9049 133.504ZM100.914 135.176V136.04H98.2735V135.176H100.914ZM104.867 133.504C106.131 133.504 107.147 134.472 107.147 135.8C107.147 137.12 106.147 138.096 104.867 138.096C103.595 138.096 102.587 137.112 102.587 135.8C102.587 134.472 103.611 133.504 104.867 133.504ZM104.867 134.368C104.107 134.368 103.499 134.952 103.499 135.8C103.499 136.648 104.099 137.232 104.867 137.232C105.635 137.232 106.235 136.648 106.235 135.8C106.235 134.952 105.627 134.368 104.867 134.368ZM111.107 133.504C112.091 133.504 112.691 134.152 112.691 135.224V138H111.787V135.408C111.787 134.728 111.483 134.368 110.819 134.368C110.051 134.368 109.635 134.872 109.635 135.72V138H108.731V131.84H109.635V134.32C109.947 133.808 110.427 133.504 111.107 133.504ZM114.347 138V131.84H115.259V138H114.347ZM119.7 135.176V136.04H117.06V135.176H119.7ZM123.701 134.272C124.725 134.272 125.589 134.96 125.589 136.12C125.589 137.312 124.685 138.096 123.501 138.096C122.429 138.096 121.445 137.496 121.317 136.28H122.229C122.357 136.92 122.877 137.24 123.493 137.24C124.197 137.24 124.669 136.752 124.669 136.112C124.669 135.448 124.181 135.024 123.509 135.024C122.949 135.024 122.581 135.28 122.373 135.616H121.509L122.197 132.4H125.325V133.264H122.877L122.589 134.624C122.869 134.408 123.221 134.272 123.701 134.272ZM130.047 133.6H131.007L129.423 138H128.327L126.743 133.6H127.703L128.871 137.056L130.047 133.6ZM133.648 137.136H136.416V138H132.168V137.352L133.792 135.928C135.048 134.832 135.368 134.552 135.368 134.056C135.368 133.568 134.992 133.168 134.304 133.168C133.624 133.168 133.248 133.56 133.128 134.2H132.216C132.344 133.032 133.184 132.304 134.344 132.304C135.536 132.304 136.28 133.072 136.28 134.016C136.28 134.864 135.688 135.368 134.544 136.368L133.664 137.128L133.648 137.136Z" fill="white"/>
</svg>
