<svg width="138" height="141" viewBox="0 0 138 141" fill="none" xmlns="http://www.w3.org/2000/svg">
<path d="M6 12.5588L12.264 7.75882L12.264 5.16682L6 5.16682L6 2.45482L22.8 2.45482L22.8 9.39082C22.8 13.0388 20.64 15.1028 17.472 15.1028C14.712 15.1028 12.912 13.5428 12.408 10.8788L6 15.8948L6 12.5588ZM20.208 5.16682L14.664 5.16682L14.664 9.10282C14.664 11.3348 15.816 12.3668 17.448 12.3668C19.08 12.3668 20.208 11.3108 20.208 9.10282L20.208 5.16682ZM20.208 38.2113L20.208 29.9553L15.864 29.9553L15.864 37.6113L13.272 37.6113L13.272 29.9553L8.592 29.9553L8.592 38.2113L6 38.2113L6 27.2433L22.8 27.2433L22.8 38.2113L20.208 38.2113ZM22.8 62.5251L22.8 65.7171L6 65.7171L6 63.0051L19.128 63.0051L11.304 57.8211L11.304 57.5571L19.128 52.3971L6 52.3971L6 49.6851L22.8 49.6851L22.8 52.8771L15.552 57.7011L22.8 62.5251ZM20.208 89.2647L20.208 81.0087L15.864 81.0087L15.864 88.6647L13.272 88.6647L13.272 81.0087L8.592 81.0087L8.592 89.2647L6 89.2647L6 78.2967L22.8 78.2967L22.8 89.2647L20.208 89.2647ZM22.8 106.739C22.8 111.635 19.272 115.331 14.4 115.331C9.552 115.331 6 111.611 6 106.739L6 100.859L22.8 100.859L22.8 106.739ZM8.592 106.763C8.592 110.147 10.968 112.619 14.4 112.619C17.808 112.619 20.208 110.147 20.208 106.763L20.208 103.571L8.592 103.571L8.592 106.763ZM22.8 139.396L11.784 133.348L6 133.324L6 130.612L11.736 130.612L22.8 124.54L22.8 127.612L14.784 131.98L22.8 136.348L22.8 139.396Z" fill="white"/>
<rect x="56.5" y="26.4868" width="48" height="48" rx="8" fill="white"/>
<path fill-rule="evenodd" clip-rule="evenodd" d="M112.5 90.4868C116.918 90.4868 120.5 86.9051 120.5 82.4868L120.5 50.4868C120.5 46.0685 116.918 42.4868 112.5 42.4868L109 42.4868L109 68C109 73.5228 104.523 78 99 78L72.5 78L72.5 82.4868C72.5 86.9051 76.0817 90.4868 80.5 90.4868L112.5 90.4868Z" fill="white"/>
<path d="M41.976 121.991C43.128 121.991 44 122.943 44 124.287C44 125.631 43.144 126.583 41.968 126.583C41.28 126.583 40.752 126.247 40.432 125.751V126.487H39.528V120.327H40.432V122.839C40.752 122.335 41.28 121.991 41.976 121.991ZM41.776 125.719C42.536 125.719 43.088 125.135 43.088 124.287C43.088 123.447 42.544 122.855 41.776 122.855C41.008 122.855 40.424 123.447 40.424 124.287C40.424 125.135 41.008 125.719 41.776 125.719ZM48.9748 122.087H49.8788V126.487H48.9748V125.751C48.6548 126.255 48.1268 126.583 47.4388 126.583C46.2628 126.583 45.4068 125.631 45.4068 124.287C45.4068 122.943 46.2788 121.991 47.4308 121.991C48.1268 121.991 48.6548 122.335 48.9748 122.839V122.087ZM47.6308 125.719C48.3988 125.719 48.9828 125.135 48.9828 124.287C48.9828 123.447 48.3988 122.855 47.6308 122.855C46.8628 122.855 46.3188 123.447 46.3188 124.287C46.3188 125.135 46.8708 125.719 47.6308 125.719ZM53.5176 126.583C52.3576 126.583 51.5256 126.023 51.3576 125.071H52.2776C52.4136 125.559 52.7736 125.783 53.5336 125.783C54.1176 125.783 54.4776 125.607 54.4776 125.279C54.4776 124.911 54.0616 124.855 53.3256 124.679C52.0936 124.375 51.5736 124.127 51.5736 123.391C51.5736 122.503 52.3256 121.991 53.4296 121.991C54.5576 121.991 55.1896 122.527 55.3496 123.327H54.4376C54.3096 122.967 53.9736 122.791 53.4136 122.791C52.8296 122.791 52.4856 122.991 52.4856 123.295C52.4856 123.575 52.7576 123.647 53.5256 123.831C54.7176 124.111 55.4056 124.319 55.4056 125.175C55.4056 126.119 54.5576 126.583 53.5176 126.583ZM60.0695 125.527L60.2295 126.263C59.9895 126.407 59.4775 126.583 58.9735 126.583C58.0695 126.583 57.3655 126.015 57.3655 124.799V122.935H56.5495V122.087H57.3655V121.087L58.2695 120.887V122.087H60.0775V122.935H58.2695V124.751C58.2695 125.391 58.5655 125.743 59.1335 125.743C59.4135 125.743 59.7255 125.647 60.0695 125.527ZM64.9104 122.087H65.8144V126.487H64.9104V125.751C64.5904 126.255 64.0624 126.583 63.3744 126.583C62.1984 126.583 61.3424 125.631 61.3424 124.287C61.3424 122.943 62.2144 121.991 63.3664 121.991C64.0624 121.991 64.5904 122.335 64.9104 122.839V122.087ZM63.5664 125.719C64.3344 125.719 64.9184 125.135 64.9184 124.287C64.9184 123.447 64.3344 122.855 63.5664 122.855C62.7984 122.855 62.2544 123.447 62.2544 124.287C62.2544 125.135 62.8064 125.719 63.5664 125.719ZM69.8773 121.991C69.9893 121.991 70.0773 121.999 70.1413 122.015V122.935C70.0613 122.927 69.9893 122.919 69.8693 122.919C69.0453 122.919 68.4133 123.383 68.4133 124.471V126.487H67.5093V122.087H68.4133V122.959C68.6773 122.343 69.1813 121.991 69.8773 121.991ZM74.9027 120.327H75.8067V126.487H74.9027V125.751C74.5747 126.247 74.0467 126.583 73.3587 126.583C72.1827 126.583 71.3267 125.631 71.3267 124.287C71.3267 122.943 72.1987 121.991 73.3507 121.991C74.0467 121.991 74.5747 122.335 74.9027 122.839V120.327ZM73.5507 125.719C74.3187 125.719 74.9027 125.135 74.9027 124.287C74.9027 123.447 74.3187 122.855 73.5507 122.855C72.7827 122.855 72.2387 123.447 72.2387 124.287C72.2387 125.135 72.7907 125.719 73.5507 125.719ZM81.6764 126.487H80.5084L78.4364 124.455V126.487H77.5324V120.327H78.4364V123.991L80.3404 122.087H81.5004L79.3484 124.175L81.6764 126.487ZM85.4866 121.991C86.6386 121.991 87.5106 122.943 87.5106 124.287C87.5106 125.631 86.6546 126.583 85.4786 126.583C84.7906 126.583 84.2626 126.247 83.9426 125.751V126.487H83.0386V120.327H83.9426V122.839C84.2626 122.335 84.7906 121.991 85.4866 121.991ZM85.2866 125.719C86.0466 125.719 86.5986 125.135 86.5986 124.287C86.5986 123.447 86.0546 122.855 85.2866 122.855C84.5186 122.855 83.9346 123.447 83.9346 124.287C83.9346 125.135 84.5186 125.719 85.2866 125.719ZM96.0199 126.487H94.9399L93.8759 124.911L92.8519 126.487H91.7639L93.3399 124.223L91.8519 122.087H92.9319L93.9079 123.559L94.8519 122.087H95.9399L94.4519 124.239L96.0199 126.487ZM102.867 121.991C104.019 121.991 104.891 122.943 104.891 124.287C104.891 125.631 104.035 126.583 102.859 126.583C102.171 126.583 101.643 126.247 101.323 125.751V126.487H100.419V120.327H101.323V122.839C101.643 122.335 102.171 121.991 102.867 121.991ZM102.667 125.719C103.427 125.719 103.979 125.135 103.979 124.287C103.979 123.447 103.435 122.855 102.667 122.855C101.899 122.855 101.315 123.447 101.315 124.287C101.315 125.135 101.899 125.719 102.667 125.719ZM111.562 121.991C112.49 121.991 113.05 122.615 113.05 123.663V126.487H112.146V123.855C112.146 123.199 111.882 122.855 111.274 122.855C110.562 122.855 110.194 123.407 110.194 124.207L110.202 126.487H109.29V123.855C109.29 123.199 109.026 122.855 108.418 122.855C107.706 122.855 107.346 123.407 107.346 124.207V126.487H106.442V122.087H107.346V122.791C107.65 122.287 108.082 121.991 108.714 121.991C109.386 121.991 109.858 122.319 110.074 122.911C110.37 122.343 110.866 121.991 111.562 121.991ZM116.843 121.991C118.107 121.991 119.123 122.959 119.123 124.287C119.123 125.607 118.123 126.583 116.843 126.583C115.571 126.583 114.563 125.599 114.563 124.287C114.563 122.959 115.587 121.991 116.843 121.991ZM116.843 122.855C116.083 122.855 115.475 123.439 115.475 124.287C115.475 125.135 116.075 125.719 116.843 125.719C117.611 125.719 118.211 125.135 118.211 124.287C118.211 123.439 117.603 122.855 116.843 122.855ZM120.675 126.487V120.327H121.587V126.487H120.675ZM125.636 121.991C126.628 121.991 127.22 122.639 127.22 123.711V126.487H126.316V123.895C126.316 123.215 126.02 122.855 125.356 122.855C124.58 122.855 124.164 123.359 124.164 124.207V126.487H123.26V122.087H124.164V122.815C124.476 122.303 124.948 121.991 125.636 121.991ZM132.301 122.087H133.205V126.487H132.301V125.751C131.981 126.255 131.453 126.583 130.765 126.583C129.589 126.583 128.733 125.631 128.733 124.287C128.733 122.943 129.605 121.991 130.757 121.991C131.453 121.991 131.981 122.335 132.301 122.839V122.087ZM130.957 125.719C131.725 125.719 132.309 125.135 132.309 124.287C132.309 123.447 131.725 122.855 130.957 122.855C130.189 122.855 129.645 123.447 129.645 124.287C129.645 125.135 130.197 125.719 130.957 125.719ZM137.268 121.991C137.38 121.991 137.468 121.999 137.532 122.015V122.935C137.452 122.927 137.38 122.919 137.26 122.919C136.436 122.919 135.804 123.383 135.804 124.471V126.487H134.9V122.087H135.804V122.959C136.068 122.343 136.572 121.991 137.268 121.991Z" fill="white"/>
<path d="M43.712 138.487H42.544L40.472 136.455V138.487H39.568V132.327H40.472V135.991L42.376 134.087H43.536L41.384 136.175L43.712 138.487ZM45.5222 132.103C45.8662 132.103 46.1142 132.335 46.1142 132.655C46.1142 132.983 45.8662 133.223 45.5222 133.223C45.1942 133.223 44.9382 132.983 44.9382 132.655C44.9382 132.335 45.1942 132.103 45.5222 132.103ZM45.0742 138.487V134.087H45.9782V138.487H45.0742ZM49.8034 138.583C48.4994 138.583 47.5234 137.599 47.5234 136.287C47.5234 134.975 48.4994 133.991 49.8114 133.991C50.8514 133.991 51.7714 134.623 51.9714 135.687H51.0354C50.8674 135.135 50.3794 134.831 49.8114 134.831C48.9954 134.831 48.4354 135.439 48.4354 136.287C48.4354 137.143 49.0114 137.743 49.8034 137.743C50.3794 137.743 50.8674 137.423 51.0354 136.879H51.9714C51.7634 137.967 50.8354 138.583 49.8034 138.583ZM56.8642 134.087H57.7682V138.487H56.8642V137.751C56.5442 138.255 56.0162 138.583 55.3282 138.583C54.1522 138.583 53.2962 137.631 53.2962 136.287C53.2962 134.943 54.1682 133.991 55.3202 133.991C56.0162 133.991 56.5442 134.335 56.8642 134.839V134.087ZM55.5202 137.719C56.2882 137.719 56.8722 137.135 56.8722 136.287C56.8722 135.447 56.2882 134.855 55.5202 134.855C54.7522 134.855 54.2082 135.447 54.2082 136.287C54.2082 137.135 54.7602 137.719 55.5202 137.719ZM62.943 132.327H63.847V138.487H62.943V137.751C62.615 138.247 62.087 138.583 61.399 138.583C60.223 138.583 59.367 137.631 59.367 136.287C59.367 134.943 60.239 133.991 61.391 133.991C62.087 133.991 62.615 134.335 62.943 134.839V132.327ZM61.591 137.719C62.359 137.719 62.943 137.135 62.943 136.287C62.943 135.447 62.359 134.855 61.591 134.855C60.823 134.855 60.279 135.447 60.279 136.287C60.279 137.135 60.831 137.719 61.591 137.719ZM72.4911 138.487H71.4111L70.3471 136.911L69.3231 138.487H68.2351L69.8111 136.223L68.3231 134.087H69.4031L70.3791 135.559L71.3231 134.087H72.4111L70.9231 136.239L72.4911 138.487ZM79.0262 138.583C77.7222 138.583 76.7462 137.599 76.7462 136.287C76.7462 134.975 77.7222 133.991 79.0342 133.991C80.0742 133.991 80.9942 134.623 81.1942 135.687H80.2582C80.0902 135.135 79.6022 134.831 79.0342 134.831C78.2182 134.831 77.6582 135.439 77.6582 136.287C77.6582 137.143 78.2342 137.743 79.0262 137.743C79.6022 137.743 80.0902 137.423 80.2582 136.879H81.1942C80.9862 137.967 80.0582 138.583 79.0262 138.583ZM84.791 133.991C86.207 133.991 87.103 135.087 87.015 136.535H83.439C83.511 137.343 84.079 137.791 84.815 137.791C85.343 137.791 85.783 137.567 85.991 137.135H86.927C86.583 138.119 85.743 138.583 84.807 138.583C83.471 138.583 82.519 137.623 82.519 136.295C82.519 134.967 83.463 133.991 84.791 133.991ZM84.791 134.775C84.103 134.775 83.639 135.207 83.487 135.799H86.047C85.911 135.199 85.455 134.775 84.791 134.775ZM90.9054 133.991C91.0174 133.991 91.1054 133.999 91.1694 134.015V134.935C91.0894 134.927 91.0174 134.919 90.8974 134.919C90.0734 134.919 89.4414 135.383 89.4414 136.471V138.487H88.5374V134.087H89.4414V134.959C89.7054 134.343 90.2094 133.991 90.9054 133.991ZM94.9049 133.991C95.8969 133.991 96.4889 134.639 96.4889 135.711V138.487H95.5849V135.895C95.5849 135.215 95.2889 134.855 94.6249 134.855C93.8489 134.855 93.4329 135.359 93.4329 136.207V138.487H92.5289V134.087H93.4329V134.815C93.7449 134.303 94.2169 133.991 94.9049 133.991ZM100.914 135.663V136.527H98.2735V135.663H100.914ZM104.867 133.991C106.131 133.991 107.147 134.959 107.147 136.287C107.147 137.607 106.147 138.583 104.867 138.583C103.595 138.583 102.587 137.599 102.587 136.287C102.587 134.959 103.611 133.991 104.867 133.991ZM104.867 134.855C104.107 134.855 103.499 135.439 103.499 136.287C103.499 137.135 104.099 137.719 104.867 137.719C105.635 137.719 106.235 137.135 106.235 136.287C106.235 135.439 105.627 134.855 104.867 134.855ZM111.107 133.991C112.091 133.991 112.691 134.639 112.691 135.711V138.487H111.787V135.895C111.787 135.215 111.483 134.855 110.819 134.855C110.051 134.855 109.635 135.359 109.635 136.207V138.487H108.731V132.327H109.635V134.807C109.947 134.295 110.427 133.991 111.107 133.991ZM114.347 138.487V132.327H115.259V138.487H114.347ZM119.7 135.663V136.527H117.06V135.663H119.7ZM123.701 134.759C124.725 134.759 125.589 135.447 125.589 136.607C125.589 137.799 124.685 138.583 123.501 138.583C122.429 138.583 121.445 137.983 121.317 136.767H122.229C122.357 137.407 122.877 137.727 123.493 137.727C124.197 137.727 124.669 137.239 124.669 136.599C124.669 135.935 124.181 135.511 123.509 135.511C122.949 135.511 122.581 135.767 122.373 136.103H121.509L122.197 132.887H125.325V133.751H122.877L122.589 135.111C122.869 134.895 123.221 134.759 123.701 134.759ZM130.047 134.087H131.007L129.423 138.487H128.327L126.743 134.087H127.703L128.871 137.543L130.047 134.087ZM133.648 137.623H136.416V138.487H132.168V137.839L133.792 136.415C135.048 135.319 135.368 135.039 135.368 134.543C135.368 134.055 134.992 133.655 134.304 133.655C133.624 133.655 133.248 134.047 133.128 134.687H132.216C132.344 133.519 133.184 132.791 134.344 132.791C135.536 132.791 136.28 133.559 136.28 134.503C136.28 135.351 135.688 135.855 134.544 136.855L133.664 137.615L133.648 137.623Z" fill="white"/>
</svg>
