<svg width="138" height="141" viewBox="0 0 138 141" fill="none" xmlns="http://www.w3.org/2000/svg">
<path d="M6 12.5588L12.264 7.75882L12.264 5.16682L6 5.16682L6 2.45482L22.8 2.45482L22.8 9.39082C22.8 13.0388 20.64 15.1028 17.472 15.1028C14.712 15.1028 12.912 13.5428 12.408 10.8788L6 15.8948L6 12.5588ZM20.208 5.16682L14.664 5.16682L14.664 9.10282C14.664 11.3348 15.816 12.3668 17.448 12.3668C19.08 12.3668 20.208 11.3108 20.208 9.10282L20.208 5.16682ZM20.208 38.2113L20.208 29.9553L15.864 29.9553L15.864 37.6113L13.272 37.6113L13.272 29.9553L8.592 29.9553L8.592 38.2113L6 38.2113L6 27.2433L22.8 27.2433L22.8 38.2113L20.208 38.2113ZM22.8 62.5251L22.8 65.7171L6 65.7171L6 63.0051L19.128 63.0051L11.304 57.8211L11.304 57.5571L19.128 52.3971L6 52.3971L6 49.6851L22.8 49.6851L22.8 52.8771L15.552 57.7011L22.8 62.5251ZM20.208 89.2647L20.208 81.0087L15.864 81.0087L15.864 88.6647L13.272 88.6647L13.272 81.0087L8.592 81.0087L8.592 89.2647L6 89.2647L6 78.2967L22.8 78.2967L22.8 89.2647L20.208 89.2647ZM22.8 106.739C22.8 111.635 19.272 115.331 14.4 115.331C9.552 115.331 6 111.611 6 106.739L6 100.859L22.8 100.859L22.8 106.739ZM8.592 106.763C8.592 110.147 10.968 112.619 14.4 112.619C17.808 112.619 20.208 110.147 20.208 106.763L20.208 103.571L8.592 103.571L8.592 106.763ZM22.8 139.396L11.784 133.348L6 133.324L6 130.612L11.736 130.612L22.8 124.54L22.8 127.612L14.784 131.98L22.8 136.348L22.8 139.396Z" fill="white"/>
<rect x="56.5" y="26.4868" width="48" height="48" rx="8" fill="white"/>
<path fill-rule="evenodd" clip-rule="evenodd" d="M112.5 90.4868C116.918 90.4868 120.5 86.9051 120.5 82.4868L120.5 50.4868C120.5 46.0685 116.918 42.4868 112.5 42.4868L109 42.4868L109 68C109 73.5228 104.523 78 99 78L72.5 78L72.5 82.4868C72.5 86.9051 76.0817 90.4868 80.5 90.4868L112.5 90.4868Z" fill="white"/>
<path d="M42.2529 121.991C43.4049 121.991 44.2769 122.943 44.2769 124.287C44.2769 125.631 43.4209 126.583 42.2449 126.583C41.5569 126.583 41.0289 126.247 40.7089 125.751V126.487H39.8049V120.327H40.7089V122.839C41.0289 122.335 41.5569 121.991 42.2529 121.991ZM42.0529 125.719C42.8129 125.719 43.3649 125.135 43.3649 124.287C43.3649 123.447 42.8209 122.855 42.0529 122.855C41.2849 122.855 40.7009 123.447 40.7009 124.287C40.7009 125.135 41.2849 125.719 42.0529 125.719ZM49.2517 122.087H50.1557V126.487H49.2517V125.751C48.9317 126.255 48.4037 126.583 47.7157 126.583C46.5397 126.583 45.6837 125.631 45.6837 124.287C45.6837 122.943 46.5557 121.991 47.7077 121.991C48.4037 121.991 48.9317 122.335 49.2517 122.839V122.087ZM47.9077 125.719C48.6757 125.719 49.2597 125.135 49.2597 124.287C49.2597 123.447 48.6757 122.855 47.9077 122.855C47.1397 122.855 46.5957 123.447 46.5957 124.287C46.5957 125.135 47.1477 125.719 47.9077 125.719ZM53.7945 126.583C52.6345 126.583 51.8025 126.023 51.6345 125.071H52.5545C52.6905 125.559 53.0505 125.783 53.8105 125.783C54.3945 125.783 54.7545 125.607 54.7545 125.279C54.7545 124.911 54.3385 124.855 53.6025 124.679C52.3705 124.375 51.8505 124.127 51.8505 123.391C51.8505 122.503 52.6025 121.991 53.7065 121.991C54.8345 121.991 55.4665 122.527 55.6265 123.327H54.7145C54.5865 122.967 54.2505 122.791 53.6905 122.791C53.1065 122.791 52.7625 122.991 52.7625 123.295C52.7625 123.575 53.0345 123.647 53.8025 123.831C54.9945 124.111 55.6825 124.319 55.6825 125.175C55.6825 126.119 54.8345 126.583 53.7945 126.583ZM60.3464 125.527L60.5064 126.263C60.2664 126.407 59.7544 126.583 59.2504 126.583C58.3464 126.583 57.6424 126.015 57.6424 124.799V122.935H56.8264V122.087H57.6424V121.087L58.5464 120.887V122.087H60.3544V122.935H58.5464V124.751C58.5464 125.391 58.8424 125.743 59.4104 125.743C59.6904 125.743 60.0024 125.647 60.3464 125.527ZM65.1873 122.087H66.0913V126.487H65.1873V125.751C64.8673 126.255 64.3393 126.583 63.6513 126.583C62.4753 126.583 61.6193 125.631 61.6193 124.287C61.6193 122.943 62.4913 121.991 63.6433 121.991C64.3393 121.991 64.8673 122.335 65.1873 122.839V122.087ZM63.8433 125.719C64.6113 125.719 65.1953 125.135 65.1953 124.287C65.1953 123.447 64.6113 122.855 63.8433 122.855C63.0753 122.855 62.5313 123.447 62.5313 124.287C62.5313 125.135 63.0833 125.719 63.8433 125.719ZM70.1541 121.991C70.2661 121.991 70.3541 121.999 70.4181 122.015V122.935C70.3381 122.927 70.2661 122.919 70.1461 122.919C69.3221 122.919 68.6901 123.383 68.6901 124.471V126.487H67.7861V122.087H68.6901V122.959C68.9541 122.343 69.4581 121.991 70.1541 121.991ZM75.1796 120.327H76.0836V126.487H75.1796V125.751C74.8516 126.247 74.3236 126.583 73.6356 126.583C72.4596 126.583 71.6036 125.631 71.6036 124.287C71.6036 122.943 72.4756 121.991 73.6276 121.991C74.3236 121.991 74.8516 122.335 75.1796 122.839V120.327ZM73.8276 125.719C74.5956 125.719 75.1796 125.135 75.1796 124.287C75.1796 123.447 74.5956 122.855 73.8276 122.855C73.0596 122.855 72.5156 123.447 72.5156 124.287C72.5156 125.135 73.0676 125.719 73.8276 125.719ZM81.9533 126.487H80.7853L78.7133 124.455V126.487H77.8093V120.327H78.7133V123.991L80.6173 122.087H81.7773L79.6253 124.175L81.9533 126.487ZM85.7635 121.991C86.9155 121.991 87.7875 122.943 87.7875 124.287C87.7875 125.631 86.9315 126.583 85.7555 126.583C85.0675 126.583 84.5395 126.247 84.2195 125.751V126.487H83.3155V120.327H84.2195V122.839C84.5395 122.335 85.0675 121.991 85.7635 121.991ZM85.5635 125.719C86.3235 125.719 86.8755 125.135 86.8755 124.287C86.8755 123.447 86.3315 122.855 85.5635 122.855C84.7955 122.855 84.2115 123.447 84.2115 124.287C84.2115 125.135 84.7955 125.719 85.5635 125.719ZM96.2968 126.487H95.2168L94.1528 124.911L93.1288 126.487H92.0408L93.6168 124.223L92.1288 122.087H93.2088L94.1848 123.559L95.1288 122.087H96.2168L94.7288 124.239L96.2968 126.487ZM103.144 121.991C104.296 121.991 105.168 122.943 105.168 124.287C105.168 125.631 104.312 126.583 103.136 126.583C102.448 126.583 101.92 126.247 101.6 125.751V126.487H100.696V120.327H101.6V122.839C101.92 122.335 102.448 121.991 103.144 121.991ZM102.944 125.719C103.704 125.719 104.256 125.135 104.256 124.287C104.256 123.447 103.712 122.855 102.944 122.855C102.176 122.855 101.592 123.447 101.592 124.287C101.592 125.135 102.176 125.719 102.944 125.719ZM111.839 121.991C112.767 121.991 113.327 122.615 113.327 123.663V126.487H112.423V123.855C112.423 123.199 112.159 122.855 111.551 122.855C110.839 122.855 110.471 123.407 110.471 124.207L110.479 126.487H109.567V123.855C109.567 123.199 109.303 122.855 108.695 122.855C107.983 122.855 107.623 123.407 107.623 124.207V126.487H106.719V122.087H107.623V122.791C107.927 122.287 108.359 121.991 108.991 121.991C109.663 121.991 110.135 122.319 110.351 122.911C110.647 122.343 111.143 121.991 111.839 121.991ZM117.12 121.991C118.384 121.991 119.4 122.959 119.4 124.287C119.4 125.607 118.4 126.583 117.12 126.583C115.848 126.583 114.84 125.599 114.84 124.287C114.84 122.959 115.864 121.991 117.12 121.991ZM117.12 122.855C116.36 122.855 115.752 123.439 115.752 124.287C115.752 125.135 116.352 125.719 117.12 125.719C117.888 125.719 118.488 125.135 118.488 124.287C118.488 123.439 117.88 122.855 117.12 122.855ZM120.952 126.487V120.327H121.864V126.487H120.952ZM125.913 121.991C126.905 121.991 127.497 122.639 127.497 123.711V126.487H126.593V123.895C126.593 123.215 126.297 122.855 125.633 122.855C124.857 122.855 124.441 123.359 124.441 124.207V126.487H123.537V122.087H124.441V122.815C124.753 122.303 125.225 121.991 125.913 121.991ZM132.578 122.087H133.482V126.487H132.578V125.751C132.258 126.255 131.73 126.583 131.042 126.583C129.866 126.583 129.01 125.631 129.01 124.287C129.01 122.943 129.882 121.991 131.034 121.991C131.73 121.991 132.258 122.335 132.578 122.839V122.087ZM131.234 125.719C132.002 125.719 132.586 125.135 132.586 124.287C132.586 123.447 132.002 122.855 131.234 122.855C130.466 122.855 129.922 123.447 129.922 124.287C129.922 125.135 130.474 125.719 131.234 125.719ZM137.544 121.991C137.656 121.991 137.744 121.999 137.808 122.015V122.935C137.728 122.927 137.656 122.919 137.536 122.919C136.712 122.919 136.08 123.383 136.08 124.471V126.487H135.176V122.087H136.08V122.959C136.344 122.343 136.848 121.991 137.544 121.991Z" fill="white"/>
<path d="M44.9661 138.487H43.7981L41.7261 136.455V138.487H40.8221V132.327H41.7261V135.991L43.6301 134.087H44.7901L42.6381 136.175L44.9661 138.487ZM46.7763 132.103C47.1203 132.103 47.3683 132.335 47.3683 132.655C47.3683 132.983 47.1203 133.223 46.7763 133.223C46.4483 133.223 46.1923 132.983 46.1923 132.655C46.1923 132.335 46.4483 132.103 46.7763 132.103ZM46.3283 138.487V134.087H47.2323V138.487H46.3283ZM51.0574 138.583C49.7534 138.583 48.7774 137.599 48.7774 136.287C48.7774 134.975 49.7534 133.991 51.0654 133.991C52.1054 133.991 53.0254 134.623 53.2254 135.687H52.2894C52.1214 135.135 51.6334 134.831 51.0654 134.831C50.2494 134.831 49.6894 135.439 49.6894 136.287C49.6894 137.143 50.2654 137.743 51.0574 137.743C51.6334 137.743 52.1214 137.423 52.2894 136.879H53.2254C53.0174 137.967 52.0894 138.583 51.0574 138.583ZM58.1183 134.087H59.0223V138.487H58.1183V137.751C57.7983 138.255 57.2703 138.583 56.5823 138.583C55.4063 138.583 54.5503 137.631 54.5503 136.287C54.5503 134.943 55.4223 133.991 56.5743 133.991C57.2703 133.991 57.7983 134.335 58.1183 134.839V134.087ZM56.7743 137.719C57.5423 137.719 58.1263 137.135 58.1263 136.287C58.1263 135.447 57.5423 134.855 56.7743 134.855C56.0063 134.855 55.4623 135.447 55.4623 136.287C55.4623 137.135 56.0143 137.719 56.7743 137.719ZM64.1971 132.327H65.1011V138.487H64.1971V137.751C63.8691 138.247 63.3411 138.583 62.6531 138.583C61.4771 138.583 60.6211 137.631 60.6211 136.287C60.6211 134.943 61.4931 133.991 62.6451 133.991C63.3411 133.991 63.8691 134.335 64.1971 134.839V132.327ZM62.8451 137.719C63.6131 137.719 64.1971 137.135 64.1971 136.287C64.1971 135.447 63.6131 134.855 62.8451 134.855C62.0771 134.855 61.5331 135.447 61.5331 136.287C61.5331 137.135 62.0851 137.719 62.8451 137.719ZM73.7452 138.487H72.6652L71.6012 136.911L70.5772 138.487H69.4892L71.0652 136.223L69.5772 134.087H70.6572L71.6332 135.559L72.5772 134.087H73.6652L72.1772 136.239L73.7452 138.487ZM80.2803 138.583C78.9763 138.583 78.0003 137.599 78.0003 136.287C78.0003 134.975 78.9763 133.991 80.2883 133.991C81.3283 133.991 82.2483 134.623 82.4483 135.687H81.5123C81.3443 135.135 80.8563 134.831 80.2883 134.831C79.4723 134.831 78.9123 135.439 78.9123 136.287C78.9123 137.143 79.4883 137.743 80.2803 137.743C80.8563 137.743 81.3443 137.423 81.5123 136.879H82.4483C82.2403 137.967 81.3123 138.583 80.2803 138.583ZM86.0451 133.991C87.4611 133.991 88.3571 135.087 88.2691 136.535H84.6931C84.7651 137.343 85.3331 137.791 86.0691 137.791C86.5971 137.791 87.0371 137.567 87.2451 137.135H88.1811C87.8371 138.119 86.9971 138.583 86.0611 138.583C84.7251 138.583 83.7731 137.623 83.7731 136.295C83.7731 134.967 84.7171 133.991 86.0451 133.991ZM86.0451 134.775C85.3571 134.775 84.8931 135.207 84.7411 135.799H87.3011C87.1651 135.199 86.7091 134.775 86.0451 134.775ZM92.1594 133.991C92.2714 133.991 92.3594 133.999 92.4234 134.015V134.935C92.3434 134.927 92.2714 134.919 92.1514 134.919C91.3274 134.919 90.6954 135.383 90.6954 136.471V138.487H89.7914V134.087H90.6954V134.959C90.9594 134.343 91.4634 133.991 92.1594 133.991ZM96.159 133.991C97.151 133.991 97.743 134.639 97.743 135.711V138.487H96.839V135.895C96.839 135.215 96.543 134.855 95.879 134.855C95.103 134.855 94.687 135.359 94.687 136.207V138.487H93.783V134.087H94.687V134.815C94.999 134.303 95.471 133.991 96.159 133.991ZM102.168 135.663V136.527H99.5276V135.663H102.168ZM106.121 133.991C107.385 133.991 108.401 134.959 108.401 136.287C108.401 137.607 107.401 138.583 106.121 138.583C104.849 138.583 103.841 137.599 103.841 136.287C103.841 134.959 104.865 133.991 106.121 133.991ZM106.121 134.855C105.361 134.855 104.753 135.439 104.753 136.287C104.753 137.135 105.353 137.719 106.121 137.719C106.889 137.719 107.489 137.135 107.489 136.287C107.489 135.439 106.881 134.855 106.121 134.855ZM112.361 133.991C113.345 133.991 113.945 134.639 113.945 135.711V138.487H113.041V135.895C113.041 135.215 112.737 134.855 112.073 134.855C111.305 134.855 110.889 135.359 110.889 136.207V138.487H109.985V132.327H110.889V134.807C111.201 134.295 111.681 133.991 112.361 133.991ZM115.601 138.487V132.327H116.513V138.487H115.601ZM120.954 135.663V136.527H118.314V135.663H120.954ZM124.955 134.759C125.979 134.759 126.843 135.447 126.843 136.607C126.843 137.799 125.939 138.583 124.755 138.583C123.683 138.583 122.699 137.983 122.571 136.767H123.483C123.611 137.407 124.131 137.727 124.747 137.727C125.451 137.727 125.923 137.239 125.923 136.599C125.923 135.935 125.435 135.511 124.763 135.511C124.203 135.511 123.835 135.767 123.627 136.103H122.763L123.451 132.887H126.579V133.751H124.131L123.843 135.111C124.123 134.895 124.475 134.759 124.955 134.759ZM131.301 134.087H132.261L130.677 138.487H129.581L127.997 134.087H128.957L130.125 137.543L131.301 134.087ZM134.902 137.623H137.67V138.487H133.422V137.839L135.046 136.415C136.302 135.319 136.622 135.039 136.622 134.543C136.622 134.055 136.246 133.655 135.558 133.655C134.878 133.655 134.502 134.047 134.382 134.687H133.47C133.598 133.519 134.438 132.791 135.598 132.791C136.79 132.791 137.534 133.559 137.534 134.503C137.534 135.351 136.942 135.855 135.798 136.855L134.918 137.615L134.902 137.623Z" fill="white"/>
</svg>
